<svg width="300" height="207" viewBox="0 0 300 207" fill="none" xmlns="http://www.w3.org/2000/svg">
<g clip-path="url(#clip0_26_589)">
<path d="M262.244 43.4651H262.202L237.94 53.8251L204.744 68C204.614 68.0546 204.475 68.083 204.334 68.0837C204.194 68.0844 204.054 68.0574 203.924 68.0042L169.676 53.7956L144.817 43.482L144.78 43.4651H144.737C144.345 43.4655 143.969 43.6215 143.692 43.8989C143.414 44.1762 143.258 44.5523 143.258 44.9445V109.193C143.258 109.585 143.414 109.961 143.692 110.239C143.969 110.516 144.345 110.672 144.737 110.672H262.244C262.637 110.672 263.013 110.516 263.29 110.239C263.567 109.961 263.723 109.585 263.724 109.193V44.9445C263.723 44.5523 263.567 44.1762 263.29 43.8989C263.013 43.6215 262.637 43.4655 262.244 43.4651Z" fill="white"/>
<path d="M262.349 43.8878C262.306 43.8879 262.264 43.8746 262.229 43.85L203.78 3.14441C203.602 3.02112 203.391 2.95522 203.174 2.95559C202.958 2.95596 202.746 3.02257 202.569 3.14648L144.541 43.8495C144.495 43.8815 144.438 43.8939 144.383 43.8842C144.328 43.8744 144.279 43.8432 144.247 43.7974C144.215 43.7516 144.203 43.695 144.212 43.6399C144.222 43.5848 144.253 43.5357 144.298 43.5034L202.326 2.80037C202.575 2.62694 202.87 2.5337 203.173 2.53321C203.476 2.53271 203.772 2.62497 204.021 2.79759L262.47 43.503C262.507 43.5287 262.535 43.5656 262.549 43.6082C262.564 43.6508 262.565 43.6969 262.551 43.7398C262.538 43.7828 262.511 43.8203 262.474 43.8469C262.438 43.8735 262.394 43.8878 262.349 43.8878Z" fill="#3F3D56"/>
<path d="M147.857 45.3309L203.231 4.2915L259.026 48.2509L206.084 79.6353L177.342 73.0839L147.857 45.3309Z" fill="#E6E6E6"/>
<path d="M179.768 99.0203H152.412C152.073 99.0208 151.748 98.8866 151.508 98.6472C151.267 98.4079 151.132 98.083 151.132 97.7441C151.131 97.4051 151.266 97.0798 151.505 96.8398C151.744 96.5997 152.069 96.4646 152.408 96.4641H179.768C180.107 96.4636 180.432 96.5978 180.672 96.8371C180.913 97.0764 181.048 97.4013 181.048 97.7403C181.049 98.0793 180.914 98.4045 180.675 98.6446C180.436 98.8846 180.111 99.0198 179.772 99.0203H179.768Z" fill="#FA5246"/>
<path d="M162.227 93.5254H152.412C152.073 93.5257 151.748 93.3914 151.508 93.1521C151.268 92.9128 151.133 92.588 151.133 92.2492C151.132 91.9104 151.266 91.5852 151.506 91.3452C151.745 91.1052 152.069 90.97 152.408 90.9692H162.227C162.395 90.9689 162.561 91.0016 162.716 91.0656C162.872 91.1295 163.013 91.2234 163.132 91.3419C163.251 91.4604 163.345 91.6012 163.41 91.7563C163.474 91.9113 163.507 92.0775 163.508 92.2454C163.508 92.4133 163.475 92.5796 163.411 92.7349C163.347 92.8901 163.253 93.0311 163.134 93.15C163.016 93.2689 162.875 93.3632 162.72 93.4276C162.565 93.492 162.398 93.5253 162.231 93.5254H162.227Z" fill="#FA5246"/>
<path d="M204.01 68.189C203.803 68.1892 203.597 68.1489 203.404 68.0702L169.253 53.8999V9.54434C169.253 9.15212 169.409 8.7761 169.687 8.49876C169.964 8.22141 170.34 8.0654 170.732 8.06494H236.249C236.641 8.0654 237.017 8.22141 237.294 8.49876C237.572 8.7761 237.728 9.15212 237.728 9.54434V53.9308L237.664 53.9583L204.635 68.0633C204.437 68.1464 204.225 68.1892 204.01 68.189Z" fill="white"/>
<path d="M204.01 68.2945C203.789 68.2948 203.569 68.2518 203.364 68.168L169.147 53.9704V9.5443C169.147 9.12406 169.315 8.72117 169.612 8.42401C169.909 8.12685 170.312 7.9597 170.732 7.95923H236.249C236.669 7.9597 237.072 8.12685 237.369 8.42401C237.666 8.72117 237.833 9.12406 237.834 9.5443V54.0006L204.676 68.1604C204.466 68.2491 204.239 68.2948 204.01 68.2945ZM169.57 53.6881L203.525 67.7772C203.841 67.9057 204.196 67.9036 204.511 67.7714L237.411 53.7215V9.5443C237.411 9.23613 237.288 8.94069 237.07 8.72278C236.852 8.50488 236.557 8.3823 236.249 8.38193H170.732C170.424 8.3823 170.128 8.50488 169.911 8.72278C169.693 8.94069 169.57 9.23613 169.57 9.5443L169.57 53.6881Z" fill="#3F3D56"/>
<path d="M261.927 43.4651H261.885L237.622 53.8251L204.427 68C204.297 68.0546 204.158 68.083 204.017 68.0837C203.876 68.0844 203.737 68.0574 203.607 68.0042L169.358 53.7956L144.5 43.482L144.462 43.4651H144.42C144.028 43.4655 143.652 43.6215 143.374 43.8989C143.097 44.1762 142.941 44.5523 142.94 44.9445V109.193C142.941 109.585 143.097 109.961 143.374 110.239C143.652 110.516 144.028 110.672 144.42 110.672H261.927C262.319 110.672 262.695 110.516 262.973 110.239C263.25 109.961 263.406 109.585 263.406 109.193V44.9445C263.406 44.5523 263.25 44.1762 262.973 43.8989C262.695 43.6215 262.319 43.4655 261.927 43.4651ZM262.984 109.193C262.984 109.473 262.872 109.742 262.674 109.94C262.476 110.138 262.207 110.25 261.927 110.25H144.42C144.14 110.25 143.871 110.138 143.673 109.94C143.475 109.742 143.363 109.473 143.363 109.193V44.9445C143.364 44.6712 143.469 44.4087 143.659 44.2117C143.848 44.0148 144.107 43.8987 144.38 43.8878L169.358 54.2521L203.444 68.3952C203.813 68.5453 204.226 68.543 204.594 68.3888L237.622 54.2838L261.969 43.8878C262.242 43.8995 262.499 44.016 262.688 44.2128C262.877 44.4096 262.983 44.6717 262.984 44.9445V109.193Z" fill="#3F3D56"/>
<path d="M198.693 24.6452H175.446C174.998 24.6445 174.568 24.4661 174.252 24.1491C173.935 23.8321 173.757 23.4024 173.757 22.9544C173.757 22.5064 173.935 22.0767 174.252 21.7597C174.568 21.4427 174.998 21.2643 175.446 21.2637H198.693C199.141 21.2643 199.571 21.4427 199.887 21.7597C200.204 22.0767 200.382 22.5064 200.382 22.9544C200.382 23.4024 200.204 23.8321 199.887 24.1491C199.571 24.4661 199.141 24.6445 198.693 24.6452Z" fill="#FA5246"/>
<path d="M186.647 17.4596H175.446C174.997 17.4596 174.567 17.2815 174.25 16.9644C173.933 16.6473 173.755 16.2173 173.755 15.7689C173.755 15.3205 173.933 14.8904 174.25 14.5733C174.567 14.2563 174.997 14.0781 175.446 14.0781H186.647C187.095 14.0781 187.525 14.2563 187.842 14.5733C188.159 14.8904 188.338 15.3205 188.338 15.7689C188.338 16.2173 188.159 16.6473 187.842 16.9644C187.525 17.2815 187.095 17.4596 186.647 17.4596Z" fill="#FA5246"/>
<path d="M220.878 41.5526H185.372C184.924 41.552 184.495 41.3736 184.178 41.0566C183.862 40.7396 183.684 40.3099 183.684 39.8619C183.684 39.4139 183.862 38.9842 184.178 38.6672C184.495 38.3502 184.924 38.1718 185.372 38.1711H220.878C221.326 38.1718 221.756 38.3502 222.072 38.6672C222.389 38.9842 222.567 39.4139 222.567 39.8619C222.567 40.3099 222.389 40.7396 222.072 41.0566C221.756 41.3736 221.326 41.552 220.878 41.5526Z" fill="#CCCCCC"/>
<path d="M220.878 49.3725H185.372C184.924 49.3725 184.494 49.1943 184.177 48.8773C183.86 48.5602 183.682 48.1301 183.682 47.6817C183.682 47.2333 183.86 46.8033 184.177 46.4862C184.494 46.1691 184.924 45.991 185.372 45.991H220.878C221.327 45.991 221.757 46.1691 222.074 46.4862C222.391 46.8033 222.569 47.2333 222.569 47.6817C222.569 48.1301 222.391 48.5602 222.074 48.8773C221.757 49.1943 221.327 49.3725 220.878 49.3725Z" fill="#CCCCCC"/>
<path d="M261.272 60.1546C270.151 60.1546 277.348 52.9568 277.348 44.0778C277.348 35.1988 270.151 28.001 261.272 28.001C252.393 28.001 245.195 35.1988 245.195 44.0778C245.195 52.9568 252.393 60.1546 261.272 60.1546Z" fill="#FA5246"/>
<path d="M259.74 50.8644L254.928 44.6772L257.726 42.5007L260.005 45.4302L267.701 37.3052L270.275 39.7436L259.74 50.8644Z" fill="white"/>
<path d="M81.3713 139.095C81.0909 138.683 80.9043 138.213 80.8248 137.721C80.7454 137.228 80.7748 136.724 80.9112 136.245C81.0475 135.765 81.2874 135.32 81.614 134.943C81.9406 134.566 82.3459 134.265 82.8014 134.061L81.7559 121.979L87.2966 124.982L87.44 135.995C87.7313 136.783 87.7234 137.651 87.418 138.433C87.1125 139.216 86.5306 139.859 85.7825 140.241C85.0345 140.623 84.1723 140.717 83.3592 140.506C82.5462 140.295 81.8389 139.793 81.3713 139.095Z" fill="#9F616A"/>
<path d="M82.4212 131.452L82.3762 131.338L76.2634 115.895L75.2935 86.6226L75.4564 86.611C76.65 86.5257 77.8487 86.6798 78.982 87.0643C80.1152 87.4488 81.1602 88.0558 82.0556 88.8498C82.951 89.6438 83.6787 90.6087 84.196 91.6878C84.7132 92.767 85.0096 93.9386 85.0678 95.1339L85.9643 110.872L88.5057 131.114L82.4212 131.452Z" fill="#E5E5E5"/>
<path d="M43.3726 195.993L46.8865 198.221L57.1517 185.727L51.9653 182.439L43.3726 195.993Z" fill="#9F616A"/>
<path d="M43.2037 194.277L50.1241 198.665C51.2937 199.406 52.1211 200.582 52.4238 201.934C52.7265 203.285 52.48 204.701 51.7385 205.871L51.6476 206.014L40.3169 198.831L43.2037 194.277Z" fill="#2F2E41"/>
<path d="M76.5949 201.981L80.7557 201.981L82.735 185.932L76.5942 185.933L76.5949 201.981Z" fill="#9F616A"/>
<path d="M75.5337 200.623L83.7277 200.623H83.728C85.1129 200.623 86.441 201.173 87.4203 202.152C88.3996 203.131 88.9497 204.459 88.9498 205.844V206.014L75.5339 206.015L75.5337 200.623Z" fill="#2F2E41"/>
<path d="M64.8223 134.739L74.6175 193.656C74.6175 193.656 72.6906 198.473 75.581 199.116C78.4714 199.758 84.8945 198.473 84.8945 198.473C84.8945 198.473 86.8214 193.656 83.931 193.014L78.4714 131.454L64.8223 134.739Z" fill="#2F2E41"/>
<path d="M70.6033 135.79L63.8173 163.338L46.5166 188.459C46.5166 188.459 40.0935 189.102 43.6262 192.634C47.1589 196.167 48.7647 196.488 48.7647 196.488C48.7647 196.488 54.2243 195.846 53.9032 193.277L75.1732 168.24L85.0553 134.826L70.6033 135.79Z" fill="#2F2E41"/>
<path d="M64.6811 138.216L63.0423 128.863C60.5743 126.284 65.2375 119.906 65.7574 119.214L65.4523 115.248C65.1923 115.204 64.9544 115.074 64.776 114.88C63.2451 113.318 63.3479 107.158 63.3531 106.897L61.6636 89.3222L65.867 86.87L76.497 86.5273L81.6883 91.0264L86.6883 136.962L86.51 136.972L64.6811 138.216Z" fill="#E5E5E5"/>
<path d="M68.3601 141.496C67.9317 141.24 67.5645 140.894 67.2845 140.481C67.0045 140.068 66.8184 139.599 66.7393 139.106C66.6603 138.613 66.6902 138.109 66.827 137.63C66.9638 137.15 67.2041 136.706 67.531 136.329L61.4814 125.818L67.772 126.2L72.5524 136.123C73.1491 136.714 73.5082 137.504 73.5617 138.342C73.6152 139.181 73.3593 140.009 72.8426 140.672C72.3258 141.334 71.5841 141.784 70.758 141.935C69.9318 142.087 69.0786 141.931 68.3601 141.496Z" fill="#9F616A"/>
<path d="M63.0028 131.667L57.7843 119.57L56.9122 94.8597C56.8823 94.0478 57.0756 93.2433 57.4709 92.5335C57.8662 91.8237 58.4485 91.2359 59.1544 90.8338L65.1746 87.155L66.4734 113.132L70.3582 128.658L63.0028 131.667Z" fill="#E5E5E5"/>
<path d="M72.3686 84.1837C76.4937 84.1837 79.8378 80.8397 79.8378 76.7145C79.8378 72.5894 76.4937 69.2454 72.3686 69.2454C68.2435 69.2454 64.8994 72.5894 64.8994 76.7145C64.8994 80.8397 68.2435 84.1837 72.3686 84.1837Z" fill="#9F616A"/>
<path d="M75.0695 65.6859C67.5472 63.5167 65.412 69.7513 65.412 69.7513C61.7861 72.1569 64.0562 75.1728 64.0562 75.1728C63.1413 75.376 64.9706 80.73 65.5806 80.5945C65.9061 80.5222 66.743 81.5212 67.4528 82.4686C67.6962 82.4683 67.9391 82.4917 68.178 82.5383L66.8007 77.4433C66.8007 77.4433 71.443 76.7321 72.8663 74.4958C74.228 72.3563 78.7108 71.6808 79.9865 73.1099C80.062 72.699 80.2165 72.3067 80.4415 71.9547C80.6157 71.6873 80.8435 71.4589 81.1104 71.284C79.9825 66.4907 75.0695 65.6859 75.0695 65.6859Z" fill="#2F2E41"/>
<path opacity="0.2" d="M66.5945 103.668L66.1777 118.537L71.3505 129.439L66.5945 103.273" fill="black"/>
<path d="M129.643 206.16H0.339379C0.24937 206.16 0.163047 206.125 0.0994015 206.061C0.0357556 205.997 0 205.911 0 205.821C0 205.731 0.0357556 205.645 0.0994015 205.581C0.163047 205.517 0.24937 205.482 0.339379 205.482H129.643C129.733 205.482 129.819 205.517 129.883 205.581C129.946 205.645 129.982 205.731 129.982 205.821C129.982 205.911 129.946 205.997 129.883 206.061C129.819 206.125 129.733 206.16 129.643 206.16Z" fill="#3F3D56"/>
<path d="M111.77 16.0453C111.66 15.9805 111.534 15.9478 111.407 15.9512C111.279 15.9545 111.155 15.9937 111.049 16.0642C110.943 16.1347 110.859 16.2337 110.806 16.3499C110.754 16.4661 110.735 16.5947 110.752 16.721L111.276 20.5639C111.283 20.6206 111.28 20.6781 111.265 20.7333C111.248 20.7876 111.221 20.838 111.184 20.8812L108.25 24.3577C108.152 24.4696 108.094 24.6112 108.086 24.7598C108.079 24.9084 108.121 25.0552 108.207 25.1768L108.21 25.1813C108.292 25.3042 108.413 25.3961 108.553 25.4423C108.693 25.4886 108.845 25.4865 108.984 25.4365L111.104 24.7172C111.174 24.6939 111.249 24.6902 111.321 24.7065C111.394 24.7227 111.46 24.7583 111.513 24.8094C111.553 24.8464 111.585 24.8912 111.607 24.9411C111.629 24.991 111.64 25.0449 111.64 25.0993L111.723 32.6501C111.724 32.7594 111.751 32.8669 111.803 32.9632C111.854 33.0595 111.929 33.1418 112.019 33.203C112.11 33.264 112.213 33.3024 112.321 33.315C112.43 33.3276 112.539 33.314 112.641 33.2754L128.459 27.2261C128.578 27.1807 128.682 27.1026 128.759 27.0007C128.836 26.8989 128.882 26.7774 128.893 26.6502C128.904 26.5231 128.879 26.3954 128.82 26.282C128.762 26.1686 128.673 26.0739 128.563 26.009L128.347 25.8811L111.77 16.0453ZM111.02 16.6841C111.01 16.6082 111.021 16.531 111.053 16.4614C111.085 16.3917 111.135 16.3323 111.199 16.2901C111.263 16.2479 111.337 16.2245 111.414 16.2225C111.49 16.2206 111.566 16.2403 111.632 16.2793L128.204 26.1121L128.425 26.2429C128.49 26.2821 128.543 26.3389 128.578 26.4068C128.613 26.4748 128.628 26.5512 128.622 26.6272C128.615 26.7033 128.587 26.7761 128.542 26.8372C128.496 26.8983 128.434 26.9453 128.363 26.9729L112.545 33.0222C112.484 33.0454 112.418 33.0536 112.353 33.0459C112.288 33.0383 112.226 33.0151 112.172 32.9782C112.118 32.9414 112.073 32.892 112.042 32.8344C112.011 32.7767 111.995 32.7124 111.994 32.647L111.911 25.0962C111.911 25.0215 111.898 24.9473 111.873 24.877L127.977 26.7273C128.04 26.7351 128.103 26.7208 128.157 26.6867C128.21 26.6526 128.25 26.601 128.269 26.5408C128.288 26.4805 128.286 26.4154 128.262 26.3567C128.239 26.2979 128.195 26.2493 128.14 26.2192C128.126 26.2117 128.112 26.2055 128.097 26.2008L111.549 20.6769C111.553 20.6269 111.551 20.5766 111.544 20.527L111.02 16.6841Z" fill="#F1F1F1"/>
<path d="M111.77 16.0453C111.66 15.9805 111.534 15.9478 111.407 15.9512C111.279 15.9545 111.155 15.9937 111.049 16.0642C110.943 16.1347 110.859 16.2337 110.806 16.3499C110.754 16.4661 110.735 16.5947 110.752 16.721L111.276 20.5639C111.283 20.6206 111.28 20.6781 111.265 20.7333C111.248 20.7876 111.221 20.838 111.184 20.8812L108.25 24.3577C108.152 24.4696 108.094 24.6112 108.086 24.7598C108.079 24.9084 108.121 25.0552 108.207 25.1768L108.21 25.1813C108.292 25.3042 108.413 25.3961 108.553 25.4423C108.693 25.4886 108.845 25.4865 108.984 25.4365L111.104 24.7172C111.174 24.6939 111.249 24.6902 111.321 24.7065C111.394 24.7227 111.46 24.7583 111.513 24.8094C111.553 24.8464 111.585 24.8912 111.607 24.9411C111.629 24.991 111.64 25.0449 111.64 25.0993L111.723 32.6501C111.724 32.7594 111.751 32.8669 111.803 32.9632C111.854 33.0595 111.929 33.1418 112.019 33.203C112.11 33.264 112.213 33.3024 112.321 33.315C112.43 33.3276 112.539 33.314 112.641 33.2754L128.459 27.2261C128.578 27.1807 128.682 27.1026 128.759 27.0007C128.836 26.8989 128.882 26.7774 128.893 26.6502C128.904 26.5231 128.879 26.3954 128.82 26.282C128.762 26.1686 128.673 26.0739 128.563 26.009L128.347 25.8811L111.77 16.0453ZM111.02 16.6841C111.01 16.6082 111.021 16.531 111.053 16.4614C111.085 16.3917 111.135 16.3323 111.199 16.2901C111.263 16.2479 111.337 16.2245 111.414 16.2225C111.49 16.2206 111.566 16.2403 111.632 16.2793L128.204 26.1121L128.425 26.2429C128.49 26.2821 128.543 26.3389 128.578 26.4068C128.613 26.4748 128.628 26.5512 128.622 26.6272C128.615 26.7033 128.587 26.7761 128.542 26.8372C128.496 26.8983 128.434 26.9453 128.363 26.9729L112.545 33.0222C112.484 33.0454 112.418 33.0536 112.353 33.0459C112.288 33.0383 112.226 33.0151 112.172 32.9782C112.118 32.9414 112.073 32.892 112.042 32.8344C112.011 32.7767 111.995 32.7124 111.994 32.647L111.911 25.0962C111.911 25.0215 111.898 24.9473 111.873 24.877C111.838 24.7757 111.778 24.6845 111.7 24.6115C111.689 24.6008 111.677 24.5908 111.665 24.5809L111.664 24.5798C111.576 24.5064 111.469 24.457 111.356 24.4361C111.243 24.4153 111.126 24.4238 111.017 24.4608L108.897 25.1809C108.813 25.2112 108.722 25.2124 108.637 25.1843C108.553 25.1562 108.481 25.1004 108.432 25.026L108.43 25.0238C108.378 24.9511 108.353 24.8629 108.357 24.7736C108.362 24.6844 108.397 24.5994 108.457 24.5327L111.391 21.0563C111.422 21.0199 111.45 20.9801 111.472 20.9376L111.473 20.9368C111.495 20.8961 111.512 20.8533 111.525 20.8089C111.538 20.7659 111.546 20.7216 111.549 20.6769C111.553 20.6269 111.551 20.5766 111.544 20.527L111.02 16.6841Z" fill="#E5E5E5"/>
<path d="M111.549 20.6769L128.097 26.2008C128.112 26.2055 128.126 26.2117 128.14 26.2192C128.196 26.2493 128.239 26.2979 128.263 26.3567C128.286 26.4154 128.289 26.4805 128.269 26.5408C128.25 26.601 128.21 26.6526 128.157 26.6867C128.104 26.7208 128.04 26.7351 127.977 26.7273L111.874 24.877L111.589 24.8446L111.621 24.5756L111.665 24.5798L111.665 24.5808L128.008 26.4572L111.473 20.9368L111.472 20.9376L111.401 20.9129L111.487 20.6558L111.549 20.6769Z" fill="#E5E5E5"/>
<path d="M296.316 0.0944139L279.738 9.93013L279.523 10.058C279.413 10.123 279.324 10.2176 279.265 10.3311C279.207 10.4445 279.182 10.5722 279.192 10.6993C279.203 10.8265 279.25 10.948 279.327 11.0498C279.403 11.1517 279.508 11.2298 279.627 11.2752L295.444 17.3245C295.546 17.3631 295.656 17.3767 295.764 17.3641C295.872 17.3515 295.976 17.313 296.066 17.252C296.157 17.1909 296.231 17.1086 296.283 17.0123C296.335 16.916 296.362 16.8085 296.363 16.6992L296.446 9.1484C296.446 9.09396 296.457 9.0401 296.479 8.9902C296.5 8.9403 296.532 8.89544 296.572 8.85845C296.626 8.80737 296.692 8.7718 296.764 8.75556C296.836 8.73931 296.912 8.74301 296.982 8.76625L299.101 9.48556C299.24 9.53558 299.392 9.53763 299.532 9.49138C299.673 9.44513 299.794 9.35324 299.876 9.23035L299.879 9.22589C299.965 9.10431 300.007 8.95743 299.999 8.80887C299.991 8.66031 299.934 8.51869 299.836 8.40679L296.901 4.93033C296.865 4.88703 296.837 4.83666 296.821 4.78233C296.806 4.72715 296.802 4.66962 296.809 4.61296L297.333 0.770064C297.35 0.643754 297.332 0.515148 297.279 0.398983C297.227 0.282818 297.143 0.183799 297.036 0.113274C296.93 0.0427487 296.806 0.0035688 296.679 0.000232426C296.551 -0.00310394 296.426 0.0295419 296.316 0.0944139ZM297.065 0.733157L296.542 4.57604C296.534 4.62568 296.533 4.67597 296.537 4.72597L279.988 10.2498C279.974 10.2546 279.959 10.2608 279.946 10.2683C279.89 10.2984 279.847 10.347 279.823 10.4057C279.8 10.4644 279.797 10.5295 279.817 10.5898C279.836 10.6501 279.876 10.7017 279.929 10.7358C279.982 10.7698 280.046 10.7842 280.109 10.7763L296.212 8.92605C296.187 8.9964 296.174 9.07057 296.174 9.14529L296.092 16.696C296.091 16.7615 296.074 16.8258 296.043 16.8834C296.012 16.9411 295.968 16.9905 295.914 17.0273C295.86 17.0641 295.797 17.0874 295.732 17.095C295.667 17.1026 295.601 17.0945 295.54 17.0712L279.723 11.022C279.652 10.9944 279.59 10.9474 279.544 10.8862C279.498 10.8251 279.47 10.7524 279.464 10.6763C279.457 10.6002 279.472 10.5238 279.507 10.4559C279.542 10.3879 279.595 10.3311 279.661 10.292L279.882 10.1612L296.454 0.328363C296.52 0.289364 296.595 0.269696 296.672 0.271607C296.748 0.273518 296.823 0.296933 296.887 0.339171C296.95 0.381409 297.001 0.44076 297.033 0.510435C297.064 0.580109 297.076 0.657311 297.065 0.733157Z" fill="#F1F1F1"/>
<path d="M296.316 0.0944139L279.738 9.93013L279.523 10.058C279.413 10.123 279.324 10.2176 279.265 10.3311C279.207 10.4445 279.182 10.5722 279.192 10.6993C279.203 10.8265 279.25 10.948 279.327 11.0498C279.403 11.1517 279.508 11.2298 279.627 11.2752L295.444 17.3245C295.546 17.3631 295.656 17.3767 295.764 17.3641C295.872 17.3515 295.976 17.313 296.066 17.252C296.157 17.1909 296.231 17.1086 296.283 17.0123C296.335 16.916 296.362 16.8085 296.363 16.6992L296.446 9.1484C296.446 9.09396 296.457 9.0401 296.479 8.9902C296.5 8.9403 296.532 8.89544 296.572 8.85845C296.626 8.80737 296.692 8.7718 296.764 8.75556C296.836 8.73931 296.912 8.74301 296.982 8.76625L299.101 9.48556C299.24 9.53558 299.392 9.53763 299.532 9.49138C299.673 9.44513 299.794 9.35324 299.876 9.23035L299.879 9.22589C299.965 9.10431 300.007 8.95743 299.999 8.80887C299.991 8.66031 299.934 8.51869 299.836 8.40679L296.901 4.93033C296.865 4.88703 296.837 4.83666 296.821 4.78233C296.806 4.72715 296.802 4.66962 296.809 4.61296L297.333 0.770064C297.35 0.643754 297.332 0.515148 297.279 0.398983C297.227 0.282818 297.143 0.183799 297.036 0.113274C296.93 0.0427487 296.806 0.0035688 296.679 0.000232426C296.551 -0.00310394 296.426 0.0295419 296.316 0.0944139ZM297.065 0.733157L296.542 4.57605C296.534 4.62568 296.533 4.67597 296.537 4.72597C296.54 4.77071 296.548 4.81497 296.561 4.85799C296.573 4.90233 296.591 4.94521 296.612 4.98589L296.613 4.98665C296.636 5.02914 296.663 5.06896 296.694 5.10537L299.629 8.58178C299.688 8.6485 299.723 8.73348 299.728 8.82272C299.733 8.91197 299.707 9.00017 299.655 9.07284L299.654 9.07507C299.605 9.14947 299.533 9.20524 299.448 9.23335C299.364 9.26146 299.273 9.26025 299.189 9.22992L297.069 8.50984C296.96 8.47286 296.843 8.46439 296.729 8.48521C296.616 8.50604 296.51 8.55547 296.421 8.62883L296.42 8.62993C296.408 8.63991 296.397 8.64985 296.386 8.66055C296.307 8.73359 296.248 8.82472 296.212 8.92604C296.187 8.99639 296.174 9.07056 296.174 9.14528L296.091 16.696C296.091 16.7615 296.074 16.8258 296.043 16.8834C296.012 16.9411 295.968 16.9905 295.914 17.0273C295.86 17.0641 295.797 17.0873 295.732 17.095C295.667 17.1026 295.601 17.0945 295.54 17.0712L279.723 11.022C279.652 10.9944 279.59 10.9474 279.544 10.8862C279.498 10.8251 279.47 10.7524 279.464 10.6763C279.457 10.6002 279.472 10.5239 279.507 10.4559C279.542 10.3879 279.595 10.3311 279.661 10.292L279.882 10.1612L296.454 0.328369C296.52 0.289369 296.595 0.269701 296.672 0.271612C296.748 0.273523 296.823 0.296938 296.886 0.339176C296.95 0.381414 297.001 0.440766 297.033 0.51044C297.064 0.580114 297.076 0.657311 297.065 0.733157Z" fill="#E5E5E5"/>
<path d="M296.599 4.70483L296.685 4.96197L296.614 4.98665L296.612 4.98588L280.078 10.5063L296.42 8.62992L296.421 8.62884L296.465 8.62471L296.497 8.89365L296.212 8.92604L280.109 10.7763C280.046 10.7842 279.982 10.7698 279.929 10.7358C279.876 10.7017 279.836 10.6501 279.817 10.5898C279.797 10.5296 279.8 10.4644 279.823 10.4057C279.847 10.347 279.89 10.2984 279.946 10.2683C279.959 10.2608 279.974 10.2546 279.988 10.2498L296.537 4.72598L296.599 4.70483Z" fill="#E5E5E5"/>
<path d="M154.46 137.523C154.347 137.582 154.252 137.67 154.187 137.78C154.121 137.889 154.088 138.015 154.091 138.143C154.094 138.27 154.133 138.394 154.203 138.501C154.273 138.607 154.372 138.692 154.487 138.744L158.016 140.355C158.067 140.38 158.114 140.414 158.153 140.456C158.19 140.498 158.218 140.549 158.235 140.603L159.605 144.941C159.647 145.084 159.736 145.208 159.857 145.294C159.979 145.38 160.125 145.423 160.274 145.415L160.279 145.415C160.427 145.411 160.569 145.358 160.684 145.264C160.798 145.17 160.877 145.041 160.909 144.897L161.434 142.721C161.452 142.649 161.489 142.583 161.541 142.531C161.593 142.479 161.659 142.442 161.731 142.424C161.783 142.41 161.838 142.407 161.892 142.415C161.946 142.423 161.997 142.443 162.043 142.472L168.47 146.437C168.563 146.495 168.668 146.529 168.777 146.537C168.886 146.545 168.995 146.526 169.095 146.482C169.195 146.438 169.283 146.371 169.352 146.286C169.42 146.202 169.467 146.102 169.489 145.995L172.829 129.393C172.855 129.268 172.844 129.138 172.799 129.019C172.754 128.899 172.676 128.795 172.575 128.718C172.473 128.641 172.352 128.594 172.225 128.583C172.097 128.571 171.97 128.596 171.856 128.655L171.633 128.768L154.46 137.523ZM154.599 138.498C154.53 138.466 154.471 138.416 154.429 138.352C154.387 138.288 154.364 138.213 154.362 138.137C154.36 138.06 154.38 137.985 154.42 137.919C154.459 137.853 154.516 137.8 154.584 137.765L171.752 129.013L171.98 128.896C172.048 128.862 172.125 128.847 172.201 128.854C172.277 128.861 172.349 128.889 172.41 128.935C172.471 128.981 172.518 129.044 172.545 129.115C172.572 129.186 172.579 129.264 172.564 129.339L169.224 145.941C169.211 146.005 169.182 146.065 169.141 146.116C169.1 146.167 169.047 146.207 168.987 146.233C168.927 146.259 168.862 146.27 168.796 146.265C168.731 146.261 168.668 146.24 168.612 146.206L162.186 142.241C162.123 142.201 162.053 142.172 161.98 142.156L172.15 129.534C172.19 129.485 172.212 129.423 172.212 129.36C172.212 129.297 172.189 129.235 172.149 129.187C172.108 129.138 172.052 129.106 171.989 129.094C171.927 129.083 171.863 129.093 171.808 129.124C171.794 129.132 171.781 129.141 171.769 129.15L158.257 140.185C158.217 140.155 158.173 140.13 158.127 140.109L154.599 138.498Z" fill="#F1F1F1"/>
<path d="M154.46 137.523C154.347 137.582 154.252 137.67 154.187 137.78C154.121 137.889 154.088 138.015 154.091 138.143C154.094 138.27 154.133 138.394 154.203 138.501C154.273 138.607 154.372 138.692 154.487 138.744L158.016 140.355C158.067 140.38 158.114 140.414 158.153 140.456C158.19 140.498 158.218 140.549 158.235 140.603L159.605 144.941C159.647 145.084 159.736 145.208 159.857 145.294C159.979 145.38 160.125 145.423 160.274 145.415L160.279 145.415C160.427 145.411 160.569 145.358 160.684 145.264C160.798 145.17 160.877 145.041 160.909 144.897L161.434 142.721C161.452 142.649 161.489 142.583 161.541 142.531C161.593 142.479 161.659 142.442 161.731 142.424C161.783 142.41 161.838 142.407 161.892 142.415C161.946 142.423 161.997 142.443 162.043 142.472L168.47 146.437C168.563 146.495 168.668 146.529 168.777 146.537C168.886 146.545 168.995 146.526 169.095 146.482C169.195 146.438 169.283 146.371 169.352 146.286C169.42 146.202 169.467 146.102 169.489 145.995L172.829 129.393C172.855 129.268 172.844 129.138 172.799 129.019C172.754 128.899 172.676 128.795 172.575 128.718C172.473 128.641 172.352 128.594 172.225 128.583C172.097 128.571 171.97 128.596 171.856 128.655L171.633 128.768L154.46 137.523ZM154.599 138.498C154.53 138.466 154.471 138.416 154.429 138.352C154.387 138.288 154.364 138.213 154.362 138.137C154.36 138.06 154.38 137.985 154.42 137.919C154.459 137.853 154.516 137.8 154.584 137.765L171.752 129.013L171.98 128.896C172.048 128.862 172.125 128.847 172.201 128.854C172.277 128.861 172.349 128.889 172.41 128.935C172.471 128.981 172.518 129.044 172.545 129.115C172.572 129.186 172.579 129.264 172.564 129.339L169.224 145.941C169.211 146.005 169.182 146.065 169.141 146.116C169.1 146.167 169.047 146.207 168.987 146.233C168.927 146.259 168.862 146.27 168.796 146.265C168.731 146.261 168.668 146.24 168.612 146.206L162.186 142.241C162.123 142.201 162.053 142.172 161.98 142.156C161.876 142.132 161.767 142.133 161.663 142.161C161.648 142.164 161.633 142.169 161.619 142.173L161.617 142.173C161.508 142.209 161.409 142.273 161.331 142.357C161.253 142.442 161.198 142.545 161.171 142.657L160.646 144.834C160.627 144.921 160.579 144.999 160.51 145.055C160.442 145.111 160.356 145.143 160.267 145.144L160.264 145.144C160.175 145.149 160.087 145.124 160.014 145.072C159.941 145.021 159.888 144.946 159.863 144.86L158.493 140.521C158.479 140.475 158.46 140.431 158.436 140.39L158.436 140.388C158.413 140.348 158.386 140.311 158.356 140.276C158.326 140.242 158.293 140.212 158.257 140.185C158.217 140.155 158.173 140.13 158.127 140.109L154.599 138.498Z" fill="#E5E5E5"/>
<path d="M158.257 140.185L171.769 129.151C171.781 129.141 171.794 129.132 171.808 129.125C171.863 129.094 171.927 129.083 171.989 129.094C172.052 129.106 172.108 129.139 172.149 129.187C172.189 129.236 172.212 129.297 172.212 129.36C172.212 129.423 172.19 129.485 172.15 129.534L161.98 142.156L161.801 142.379L161.59 142.209L161.617 142.174L161.619 142.173L171.938 129.363L158.436 140.388L158.436 140.39L158.377 140.437L158.206 140.227L158.257 140.185Z" fill="#E5E5E5"/>
</g>
<defs>
<clipPath id="clip0_26_589">
<rect width="300" height="206.16" fill="white"/>
</clipPath>
</defs>
</svg>
