<svg width="300" height="146" viewBox="0 0 300 146" fill="none" xmlns="http://www.w3.org/2000/svg">
<g clip-path="url(#clip0_26_156)">
<path d="M40.8164 116.082H266.439V1.86133H40.8164V116.082Z" fill="white"/>
<path d="M268.3 117.943H38.9551V0H268.3V117.943ZM42.6775 114.22H264.577V3.72238H42.6775V114.22Z" fill="#E5E5E5"/>
<path d="M146.12 26.025V64.7927H89.7644L79.3531 77.2846L80.5419 64.7927H75.4761V26.025H146.12Z" fill="#FAAE2B"/>
<path d="M180.224 28.3252V53.1815H216.357L223.032 61.1905L222.27 53.1815H225.518V28.3252H180.224Z" fill="#F0F0F0"/>
<path d="M31.1038 141.526H34.3638L35.9147 128.952H31.1035L31.1038 141.526Z" fill="#FFB7B7"/>
<path d="M30.2725 140.462L36.6923 140.462C37.7774 140.462 38.8182 140.893 39.5855 141.66C40.3527 142.427 40.7838 143.468 40.7838 144.553V144.686L30.2726 144.686L30.2725 140.462Z" fill="#2F2E41"/>
<path d="M70.2691 141.419L73.4347 140.64L71.936 128.06L67.2642 129.21L70.2691 141.419Z" fill="#FFB7B7"/>
<path d="M69.2075 140.584L75.4414 139.05C76.495 138.791 77.6087 138.961 78.537 139.522C79.4654 140.084 80.1326 140.992 80.3919 142.045L80.4237 142.174L70.2171 144.686L69.2075 140.584Z" fill="#2F2E41"/>
<path d="M29.0996 138.528L29.7768 135.063C29.7768 135.063 31.0233 121.686 39.9693 108.334L42.8812 93.8307C42.8812 93.8307 42.0164 82.8525 50.3631 76.91L52.9364 75.1373L61.9584 75.6545L64.0421 87.0624L68.2407 114.055C68.2407 114.055 69.3241 114.157 69.7305 117.278C70.5563 118.589 71.0448 120.084 71.1525 121.629C71.1525 121.629 73.3012 127.557 73.8768 131.921L73.8091 136.191L69.272 138.609L59.8155 111.865L53.0518 96.9138C53.0518 96.9138 49.7965 107.448 44.8102 116.472C44.8102 116.472 37.9807 131.254 36.6163 134.258L35.1265 139.173L29.0996 138.528Z" fill="#2F2E41"/>
<path d="M59.265 52.1819C62.8265 52.1819 65.7137 49.2948 65.7137 45.7333C65.7137 42.1718 62.8265 39.2847 59.265 39.2847C55.7036 39.2847 52.8164 42.1718 52.8164 45.7333C52.8164 49.2948 55.7036 52.1819 59.265 52.1819Z" fill="#FFB7B7"/>
<path d="M59.265 52.1819C62.8265 52.1819 65.7137 49.2948 65.7137 45.7333C65.7137 42.1718 62.8265 39.2847 59.265 39.2847C55.7036 39.2847 52.8164 42.1718 52.8164 45.7333C52.8164 49.2948 55.7036 52.1819 59.265 52.1819Z" fill="#FFB8B8"/>
<path d="M50.3818 76.9788L52.5106 71.6614C51.0066 66.7897 51.0988 61.5648 52.7737 56.7492L53.181 56.4138C56.7292 53.4918 59.8434 54.0238 62.7333 57.5982C63.1986 58.1792 63.7429 58.6924 64.3503 59.1229C65.6249 60.0171 67.647 64.8754 64.9771 67.7233L62.8412 80.1826C63.0661 87.0617 58.0744 84.4714 50.3818 76.9788Z" fill="#3F3D56"/>
<path d="M80.9056 69.7465C80.6303 69.5383 80.3127 69.393 79.9751 69.3209C79.6376 69.2487 79.2884 69.2514 78.952 69.3288C78.6156 69.4062 78.3003 69.5564 78.0283 69.7689C77.7563 69.9813 77.5341 70.2508 77.3775 70.5584L71.9985 70.1396L70.9468 73.3463L78.5512 73.8311C79.0854 74.0599 79.6849 74.0849 80.2363 73.9012C80.7876 73.7175 81.2524 73.338 81.5426 72.8345C81.8328 72.331 81.9282 71.7386 81.8108 71.1695C81.6934 70.6004 81.3713 70.0941 80.9056 69.7465Z" fill="#FFB7B7"/>
<path d="M75.7555 74.9485L60.4283 72.0867L55.4431 63.7286C55.1228 62.8405 55.1684 61.8615 55.5699 61.007C55.9714 60.1525 56.6959 59.4925 57.584 59.1722C58.4721 58.8519 59.4511 58.8975 60.3056 59.299C61.1601 59.7005 61.8201 60.425 62.1404 61.3131L64.4786 67.7791L76.6004 69.7855L75.7555 74.9485Z" fill="#CCCCCC"/>
<path d="M47.7702 44.321C51.187 44.321 53.9569 41.5511 53.9569 38.1343C53.9569 34.7175 51.187 31.9476 47.7702 31.9476C44.3534 31.9476 41.5835 34.7175 41.5835 38.1343C41.5835 41.5511 44.3534 44.321 47.7702 44.321Z" fill="#2F2E41"/>
<path d="M42.4339 43.2573C43.2347 43.8361 44.1624 44.2146 45.1394 44.3613C46.1165 44.508 47.1145 44.4186 48.0499 44.1006C48.9853 43.7825 49.8309 43.2451 50.516 42.5332C51.2011 41.8213 51.7058 40.9557 51.9878 40.0088C51.8811 40.8574 51.5996 41.6746 51.1611 42.4089C50.7226 43.1432 50.1367 43.7786 49.4402 44.275C48.7438 44.7715 47.952 45.1181 47.1148 45.293C46.2776 45.468 45.4133 45.4675 44.5763 45.2915C43.7393 45.1156 42.9479 44.768 42.2521 44.2708C41.5562 43.7735 40.971 43.1374 40.5334 42.4026C40.0958 41.6678 39.8152 40.8502 39.7095 40.0015C39.6038 39.1528 39.6753 38.2914 39.9193 37.4717C39.7807 38.573 39.941 39.6912 40.3835 40.7092C40.8259 41.7272 41.5342 42.6073 42.4339 43.2573Z" fill="#2F2E41"/>
<path d="M66.8495 43.2641C65.7694 41.3305 65.3562 40.5228 63.9636 39.347C62.7321 38.3072 61.2174 38.0018 59.9956 38.9871C58.5503 38.3626 56.9421 38.221 55.4099 38.5833C53.8777 38.9456 52.5032 39.7925 51.4907 40.9982C50.4781 42.2039 49.8815 43.704 49.7894 45.2758C49.6973 46.8475 50.1147 48.4071 50.9795 49.7227C51.8443 51.0384 53.1105 52.04 54.5899 52.5788C56.0693 53.1175 57.6831 53.1647 59.1914 52.7133C60.6998 52.2619 62.0223 51.3359 62.9625 50.073C63.9027 48.8101 64.4105 47.2776 64.4104 45.7032C64.4093 45.4267 64.3926 45.1505 64.3605 44.8759C65.4225 44.7267 65.7875 43.4132 66.8495 43.2641Z" fill="#2F2E41"/>
<path d="M257.037 89.5482C257.057 89.1215 257.171 88.7044 257.37 88.3263C257.568 87.9482 257.848 87.6183 258.188 87.3598C258.528 87.1013 258.921 86.9206 259.338 86.8303C259.756 86.74 260.188 86.7423 260.605 86.8372L264.469 81.3911L268.352 82.9323L262.786 90.5466C262.58 91.2358 262.129 91.8256 261.517 92.2043C260.906 92.5829 260.177 92.7241 259.468 92.601C258.759 92.478 258.121 92.0992 257.672 91.5366C257.224 90.9739 256.998 90.2665 257.037 89.5482Z" fill="#A0616A"/>
<path d="M261.276 84.8646L268.147 73.3088L265.347 65.8439L269.16 55.6768L269.301 55.7371C269.393 55.7766 271.559 56.7433 271.88 60.2052L276.262 73.975L264.568 89.1447L261.276 84.8646Z" fill="#3F3D56"/>
<path d="M223.96 42.3818C224.384 42.435 224.791 42.5804 225.152 42.8079C225.514 43.0354 225.821 43.3394 226.053 43.6986C226.284 44.0577 226.434 44.4632 226.492 44.8865C226.549 45.3097 226.514 45.7406 226.387 46.1485L231.518 50.4225L229.681 54.174L222.52 48.0366C221.849 47.7782 221.295 47.2826 220.965 46.6436C220.635 46.0046 220.551 45.2667 220.728 44.5697C220.906 43.8726 221.333 43.2649 221.928 42.8617C222.524 42.4585 223.247 42.2877 223.96 42.3818Z" fill="#A0616A"/>
<path d="M228.302 46.9706L239.292 54.7143L246.951 52.5006L256.792 57.0878L256.721 57.2233C256.675 57.3122 255.544 59.3973 252.067 59.4497L238 62.7533L223.78 49.9223L228.302 46.9706Z" fill="#3F3D56"/>
<path d="M248.412 141.138H244.591L242.773 126.401L248.412 126.402L248.412 141.138Z" fill="#A0616A"/>
<path d="M241.862 140.047H249.23V144.686H237.222C237.222 144.077 237.342 143.473 237.575 142.91C237.808 142.348 238.15 141.836 238.581 141.405C239.012 140.975 239.523 140.633 240.086 140.4C240.649 140.167 241.252 140.047 241.862 140.047Z" fill="#2F2E41"/>
<path d="M263.682 141.138H259.861L258.044 126.401L263.683 126.402L263.682 141.138Z" fill="#A0616A"/>
<path d="M257.132 140.047H264.5V144.686H252.493C252.493 144.077 252.613 143.473 252.846 142.91C253.079 142.348 253.421 141.836 253.852 141.405C254.282 140.975 254.794 140.633 255.357 140.4C255.919 140.167 256.523 140.047 257.132 140.047Z" fill="#2F2E41"/>
<path d="M265.041 87.3473L264.729 109.162L264.417 137.833L257.561 137.21L254.133 97.6314L249.77 137.21H242.692L241.979 97.3196L244.472 88.5936L265.041 87.3473Z" fill="#2F2E41"/>
<path d="M243.789 88.7268L242.745 88.6816L247.596 61.9555L245.61 53.8774C245.506 53.4571 245.561 53.0136 245.763 52.6308C245.965 52.248 246.3 51.9526 246.705 51.8006L250.279 50.4604L251.542 46.9879L261.504 48.0614L261.749 50.7752C262.829 51.1215 271.719 54.0822 271.106 57.4557C270.5 60.7854 266.926 71.2613 266.744 71.7922L266.118 86.8159L266.041 86.8545C265.948 86.9008 259.082 90.2772 251.622 90.2766C248.93 90.3216 246.26 89.7933 243.789 88.7268Z" fill="#3F3D56"/>
<path d="M256.133 45.2695C260.094 45.2695 263.306 42.0581 263.306 38.0966C263.306 34.135 260.094 30.9236 256.133 30.9236C252.171 30.9236 248.96 34.135 248.96 38.0966C248.96 42.0581 252.171 45.2695 256.133 45.2695Z" fill="#A0616A"/>
<path d="M261.943 45.0402C260.576 46.4964 258.037 45.7147 257.859 43.7254C257.845 43.5709 257.846 43.4155 257.862 43.2612C257.954 42.3801 258.463 41.5801 258.341 40.6497C258.314 40.4181 258.228 40.1974 258.091 40.0086C257.001 38.5499 254.444 40.661 253.416 39.3405C252.786 38.5308 253.527 37.2559 253.043 36.3509C252.405 35.1565 250.514 35.7457 249.328 35.0916C248.008 34.3638 248.087 32.3393 248.956 31.1079C250.015 29.6062 251.872 28.8048 253.706 28.6894C255.54 28.5739 257.362 29.0697 259.074 29.737C261.02 30.4952 262.949 31.543 264.146 33.2537C265.602 35.3341 265.742 38.131 265.014 40.5636C264.571 42.0434 263.059 43.8511 261.943 45.0402Z" fill="#2F2E41"/>
<path d="M184.227 139.157L185.293 136.416L175.228 131.001L173.655 135.046L184.227 139.157Z" fill="#FFB8B8"/>
<path d="M189.937 132.006C189.485 131.83 189.003 131.745 188.519 131.756C188.034 131.766 187.556 131.872 187.112 132.067C186.669 132.263 186.268 132.543 185.933 132.894C185.598 133.244 185.335 133.657 185.16 134.109L184.441 135.957L183.332 138.809L183.062 139.508L186.613 140.89L190.049 132.05L189.937 132.006Z" fill="#2F2E41"/>
<path d="M183.333 133.882L182.869 135.111L181.713 138.178L181.685 138.255C178.738 138.634 175.507 137.891 172.519 136.738C171.324 136.277 170.153 135.754 169.011 135.173C167.322 134.319 165.809 133.418 164.602 132.647C162.784 131.481 161.661 130.605 161.661 130.605C161.661 130.605 161.364 130.873 160.827 131.333C160.107 131.949 158.956 132.911 157.499 134.044C156.943 134.479 156.346 134.934 155.708 135.409C151.006 138.896 144.972 129.59 144.972 129.59C144.972 129.59 146.669 128.51 147.113 128.3C148.54 127.625 151.894 126.031 154.787 124.615C156.278 123.884 157.645 123.199 158.562 122.712C161.812 120.982 165.851 124.255 165.851 124.255L183.333 133.882Z" fill="#2F2E41"/>
<path opacity="0.14" d="M183.333 133.882L182.869 135.111L181.713 138.178L181.685 138.255C178.738 138.634 175.507 137.891 172.519 136.738C171.324 136.277 170.153 135.754 169.011 135.173C167.322 134.319 165.809 133.418 164.602 132.647C162.784 131.481 161.661 130.605 161.661 130.605C161.661 130.605 161.364 130.873 160.827 131.333C160.107 131.949 158.956 132.911 157.499 134.044C156.943 134.479 156.346 134.934 155.708 135.409C151.006 138.896 144.972 129.59 144.972 129.59C144.972 129.59 146.669 128.51 147.113 128.3C148.54 127.625 151.894 126.031 154.787 124.615C156.278 123.884 157.645 123.199 158.562 122.712C161.812 120.982 165.851 124.255 165.851 124.255L183.333 133.882Z" fill="black"/>
<path d="M136.302 108.082H122.389C122.103 108.082 121.828 107.968 121.626 107.766C121.424 107.563 121.31 107.289 121.31 107.003V101.006C121.31 98.8745 122.156 96.8306 123.663 95.3235C125.17 93.8165 127.214 92.9698 129.346 92.9698C131.477 92.9698 133.521 93.8165 135.028 95.3235C136.535 96.8306 137.381 98.8745 137.381 101.006V107.003C137.381 107.289 137.267 107.563 137.065 107.766C136.863 107.968 136.588 108.082 136.302 108.082Z" fill="#2F2E41"/>
<path d="M149.533 115.615C149.209 115.672 148.902 115.799 148.632 115.987C148.363 116.176 148.138 116.421 147.974 116.706C147.81 116.991 147.71 117.308 147.681 117.636C147.653 117.964 147.697 118.294 147.81 118.602L144.026 122.082L145.58 124.897L150.854 119.908C151.36 119.684 151.767 119.282 151.996 118.778C152.226 118.274 152.263 117.704 152.1 117.175C151.938 116.646 151.586 116.195 151.113 115.907C150.64 115.62 150.078 115.516 149.533 115.615Z" fill="#FFB8B8"/>
<path d="M138.15 131.435C137.979 131.435 137.807 131.428 137.636 131.413C136.616 131.328 135.633 130.985 134.782 130.416C133.93 129.847 133.237 129.072 132.767 128.162L126.706 116.496C126.309 115.731 126.222 114.843 126.463 114.016C126.704 113.189 127.254 112.487 128 112.055C128.745 111.624 129.628 111.496 130.466 111.699C131.303 111.903 132.029 112.421 132.494 113.146L138.086 125.692L145.695 119.51L150.1 121.225L142.66 129.439C142.088 130.067 141.392 130.569 140.615 130.912C139.839 131.256 138.999 131.434 138.15 131.435Z" fill="#FAAE2B"/>
<path d="M183.377 143.012L184.65 140.361L175.03 134.189L173.151 138.102L183.377 143.012Z" fill="#FFB8B8"/>
<path d="M189.619 136.321C189.182 136.111 188.708 135.989 188.224 135.962C187.74 135.936 187.256 136.005 186.798 136.165C186.341 136.326 185.92 136.575 185.559 136.899C185.198 137.222 184.904 137.614 184.694 138.051L183.835 139.838L182.511 142.596L182.188 143.273L185.623 144.923L189.727 136.374L189.619 136.321Z" fill="#2F2E41"/>
<path d="M182.89 137.684L182.334 138.873L180.945 141.843L180.911 141.917C177.944 142.068 174.78 141.08 171.889 139.701C170.733 139.149 169.606 138.538 168.512 137.871C166.893 136.89 165.454 135.875 164.309 135.014C162.587 133.711 161.534 132.752 161.534 132.752C161.534 132.752 161.217 132.996 160.646 133.414C159.881 133.973 158.66 134.843 157.12 135.86C156.533 136.251 155.902 136.659 155.23 137.084C150.274 140.2 143.226 143.995 137.232 144.796C126.704 146.204 129.182 132.154 129.182 132.154L137.561 127.803L141.118 128.525L145.078 129.326L146.482 129.612C146.482 129.612 146.748 129.511 147.206 129.336C148.681 128.772 152.148 127.441 155.141 126.251C156.684 125.637 158.099 125.059 159.051 124.644C162.424 123.168 166.2 126.743 166.2 126.743L182.89 137.684Z" fill="#2F2E41"/>
<path d="M113.849 145.131C114.17 145.058 114.47 144.915 114.73 144.713C114.989 144.51 115.201 144.254 115.35 143.961C115.5 143.668 115.583 143.346 115.594 143.017C115.606 142.689 115.545 142.361 115.416 142.059L119.015 138.388L117.317 135.657L112.309 140.912C111.815 141.162 111.429 141.585 111.226 142.1C111.023 142.615 111.015 143.186 111.205 143.706C111.395 144.226 111.769 144.659 112.256 144.921C112.744 145.184 113.311 145.259 113.849 145.131Z" fill="#FFB8B8"/>
<path d="M131.315 108.35C134.414 108.35 136.925 105.838 136.925 102.74C136.925 99.6419 134.414 97.1302 131.315 97.1302C128.217 97.1302 125.706 99.6419 125.706 102.74C125.706 105.838 128.217 108.35 131.315 108.35Z" fill="#FFB8B8"/>
<path d="M124.017 118.312L128.904 132.167L128.874 132.215C128.195 133.339 127.973 134.245 128.232 134.836C128.301 134.987 128.401 135.12 128.526 135.228C128.651 135.336 128.798 135.415 128.956 135.461L140.52 127.378L140.116 124.138L140.138 124.102C141.256 122.313 141.618 120.694 141.214 119.288C140.848 118.151 140.058 117.198 139.008 116.628L138.968 116.596L133.2 109.576L125.49 110.946L124.017 118.312Z" fill="#FAAE2B"/>
<path d="M116.586 142.63L113.312 138.601L121.204 125.573L124.883 114.2C125.084 113.579 125.416 113.008 125.857 112.525C126.297 112.043 126.835 111.661 127.436 111.405C128.037 111.148 128.685 111.023 129.338 111.039C129.991 111.054 130.633 111.209 131.221 111.494C131.808 111.778 132.328 112.185 132.746 112.688C133.163 113.19 133.467 113.776 133.639 114.406C133.81 115.036 133.845 115.696 133.74 116.341C133.635 116.985 133.393 117.6 133.03 118.143L126.276 128.263L116.586 142.63Z" fill="#FAAE2B"/>
<path d="M139.283 101.606H130.775L130.688 100.384L130.252 101.606H128.942L128.769 99.1847L127.904 101.606H125.37V101.486C125.372 99.8002 126.042 98.1845 127.234 96.9927C128.425 95.801 130.041 95.1307 131.726 95.1288H132.926C134.611 95.1307 136.227 95.801 137.419 96.9927C138.61 98.1845 139.281 99.8002 139.283 101.486V101.606Z" fill="#2F2E41"/>
<path d="M130.706 109.202C130.642 109.202 130.578 109.196 130.515 109.185L124.285 108.086V97.7902H131.143L130.973 97.9881C128.611 100.743 130.39 105.21 131.661 107.628C131.755 107.805 131.797 108.005 131.782 108.204C131.767 108.404 131.696 108.595 131.577 108.757C131.477 108.894 131.346 109.007 131.195 109.084C131.043 109.161 130.876 109.202 130.706 109.202Z" fill="#2F2E41"/>
<path d="M223.777 90.7567V105.261H159.523L150.244 116.393L151.304 105.261H146.79V90.7567H223.777Z" fill="#F0F0F0"/>
<path d="M173.503 100.614C174.955 100.614 176.132 99.4374 176.132 97.9856C176.132 96.5338 174.955 95.3569 173.503 95.3569C172.051 95.3569 170.875 96.5338 170.875 97.9856C170.875 99.4374 172.051 100.614 173.503 100.614Z" fill="white"/>
<path d="M164.631 100.614C166.083 100.614 167.26 99.4374 167.26 97.9856C167.26 96.5338 166.083 95.3569 164.631 95.3569C163.179 95.3569 162.002 96.5338 162.002 97.9856C162.002 99.4374 163.179 100.614 164.631 100.614Z" fill="white"/>
<path d="M155.76 100.614C157.211 100.614 158.388 99.4374 158.388 97.9856C158.388 96.5338 157.211 95.3569 155.76 95.3569C154.308 95.3569 153.131 96.5338 153.131 97.9856C153.131 99.4374 154.308 100.614 155.76 100.614Z" fill="white"/>
<path d="M299.671 144.974H0.328587C0.24144 144.974 0.157863 144.939 0.0962407 144.877C0.0346186 144.816 0 144.732 0 144.645C0 144.558 0.0346186 144.474 0.0962407 144.413C0.157863 144.351 0.24144 144.316 0.328587 144.316H299.671C299.759 144.316 299.842 144.351 299.904 144.413C299.965 144.474 300 144.558 300 144.645C300 144.732 299.965 144.816 299.904 144.877C299.842 144.939 299.759 144.974 299.671 144.974Z" fill="#CACACA"/>
</g>
<defs>
<clipPath id="clip0_26_156">
<rect width="300" height="145.192" fill="white"/>
</clipPath>
</defs>
</svg>
