<svg width="133" height="200" viewBox="0 0 133 200" fill="none" xmlns="http://www.w3.org/2000/svg">
<g clip-path="url(#clip0_26_215)">
<path d="M104.861 160.884C104.76 160.998 104.659 161.116 104.561 161.233C103.191 162.823 101.954 164.521 100.861 166.312C100.773 166.449 100.688 166.59 100.609 166.727C98.0227 171.054 96.2619 175.824 95.4163 180.793C95.2267 181.917 95.084 183.048 94.9882 184.186C94.9195 185.061 94.8781 185.938 94.864 186.816C94.8117 190.503 95.1385 194.604 92.7626 197.422C92.1275 198.163 91.3523 198.771 90.4814 199.212C89.8255 199.552 89.1323 199.814 88.4159 199.994H81.0071C80.6345 199.938 80.262 199.879 79.8894 199.82C79.8796 199.82 79.8698 199.817 79.86 199.817L79.7848 199.843L79.3371 199.994L79.3175 200V199.994C79.318 199.98 79.3169 199.967 79.3142 199.954C79.3147 199.93 79.3136 199.906 79.3109 199.882V199.879C79.3077 199.814 79.3044 199.752 79.3044 199.686L79.2946 199.513C79.2946 199.513 79.2913 199.51 79.2946 199.51C79.2913 199.412 79.2848 199.314 79.2815 199.212C78.9384 190.683 79.775 181.868 83.8013 174.358C85.182 171.785 86.9599 169.446 89.0696 167.427C89.0818 167.414 89.0949 167.402 89.1088 167.391C93.2953 163.397 98.7073 160.786 104.42 160.874C104.567 160.874 104.714 160.877 104.861 160.884Z" fill="#F0F0F0"/>
<path d="M104.878 161.068C98.4079 164.389 93.1486 169.663 89.8469 176.143C89.1114 177.525 88.5983 179.015 88.3266 180.557C88.1105 182.067 88.3029 183.608 88.8838 185.02C89.3989 186.346 90.0795 187.644 90.2632 189.073C90.3464 189.805 90.2737 190.547 90.05 191.25C89.8263 191.953 89.4565 192.6 88.965 193.15C87.7759 194.552 86.154 195.443 84.5376 196.259C82.743 197.165 80.8646 198.078 79.6185 199.716C79.4676 199.915 79.1684 199.669 79.3191 199.471C81.487 196.62 85.3051 195.999 87.9052 193.681C89.1184 192.6 90.0131 191.146 89.9122 189.472C89.8239 188.008 89.1232 186.669 88.59 185.33C88.0032 183.962 87.7603 182.471 87.8827 180.987C88.0749 179.436 88.5298 177.929 89.2276 176.531C90.7485 173.358 92.7589 170.444 95.185 167.895C97.9378 164.971 101.171 162.539 104.743 160.705C104.965 160.592 105.098 160.956 104.878 161.068Z" fill="white"/>
<path d="M90.7872 173.994C89.7753 173.292 89.0457 172.254 88.7287 171.064C88.4117 169.874 88.528 168.61 89.0567 167.498C89.1645 167.274 89.5186 167.431 89.4107 167.656C88.9164 168.69 88.8082 169.867 89.1057 170.975C89.4031 172.082 90.0866 173.047 91.0328 173.694C91.2382 173.835 90.9915 174.134 90.7872 173.994Z" fill="white"/>
<path d="M88.5338 184.381C91.0145 183.955 93.2432 182.609 94.7757 180.612C94.9274 180.414 95.2266 180.66 95.0751 180.858C93.4765 182.933 91.1543 184.328 88.5719 184.767C88.3257 184.808 88.289 184.423 88.5338 184.381Z" fill="white"/>
<path d="M98.141 165.442C98.476 165.795 98.8934 166.06 99.3558 166.211C99.8182 166.363 100.311 166.398 100.79 166.312C101.036 166.267 101.072 166.653 100.828 166.697C100.298 166.79 99.7542 166.751 99.2429 166.584C98.7317 166.418 98.2691 166.128 97.8955 165.742C97.8572 165.708 97.8331 165.661 97.8281 165.611C97.8231 165.56 97.8376 165.509 97.8686 165.469C97.9013 165.43 97.9482 165.405 97.9993 165.4C98.0503 165.395 98.1012 165.41 98.141 165.442Z" fill="white"/>
<path d="M122.905 184.532C122.754 184.565 122.604 184.597 122.45 184.633H122.447C120.399 185.078 118.39 185.688 116.44 186.457C116.29 186.516 116.14 186.575 115.989 186.637H115.986C111.338 188.529 107.079 191.264 103.423 194.702C103.41 194.716 103.397 194.725 103.384 194.738C103.376 194.748 103.367 194.757 103.358 194.765L103.342 194.781C101.891 196.155 100.546 197.636 99.3185 199.213C99.3185 199.216 99.3153 199.219 99.312 199.222C99.1159 199.477 98.9166 199.732 98.7205 199.994H79.3372L79.3175 200V199.994H79.2358C79.2358 199.99 79.2391 199.987 79.2424 199.984C79.2424 199.981 79.2456 199.981 79.2456 199.977C79.2685 199.945 79.2914 199.912 79.311 199.882V199.879C79.3159 199.869 79.3225 199.861 79.3306 199.853C79.3502 199.82 79.3731 199.794 79.3894 199.765C79.5202 199.582 79.6476 199.396 79.7783 199.213C79.9908 198.909 80.2065 198.605 80.4254 198.304L80.4257 198.303L80.4264 198.302L80.4274 198.301L80.4287 198.301V198.297C80.432 198.294 80.432 198.291 80.4352 198.288L80.4418 198.281C83.138 194.549 86.1708 191.006 89.6448 188.039C89.7494 187.947 89.854 187.856 89.9651 187.771C91.5382 186.44 93.2183 185.241 94.9882 184.186C95.9556 183.614 96.9524 183.089 97.9786 182.61C100.625 181.391 103.448 180.594 106.342 180.251H106.348C106.355 180.251 106.361 180.248 106.371 180.248C106.381 180.248 106.387 180.244 106.394 180.244C112.149 179.578 118.048 180.751 122.561 184.261C122.679 184.352 122.79 184.441 122.905 184.532Z" fill="#F0F0F0"/>
<path d="M79.2356 199.993H79.3173V200L79.3369 199.993H84.5234C82.9776 199.729 81.435 199.523 79.8892 199.82C79.8533 199.827 79.8206 199.833 79.7846 199.843C79.6277 199.872 79.4709 199.912 79.314 199.954C79.3042 199.957 79.2911 199.961 79.2813 199.964C79.2671 199.968 79.2537 199.975 79.2421 199.984C79.2338 199.985 79.2259 199.988 79.2192 199.993H79.2356Z" fill="white"/>
<path d="M122.81 184.692C122.689 184.672 122.571 184.649 122.45 184.633H122.447C119.926 184.222 117.366 184.093 114.816 184.248C114.689 184.254 114.558 184.264 114.427 184.27C110.887 184.517 107.407 185.31 104.11 186.62C104.106 186.62 104.106 186.62 104.106 186.623C104.07 186.637 104.034 186.65 104.002 186.663C103.234 186.973 102.476 187.313 101.734 187.679C100.314 188.34 99.0072 189.22 97.861 190.287C96.9434 191.193 96.2486 192.299 95.8315 193.519C95.789 193.643 95.7465 193.764 95.7073 193.889C95.6779 193.987 95.6485 194.088 95.6191 194.186C95.2334 195.555 94.9948 197 94.2824 198.251C94.084 198.601 93.8424 198.923 93.5634 199.212C93.2751 199.512 92.9501 199.775 92.596 199.993H91.7725C92.2232 199.799 92.6411 199.535 93.0111 199.212C93.2989 198.964 93.5508 198.677 93.7595 198.359C94.57 197.137 94.8184 195.647 95.1975 194.258C95.2596 194.032 95.3249 193.813 95.3968 193.594C95.7741 192.396 96.4063 191.293 97.2499 190.362C98.3368 189.24 99.6065 188.31 101.005 187.614C101.887 187.15 102.794 186.729 103.724 186.352C103.845 186.3 103.966 186.254 104.087 186.208C109.961 183.922 116.34 183.25 122.562 184.261C122.682 184.277 122.8 184.3 122.921 184.319C123.166 184.362 123.055 184.734 122.81 184.692Z" fill="white"/>
<path d="M103.778 186.528C103.392 185.359 103.435 184.09 103.898 182.949C104.361 181.808 105.215 180.869 106.307 180.3C106.528 180.185 106.716 180.524 106.495 180.639C105.477 181.167 104.682 182.042 104.253 183.105C103.824 184.168 103.789 185.35 104.154 186.437C104.233 186.673 103.856 186.763 103.778 186.528Z" fill="white"/>
<path d="M95.7247 193.465C97.9622 194.618 100.552 194.885 102.978 194.214C103.218 194.147 103.309 194.523 103.069 194.59C100.543 195.284 97.8488 195.001 95.5231 193.796C95.3015 193.681 95.5043 193.351 95.7247 193.465Z" fill="white"/>
<path d="M114.798 184.128C114.853 184.611 115.027 185.073 115.305 185.473C115.583 185.873 115.955 186.197 116.389 186.417C116.612 186.529 116.409 186.859 116.188 186.748C115.709 186.502 115.298 186.144 114.99 185.703C114.682 185.262 114.487 184.752 114.422 184.219C114.411 184.169 114.42 184.117 114.447 184.074C114.473 184.03 114.515 183.999 114.564 183.985C114.614 183.973 114.667 183.981 114.71 184.008C114.754 184.035 114.786 184.078 114.798 184.128Z" fill="white"/>
<path d="M103.622 54.3458C103.711 43.525 104.151 32.5996 104.943 21.5697C104.956 21.3507 104.972 21.135 104.989 20.9161C105.407 15.1739 105.919 9.41114 106.525 3.62763V3.59495C106.524 2.64168 106.145 1.72763 105.471 1.05357C104.797 0.379506 103.883 0.00056885 102.93 0H6.51966C5.56962 0.00186663 4.65878 0.378979 3.98548 1.04923C3.31217 1.71948 2.93091 2.62858 2.92472 3.57861C2.08808 11.543 1.43226 19.4683 0.957295 27.3543C0.937686 27.6125 0.924619 27.8674 0.911546 28.1256C0.67624 32.0244 0.488867 35.9135 0.349427 39.7928C0.339622 40.0216 0.329815 40.2503 0.326547 40.4791C-0.565713 64.2809 0.302713 88.1161 2.92472 111.79C2.93159 112.739 3.31317 113.648 3.98642 114.317C4.65968 114.987 5.57013 115.363 6.51966 115.365H102.93C103.883 115.365 104.797 114.986 105.471 114.312C106.145 113.637 106.524 112.723 106.525 111.77V111.734C106.051 107.528 105.635 103.295 105.276 99.0343C105.224 98.41 105.173 97.7858 105.123 97.1616C104.874 94.0928 104.657 91.0121 104.472 87.9193C104.433 87.2951 104.397 86.6709 104.364 86.0467C104.015 79.8568 103.786 73.6191 103.678 67.3334C103.665 66.7091 103.655 66.0882 103.645 65.4607C103.606 62.3919 103.594 59.3112 103.609 56.2184C103.609 55.5942 103.613 54.97 103.622 54.3458Z" fill="#F0F0F0"/>
<path d="M132.67 24.511C132.669 23.5577 132.29 22.6436 131.616 21.9696C130.942 21.2955 130.028 20.9166 129.075 20.916H32.6648C31.7148 20.9179 30.8039 21.295 30.1306 21.9652C29.4573 22.6355 29.0761 23.5446 29.0699 24.4946C25.8148 55.5321 25.2756 86.0205 27.4554 115.365C27.7201 118.996 28.0295 122.608 28.3835 126.202C28.5731 128.127 28.7746 130.047 28.9882 131.961C29.0143 132.209 29.0404 132.457 29.0699 132.706C29.0767 133.655 29.4583 134.564 30.1316 135.233C30.8048 135.903 31.7153 136.279 32.6648 136.281H129.075C130.028 136.281 130.942 135.902 131.616 135.228C132.29 134.554 132.669 133.639 132.67 132.686V132.65C128.771 98.0832 128.771 61.7121 132.67 24.5436V24.511Z" fill="white"/>
<path d="M132.67 24.511C132.669 23.5577 132.29 22.6436 131.616 21.9696C130.942 21.2955 130.028 20.9166 129.075 20.916H32.6648C31.7148 20.9179 30.8039 21.295 30.1306 21.9652C29.4573 22.6355 29.0761 23.5446 29.0699 24.4946C25.8148 55.5321 25.2756 86.0205 27.4554 115.365C27.7201 118.996 28.0295 122.608 28.3835 126.202C28.5731 128.127 28.7746 130.047 28.9882 131.961C29.0143 132.209 29.0404 132.457 29.0699 132.706C29.0767 133.655 29.4583 134.564 30.1316 135.233C30.8048 135.903 31.7153 136.279 32.6648 136.281H129.075C130.028 136.281 130.942 135.902 131.616 135.228C132.29 134.554 132.669 133.639 132.67 132.686V132.65C128.771 98.0832 128.771 61.7121 132.67 24.5436V24.511ZM132.016 132.706C132.01 133.482 131.698 134.225 131.147 134.772C130.596 135.319 129.851 135.627 129.075 135.628H32.6648C31.8851 135.626 31.1376 135.316 30.5863 134.765C30.0349 134.213 29.7247 133.466 29.7235 132.686V132.65C29.7006 132.441 29.6777 132.229 29.6548 132.019C29.4293 130.019 29.2191 128.014 29.0241 126.003C28.6809 122.477 28.377 118.931 28.1123 115.365C25.9325 86.0369 26.4684 55.568 29.7235 24.5436V24.511C29.7247 23.7312 30.0349 22.9838 30.5863 22.4324C31.1376 21.8811 31.8851 21.5708 32.6648 21.5696H129.075C129.852 21.5699 130.597 21.8776 131.149 22.4256C131.7 22.9737 132.011 23.7175 132.016 24.4946C128.117 61.6925 128.117 98.1028 132.016 132.706Z" fill="#E4E4E4"/>
<path d="M39.3103 54.3459C39.0622 54.3466 38.8246 54.4456 38.6495 54.6212C38.4743 54.7968 38.376 55.0347 38.376 55.2827C38.376 55.5307 38.4743 55.7686 38.6495 55.9442C38.8246 56.1198 39.0622 56.2188 39.3103 56.2195H117.658C117.906 56.2188 118.143 56.1198 118.318 55.9442C118.494 55.7686 118.592 55.5307 118.592 55.2827C118.592 55.0347 118.494 54.7968 118.318 54.6212C118.143 54.4456 117.906 54.3466 117.658 54.3459H39.3103Z" fill="#E6E6E6"/>
<path d="M39.31 59.967C39.0619 59.9675 38.8241 60.0664 38.6488 60.242C38.4735 60.4177 38.375 60.6557 38.375 60.9038C38.375 61.1519 38.4735 61.3899 38.6488 61.5656C38.8241 61.7412 39.0619 61.8401 39.31 61.8406H92.4972C92.7453 61.8401 92.9831 61.7412 93.1584 61.5656C93.3337 61.3899 93.4322 61.1519 93.4322 60.9038C93.4322 60.6557 93.3337 60.4177 93.1584 60.242C92.9831 60.0664 92.7453 59.9675 92.4972 59.967H39.31Z" fill="#E6E6E6"/>
<path d="M39.31 65.4609C39.0619 65.4614 38.8241 65.5603 38.6488 65.7359C38.4735 65.9115 38.375 66.1496 38.375 66.3977C38.375 66.6458 38.4735 66.8838 38.6488 67.0595C38.8241 67.2351 39.0619 67.334 39.31 67.3344H117.657C117.906 67.334 118.143 67.2351 118.319 67.0595C118.494 66.8838 118.592 66.6458 118.592 66.3977C118.592 66.1496 118.494 65.9115 118.319 65.7359C118.143 65.5603 117.906 65.4614 117.657 65.4609H39.31Z" fill="#E6E6E6"/>
<path d="M39.3103 71.082C39.0622 71.0827 38.8246 71.1817 38.6495 71.3573C38.4743 71.5329 38.376 71.7708 38.376 72.0188C38.376 72.2668 38.4743 72.5047 38.6495 72.6803C38.8246 72.8559 39.0622 72.9549 39.3103 72.9555H92.4974C92.7454 72.9549 92.9831 72.8559 93.1582 72.6803C93.3333 72.5047 93.4317 72.2668 93.4317 72.0188C93.4317 71.7708 93.3333 71.5329 93.1582 71.3573C92.9831 71.1817 92.7454 71.0827 92.4974 71.082H39.3103Z" fill="#E6E6E6"/>
<path d="M39.3103 86.0469C39.0622 86.0475 38.8246 86.1465 38.6495 86.3221C38.4743 86.4977 38.376 86.7356 38.376 86.9836C38.376 87.2316 38.4743 87.4695 38.6495 87.6451C38.8246 87.8208 39.0622 87.9197 39.3103 87.9204H117.658C117.906 87.9197 118.143 87.8208 118.318 87.6451C118.494 87.4695 118.592 87.2316 118.592 86.9836C118.592 86.7356 118.494 86.4977 118.318 86.3221C118.143 86.1465 117.906 86.0475 117.658 86.0469H39.3103Z" fill="#E6E6E6"/>
<path d="M39.31 91.668C39.0619 91.6684 38.8241 91.7673 38.6488 91.943C38.4735 92.1186 38.375 92.3566 38.375 92.6047C38.375 92.8529 38.4735 93.0909 38.6488 93.2665C38.8241 93.4421 39.0619 93.541 39.31 93.5415H92.4972C92.7453 93.541 92.9831 93.4421 93.1584 93.2665C93.3337 93.0909 93.4322 92.8529 93.4322 92.6047C93.4322 92.3566 93.3337 92.1186 93.1584 91.943C92.9831 91.7673 92.7453 91.6684 92.4972 91.668H39.31Z" fill="#E6E6E6"/>
<path d="M39.31 97.1619C39.0619 97.1623 38.8241 97.2612 38.6488 97.4368C38.4735 97.6125 38.375 97.8505 38.375 98.0986C38.375 98.3468 38.4735 98.5848 38.6488 98.7604C38.8241 98.936 39.0619 99.0349 39.31 99.0354H117.657C117.906 99.0349 118.143 98.936 118.319 98.7604C118.494 98.5848 118.592 98.3468 118.592 98.0986C118.592 97.8505 118.494 97.6125 118.319 97.4368C118.143 97.2612 117.906 97.1623 117.657 97.1619H39.31Z" fill="#E6E6E6"/>
<path d="M39.3103 102.783C39.0622 102.784 38.8246 102.883 38.6495 103.058C38.4743 103.234 38.376 103.472 38.376 103.72C38.376 103.968 38.4743 104.206 38.6495 104.381C38.8246 104.557 39.0622 104.656 39.3103 104.656H92.4974C92.7454 104.656 92.9831 104.557 93.1582 104.381C93.3333 104.206 93.4317 103.968 93.4317 103.72C93.4317 103.472 93.3333 103.234 93.1582 103.058C92.9831 102.883 92.7454 102.784 92.4974 102.783H39.3103Z" fill="#E6E6E6"/>
<path d="M54.8124 42.7145H39.8482C39.6544 42.7143 39.4686 42.6372 39.3316 42.5001C39.1945 42.3631 39.1174 42.1773 39.1172 41.9835V39.5859C39.1174 39.3921 39.1945 39.2063 39.3316 39.0692C39.4686 38.9322 39.6544 38.8551 39.8482 38.8549H54.8124C55.0062 38.8551 55.192 38.9322 55.329 39.0692C55.4661 39.2063 55.5432 39.3921 55.5434 39.5859V41.9835C55.5432 42.1773 55.4661 42.3631 55.329 42.5001C55.192 42.6372 55.0062 42.7143 54.8124 42.7145Z" fill="#FAAE2B"/>
<path d="M106.798 119.835L102.214 121.35C101.45 121.602 100.686 121.854 99.9225 122.107C99.215 122.34 98.4493 122.617 97.692 122.517C97.1685 122.447 96.5718 122.146 96.4087 121.608C96.2544 121.098 96.5816 120.565 96.9778 120.264C98.0716 119.431 99.4546 120.278 100.23 121.14C101.178 122.194 101.714 123.555 102.603 124.658C103.395 125.647 104.398 126.447 105.54 126.997C107.808 128.068 110.575 127.954 112.598 126.393C115.014 124.529 115.261 121.299 115.274 118.481C115.269 118.354 115.216 118.233 115.124 118.145C115.033 118.057 114.911 118.007 114.783 118.007C114.656 118.007 114.534 118.057 114.443 118.145C114.351 118.233 114.298 118.354 114.293 118.481C114.282 121.035 114.136 124.166 111.808 125.764C109.577 127.295 106.645 126.889 104.591 125.258C103.446 124.349 102.742 123.164 101.991 121.936C101.257 120.738 100.347 119.577 98.9662 119.111C98.3742 118.896 97.7261 118.891 97.1314 119.099C96.5368 119.307 96.0321 119.713 95.7026 120.25C95.5521 120.503 95.4573 120.786 95.4245 121.079C95.3917 121.372 95.4217 121.668 95.5124 121.948C95.6031 122.229 95.7526 122.486 95.9507 122.704C96.1489 122.923 96.3912 123.096 96.6616 123.213C98.2622 123.976 100.093 123.082 101.635 122.573L107.059 120.78C107.655 120.583 107.399 119.636 106.798 119.835Z" fill="#FAAE2B"/>
<path d="M93.2149 191.897L90.0007 192.956L84.3867 181.063L89.1304 179.5L93.2149 191.897Z" fill="#9F616A"/>
<path d="M95.5077 194.598L95.2887 193.934L94.7135 192.186L94.3214 190.996L93.2494 191.349L93.0272 191.333L90.0826 191.134L89.6904 191.107L89.1087 191.068L88.5074 191.026L86.8275 193.467H86.8243C86.1964 193.672 85.6153 193.999 85.1149 194.43C84.6145 194.86 84.2046 195.386 83.9091 195.977C83.8731 196.049 83.8405 196.121 83.8078 196.193C83.7267 196.369 83.6579 196.55 83.6019 196.735C83.3475 197.536 83.3003 198.388 83.4646 199.212C83.5069 199.417 83.5603 199.619 83.6248 199.817L83.6346 199.85L83.6738 199.971L83.9091 199.892L85.9746 199.212L93.2102 196.83L94.6449 196.356L95.0861 196.209H95.0894L95.9456 195.928L95.5077 194.598Z" fill="#2F2E41"/>
<path d="M62.7496 194.693L59.3657 194.692L57.7559 181.64L62.7502 181.64L62.7496 194.693Z" fill="#9F616A"/>
<path d="M57.3341 137.475L55.834 140.07C55.834 140.07 54.1857 140.52 54.7244 145.893C55.1048 149.687 55.2282 166.675 56.1859 177.711C56.5845 182.305 57.1276 185.867 57.8939 187.018L58.3657 187.441L63.2897 187.911L63.4139 187.868L65.2221 175.097C65.5466 172.805 65.498 170.475 65.0782 168.198L64.7513 164.603L69.2852 146.4C69.2852 146.4 73.9021 158.067 76.8434 169.178C77.5515 171.853 80.2409 173.554 81.2606 175.85C81.6022 176.619 81.9379 177.364 82.2654 178.079C84.422 182.787 85.503 186.215 86.321 186.499H86.9747L90.8964 185.192L91.6679 183.253L85.6674 165.583L81.174 137.054C72.6124 132.451 64.5812 131.939 57.3341 137.475Z" fill="#2F2E41"/>
<path d="M81.8602 99.0343C81.5646 98.3832 81.217 97.757 80.8209 97.1617C79.9154 95.7505 78.6571 94.6003 77.1704 93.8249L75.8828 93.5406L73.5755 93.0307L72.3597 91.6679L70.3662 89.4358H63.5031L62.5847 91.6679L61.8135 93.5406L61.4834 94.338L55.6073 97.276C55.604 97.276 55.604 97.276 55.6007 97.2793C55.6792 97.8676 55.7565 98.4526 55.8328 99.0343C55.9994 100.299 56.1563 101.549 56.3034 102.783C56.3786 103.41 56.4505 104.035 56.5191 104.655C56.7381 106.603 56.9265 108.517 57.0845 110.398C57.225 112.077 57.3372 113.733 57.4211 115.365C57.6255 119.071 57.6407 122.785 57.4669 126.493C57.4211 127.366 58.2872 128.359 58.2185 129.212C58.1041 130.604 57.0289 131.84 56.8394 133.17C56.7217 133.987 56.774 134.856 56.5681 135.628C56.5109 135.853 56.4252 136.071 56.3132 136.275C56.3132 136.278 56.3099 136.278 56.3099 136.281C53.9569 140.484 55.8034 138.477 55.5844 139.422L55.689 139.448C55.738 139.461 55.8883 139.5 56.1302 139.556C57.5126 139.886 63.2122 134.536 67.0392 134.536C69.3367 134.536 75.4187 138.314 77.4548 138.589C79.0659 138.804 80.5039 139 81.3602 138.245C81.6086 138.025 81.7984 137.747 81.9125 137.435L81.9223 137.405L81.919 137.376L81.8373 136.281L81.7883 135.628L81.0889 126.248C80.6984 125.764 80.4515 125.18 80.3764 124.562C80.3013 123.944 80.401 123.318 80.6641 122.754L80.8079 122.45L80.2784 115.365L80.1804 114.042L80.1444 113.594V113.591L79.8895 110.169L80.5039 108.299V108.296L81.7001 104.655L82.3145 102.783L82.7001 101.606L82.7263 101.528C82.5205 100.67 82.2304 99.8349 81.8602 99.0343Z" fill="#FAAE2B"/>
<path d="M87.8223 132.83L81.2339 115.802L78.1738 109.585L84.0581 106.334L88.7972 114.684L91.974 132.13C92.474 132.471 92.8606 132.954 93.084 133.517C93.3074 134.079 93.3575 134.696 93.2277 135.288C93.098 135.879 92.7944 136.418 92.356 136.836C91.9175 137.253 91.3642 137.53 90.7672 137.631C90.1701 137.732 89.5566 137.652 89.0054 137.401C88.4543 137.15 87.9906 136.741 87.674 136.225C87.3575 135.708 87.2024 135.109 87.2289 134.505C87.2553 133.9 87.462 133.316 87.8223 132.83Z" fill="#9F616A"/>
<path d="M87.955 109.371L86.2686 108.28L84.3306 104.655L83.3306 102.783L82.6998 101.606L82.4318 101.103L79.4023 99.0343L77.3564 97.6355L75.6897 99.0343L74.8955 99.701L75.6733 102.783L76.1439 104.655L77.1701 108.718L80.1801 114.042L80.9285 115.365L81.3566 116.127L81.3599 116.133L81.4187 116.234L89.0237 115.917L89.2622 115.908L89.2753 115.365L89.2818 115.169C89.2851 115.071 89.2851 114.973 89.2851 114.875C89.2841 112.961 88.8282 111.075 87.955 109.371Z" fill="#FAAE2B"/>
<path d="M30.3948 126.058L43.8729 113.742L48.5571 108.635L53.7209 112.939L47.6587 120.384L32.5534 129.673C32.4167 130.263 32.1067 130.798 31.6633 131.211C31.2199 131.623 30.6634 131.893 30.0652 131.987C29.467 132.08 28.8545 131.993 28.3063 131.736C27.7582 131.479 27.2994 131.064 26.989 130.544C26.6786 130.024 26.5306 129.423 26.5643 128.819C26.5979 128.214 26.8115 127.633 27.1776 127.151C27.5437 126.669 28.0457 126.307 28.619 126.112C29.1922 125.918 29.8107 125.899 30.3948 126.058Z" fill="#9F616A"/>
<path d="M58.2186 104.656L58.1924 102.783L58.1434 99.0344L58.1238 97.58L58.0682 97.5408C57.7638 97.3412 57.4189 97.2117 57.0584 97.1617C56.7413 97.1092 56.4178 97.1092 56.1008 97.1617C55.9337 97.1876 55.7688 97.2258 55.6073 97.2761C55.604 97.2761 55.604 97.2761 55.6008 97.2794C54.632 97.6272 53.7766 98.2329 53.1268 99.0311L53.1235 99.0344C52.1435 100.2 51.2747 101.455 50.5286 102.783C50.1593 103.41 49.8064 104.044 49.4763 104.656C48.2279 106.979 47.3291 108.992 47.3128 109.028L43.5806 113.875L43.6329 113.963L44.4532 115.365L47.4599 120.506L47.937 121.323L49.156 120.673C50.577 119.915 51.6974 118.695 52.3327 117.215L52.7673 115.555L52.9275 115.365L57.0845 110.398L58.2741 108.973L58.2186 104.656Z" fill="#FAAE2B"/>
<path d="M72.4623 83.04C73.0188 79.6102 70.6897 76.3786 67.2599 75.8221C63.8301 75.2655 60.5985 77.5947 60.042 81.0245C59.4854 84.4542 61.8146 87.6858 65.2443 88.2424C68.6741 88.799 71.9057 86.4698 72.4623 83.04Z" fill="#9F616A"/>
<path d="M60.1706 77.908C59.891 76.9293 59.3317 76.0905 59.6114 76.0905C59.891 76.0905 60.0308 75.3914 60.0308 75.3914C60.0308 75.3914 60.3104 75.2516 60.4502 75.3914C60.59 75.5312 60.7298 74.4128 60.7298 74.4128C60.7298 74.4128 60.8696 73.9934 61.0094 74.273C61.1492 74.5526 61.1493 74.4128 61.2891 73.9934C61.4289 73.5739 62.128 73.2943 62.128 73.2943C62.128 73.2943 64.7843 73.4341 65.2037 72.8749C65.6232 72.3156 70.3767 72.7351 71.3553 73.4341C72.334 74.1331 76.1898 75.3829 73.9021 79.3046C75.2093 81.5923 73.2577 85.6726 72.7534 86.1567C71.956 86.9223 71.404 87.1983 67.6309 87.9491C66.8924 88.096 65.0781 81.9191 65.0781 81.9191C65.0781 81.9191 60.4502 78.8867 60.1706 77.908Z" fill="#2F2E41"/>
<path d="M62.954 194.183L62.7514 194.101L59.1107 192.617L58.5519 192.392L56.1923 194.183H56.189C54.8558 194.184 53.5778 194.715 52.6354 195.658C51.693 196.601 51.1633 197.879 51.1626 199.212V199.376H64.0815V194.183H62.954Z" fill="#2F2E41"/>
<path d="M100.926 199.601C100.926 199.653 100.917 199.703 100.897 199.751C100.878 199.798 100.849 199.842 100.813 199.878C100.777 199.914 100.734 199.943 100.687 199.963C100.639 199.983 100.589 199.993 100.537 199.993H34.0961C33.9925 199.993 33.8932 199.952 33.82 199.879C33.7467 199.806 33.7056 199.707 33.7056 199.603C33.7056 199.499 33.7467 199.4 33.82 199.327C33.8932 199.254 33.9925 199.212 34.0961 199.212H100.537C100.64 199.213 100.739 199.254 100.812 199.327C100.885 199.399 100.926 199.498 100.926 199.601Z" fill="#CCCCCC"/>
<path d="M32.3315 0C31.8173 9.13999 28.4576 17.8903 22.7227 25.0258C16.9878 32.1613 9.16498 37.3246 0.349539 39.7928C0.339735 40.0216 0.329928 40.2503 0.32666 40.4791C9.32472 38.0038 17.318 32.7647 23.1779 25.5015C29.0378 18.2383 32.4683 9.318 32.9851 0H32.3315Z" fill="white"/>
<path d="M22.3212 0C20.8024 5.77046 18.1251 11.1714 14.4523 15.8741C10.7795 20.5768 6.18799 24.4828 0.95737 27.3543C0.937761 27.6125 0.924694 27.8674 0.911621 28.1256C6.33248 25.2126 11.0927 21.2105 14.8934 16.3705C18.6941 11.5304 21.4532 5.957 22.9977 0H22.3212Z" fill="white"/>
</g>
<defs>
<clipPath id="clip0_26_215">
<rect width="132.67" height="200" fill="white"/>
</clipPath>
</defs>
</svg>
