<svg width="300" height="133" viewBox="0 0 300 133" fill="none" xmlns="http://www.w3.org/2000/svg">
<g clip-path="url(#clip0_26_356)">
<path d="M89.251 108.705C88.2196 116.786 84.4271 124.179 80.3812 131.301C80.2474 131.544 80.1098 131.783 79.9688 132.025H37.918C37.0676 131.804 36.2281 131.562 35.3921 131.301C30.6426 129.855 26.1587 127.649 22.1147 124.769C6.64424 113.623 0.691211 92.5619 3.38006 73.6897C5.052 61.9648 10.1979 49.9937 20.2183 43.6789C25.5091 40.3387 32.3052 39.2531 38.3957 40.4943C38.555 40.5233 38.7143 40.5595 38.877 40.592C44.117 41.7718 48.7853 44.703 51.4416 49.4256C56.2183 57.9117 53.374 68.4244 51.0255 77.8695C48.684 87.3146 47.4137 98.6198 54.21 105.586C51.9662 98.9816 54.181 91.1035 59.5405 86.6379C63.5899 83.2687 69.2281 82.0058 74.3704 83.0516C74.8625 83.1566 75.3475 83.276 75.8252 83.4207C76.9796 83.7588 78.0927 84.2249 79.1436 84.8104C87.1592 89.2868 90.4054 99.5969 89.251 108.705Z" fill="#F2F2F2"/>
<path d="M64.3173 131.301C65.4824 131.573 66.6513 131.811 67.8274 132.025H61.4692C60.6368 131.801 59.8081 131.562 58.9868 131.301C57.1809 130.737 55.4028 130.089 53.6525 129.358C46.6321 126.412 40.1652 121.99 35.2726 116.106C32.8797 113.255 30.9258 110.063 29.4752 106.635C27.9023 102.761 26.9027 98.6785 26.5079 94.5159C25.6212 85.9755 26.5259 77.1998 28.2159 68.8114C29.9599 60.1173 32.7751 51.6729 36.5971 43.6715C37.0567 42.7125 37.532 41.7596 38.0229 40.8126C38.0567 40.7347 38.1078 40.6655 38.1724 40.6103C38.237 40.5551 38.3133 40.5154 38.3956 40.4942C38.5626 40.4618 38.7357 40.4969 38.8769 40.5919C39.0464 40.6891 39.172 40.8477 39.2279 41.0349C39.2838 41.2222 39.2657 41.4237 39.1773 41.5979C35.2366 49.2828 32.2495 57.4202 30.2822 65.8295C28.3571 74.0334 27.2642 82.6172 27.6368 91.0527C27.9915 98.9345 30.0507 106.686 34.7225 113.131C38.9891 119.015 44.8805 123.655 51.398 126.814C55.5233 128.788 59.8568 130.293 64.3173 131.301Z" fill="white"/>
<path d="M78.2715 132.025H76.3969C76.187 131.786 75.9843 131.544 75.7853 131.301C71.5155 126.113 68.6229 119.932 67.3751 113.33C65.8597 105.091 67.0386 96.5828 70.737 89.066C71.7688 86.9582 72.9846 84.9456 74.3703 83.0515C74.8624 83.1565 75.3474 83.2759 75.8251 83.4206C72.1804 88.2495 69.7289 93.8717 68.6706 99.8284C67.7266 105.41 68.0405 111.132 69.5894 116.577C71.1383 122.022 73.8832 127.052 77.6237 131.301C77.8335 131.544 78.0506 131.786 78.2715 132.025Z" fill="white"/>
<path d="M247.14 125.871C247.412 128.003 248.413 129.954 249.481 131.834C249.516 131.898 249.552 131.961 249.59 132.025H260.688C260.912 131.967 261.134 131.903 261.354 131.834C262.608 131.452 263.791 130.87 264.858 130.11C268.941 127.168 270.512 121.61 269.803 116.629C269.361 113.535 268.003 110.375 265.359 108.709C263.923 107.834 262.209 107.534 260.561 107.868C260.519 107.876 260.477 107.886 260.434 107.894C259.748 108.027 259.098 108.303 258.527 108.705C257.955 109.107 257.475 109.625 257.118 110.225C255.858 112.465 256.608 115.24 257.228 117.732C257.846 120.225 258.181 123.209 256.388 125.047C256.651 124.278 256.704 123.453 256.542 122.657C256.381 121.861 256.01 121.122 255.468 120.516C254.927 119.911 254.233 119.46 253.46 119.211C252.686 118.962 251.86 118.924 251.067 119.1C250.937 119.128 250.809 119.159 250.683 119.197C250.378 119.287 250.085 119.41 249.807 119.564C247.692 120.746 246.835 123.467 247.14 125.871Z" fill="#F2F2F2"/>
<path d="M253.72 131.834C253.413 131.906 253.104 131.969 252.794 132.025H254.472C254.692 131.966 254.91 131.903 255.127 131.834C255.604 131.685 256.073 131.514 256.535 131.321C258.409 130.56 260.072 129.361 261.386 127.824C262.017 127.071 262.533 126.229 262.916 125.324C263.331 124.302 263.595 123.224 263.699 122.126C263.889 119.855 263.737 117.568 263.248 115.342C262.788 113.047 262.045 110.819 261.036 108.707C260.915 108.454 260.789 108.202 260.66 107.952C260.651 107.932 260.637 107.914 260.62 107.899C260.603 107.884 260.583 107.874 260.562 107.868C260.517 107.86 260.472 107.869 260.435 107.894C260.39 107.92 260.357 107.962 260.342 108.011C260.327 108.06 260.332 108.114 260.355 108.16C261.395 110.188 262.184 112.335 262.703 114.555C263.238 116.732 263.472 118.971 263.401 121.212C263.363 123.295 262.712 125.322 261.531 127.039C260.382 128.585 258.871 129.825 257.13 130.65C256.041 131.171 254.898 131.568 253.72 131.834Z" fill="white"/>
<path d="M250.038 132.025H250.532C250.588 131.962 250.641 131.898 250.694 131.834C251.821 130.465 252.584 128.834 252.913 127.091C253.313 124.917 253.002 122.671 252.026 120.687C251.754 120.131 251.433 119.6 251.067 119.1C250.937 119.128 250.809 119.159 250.683 119.198C251.645 120.472 252.292 121.956 252.571 123.528C252.821 125.001 252.738 126.511 252.329 127.948C251.92 129.385 251.196 130.713 250.209 131.834C250.153 131.898 250.096 131.962 250.038 132.025Z" fill="white"/>
<path d="M147.108 76.9027H112.375L112.006 66.2234C111.99 65.7604 112.075 65.2995 112.254 64.8724C112.433 64.4453 112.703 64.0621 113.045 63.7491C113.386 63.4362 113.791 63.201 114.233 63.0597C114.674 62.9185 115.14 62.8745 115.6 62.9307L135.813 65.4058H135.815C138.812 65.4139 141.683 66.6094 143.8 68.7305C145.917 70.8516 147.106 73.7252 147.108 76.7218V76.9027Z" fill="#FAAE2B"/>
<path d="M131.628 39.0212H107.402C107.08 39.0212 106.761 39.0845 106.464 39.2078C106.166 39.3311 105.895 39.5118 105.668 39.7396C105.44 39.9674 105.259 40.2379 105.136 40.5355C105.013 40.8332 104.949 41.1522 104.949 41.4744V65.6996C104.949 66.0217 105.013 66.3408 105.136 66.6384C105.259 66.9361 105.44 67.2066 105.668 67.4344C105.895 67.6622 106.166 67.8429 106.464 67.9662C106.761 68.0894 107.08 68.1528 107.402 68.1527H131.628C131.95 68.1528 132.269 68.0894 132.566 67.9662C132.864 67.8429 133.135 67.6622 133.362 67.4344C133.59 67.2066 133.771 66.9361 133.894 66.6384C134.017 66.3408 134.081 66.0217 134.081 65.6996V41.4744C134.081 41.1522 134.017 40.8332 133.894 40.5355C133.771 40.2379 133.59 39.9674 133.362 39.7396C133.135 39.5117 132.864 39.3311 132.566 39.2078C132.269 39.0846 131.95 39.0212 131.628 39.0212Z" fill="#CCCCCC"/>
<path d="M126.172 57.1359L114.734 59.3632C114.055 59.4946 113.353 59.3514 112.78 58.9652C112.207 58.579 111.81 57.9812 111.677 57.303L110.798 52.7881C110.667 52.1097 110.81 51.4068 111.196 50.8338C111.582 50.2607 112.18 49.8643 112.858 49.7315L124.296 47.5041C124.974 47.3728 125.677 47.5159 126.25 47.9022C126.823 48.2884 127.22 48.8862 127.353 49.5643L128.232 54.0792C128.363 54.7577 128.22 55.4605 127.834 56.0336C127.448 56.6066 126.85 57.003 126.172 57.1359Z" fill="#3F3D56"/>
<path d="M123.883 51.802L115.154 53.5018C114.995 53.5329 114.829 53.4993 114.694 53.4084C114.559 53.3175 114.466 53.1767 114.435 53.017C114.404 52.8574 114.438 52.6919 114.529 52.557C114.619 52.4221 114.76 52.3289 114.92 52.2978L123.649 50.598C123.808 50.5669 123.974 50.6005 124.109 50.6914C124.244 50.7823 124.337 50.9231 124.368 51.0827C124.399 51.2424 124.365 51.4079 124.275 51.5428C124.184 51.6776 124.043 51.7709 123.883 51.802Z" fill="white"/>
<path d="M122.187 54.3193L117.672 55.1985C117.512 55.2296 117.347 55.196 117.212 55.1051C117.077 55.0142 116.984 54.8734 116.953 54.7137C116.922 54.5541 116.955 54.3886 117.046 54.2537C117.137 54.1189 117.278 54.0256 117.437 53.9945L121.952 53.1153C122.031 53.0999 122.113 53.1002 122.192 53.1163C122.271 53.1323 122.346 53.1637 122.412 53.2087C122.479 53.2537 122.536 53.3115 122.581 53.3786C122.625 53.4458 122.656 53.521 122.672 53.6001C122.687 53.6791 122.687 53.7604 122.671 53.8394C122.655 53.9183 122.623 53.9933 122.578 54.0601C122.533 54.1269 122.475 54.1841 122.408 54.2286C122.341 54.2731 122.266 54.3039 122.187 54.3193Z" fill="white"/>
<path d="M134.081 41.4744V44.6942H104.949V41.4744C104.949 41.1522 105.013 40.8332 105.136 40.5355C105.259 40.2379 105.44 39.9674 105.668 39.7396C105.895 39.5118 106.166 39.3311 106.464 39.2078C106.761 39.0845 107.08 39.0212 107.402 39.0212H131.628C131.95 39.0212 132.269 39.0845 132.566 39.2078C132.864 39.3311 133.135 39.5118 133.362 39.7396C133.59 39.9674 133.771 40.2379 133.894 40.5355C134.017 40.8332 134.081 41.1522 134.081 41.4744Z" fill="#B3B3B3"/>
<path d="M192.254 45.7025C192.085 45.1596 191.8 44.6602 191.418 44.2395C191.036 43.8187 190.566 43.4869 190.042 43.2673C189.518 43.0477 188.952 42.9457 188.384 42.9685C187.816 42.9913 187.26 43.1383 186.755 43.3992L153.427 31.4417L151.959 39.7676L185.181 48.9034C185.676 49.7226 186.454 50.3319 187.368 50.6158C188.281 50.8998 189.268 50.8387 190.139 50.4442C191.011 50.0496 191.708 49.349 192.097 48.4751C192.487 47.6012 192.543 46.6147 192.254 45.7025Z" fill="#FFB8B8"/>
<path opacity="0.2" d="M192.254 45.7025C192.085 45.1596 191.8 44.6602 191.418 44.2395C191.036 43.8187 190.566 43.4869 190.042 43.2673C189.518 43.0477 188.952 42.9457 188.384 42.9685C187.816 42.9913 187.26 43.1383 186.755 43.3992L153.427 31.4417L151.959 39.7676L185.181 48.9034C185.676 49.7226 186.454 50.3319 187.368 50.6158C188.281 50.8998 189.268 50.8387 190.139 50.4442C191.011 50.0496 191.708 49.349 192.097 48.4751C192.487 47.6012 192.543 46.6147 192.254 45.7025Z" fill="black"/>
<path d="M159.343 32.9588L156.196 41.1809C156.106 41.4148 155.967 41.6267 155.788 41.8021C155.609 41.9775 155.395 42.1123 155.159 42.1974C154.924 42.2824 154.672 42.3156 154.423 42.2948C154.173 42.274 153.931 42.1997 153.713 42.0768L146.064 37.7718C144.87 37.3068 143.909 36.3872 143.391 35.2147C142.874 34.0422 142.843 32.7124 143.304 31.5169C143.766 30.3214 144.683 29.3577 145.854 28.8371C147.025 28.3165 148.355 28.2815 149.552 28.7397L158.093 30.6341C158.337 30.6884 158.567 30.7947 158.767 30.9459C158.967 31.0971 159.131 31.2896 159.25 31.5102C159.369 31.7308 159.438 31.9744 159.454 32.2244C159.47 32.4744 159.432 32.7249 159.343 32.9588Z" fill="#FAAE2B"/>
<path d="M194.877 53.3157L182.935 58.7439L184.502 64.6466C187.53 76.045 188.334 87.92 186.869 99.6224L195.6 101.446L202.838 82.99L200.305 62.0008L194.877 53.3157Z" fill="#FAAE2B"/>
<path d="M218.309 80.6377C210.462 80.6377 204.068 86.3417 203.758 93.4845H232.86C232.549 86.3417 226.155 80.6377 218.309 80.6377Z" fill="#3F3D56"/>
<path d="M212.201 81.8687C211.793 49.6256 193.43 52.5919 193.43 52.5919C193.43 52.5919 193.773 62.6281 193.938 62.9402C205.64 85.08 186.328 111.036 161.745 106.261C161.282 106.171 160.836 106.079 160.409 105.987C157.294 105.336 154.544 103.524 152.718 100.918C150.892 98.3123 150.127 95.1088 150.579 91.9591C153.001 72.5132 140.957 72.8573 140.957 72.8573H123.345L114.199 64.626C113.876 64.3354 113.487 64.1284 113.066 64.023C112.645 63.9175 112.204 63.9169 111.782 64.0212C111.361 64.1255 110.971 64.3315 110.647 64.6212C110.324 64.9109 110.076 65.2754 109.926 65.683L108.749 68.8766C108.749 68.8766 91.3789 70.686 92.8264 87.6945H98.1967C98.1837 88.1777 98.2031 88.6613 98.2546 89.142L138.333 88.8161C140.683 88.797 142.756 90.7007 142.766 93.05C142.768 93.622 142.656 94.1886 142.434 94.7159C142.212 95.2432 141.887 95.7203 141.476 96.1189C141.066 96.5174 140.58 96.829 140.046 97.0352C139.513 97.2414 138.943 97.3378 138.371 97.3188L131.91 97.1034C129.919 105.969 134.805 111.941 140.188 115.695C145.256 119.179 151.27 121.026 157.42 120.988H174.974C197.772 120.988 201.753 101.808 201.753 101.808C213.695 96.7415 212.201 81.8687 212.201 81.8687Z" fill="#3F3D56"/>
<path d="M217.223 131.482C228.465 131.482 237.579 122.369 237.579 111.126C237.579 99.8841 228.465 90.7705 217.223 90.7705C205.981 90.7705 196.867 99.8841 196.867 111.126C196.867 122.369 205.981 131.482 217.223 131.482Z" fill="#3F3D56"/>
<path d="M217.223 116.116C219.979 116.116 222.212 113.882 222.212 111.126C222.212 108.371 219.979 106.137 217.223 106.137C214.468 106.137 212.234 108.371 212.234 111.126C212.234 113.882 214.468 116.116 217.223 116.116Z" fill="white"/>
<path d="M114.448 131.482C127.389 131.482 137.88 120.991 137.88 108.05C137.88 95.1092 127.389 84.6184 114.448 84.6184C101.507 84.6184 91.0166 95.1092 91.0166 108.05C91.0166 120.991 101.507 131.482 114.448 131.482Z" fill="#3F3D56"/>
<path d="M114.449 113.793C117.62 113.793 120.192 111.222 120.192 108.05C120.192 104.878 117.62 102.307 114.449 102.307C111.277 102.307 108.706 104.878 108.706 108.05C108.706 111.222 111.277 113.793 114.449 113.793Z" fill="white"/>
<path d="M182.969 60.3479L178.672 48.6774C178.448 48.0691 178.346 47.4228 178.372 46.7751C178.398 46.1275 178.551 45.4913 178.823 44.9029C179.095 44.3144 179.48 43.7853 179.956 43.3457C180.432 42.906 180.99 42.5645 181.599 42.3406L193.917 37.8057C194.987 37.4116 196.125 37.2322 197.264 37.2777C198.404 37.3231 199.523 37.5926 200.559 38.0707C201.594 38.5487 202.525 39.2261 203.299 40.064C204.072 40.9019 204.673 41.884 205.067 42.9542C205.423 43.9148 205.604 44.931 205.603 45.9551C205.599 47.2556 205.304 48.5387 204.742 49.7111C204.179 50.8836 203.362 51.916 202.351 52.7332C201.62 53.3194 200.799 53.7825 199.919 54.1044L182.969 60.3479Z" fill="#3F3D56"/>
<path d="M205.422 45.955C205.421 47.2289 205.135 48.4865 204.584 49.635C204.032 50.7836 203.231 51.794 202.238 52.5919C200.714 52.19 199.296 51.4611 198.083 50.4558C196.869 49.4505 195.889 48.193 195.211 46.7707C194.532 45.3484 194.172 43.7954 194.154 42.2197C194.136 40.6439 194.462 39.0833 195.109 37.6462C196.35 37.3762 197.636 37.3877 198.872 37.6798C200.108 37.9719 201.263 38.5371 202.253 39.334C203.242 40.1309 204.04 41.1393 204.588 42.285C205.137 43.4307 205.422 44.6847 205.422 45.955Z" fill="#FAAE2B"/>
<path d="M95.9023 90.0467C98.7003 90.0467 100.969 87.2923 100.969 83.8947C100.969 80.497 98.7003 77.7427 95.9023 77.7427C93.1042 77.7427 90.8359 80.497 90.8359 83.8947C90.8359 87.2923 93.1042 90.0467 95.9023 90.0467Z" fill="#FAAE2B"/>
<path d="M162.872 105.671H167.309L169.42 94.1646L162.872 94.1649L162.872 105.671Z" fill="#FFB8B8"/>
<path d="M161.741 104.223L170.478 104.222H170.478C171.21 104.222 171.934 104.366 172.609 104.646C173.285 104.926 173.898 105.336 174.416 105.853C174.933 106.37 175.343 106.984 175.623 107.66C175.902 108.335 176.046 109.059 176.046 109.79V109.971L161.741 109.972L161.741 104.223Z" fill="#2F2E41"/>
<path d="M168.022 100.949C167.97 100.949 167.919 100.946 167.866 100.941L161.727 100.494C161.478 100.471 161.239 100.391 161.026 100.261C160.813 100.131 160.634 99.9533 160.5 99.7425C160.367 99.5317 160.284 99.2931 160.258 99.0452C160.231 98.7972 160.262 98.5465 160.348 98.3123L168.565 79.8511C168.624 79.6865 168.648 79.5115 168.636 79.3372C168.623 79.1629 168.575 78.993 168.494 78.8382C168.413 78.6816 168.3 78.5439 168.162 78.4341C168.024 78.3244 167.865 78.245 167.694 78.2014C163.83 77.1914 153.916 74.502 145.335 71.3553C141.658 70.0071 139.342 68.0588 138.452 65.5645C137.278 62.2761 139.015 59.2772 139.089 59.1513L139.147 59.0527L147.223 59.7867L155.977 60.5314L175.162 70.8188C176.769 71.6882 177.99 73.1311 178.582 74.8603C179.173 76.5895 179.091 78.478 178.353 80.1497L169.508 99.9835C169.38 100.271 169.172 100.515 168.908 100.686C168.644 100.857 168.337 100.949 168.022 100.949Z" fill="#2F2E41"/>
<path d="M148.627 23.2622C153.536 23.2622 157.515 19.2828 157.515 14.374C157.515 9.46522 153.536 5.48584 148.627 5.48584C143.718 5.48584 139.739 9.46522 139.739 14.374C139.739 19.2828 143.718 23.2622 148.627 23.2622Z" fill="#FFB8B8"/>
<path d="M160.339 106.757H164.776L166.887 95.2502L160.338 95.2506L160.339 106.757Z" fill="#FFB8B8"/>
<path d="M159.208 105.308L167.945 105.308H167.945C168.676 105.308 169.4 105.452 170.076 105.732C170.751 106.012 171.365 106.422 171.882 106.939C172.399 107.456 172.81 108.07 173.089 108.745C173.369 109.421 173.513 110.145 173.513 110.876V111.057L159.208 111.058L159.208 105.308Z" fill="#2F2E41"/>
<path d="M165.489 102.034C165.437 102.034 165.385 102.032 165.333 102.027L159.193 101.58C158.945 101.557 158.705 101.477 158.493 101.347C158.28 101.216 158.1 101.039 157.967 100.828C157.834 100.617 157.751 100.379 157.725 100.131C157.698 99.8826 157.729 99.6319 157.815 99.3978L166.032 80.9365C166.091 80.7719 166.115 80.597 166.102 80.4226C166.09 80.2483 166.042 80.0784 165.961 79.9237C165.88 79.767 165.767 79.6293 165.629 79.5196C165.491 79.4098 165.331 79.3305 165.161 79.2868C161.297 78.2768 151.383 75.5874 142.801 72.4408C139.125 71.0925 136.809 69.1442 135.919 66.6499C134.745 63.3615 136.481 60.3626 136.556 60.2368L136.614 60.1382L144.689 60.8722L153.444 61.6168L172.628 71.9043C174.236 72.7736 175.457 74.2166 176.048 75.9457C176.64 77.6749 176.558 79.5634 175.82 81.2351L166.975 101.069C166.847 101.356 166.638 101.6 166.375 101.772C166.111 101.943 165.803 102.034 165.489 102.034Z" fill="#2F2E41"/>
<path d="M151.368 28.3021L141.959 25.0452C141.959 25.0452 136.053 29.5832 138.89 40.8408C140.371 46.6501 139.94 52.7823 137.66 58.327C137.385 59.013 137.069 59.6815 136.712 60.3286C136.712 60.3286 147.206 72.9945 156.977 63.5856L153.178 45.3105C153.178 45.3105 159.149 33.1875 151.368 28.3021Z" fill="#FAAE2B"/>
<path d="M149.73 23.5645C148.465 21.671 147.467 19.0455 148.86 17.2439C150.234 15.4656 152.946 15.7275 155.052 14.9406C157.984 13.8446 159.685 10.3993 159.155 7.31375C158.624 4.22822 156.147 1.67041 153.197 0.62384C150.246 -0.422733 146.919 -0.0823629 144.029 1.12283C140.472 2.60644 137.421 5.47637 136.141 9.11183C134.862 12.7473 135.546 17.1123 138.2 19.9066C141.046 22.9024 145.512 23.7008 149.644 23.6523" fill="#2F2E41"/>
<path d="M141.462 7.41284C139.868 8.7105 137.436 8.13413 135.725 6.99527C134.014 5.85641 132.626 4.23474 130.774 3.34183C127.511 1.76766 123.564 2.81412 120.388 4.55779C117.211 6.30146 114.395 8.71038 111.04 10.0787C107.685 11.4471 103.403 11.5147 100.862 8.93097C100.237 10.7425 100.186 12.7028 100.716 14.5444C101.246 16.3861 102.331 18.0193 103.824 19.2214C105.316 20.4235 107.143 21.1358 109.055 21.2611C110.968 21.3865 112.872 20.9188 114.509 19.9218C118.185 17.6824 120.216 12.9869 124.34 11.7508C126.621 11.0668 129.072 11.6177 131.378 12.2144C133.684 12.8111 136.089 13.4558 138.416 12.9478C140.743 12.4399 142.92 10.3484 142.624 7.98471L141.462 7.41284Z" fill="#2F2E41"/>
<path d="M191.811 45.3407C191.577 44.8227 191.233 44.3623 190.802 43.9919C190.371 43.6215 189.864 43.3501 189.316 43.1969C188.769 43.0436 188.195 43.0122 187.634 43.1049C187.073 43.1976 186.54 43.4121 186.071 43.7333L151.522 35.9792L151.093 44.4227L185.188 49.3897C185.78 50.1416 186.627 50.6502 187.569 50.8193C188.511 50.9884 189.482 50.8061 190.298 50.307C191.115 49.8079 191.72 49.0267 191.998 48.1114C192.277 47.196 192.211 46.2102 191.811 45.3407Z" fill="#FFB8B8"/>
<path d="M157.58 36.7547L155.471 45.3022C155.411 45.5454 155.299 45.7729 155.144 45.969C154.988 46.1651 154.791 46.3254 154.568 46.4388C154.345 46.5523 154.1 46.6163 153.849 46.6264C153.599 46.6366 153.35 46.5927 153.118 46.4977L144.996 43.1693C143.753 42.8559 142.685 42.0621 142.026 40.9621C141.367 39.8621 141.172 38.5457 141.483 37.3018C141.793 36.0579 142.585 34.988 143.684 34.327C144.782 33.666 146.098 33.4678 147.343 33.7759L156.052 34.6019C156.302 34.6256 156.543 34.7028 156.76 34.8282C156.977 34.9536 157.164 35.1243 157.309 35.3286C157.454 35.5329 157.553 35.766 157.6 36.0121C157.647 36.2582 157.64 36.5115 157.58 36.7547Z" fill="#FAAE2B"/>
<path d="M187.82 52.049C189.219 52.049 190.353 50.9149 190.353 49.5158C190.353 48.1168 189.219 46.9827 187.82 46.9827C186.421 46.9827 185.287 48.1168 185.287 49.5158C185.287 50.9149 186.421 52.049 187.82 52.049Z" fill="#FAAE2B"/>
<path d="M300 131.663C300 131.759 299.961 131.851 299.894 131.919C299.826 131.987 299.734 132.025 299.638 132.025H0.361882C0.265905 132.025 0.173858 131.987 0.105992 131.919C0.0381264 131.851 0 131.759 0 131.663C0 131.567 0.0381264 131.475 0.105992 131.407C0.173858 131.339 0.265905 131.301 0.361882 131.301H299.638C299.734 131.302 299.826 131.34 299.894 131.408C299.961 131.475 300 131.567 300 131.663Z" fill="#3F3D56"/>
</g>
<defs>
<clipPath id="clip0_26_356">
<rect width="300" height="132.025" fill="white"/>
</clipPath>
</defs>
</svg>
