<svg width="300" height="161" viewBox="0 0 300 161" fill="none" xmlns="http://www.w3.org/2000/svg">
<g clip-path="url(#clip0_26_710)">
<path d="M128.767 19.0065H120.072C118.519 19.0065 117.256 17.7435 117.256 16.1913V2.81519C117.256 1.26299 118.519 0 120.072 0H128.767C130.319 0 131.582 1.26299 131.582 2.81519V16.1913C131.582 17.7435 130.319 19.0065 128.767 19.0065Z" fill="#E6E6E6"/>
<path d="M147.801 19.0065H139.105C137.553 19.0065 136.29 17.7435 136.29 16.1913V2.81519C136.29 1.26299 137.553 0 139.105 0H147.801C149.353 0 150.616 1.26299 150.616 2.81519V16.1913C150.616 17.7435 149.353 19.0065 147.801 19.0065Z" fill="#CCCCCC"/>
<path d="M168.082 19.0065H159.386C157.834 19.0065 156.571 17.7435 156.571 16.1913V2.81519C156.571 1.26299 157.834 0 159.386 0H168.082C169.634 0 170.897 1.26299 170.897 2.81519V16.1913C170.897 17.7435 169.634 19.0065 168.082 19.0065Z" fill="#E6E6E6"/>
<path d="M72.9548 62.4169C74.4616 60.8834 76.4742 60.4179 77.45 61.377C78.4257 62.3361 77.995 64.3564 76.4874 65.8902C75.8936 66.5111 75.1597 66.9809 74.3472 67.26L67.8806 73.6767L64.9341 70.578L71.6218 64.5812C71.8869 63.7637 72.344 63.0215 72.9548 62.4169Z" fill="#A0616A"/>
<path d="M52.2737 57.1201L59.0538 72.1613L69.8806 66.3009L73.7553 68.3573C73.7553 68.3573 64.9046 83.154 58.8446 81.4696C52.7845 79.7852 42.0235 64.5121 43.9624 59.7984C45.9012 55.0846 52.2737 57.1201 52.2737 57.1201Z" fill="#3F3D56"/>
<path d="M241.358 6.73267H257.363L263.633 11.2785L247.286 12.1877L241.358 6.73267Z" fill="#E6E6E6"/>
<path d="M0 157.741C0 158.041 0.240944 158.282 0.540985 158.282H270.697C270.997 158.282 271.238 158.041 271.238 157.741C271.238 157.441 270.997 157.2 270.697 157.2H0.540985C0.240944 157.2 0 157.441 0 157.741Z" fill="#3F3D56"/>
<path d="M273.706 42.6572L280.004 45.6408C277.421 42.0355 275.195 36.4049 274.003 31.9244C271.985 36.098 268.732 41.2047 265.513 44.2552L272.169 42.5426C268.068 62.6459 252.639 77.0781 234.972 77.0781L234.722 77.8042C253.176 77.8042 269.517 63.5721 273.706 42.6572Z" fill="#3F3D56"/>
<path d="M143.694 32.2017L149.993 35.1854C147.409 31.5801 145.183 25.9495 143.992 21.469C141.974 25.6426 138.721 30.7493 135.501 33.7997L142.158 32.0872C138.056 52.1905 122.628 66.6226 104.961 66.6226L104.71 67.3488C123.165 67.3488 139.506 53.1167 143.694 32.2017Z" fill="#3F3D56"/>
<path d="M240.3 92.6988C239.406 91.6341 238.335 90.9105 237.374 90.632L226.067 77.8503C226.067 77.8503 225.123 65.952 224.367 61.7971C223.612 57.6421 218.513 58.7753 218.513 58.7753L219.079 70.6735L222.29 83.5161L235.521 94.7489C235.752 95.1699 236.035 95.5906 236.374 95.9947C237.984 97.9119 240.168 98.7283 241.252 97.8182C242.336 96.908 241.91 94.616 240.3 92.6988Z" fill="#FFB6B6"/>
<path d="M185.986 92.6988C186.88 91.6341 187.951 90.9105 188.912 90.632L200.219 77.8503C200.219 77.8503 201.164 65.952 201.919 61.7971C202.674 57.6421 207.774 58.7753 207.774 58.7753L207.207 70.6735L203.996 83.5161L190.766 94.7489C190.535 95.1699 190.251 95.5906 189.912 95.9947C188.302 97.9119 186.119 98.7283 185.035 97.8182C183.951 96.908 184.377 94.616 185.986 92.6988Z" fill="#FFB6B6"/>
<path d="M210.864 57.1699L212.175 52.1276L217.285 51.8818L218.814 58.8325L210.864 57.1699Z" fill="#FFB6B6"/>
<path opacity="0.1" d="M210.864 57.1699L212.175 52.1276L217.285 51.8818L218.814 58.8325L210.864 57.1699Z" fill="black"/>
<path d="M197.816 139.777L193.03 139.504L193.658 154.191L196.901 154.376L197.816 139.777Z" fill="#FFB6B6"/>
<path d="M193.243 149.547L194.905 150.305L194.903 151.312C194.903 151.312 195.304 150.147 197.456 149.892L197.713 150.869C197.713 150.869 198.547 151.827 198.404 153.56L197.856 158.2L196.233 158.163L195.971 154.934C195.971 154.934 195.524 154.201 193.465 157.683C193.465 157.683 191.196 158.254 187.684 157.077C187.201 156.915 186.865 156.464 186.872 155.955C186.875 155.674 186.985 155.414 187.337 155.321C188.234 155.084 189.11 155.384 189.689 154.668C190.269 153.953 193.243 149.547 193.243 149.547Z" fill="#2F2E41"/>
<path d="M223.501 139.777L218.715 139.504L219.343 154.191L222.586 154.376L223.501 139.777Z" fill="#FFB6B6"/>
<path d="M218.928 149.547L220.59 150.305L220.588 151.312C220.588 151.312 220.989 150.147 223.141 149.892L223.398 150.869C223.398 150.869 224.232 151.827 224.089 153.56L223.541 158.2L221.918 158.163L221.656 154.934C221.656 154.934 221.209 154.201 219.15 157.683C219.15 157.683 216.881 158.254 213.369 157.077C212.886 156.915 212.55 156.464 212.557 155.955C212.56 155.674 212.67 155.414 213.022 155.321C213.919 155.084 214.795 155.384 215.374 154.668C215.954 153.953 218.928 149.547 218.928 149.547Z" fill="#2F2E41"/>
<path d="M214.792 55.097C217.921 55.097 220.458 52.5604 220.458 49.4312C220.458 46.3021 217.921 43.7654 214.792 43.7654C211.663 43.7654 209.126 46.3021 209.126 49.4312C209.126 52.5604 211.663 55.097 214.792 55.097Z" fill="#FFB6B6"/>
<path d="M218.005 50.3731C218.005 50.3731 215.514 46.2972 213.02 46.747C210.527 47.1969 209.227 47.6031 209.227 47.6031C209.227 47.6031 208.212 44.3533 211.621 42.7942C211.621 42.7942 206.796 38.7548 211.938 36.1624C217.08 33.57 220.28 36.0825 220.28 36.0825C220.28 36.0825 224.535 39.6917 219.817 43.0319C219.817 43.0319 223.901 47.6839 219.776 52.1277C219.776 52.1277 220.504 48.744 219.514 49.4377C218.523 50.1313 218.005 50.3731 218.005 50.3731Z" fill="#2F2E41"/>
<path d="M218.607 57.5477L210.864 56.6034L204.915 61.4193C204.915 61.4193 201.956 69.6632 204.159 74.6396C204.212 74.7589 204.254 83.0439 204.254 83.0439H220.705C220.705 83.0439 220.69 77.4047 221.318 75.3622C221.408 75.0705 221.511 74.8521 221.629 74.7341C222.573 73.7898 224.84 67.7462 223.706 65.1021C222.573 62.4581 218.607 57.5477 218.607 57.5477Z" fill="#E6E6E6"/>
<path d="M204.159 82.6663L193.772 115.717L191.505 141.78H197.832L203.215 117.606L210.627 103.612L217.946 143.668H224.332L224.178 89.4653L220.692 82.6663H204.159Z" fill="#2F2E41"/>
<path d="M212.974 123.306C227.002 123.306 238.374 111.934 238.374 97.9063C238.374 83.8784 227.002 72.5066 212.974 72.5066C198.947 72.5066 187.575 83.8784 187.575 97.9063C187.575 111.934 198.947 123.306 212.974 123.306Z" fill="#FA5246"/>
<path d="M49.3008 157.364L54.2446 157.363L56.5964 138.294L49.2998 138.295L49.3008 157.364Z" fill="#A0616A"/>
<path d="M66.2389 157.252C66.3928 157.511 66.4741 158.348 66.4741 158.649C66.4741 159.576 65.7228 160.327 64.7961 160.327H49.4858C48.8536 160.327 48.3411 159.815 48.3411 159.182V158.545C48.3411 158.545 47.5837 156.629 49.1431 154.268C49.1431 154.268 51.0811 156.117 53.977 153.221L54.831 151.674L61.0126 156.195L64.439 156.617C65.1886 156.709 65.8533 156.602 66.2389 157.252Z" fill="#2F2E41"/>
<path d="M53.0418 58.0854L53.1418 51.4174L49.0299 48.8541L44.5586 54.3235L53.0418 58.0854Z" fill="#A0616A"/>
<path opacity="0.1" d="M53.0418 58.0854L53.3079 51.5835L49.0298 48.8541L50.4833 56.9005L53.0418 58.0854Z" fill="black"/>
<path d="M53.0546 53.4924C57.0935 53.4924 60.3676 50.2182 60.3676 46.1794C60.3676 42.1406 57.0935 38.8665 53.0546 38.8665C49.0158 38.8665 45.7417 42.1406 45.7417 46.1794C45.7417 50.2182 49.0158 53.4924 53.0546 53.4924Z" fill="#A0616A"/>
<path d="M63.0282 102.178L56.2158 148.535H47.6689L48.8054 122.073L49.4035 108.159L47.6689 101.536C47.6689 101.536 46.878 100.064 46.2117 98.2796C45.4607 96.2658 44.8675 93.8515 45.7481 92.7067C46.0721 92.2847 46.9145 91.9723 48.0593 91.7397C48.7588 91.5968 49.573 91.4855 50.452 91.3991C55.5064 90.899 62.6959 91.2113 62.6959 91.2113L62.8786 97.2428L62.98 100.611L63.0282 102.178Z" fill="#2F2E41"/>
<path d="M40.5923 155.097L45.4836 155.815L50.5841 137.291L43.365 136.23L40.5923 155.097Z" fill="#A0616A"/>
<path d="M57.3663 157.45C57.4809 157.728 57.4396 158.568 57.3957 158.866C57.2609 159.783 56.4084 160.417 55.4915 160.282L40.3441 158.055C39.7186 157.963 39.2861 157.382 39.378 156.756L39.4708 156.126C39.4708 156.126 39.0001 154.12 40.8863 152.011C40.8863 152.011 42.5348 154.122 45.8211 151.678L46.8911 150.272L52.3493 155.644L55.6779 156.559C56.4062 156.76 57.0793 156.751 57.3663 157.45Z" fill="#2F2E41"/>
<path d="M63.1351 94.4464L62.2007 102.493L57.1051 119.45L48.7169 147.367L40.2617 146.124L47.8501 106.431L47.0987 99.6245C47.0987 99.6245 46.8541 98.9479 46.5736 97.9574C46.0168 95.9979 45.3185 92.8068 46.0867 91.1791C46.1905 90.9578 46.3207 90.7658 46.4818 90.6104C46.784 90.3173 47.3981 90.1394 48.2209 90.045C51.66 89.6563 58.7427 90.768 61.8943 91.3137L63.1351 94.4464Z" fill="#2F2E41"/>
<path d="M45.4986 52.9127L53.8063 56.9004C53.8063 56.9004 62.6125 82.9867 62.6125 84.3159C62.6125 85.6451 65.1048 86.4759 63.6094 87.9713C62.114 89.4667 66.3928 90.7331 64.0872 91.9276C61.7817 93.1221 47.3996 99.6558 45.8003 99.0666C41.3896 97.4415 45.9872 91.4704 45.9872 91.4704C45.9872 91.4704 42.674 88.8021 43.1724 87.4728C43.6709 86.1436 40.1816 60.722 40.1816 60.722L45.4986 52.9127Z" fill="#3F3D56"/>
<path d="M52.6079 47.931L53.5485 49.8122C53.5485 49.8122 54.4891 46.426 55.9941 45.6735C57.499 44.9211 57.6871 43.7923 57.6871 43.7923C57.6871 43.7923 59.5683 46.2379 60.8852 45.6735C62.202 45.1092 62.7664 44.7329 61.2614 42.4755C59.7565 40.2181 60.1327 41.3468 60.1327 41.3468C60.1327 41.3468 58.8159 39.4656 59.004 40.03C59.1921 40.5943 57.8753 38.525 57.8753 39.0894C57.8753 39.6537 56.9347 37.9607 56.9347 38.525C56.9347 39.0894 52.9842 37.2082 53.5485 37.9607C54.1129 38.7131 50.1624 36.4557 48.2812 39.4656C46.4 42.4755 43.7915 41.9189 44.7195 43.7962C45.6475 45.6735 45.2713 50.7528 45.2713 50.7528H47.8657C47.8657 50.7528 50.5386 45.6735 52.6079 47.931Z" fill="#2F2E41"/>
<path d="M263.633 11.2786H248.177V26.7345H263.633V11.2786Z" fill="#E6E6E6"/>
<path d="M300 11.2786L300 26.7345H284.544C284.544 18.2041 291.469 11.2786 300 11.2786Z" fill="#E6E6E6"/>
<path d="M274.089 26.7345C278.106 26.7345 281.362 23.4781 281.362 19.4611C281.362 15.4441 278.106 12.1877 274.089 12.1877C270.072 12.1877 266.815 15.4441 266.815 19.4611C266.815 23.4781 270.072 26.7345 274.089 26.7345Z" fill="#CCCCCC"/>
<path d="M248.177 11.2785L241.358 6.73267V19.0065L248.177 26.7345" fill="#F2F2F2"/>
<path d="M139.142 6.25928L147.693 6.00079C148.287 5.98284 148.344 5.05392 147.744 5.07204L139.194 5.33053C138.6 5.34848 138.543 6.2774 139.142 6.25928Z" fill="white"/>
<path d="M139.142 9.37952L147.693 9.12103C148.287 9.10308 148.344 8.17416 147.744 8.19228L139.194 8.45077C138.6 8.46872 138.543 9.39764 139.142 9.37952Z" fill="white"/>
<path d="M139.142 12.4998L147.693 12.2413C148.287 12.2233 148.344 11.2944 147.744 11.3125L139.194 11.571C138.6 11.589 138.543 12.5179 139.142 12.4998Z" fill="white"/>
<path d="M119.936 7.05027C121.353 5.32449 123.917 7.05633 125.584 7.34877C126.56 7.51984 127.567 7.42953 128.39 6.83825C129.119 6.31468 129.643 5.52657 129.781 4.63404C129.872 4.04471 128.971 3.79077 128.878 4.38519C128.748 5.22467 128.231 5.95981 127.443 6.30872C126.493 6.72981 125.404 6.39061 124.479 6.06888C122.831 5.49527 120.605 4.7671 119.274 6.38836C118.895 6.85037 119.553 7.51636 119.936 7.05027Z" fill="white"/>
<path d="M119.936 10.7945C121.353 9.06875 123.917 10.8006 125.584 11.093C126.56 11.2641 127.567 11.1738 128.39 10.5825C129.119 10.0589 129.643 9.27083 129.781 8.3783C129.872 7.78897 128.971 7.53503 128.878 8.12946C128.748 8.96893 128.231 9.70407 127.443 10.053C126.493 10.4741 125.404 10.1349 124.479 9.81314C122.831 9.23953 120.605 8.51136 119.274 10.1326C118.895 10.5946 119.553 11.2606 119.936 10.7945Z" fill="white"/>
<path d="M95.0818 87.8763H73.5156C72.0886 87.8763 70.9277 86.7154 70.9277 85.2882V54.5521C70.9277 53.1249 72.0886 51.964 73.5156 51.964H95.0818C96.5089 51.964 97.6698 53.1249 97.6698 54.5521V85.2882C97.6698 86.7154 96.5089 87.8763 95.0818 87.8763Z" fill="#FA5246"/>
<path d="M160.045 4.01898C160.495 7.83266 160.642 11.6796 160.466 15.5161C160.439 16.1107 161.362 16.269 161.39 15.6674C161.569 11.7459 161.436 7.81812 160.976 3.91933C160.905 3.32218 159.974 3.41862 160.045 4.01898Z" fill="white"/>
<path d="M163.165 4.01898C163.615 7.83266 163.762 11.6796 163.586 15.5161C163.559 16.1107 164.483 16.269 164.51 15.6674C164.69 11.7459 164.556 7.81812 164.096 3.91933C164.025 3.32218 163.094 3.41862 163.165 4.01898Z" fill="white"/>
<path d="M166.285 4.01898C166.736 7.83266 166.882 11.6796 166.706 15.5161C166.679 16.1107 167.603 16.269 167.63 15.6674C167.81 11.7459 167.677 7.81812 167.216 3.91933C167.146 3.32218 166.214 3.41862 166.285 4.01898Z" fill="white"/>
<path d="M70.8134 75.8988C72.8752 75.2896 74.8608 75.8597 75.2482 77.1719C75.6356 78.4842 74.2783 80.0413 72.2157 80.6504C71.3951 80.905 70.5255 80.9593 69.6796 80.809L60.911 83.2795L59.8394 79.14L68.5974 77.1439C69.226 76.5579 69.9859 76.1309 70.8134 75.8988Z" fill="#A0616A"/>
<path d="M55.3041 61.2283L53.9297 77.6697L66.2402 77.8021L68.6293 81.481C68.6293 81.481 53.7084 90.1205 49.2281 85.706C44.7477 81.2915 42.7542 62.7148 46.7376 59.535C50.721 56.3552 55.3041 61.2283 55.3041 61.2283Z" fill="#3F3D56"/>
<path d="M75.8043 63.6813L92.6631 63.1717C93.8339 63.1363 93.9463 61.3048 92.7647 61.3405L75.906 61.8501C74.7351 61.8855 74.6228 63.7171 75.8043 63.6813Z" fill="white"/>
<path d="M75.8043 69.7947L92.6631 69.2851C93.8339 69.2497 93.9463 67.4182 92.7647 67.4539L75.906 67.9635C74.7351 67.9989 74.6228 69.8305 75.8043 69.7947Z" fill="white"/>
<path d="M75.8043 75.9081L92.6631 75.3985C93.8339 75.3631 93.9463 73.5316 92.7647 73.5673L75.906 74.0769C74.7351 74.1123 74.6228 75.9439 75.8043 75.9081Z" fill="white"/>
</g>
<defs>
<clipPath id="clip0_26_710">
<rect width="300" height="160.327" fill="white"/>
</clipPath>
</defs>
</svg>
