<svg width="300" height="230" viewBox="0 0 300 230" fill="none" xmlns="http://www.w3.org/2000/svg">
<g clip-path="url(#clip0_26_299)">
<path d="M27.6854 228.774L27.6714 228.865C27.6548 228.776 27.6388 228.686 27.6236 228.597C27.5959 228.453 27.5718 228.308 27.5491 228.163C26.6482 222.492 27.144 216.687 28.9933 211.25C29.3488 210.189 29.7537 209.148 30.2079 208.125C31.9452 204.167 34.408 200.568 37.4691 197.516C38.463 196.498 39.597 195.628 40.8369 194.931C41.0189 194.835 41.2019 194.744 41.389 194.659C42.5356 194.103 43.8266 193.916 45.0839 194.124C45.5407 194.21 45.9834 194.358 46.3994 194.565C46.5453 194.636 46.6858 194.714 46.8236 194.797C47.664 195.349 48.3817 196.067 48.9315 196.909C49.4813 197.75 49.8516 198.696 50.019 199.687C50.2578 201.165 50.2032 202.676 49.8583 204.133C49.8287 204.272 49.7968 204.411 49.7628 204.549C49.5182 205.52 49.2109 206.474 48.8429 207.406C45.1588 216.885 37.2415 225.295 27.6854 228.774Z" fill="#F2F2F2"/>
<path d="M46.3749 194.596C43.5002 198.727 40.7846 202.963 38.2282 207.303C35.6749 211.64 33.2885 216.07 31.0692 220.592C29.8276 223.122 28.6403 225.678 27.5074 228.259C27.3819 228.545 27.8051 228.793 27.9321 228.504C29.9555 223.896 32.1513 219.369 34.5195 214.923C36.8862 210.481 39.4192 206.134 42.1184 201.881C43.6286 199.501 45.189 197.155 46.7997 194.841C46.9798 194.582 46.5543 194.338 46.3749 194.596Z" fill="white"/>
<path d="M49.4507 204.158C47.2905 206.965 44.1108 208.808 40.6009 209.287C39.6217 209.42 38.6304 209.44 37.6467 209.345C37.3319 209.316 37.3297 209.806 37.6418 209.836C41.3026 210.144 44.9372 208.995 47.7563 206.639C48.5471 205.979 49.2583 205.228 49.8755 204.403C50.0645 204.151 49.6385 203.908 49.4507 204.158Z" fill="white"/>
<path d="M31.0007 219.387C30.4984 218.672 30.0811 217.9 29.7572 217.088C29.0172 215.237 28.7545 213.23 28.9933 211.251C29.3488 210.189 29.7537 209.148 30.2079 208.125C30.2355 208.166 30.252 208.212 30.256 208.261C30.26 208.309 30.2512 208.358 30.2306 208.402C29.9107 209.169 29.6808 209.971 29.5453 210.79C29.0591 213.714 29.7341 216.711 31.4263 219.144C31.4478 219.17 31.462 219.202 31.4677 219.236C31.4734 219.269 31.4704 219.304 31.4589 219.336C31.44 219.379 31.4102 219.416 31.3726 219.443C31.3349 219.471 31.2908 219.488 31.2444 219.493C31.1981 219.498 31.1512 219.491 31.1084 219.472C31.0657 219.454 31.0285 219.424 31.0007 219.387Z" fill="white"/>
<path d="M40.9101 194.621C40.3188 196.977 40.4949 199.46 41.4127 201.709C41.4452 201.765 41.4985 201.806 41.5611 201.823C41.6237 201.84 41.6905 201.832 41.7471 201.8C41.8023 201.767 41.8426 201.714 41.8596 201.651C41.8766 201.589 41.869 201.523 41.8383 201.466C40.979 199.332 40.8195 196.98 41.383 194.75C41.3976 194.688 41.3876 194.623 41.3552 194.568C41.3227 194.514 41.2702 194.474 41.2089 194.457C41.1475 194.44 41.0821 194.448 41.0263 194.479C40.9706 194.509 40.9289 194.56 40.9101 194.621Z" fill="white"/>
<path d="M27.6253 216.935L27.655 217.022C27.5993 216.951 27.5431 216.879 27.4882 216.807C27.3967 216.692 27.3083 216.575 27.2208 216.457C23.7886 211.854 21.531 206.482 20.6434 200.809C20.4653 199.704 20.3399 198.594 20.2674 197.478C19.9669 193.165 20.4763 188.834 21.7691 184.709C22.1768 183.346 22.7768 182.049 23.5511 180.856C23.6675 180.686 23.7871 180.52 23.9136 180.359C24.6706 179.333 25.7269 178.568 26.937 178.168C27.3814 178.032 27.8424 177.958 28.3071 177.948C28.4693 177.943 28.6298 177.947 28.7905 177.957C29.7908 178.054 30.7601 178.357 31.6378 178.847C32.5155 179.337 33.2827 180.002 33.8913 180.802C34.7895 182 35.443 183.363 35.8144 184.814C35.8528 184.951 35.8891 185.089 35.9231 185.227C36.1576 186.2 36.3288 187.188 36.4356 188.184C37.5764 198.29 34.4718 209.415 27.6253 216.935Z" fill="#F2F2F2"/>
<path d="M28.2995 177.987C27.6727 182.98 27.2355 187.993 26.9878 193.024C26.7413 198.051 26.6856 203.082 26.8209 208.117C26.8968 210.935 27.0326 213.749 27.2284 216.562C27.25 216.873 27.7402 216.897 27.7183 216.581C27.3695 211.561 27.2111 206.532 27.2431 201.494C27.2758 196.462 27.4995 191.435 27.914 186.415C28.146 183.606 28.4378 180.803 28.7894 178.006C28.8286 177.693 28.3386 177.675 28.2995 177.987Z" fill="white"/>
<path d="M35.4647 185.025C34.8559 188.515 32.8961 191.624 30.0102 193.678C29.2051 194.251 28.3363 194.729 27.4212 195.102C27.1287 195.222 27.3546 195.658 27.6446 195.539C31.0296 194.111 33.7147 191.406 35.117 188.01C35.5103 187.057 35.7914 186.062 35.9546 185.045C36.0052 184.734 35.5149 184.717 35.4647 185.025Z" fill="white"/>
<path d="M26.2004 207.082C25.4233 206.682 24.6954 206.193 24.0313 205.624C22.5162 204.329 21.351 202.673 20.6432 200.809C20.465 199.705 20.3397 198.594 20.2671 197.478C20.3101 197.501 20.3465 197.534 20.3726 197.575C20.3986 197.617 20.4135 197.664 20.4158 197.712C20.4887 198.54 20.6573 199.357 20.9182 200.146C21.8455 202.96 23.8357 205.301 26.4644 206.669C26.4957 206.683 26.523 206.704 26.5436 206.731C26.5643 206.759 26.5777 206.791 26.5824 206.824C26.5854 206.871 26.5762 206.917 26.5557 206.959C26.5352 207.001 26.504 207.037 26.4654 207.063C26.4268 207.089 26.382 207.105 26.3355 207.108C26.289 207.111 26.2424 207.103 26.2004 207.082Z" fill="white"/>
<path d="M23.4714 180.547C24.0422 182.908 25.3516 185.026 27.2091 186.591C27.264 186.626 27.3303 186.637 27.3936 186.623C27.457 186.609 27.5123 186.571 27.5476 186.516C27.5811 186.461 27.592 186.395 27.5781 186.332C27.5642 186.269 27.5266 186.214 27.4731 186.178C25.7208 184.687 24.4872 182.679 23.9501 180.442C23.9343 180.38 23.8953 180.327 23.8411 180.294C23.7869 180.261 23.7219 180.25 23.6598 180.263C23.5977 180.277 23.5433 180.314 23.5082 180.367C23.473 180.42 23.4598 180.485 23.4714 180.547Z" fill="white"/>
<path d="M27.8371 228.834L27.909 228.892C27.824 228.862 27.7374 228.831 27.6525 228.8C27.5136 228.753 27.3763 228.702 27.239 228.65C21.8678 226.619 17.0728 223.309 13.2696 219.007C12.5244 218.172 11.8207 217.304 11.1584 216.403C8.58264 212.931 6.67941 209.007 5.54702 204.835C5.15672 203.468 4.9636 202.051 4.97351 200.629C4.98005 200.423 4.99146 200.219 5.01109 200.015C5.09672 198.743 5.57457 197.529 6.37881 196.541C6.6799 196.187 7.02853 195.876 7.41477 195.617C7.54873 195.526 7.68603 195.443 7.82655 195.364C8.72197 194.908 9.70198 194.641 10.7052 194.581C11.7084 194.521 12.7133 194.668 13.6568 195.015C15.0589 195.54 16.3438 196.337 17.438 197.359C17.5442 197.454 17.6488 197.551 17.7518 197.649C18.4738 198.343 19.1501 199.083 19.7763 199.864C26.1802 207.765 29.5561 218.811 27.8371 228.834Z" fill="#F2F2F2"/>
<path d="M7.42906 195.654C9.59029 200.199 11.9214 204.658 14.4224 209.03C16.9218 213.399 19.5845 217.668 22.4105 221.838C23.9917 224.171 25.6221 226.469 27.3017 228.734C27.4875 228.984 27.9132 228.74 27.725 228.486C24.7272 224.444 21.8853 220.292 19.1994 216.03C16.5166 211.772 13.998 207.416 11.6434 202.963C10.3262 200.471 9.06255 197.953 7.85234 195.406C7.71694 195.122 7.29415 195.37 7.42906 195.654Z" fill="white"/>
<path d="M17.2578 197.725C18.6242 200.994 18.6473 204.669 17.3221 207.954C16.9524 208.87 16.4777 209.741 15.9076 210.548C15.7257 210.807 16.1506 211.052 16.3309 210.796C18.414 207.77 19.2194 204.044 18.5723 200.428C18.3906 199.413 18.0915 198.423 17.6811 197.478C17.5564 197.189 17.134 197.439 17.2578 197.725Z" fill="white"/>
<path d="M21.3306 221.3C20.4603 221.381 19.5834 221.361 18.7178 221.239C16.7434 220.964 14.87 220.196 13.2699 219.007C12.5247 218.172 11.821 217.304 11.1587 216.403C11.2072 216.399 11.256 216.407 11.3001 216.428C11.3443 216.449 11.3822 216.48 11.4103 216.52C11.9176 217.178 12.4994 217.775 13.144 218.3C15.4412 220.172 18.3789 221.072 21.3306 220.81C21.3643 220.804 21.3988 220.807 21.4309 220.819C21.4629 220.831 21.4914 220.851 21.5136 220.877C21.5412 220.914 21.5585 220.958 21.5637 221.005C21.569 221.051 21.562 221.098 21.5435 221.141C21.525 221.183 21.4956 221.221 21.4583 221.249C21.4209 221.276 21.3769 221.294 21.3306 221.3Z" fill="white"/>
<path d="M4.74035 200.411C6.49288 202.093 8.73644 203.172 11.1445 203.491C11.2768 203.508 11.3884 203.365 11.3896 203.245C11.3881 203.181 11.3618 203.119 11.3161 203.074C11.2705 203.028 11.209 203.002 11.1445 203C8.86534 202.688 6.74422 201.66 5.08699 200.065C4.85978 199.846 4.5127 200.192 4.74035 200.411Z" fill="white"/>
<path d="M61.2968 164.18C61.7755 163.852 62.1764 163.423 62.4714 162.923C62.7663 162.423 62.948 161.864 63.0038 161.287C63.0595 160.709 62.9879 160.126 62.794 159.579C62.6 159.032 62.2885 158.534 61.8814 158.12L63.4214 123.744L55.5809 124.624L56.0364 158.249C55.3868 158.979 55.0276 159.922 55.0269 160.899C55.0261 161.876 55.3838 162.82 56.0322 163.551C56.6806 164.282 57.5747 164.75 58.545 164.866C59.5153 164.982 60.4944 164.738 61.2968 164.18Z" fill="#FFB8B8"/>
<path d="M75.6001 222.372L80.0626 223.156L84.473 206.317L78.6261 205.159L75.6001 222.372Z" fill="#FFB8B8"/>
<path d="M87.9399 228.812L73.9153 226.347L74.8679 220.928L83.4739 222.441C84.1855 222.566 84.8655 222.83 85.475 223.218C86.0846 223.606 86.6118 224.11 87.0265 224.702C87.4412 225.294 87.7353 225.961 87.892 226.666C88.0488 227.372 88.065 228.101 87.9399 228.812Z" fill="#2F2E41"/>
<path d="M63.3518 224.605L67.8827 224.605L70.038 207.129L63.3511 207.129L63.3518 224.605Z" fill="#FFB8B8"/>
<path d="M76.6211 228.812L62.3814 228.813L62.3811 223.311L71.1191 223.311C72.5783 223.311 73.9777 223.89 75.0095 224.922C76.0413 225.954 76.621 227.353 76.6211 228.812Z" fill="#2F2E41"/>
<path d="M82.6259 219.82C82.5552 219.82 82.4845 219.816 82.4143 219.807L77.0814 219.368C76.8386 219.34 76.6042 219.262 76.3923 219.14C76.1804 219.018 75.9955 218.854 75.8489 218.659C75.7022 218.463 75.5969 218.24 75.5393 218.002C75.4816 217.765 75.4729 217.518 75.5135 217.277L80.4379 189.677L77.1105 172.132C77.0834 171.99 77.0056 171.862 76.8916 171.772C76.7775 171.682 76.6349 171.637 76.49 171.644C76.345 171.651 76.2076 171.711 76.103 171.811C75.9984 171.912 75.9337 172.047 75.9209 172.191L71.7611 218.989C71.7154 219.458 71.4891 219.892 71.1299 220.198C70.7707 220.504 70.3067 220.658 69.8358 220.629L64.8116 220.442C64.3713 220.41 63.9577 220.219 63.6488 219.904C63.3399 219.588 63.1572 219.171 63.1351 218.73L62.7974 162.642L88.8449 159.386L90.6645 187.488L90.6573 187.518L84.3781 218.441C84.2824 218.834 84.0578 219.183 83.7401 219.433C83.4224 219.683 83.0301 219.819 82.6259 219.82Z" fill="#2F2E41"/>
<path d="M71.3851 101.468C76.3981 101.468 80.462 97.4037 80.462 92.3907C80.462 87.3776 76.3981 83.3137 71.3851 83.3137C66.372 83.3137 62.3081 87.3776 62.3081 92.3907C62.3081 97.4037 66.372 101.468 71.3851 101.468Z" fill="#FFB8B8"/>
<path d="M79.938 166.741C78.5184 166.75 77.126 166.351 75.9256 165.593C71.5288 162.845 66.5347 163.937 63.9491 164.833C63.6925 164.923 63.419 164.954 63.1489 164.923C62.8788 164.892 62.6191 164.801 62.3893 164.655C62.1622 164.513 61.9702 164.321 61.8279 164.093C61.6855 163.866 61.5964 163.609 61.5673 163.343L56.8654 121.351C56.0775 114.315 60.3157 107.7 66.9427 105.622C67.1917 105.544 67.4448 105.47 67.7022 105.4C69.7645 104.841 71.9242 104.74 74.0295 105.106C76.1347 105.471 78.1343 106.293 79.8876 107.515C81.6735 108.749 83.167 110.361 84.2631 112.235C85.3592 114.109 86.0312 116.201 86.2319 118.363L90.1901 160.636C90.2171 160.91 90.1802 161.186 90.0822 161.443C89.9843 161.7 89.828 161.931 89.6258 162.117C88.2382 163.401 84.211 166.741 79.938 166.741Z" fill="#FAAE2B"/>
<path d="M65.6202 130.355L55.0124 129.189C54.7106 129.156 54.4195 129.058 54.1589 128.902C53.8983 128.746 53.6743 128.536 53.5023 128.286C53.3302 128.036 53.2141 127.751 53.1619 127.452C53.1096 127.153 53.1225 126.846 53.1995 126.553L55.8996 116.262C56.0782 114.718 56.8614 113.309 58.0776 112.342C59.2937 111.376 60.8436 110.931 62.3873 111.105C63.9311 111.279 65.3427 112.059 66.3127 113.272C67.2827 114.486 67.7319 116.034 67.5618 117.578L67.9626 128.176C67.974 128.479 67.9199 128.782 67.8039 129.062C67.6879 129.343 67.5128 129.595 67.2905 129.802C67.0682 130.009 66.8039 130.165 66.5157 130.261C66.2275 130.356 65.922 130.389 65.6202 130.355Z" fill="#FAAE2B"/>
<path d="M90.1478 162.708C90.5835 162.324 90.9298 161.85 91.1623 161.318C91.3948 160.786 91.5079 160.21 91.4936 159.63C91.4793 159.05 91.338 158.48 91.0796 157.96C90.8211 157.44 90.4519 156.984 89.9979 156.622L87.3839 122.311L79.7012 124.04L84.211 157.454C83.6541 158.257 83.4112 159.236 83.5282 160.207C83.6452 161.177 84.114 162.07 84.8458 162.718C85.5776 163.366 86.5215 163.722 87.4987 163.72C88.4759 163.718 89.4184 163.358 90.1478 162.708Z" fill="#FFB8B8"/>
<path d="M76.7556 128.198C76.5332 127.992 76.3581 127.739 76.2421 127.459C76.1261 127.178 76.072 126.876 76.0836 126.572L76.4844 115.975C76.3143 114.431 76.7635 112.882 77.7335 111.669C78.7035 110.455 80.1151 109.676 81.6589 109.501C83.2026 109.327 84.7525 109.772 85.9686 110.739C87.1848 111.705 87.968 113.115 88.1466 114.658L90.8467 124.949C90.9237 125.243 90.9365 125.55 90.8843 125.849C90.832 126.148 90.716 126.432 90.5439 126.683C90.3719 126.933 90.1479 127.143 89.8873 127.299C89.6267 127.455 89.3356 127.552 89.0338 127.586L78.426 128.752C78.1241 128.785 77.8186 128.753 77.5303 128.658C77.2421 128.562 76.9778 128.405 76.7556 128.198Z" fill="#FAAE2B"/>
<path d="M70.8455 101.81C70.6842 101.809 70.5234 101.791 70.3663 101.754L70.3202 101.742C62.3396 100.521 60.5759 95.899 60.1888 93.9685C59.7881 91.9698 60.2444 90.0406 61.2754 89.2914C60.7133 87.5164 60.8035 85.9427 61.5442 84.6119C62.8359 82.2909 65.6394 81.5061 66.0153 81.4101C68.2542 79.7584 70.9329 80.861 71.4203 81.0845C75.7511 79.4823 77.4064 80.816 77.7058 81.1138C79.6417 81.4615 80.8217 82.2093 81.2134 83.337C81.9492 85.4549 79.6223 88.0895 79.5229 88.2007L79.4713 88.2583L76.0047 88.4234C75.6757 88.4391 75.3537 88.5237 75.0596 88.6719C74.7655 88.82 74.5058 89.0283 74.2974 89.2833C74.089 89.5383 73.9365 89.8342 73.8498 90.1519C73.7631 90.4696 73.7442 90.802 73.7942 91.1275C73.888 91.5474 74.0066 91.9615 74.1492 92.3675C74.7412 94.2177 75.1848 95.7983 74.6126 96.3992C74.483 96.5155 74.3233 96.5929 74.1517 96.6227C73.9801 96.6524 73.8036 96.6333 73.6424 96.5674C73.1005 96.4227 72.7324 96.453 72.5491 96.6578C72.2644 96.9754 72.3513 97.7793 72.7938 98.9216C72.9326 99.2828 72.97 99.675 72.9018 100.056C72.8337 100.437 72.6627 100.792 72.4072 101.083C72.2149 101.309 71.9757 101.492 71.7061 101.617C71.4365 101.743 71.1429 101.808 70.8455 101.81Z" fill="#2F2E41"/>
<path d="M178.043 130.827H133.325C131.659 130.825 130.062 130.162 128.885 128.985C127.707 127.807 127.044 126.21 127.042 124.544V57.3451C127.044 55.6795 127.707 54.0825 128.885 52.9047C130.062 51.7269 131.659 51.0644 133.325 51.0625H178.043C179.708 51.0644 181.305 51.7269 182.483 52.9047C183.661 54.0825 184.324 55.6795 184.325 57.3451V124.544C184.324 126.21 183.661 127.807 182.483 128.985C181.305 130.162 179.708 130.825 178.043 130.827ZM133.325 51.8016C131.855 51.8033 130.446 52.3879 129.407 53.4271C128.368 54.4664 127.783 55.8754 127.782 57.3451V124.544C127.783 126.014 128.368 127.423 129.407 128.462C130.446 129.501 131.855 130.086 133.325 130.088H178.043C179.513 130.086 180.922 129.501 181.961 128.462C183 127.423 183.585 126.014 183.586 124.544V57.3451C183.585 55.8754 183 54.4664 181.961 53.4271C180.922 52.3879 179.513 51.8033 178.043 51.8016H133.325Z" fill="#3F3D56"/>
<path d="M171.205 83.3686H140.162C139.329 83.3676 138.531 83.0364 137.942 82.4475C137.353 81.8586 137.021 81.0601 137.021 80.2272V65.4445C137.021 64.6117 137.353 63.8132 137.942 63.2243C138.531 62.6354 139.329 62.3042 140.162 62.3032H171.205C172.038 62.3042 172.837 62.6355 173.426 63.2244C174.015 63.8133 174.346 64.6117 174.347 65.4445V80.2272C174.346 81.0601 174.015 81.8585 173.426 82.4474C172.837 83.0363 172.038 83.3676 171.205 83.3686Z" fill="#FAAE2B"/>
<path d="M168.988 97.2275H142.379C141.595 97.2275 140.843 96.916 140.289 96.3616C139.734 95.8071 139.423 95.0551 139.423 94.271C139.423 93.4869 139.734 92.7349 140.289 92.1804C140.843 91.6259 141.595 91.3145 142.379 91.3145H168.988C169.772 91.3145 170.524 91.6259 171.079 92.1804C171.633 92.7349 171.945 93.4869 171.945 94.271C171.945 95.0551 171.633 95.8071 171.079 96.3616C170.524 96.916 169.772 97.2275 168.988 97.2275Z" fill="#CCCCCC"/>
<path d="M168.988 108.314H142.379C141.595 108.314 140.843 108.003 140.289 107.448C139.734 106.894 139.423 106.142 139.423 105.358C139.423 104.574 139.734 103.822 140.289 103.267C140.843 102.713 141.595 102.401 142.379 102.401H168.988C169.772 102.401 170.524 102.713 171.079 103.267C171.633 103.822 171.945 104.574 171.945 105.358C171.945 106.142 171.633 106.894 171.079 107.448C170.524 108.003 169.772 108.314 168.988 108.314Z" fill="#CCCCCC"/>
<path d="M168.988 119.401H142.379C141.595 119.401 140.843 119.09 140.289 118.535C139.734 117.981 139.423 117.229 139.423 116.445C139.423 115.661 139.734 114.909 140.289 114.354C140.843 113.8 141.595 113.488 142.379 113.488H168.988C169.772 113.488 170.524 113.8 171.079 114.354C171.633 114.909 171.945 115.661 171.945 116.445C171.945 117.229 171.633 117.981 171.079 118.535C170.524 119.09 169.772 119.401 168.988 119.401Z" fill="#CCCCCC"/>
<path d="M287.065 168.523H242.348C240.682 168.521 239.085 167.858 237.907 166.681C236.729 165.503 236.067 163.906 236.065 162.24V95.0412C236.067 93.3755 236.729 91.7786 237.907 90.6008C239.085 89.4229 240.682 88.7604 242.348 88.7585H287.065C288.731 88.7604 290.328 89.4229 291.506 90.6008C292.683 91.7786 293.346 93.3755 293.348 95.0412V162.24C293.346 163.906 292.683 165.503 291.506 166.681C290.328 167.858 288.731 168.521 287.065 168.523ZM242.348 89.4977C240.878 89.4993 239.469 90.0839 238.43 91.1232C237.39 92.1624 236.806 93.5715 236.804 95.0412V162.24C236.806 163.71 237.39 165.119 238.43 166.158C239.469 167.197 240.878 167.782 242.348 167.784H287.065C288.535 167.782 289.944 167.197 290.983 166.158C292.023 165.119 292.607 163.71 292.609 162.24V95.0412C292.607 93.5715 292.023 92.1624 290.983 91.1232C289.944 90.0839 288.535 89.4993 287.065 89.4977H242.348Z" fill="#3F3D56"/>
<path d="M278.011 105.358H251.402C250.618 105.358 249.866 105.046 249.311 104.492C248.757 103.937 248.445 103.185 248.445 102.401C248.445 101.617 248.757 100.865 249.311 100.311C249.866 99.7563 250.618 99.4448 251.402 99.4448H278.011C278.795 99.4448 279.547 99.7563 280.101 100.311C280.656 100.865 280.967 101.617 280.967 102.401C280.967 103.185 280.656 103.937 280.101 104.492C279.547 105.046 278.795 105.358 278.011 105.358Z" fill="#CCCCCC"/>
<path d="M278.011 116.445H251.402C250.618 116.445 249.866 116.133 249.311 115.579C248.757 115.024 248.445 114.272 248.445 113.488C248.445 112.704 248.757 111.952 249.311 111.398C249.866 110.843 250.618 110.532 251.402 110.532H278.011C278.795 110.532 279.547 110.843 280.101 111.398C280.656 111.952 280.967 112.704 280.967 113.488C280.967 114.272 280.656 115.024 280.101 115.579C279.547 116.133 278.795 116.445 278.011 116.445Z" fill="#CCCCCC"/>
<path d="M280.228 144.717H249.184C248.351 144.716 247.553 144.384 246.964 143.796C246.375 143.207 246.044 142.408 246.043 141.575V126.793C246.044 125.96 246.375 125.161 246.964 124.573C247.553 123.984 248.351 123.652 249.184 123.651H280.228C281.061 123.652 281.859 123.984 282.448 124.573C283.037 125.161 283.368 125.96 283.369 126.793V141.575C283.368 142.408 283.037 143.207 282.448 143.796C281.859 144.384 281.061 144.716 280.228 144.717Z" fill="#E6E6E6"/>
<path d="M278.011 157.836H251.402C250.618 157.836 249.866 157.525 249.311 156.97C248.757 156.416 248.445 155.664 248.445 154.88C248.445 154.096 248.757 153.344 249.311 152.789C249.866 152.235 250.618 151.923 251.402 151.923H278.011C278.795 151.923 279.547 152.235 280.101 152.789C280.656 153.344 280.967 154.096 280.967 154.88C280.967 155.664 280.656 156.416 280.101 156.97C279.547 157.525 278.795 157.836 278.011 157.836Z" fill="#CCCCCC"/>
<path d="M259.717 61.7178H214.999C213.334 61.7159 211.737 61.0534 210.559 59.8755C209.381 58.6977 208.719 57.1008 208.717 55.4351V13.7363C208.719 12.0706 209.381 10.4736 210.559 9.29583C211.737 8.11801 213.334 7.45549 214.999 7.45361H259.717C261.383 7.45549 262.98 8.11801 264.158 9.29583C265.335 10.4736 265.998 12.0706 266 13.7363V55.4351C265.998 57.1008 265.335 58.6977 264.158 59.8755C262.98 61.0534 261.383 61.7159 259.717 61.7178ZM214.999 8.19275C213.53 8.19441 212.121 8.779 211.081 9.81824C210.042 10.8575 209.458 12.2665 209.456 13.7363V55.4351C209.458 56.9048 210.042 58.3139 211.081 59.3531C212.121 60.3924 213.53 60.977 214.999 60.9786H259.717C261.187 60.977 262.596 60.3924 263.635 59.3531C264.674 58.3139 265.259 56.9048 265.261 55.4351V13.7363C265.259 12.2665 264.674 10.8575 263.635 9.81824C262.596 8.779 261.187 8.19441 259.717 8.19275H214.999Z" fill="#3F3D56"/>
<path d="M250.663 48.6294H224.054C223.27 48.6294 222.518 48.3179 221.963 47.7634C221.409 47.209 221.097 46.457 221.097 45.6729C221.097 44.8887 221.409 44.1367 221.963 43.5823C222.518 43.0278 223.27 42.7163 224.054 42.7163H250.663C251.447 42.7163 252.199 43.0278 252.753 43.5823C253.308 44.1367 253.619 44.8887 253.619 45.6729C253.619 46.457 253.308 47.209 252.753 47.7634C252.199 48.3179 251.447 48.6294 250.663 48.6294Z" fill="#CCCCCC"/>
<path d="M250.663 37.5422H224.054C223.27 37.5422 222.518 37.2307 221.963 36.6763C221.409 36.1218 221.097 35.3698 221.097 34.5857C221.097 33.8016 221.409 33.0496 221.963 32.4951C222.518 31.9406 223.27 31.6292 224.054 31.6292H250.663C251.447 31.6292 252.199 31.9406 252.753 32.4951C253.308 33.0496 253.619 33.8016 253.619 34.5857C253.619 35.3698 253.308 36.1218 252.753 36.6763C252.199 37.2307 251.447 37.5422 250.663 37.5422Z" fill="#CCCCCC"/>
<path d="M250.663 26.4553H224.054C223.27 26.4553 222.518 26.1438 221.963 25.5894C221.409 25.0349 221.097 24.2829 221.097 23.4988C221.097 22.7147 221.409 21.9626 221.963 21.4082C222.518 20.8537 223.27 20.5422 224.054 20.5422H250.663C251.447 20.5422 252.199 20.8537 252.753 21.4082C253.308 21.9626 253.619 22.7147 253.619 23.4988C253.619 24.2829 253.308 25.0349 252.753 25.5894C252.199 26.1438 251.447 26.4553 250.663 26.4553Z" fill="#CCCCCC"/>
<path d="M180.63 61.3482C185.324 61.3482 189.13 57.5426 189.13 52.8482C189.13 48.1537 185.324 44.3481 180.63 44.3481C175.935 44.3481 172.13 48.1537 172.13 52.8482C172.13 57.5426 175.935 61.3482 180.63 61.3482Z" fill="#FAAE2B"/>
<path d="M179.787 56.0908C179.596 56.0912 179.41 56.0293 179.257 55.9146L179.247 55.9075L177.25 54.3781C177.157 54.3074 177.079 54.219 177.02 54.118C176.961 54.0171 176.923 53.9055 176.907 53.7897C176.892 53.674 176.899 53.5563 176.929 53.4434C176.959 53.3305 177.011 53.2247 177.082 53.132C177.153 53.0392 177.242 52.9614 177.343 52.9031C177.444 52.8447 177.556 52.8068 177.672 52.7917C177.788 52.7766 177.905 52.7845 178.018 52.8149C178.131 52.8454 178.237 52.8978 178.329 52.9692L179.623 53.9613L182.681 49.9737C182.752 49.8812 182.84 49.8036 182.941 49.7453C183.042 49.687 183.153 49.6491 183.269 49.6339C183.384 49.6186 183.502 49.6263 183.614 49.6564C183.727 49.6865 183.832 49.7385 183.925 49.8094L183.906 49.8352L183.925 49.8098C184.112 49.9532 184.234 50.1647 184.265 50.398C184.296 50.6313 184.233 50.8672 184.09 51.0541L180.493 55.7444C180.41 55.8525 180.303 55.94 180.181 56.0001C180.058 56.0601 179.924 56.0912 179.787 56.0908Z" fill="white"/>
<path d="M291.5 99.4137C296.194 99.4137 300 95.6081 300 90.9136C300 86.2192 296.194 82.4136 291.5 82.4136C286.806 82.4136 283 86.2192 283 90.9136C283 95.6081 286.806 99.4137 291.5 99.4137Z" fill="#3F3D56"/>
<path d="M290.657 94.1562C290.466 94.1566 290.28 94.0948 290.127 93.98L290.117 93.9729L288.12 92.4435C288.027 92.3728 287.949 92.2844 287.89 92.1835C287.831 92.0825 287.793 91.9709 287.777 91.8552C287.762 91.7394 287.769 91.6217 287.799 91.5088C287.829 91.3959 287.882 91.2901 287.953 91.1974C288.024 91.1047 288.112 91.0269 288.213 90.9685C288.315 90.9101 288.426 90.8723 288.542 90.8571C288.658 90.842 288.776 90.8499 288.888 90.8803C289.001 90.9108 289.107 90.9632 289.199 91.0346L290.493 92.0267L293.551 88.0391C293.622 87.9466 293.71 87.869 293.811 87.8107C293.912 87.7524 294.023 87.7145 294.139 87.6993C294.254 87.684 294.372 87.6917 294.484 87.7218C294.597 87.7519 294.703 87.8039 294.795 87.8749L294.776 87.9007L294.796 87.8752C294.982 88.0186 295.104 88.2302 295.135 88.4634C295.166 88.6967 295.103 88.9326 294.96 89.1195L291.363 93.8099C291.28 93.918 291.173 94.0054 291.051 94.0655C290.928 94.1256 290.794 94.1566 290.657 94.1562Z" fill="white"/>
<path d="M264.522 17.0001C269.216 17.0001 273.022 13.1945 273.022 8.50005C273.022 3.8056 269.216 0 264.522 0C259.827 0 256.021 3.8056 256.021 8.50005C256.021 13.1945 259.827 17.0001 264.522 17.0001Z" fill="#3F3D56"/>
<path d="M263.679 11.7427C263.488 11.743 263.302 11.6812 263.149 11.5665L263.139 11.5594L261.142 10.0299C261.049 9.95923 260.971 9.87086 260.912 9.76989C260.853 9.66893 260.815 9.55737 260.799 9.44159C260.784 9.32582 260.791 9.20812 260.821 9.09524C260.851 8.98237 260.903 8.87653 260.975 8.78381C261.046 8.69109 261.134 8.6133 261.235 8.55492C261.337 8.49653 261.448 8.45868 261.564 8.44356C261.68 8.42844 261.798 8.43633 261.91 8.46678C262.023 8.49723 262.129 8.54964 262.221 8.62101L263.515 9.61314L266.573 5.62555C266.644 5.53306 266.732 5.45544 266.833 5.39713C266.934 5.33882 267.045 5.30096 267.161 5.28571C267.276 5.27046 267.394 5.27811 267.506 5.30824C267.619 5.33836 267.725 5.39038 267.817 5.4613L267.798 5.48711L267.818 5.46167C268.004 5.60505 268.126 5.81658 268.157 6.04985C268.188 6.28312 268.125 6.51907 267.982 6.70595L264.385 11.3963C264.302 11.5044 264.195 11.5919 264.073 11.6519C263.95 11.712 263.816 11.743 263.679 11.7427Z" fill="white"/>
<path d="M141.175 229.132H0.369567C0.271552 229.132 0.177551 229.093 0.108244 229.023C0.0389362 228.954 0 228.86 0 228.762C0 228.664 0.0389362 228.57 0.108244 228.501C0.177551 228.432 0.271552 228.393 0.369567 228.393H141.175C141.273 228.393 141.367 228.432 141.436 228.501C141.505 228.57 141.544 228.664 141.544 228.762C141.544 228.86 141.505 228.954 141.436 229.023C141.367 229.093 141.273 229.132 141.175 229.132Z" fill="#3F3D56"/>
</g>
<defs>
<clipPath id="clip0_26_299">
<rect width="300" height="229.132" fill="white"/>
</clipPath>
</defs>
</svg>
