<svg width="300" height="189" viewBox="0 0 300 189" fill="none" xmlns="http://www.w3.org/2000/svg">
<g clip-path="url(#clip0_26_404)">
<path d="M73.9651 6.28901C75.6639 6.28901 77.0411 4.88116 77.0411 3.1445C77.0411 1.40784 75.6639 0 73.9651 0C72.2663 0 70.8892 1.40784 70.8892 3.1445C70.8892 4.88116 72.2663 6.28901 73.9651 6.28901Z" fill="#3F3D56"/>
<path d="M84.5911 6.28901C86.2899 6.28901 87.667 4.88116 87.667 3.1445C87.667 1.40784 86.2899 0 84.5911 0C82.8923 0 81.5151 1.40784 81.5151 3.1445C81.5151 4.88116 82.8923 6.28901 84.5911 6.28901Z" fill="#3F3D56"/>
<path d="M95.2171 6.28901C96.9159 6.28901 98.293 4.88116 98.293 3.1445C98.293 1.40784 96.9159 0 95.2171 0C93.5183 0 92.1411 1.40784 92.1411 3.1445C92.1411 4.88116 93.5183 6.28901 95.2171 6.28901Z" fill="#3F3D56"/>
<path d="M107.334 5.62986C107.239 5.62986 107.145 5.59327 107.074 5.52045L104.998 3.39879C104.86 3.25742 104.86 3.03151 104.998 2.89013L107.074 0.768649C107.215 0.625145 107.445 0.622836 107.588 0.762968C107.732 0.903452 107.734 1.1338 107.594 1.27731L105.767 3.14446L107.594 5.01179C107.734 5.1553 107.732 5.38565 107.588 5.52614C107.517 5.5954 107.426 5.62986 107.334 5.62986Z" fill="#3F3D56"/>
<path d="M110.821 5.62988C110.729 5.62988 110.638 5.59542 110.567 5.52616C110.423 5.38567 110.421 5.1555 110.561 5.01182L112.388 3.14448L110.561 1.27733C110.421 1.13383 110.423 0.903475 110.567 0.76299C110.71 0.622327 110.941 0.624993 111.081 0.768671L113.157 2.89016C113.295 3.03153 113.295 3.25744 113.157 3.39881L111.081 5.52048C111.01 5.5933 110.916 5.62988 110.821 5.62988Z" fill="#3F3D56"/>
<path d="M219.399 0.364014H215.54C215.1 0.364014 214.744 0.720465 214.744 1.16059V5.02344C214.744 5.46357 215.1 5.82002 215.54 5.82002H219.399C219.84 5.82002 220.2 5.46357 220.2 5.02344V1.16059C220.2 0.720465 219.84 0.364014 219.399 0.364014Z" fill="#3F3D56"/>
<path d="M209.942 0.364014H206.083C205.643 0.364014 205.287 0.720465 205.287 1.16059V5.02344C205.287 5.46357 205.643 5.82002 206.083 5.82002H209.942C210.383 5.82002 210.743 5.46357 210.743 5.02344V1.16059C210.743 0.720465 210.383 0.364014 209.942 0.364014Z" fill="#3F3D56"/>
<path d="M228.311 0.545898H224.451C224.011 0.545898 223.655 0.90235 223.655 1.34248V5.20533C223.655 5.64545 224.011 6.0019 224.451 6.0019H228.311C228.751 6.0019 229.111 5.64545 229.111 5.20533V1.34248C229.111 0.90235 228.751 0.545898 228.311 0.545898Z" fill="#3F3D56"/>
<path d="M170.142 2.01538H139.293C138.755 2.01538 138.322 2.45186 138.322 2.98656C138.322 3.52126 138.755 3.95773 139.293 3.95773H170.142C170.676 3.95773 171.113 3.52124 171.113 2.98656C171.113 2.45189 170.676 2.01538 170.142 2.01538Z" fill="#3F3D56"/>
<path d="M234.621 15.2403H65.3786C65.0157 15.2325 64.7277 14.932 64.7355 14.5691C64.743 14.2171 65.0266 13.9336 65.3786 13.926H234.621C234.984 13.9338 235.272 14.2343 235.264 14.5972C235.257 14.9492 234.973 15.2327 234.621 15.2403Z" fill="#CACACA"/>
<path d="M207.346 24.5276H194.825C193.884 24.5276 193.122 25.29 193.122 26.2305V26.2305C193.122 27.171 193.884 27.9334 194.825 27.9334H207.346C208.287 27.9334 209.049 27.171 209.049 26.2305C209.049 25.29 208.287 24.5276 207.346 24.5276Z" fill="#FA5246"/>
<path d="M186.736 31.3391H215.435C216.375 31.3391 217.138 32.1015 217.138 33.042C217.138 33.9825 216.375 34.7449 215.435 34.7449H186.736C185.796 34.7449 185.033 33.9825 185.033 33.042C185.033 32.1015 185.796 31.3391 186.736 31.3391Z" fill="#E6E6E6"/>
<path d="M215.435 38.1506H186.736C185.796 38.1506 185.033 38.913 185.033 39.8535V39.8535C185.033 40.794 185.796 41.5564 186.736 41.5564H215.435C216.375 41.5564 217.138 40.794 217.138 39.8535C217.138 38.913 216.375 38.1506 215.435 38.1506Z" fill="#E6E6E6"/>
<path d="M70.5249 116.939H62.6204C62.408 116.939 61.2379 116.32 61.2379 115.557V111.166C61.2001 107.845 72.0731 107.627 72.1141 111.166V115.557C72.1141 116.32 71.2884 116.939 70.5249 116.939Z" fill="#E6E6E6"/>
<path d="M70.9338 108.189C70.5504 108.052 70.1432 107.994 69.7367 108.018C69.8454 107.982 69.9453 107.923 70.0298 107.846C69.9555 107.843 69.8816 107.833 69.8092 107.816C69.7293 107.801 69.6542 107.768 69.5898 107.718C69.525 107.667 69.4904 107.587 69.4978 107.505C69.5126 107.404 69.6064 107.322 69.5968 107.221C69.5857 107.105 69.4521 107.048 69.3806 106.957C69.291 106.815 69.3064 106.63 69.4183 106.505C69.4863 106.426 69.5695 106.361 69.6629 106.315C69.5051 106.275 69.3393 106.277 69.1828 106.322C69.3506 106.192 69.4251 105.975 69.3724 105.769C69.2838 105.514 69.0735 105.319 68.8116 105.25C68.5533 105.185 68.2859 105.163 68.0205 105.186C68.2461 105.117 68.2121 104.763 68.0396 104.602C67.8672 104.441 67.6205 104.374 67.4579 104.203C67.2953 104.031 67.3084 103.666 67.5427 103.638L67.5139 103.555C67.0473 103.38 66.5277 103.617 66.3535 104.084C66.3386 104.124 66.3265 104.165 66.3174 104.206C66.2745 104.474 66.3544 104.77 66.2203 105.005C66.0492 105.305 65.6338 105.339 65.2901 105.306C64.9526 105.219 64.5946 105.268 64.2927 105.442C64.043 105.65 64.0092 106.021 64.2171 106.271C64.3326 106.409 64.5052 106.487 64.6855 106.482C64.4593 106.484 64.2342 106.513 64.0153 106.571L64.2261 106.652C64.273 106.667 64.3162 106.691 64.353 106.724C64.39 106.758 64.4014 106.811 64.3813 106.858C64.3476 106.919 64.2606 106.917 64.1916 106.906L63.7333 106.837C63.8245 106.868 63.8737 106.966 63.8433 107.057C63.8129 107.148 63.7143 107.198 63.6232 107.167C63.5998 107.159 63.5783 107.147 63.5602 107.13C63.6073 107.185 63.6451 107.247 63.6723 107.314C63.6992 107.383 63.6913 107.46 63.651 107.521C63.5579 107.607 63.4207 107.623 63.3098 107.563C63.2725 107.549 63.2349 107.532 63.1971 107.517C63.1979 107.53 63.1989 107.543 63.2004 107.556C63.2258 107.732 63.3239 107.89 63.4708 107.99C63.2631 108.014 63.0718 108.115 62.9343 108.273C62.6958 108.569 62.6814 108.987 62.899 109.299C62.6678 109.197 62.4144 109.155 62.1627 109.177C61.9038 109.209 61.7098 109.429 61.7114 109.69C61.7532 110.01 62.1487 110.126 62.4684 110.166C64.9824 110.475 67.5248 110.475 70.0387 110.165C70.3802 110.142 70.7147 110.057 71.0257 109.914C71.3404 109.765 71.5569 109.466 71.5995 109.12C71.586 108.704 71.3233 108.337 70.9338 108.189Z" fill="#FA5246"/>
<path d="M72.8 111.89C72.7427 111.641 72.5208 111.466 72.2657 111.467C72.0227 111.473 71.8055 111.647 71.567 111.609C71.3688 111.577 71.2132 111.404 71.014 111.431C70.8315 111.455 70.7334 111.633 70.5971 111.729H70.2476C70.1115 111.622 70.0446 111.405 69.8559 111.344C69.5716 111.252 69.3435 111.573 69.0458 111.63C68.8735 111.649 68.6993 111.616 68.5462 111.535C68.3962 111.453 68.2334 111.398 68.0649 111.372C67.9135 111.349 67.7625 111.415 67.6769 111.542C67.6861 111.451 67.5682 111.362 67.4484 111.357C67.3146 111.361 67.1844 111.402 67.071 111.473C66.9572 111.544 66.8256 111.582 66.6914 111.581C66.394 111.555 66.2481 111.208 65.949 111.204C65.5725 111.199 65.4219 111.736 65.0496 111.69C64.8561 111.666 64.7516 111.49 64.579 111.415C64.3958 111.359 64.2002 111.357 64.016 111.41L63.1355 111.575C62.8774 111.646 62.6052 111.648 62.3458 111.582C62.1569 111.514 61.9735 111.366 61.7787 111.422C61.6091 111.471 61.5263 111.661 61.3467 111.671C61.2319 111.657 61.1214 111.619 61.0218 111.56C60.8314 111.493 60.6192 111.546 60.4835 111.696C60.3849 112.097 60.369 112.515 60.4366 112.923C60.4339 113.01 60.4408 113.097 60.4571 113.182L61.3427 116.726C61.4468 117.27 61.7156 117.663 62.269 117.663H70.8765C71.4299 117.663 71.9053 117.27 72.0094 116.726L72.895 113.182C72.8968 113.173 72.8979 113.164 72.8994 113.155C72.9204 112.731 72.887 112.306 72.8 111.89Z" fill="#CCCCCC"/>
<path opacity="0.2" d="M62.276 111.623L62.4481 113.86C62.5055 114.606 62.4205 115.341 62.4779 116.087C62.5102 116.507 62.6848 116.937 62.7171 117.357C62.7209 117.406 62.7985 117.407 62.7946 117.357L62.6225 115.12L62.4504 112.883L62.3535 111.623C62.3497 111.574 62.2722 111.573 62.276 111.623Z" fill="black"/>
<path opacity="0.2" d="M63.7705 111.712L63.8376 113.916L63.9046 116.12L63.9423 117.358C63.9438 117.408 64.0213 117.408 64.0198 117.358L63.9527 115.154L63.8857 112.949L63.848 111.712C63.8465 111.662 63.769 111.662 63.7705 111.712Z" fill="black"/>
<path opacity="0.2" d="M65.2192 111.844L65.1988 113.974L65.1785 116.092L65.167 117.293C65.1677 117.314 65.1857 117.331 65.2071 117.33C65.2274 117.329 65.2438 117.313 65.2445 117.293L65.2649 115.162L65.2852 113.045L65.2967 111.844C65.2959 111.823 65.278 111.806 65.2566 111.807C65.2362 111.807 65.2199 111.824 65.2192 111.844Z" fill="black"/>
<path opacity="0.2" d="M66.313 111.779L66.3554 113.936L66.3976 116.079L66.4214 117.293C66.4222 117.315 66.4401 117.331 66.4615 117.331C66.4819 117.33 66.4982 117.314 66.4989 117.293L66.4565 115.137L66.4144 112.993L66.3905 111.779C66.3898 111.757 66.3718 111.741 66.3504 111.741C66.33 111.742 66.3137 111.759 66.313 111.779Z" fill="black"/>
<path opacity="0.2" d="M67.9072 111.69L67.9557 113.904L68.0042 116.119L68.0314 117.358C68.0321 117.379 68.05 117.396 68.0714 117.395C68.0918 117.395 68.1082 117.378 68.1089 117.358L68.0604 115.144L68.0119 112.93L67.9847 111.69C67.9838 111.669 67.9657 111.652 67.9443 111.653C67.9242 111.654 67.9081 111.67 67.9072 111.69Z" fill="black"/>
<path opacity="0.2" d="M69.2306 111.757L69.3996 113.988L69.5682 116.213L69.6631 117.467C69.6669 117.516 69.7444 117.516 69.7406 117.467L69.5716 115.236L69.4031 113.011L69.3081 111.757C69.3044 111.708 69.2268 111.708 69.2306 111.757Z" fill="black"/>
<path opacity="0.2" d="M70.7016 112.017L70.8035 114.059C70.8375 114.739 70.6648 115.419 70.6988 116.1L70.756 117.246C70.7585 117.296 70.836 117.296 70.8335 117.246C70.7995 116.566 70.9723 115.885 70.9383 115.205L70.8364 113.164L70.7791 112.017C70.7766 111.968 70.6991 111.967 70.7016 112.017Z" fill="black"/>
<path d="M66.2107 106.425C66.3747 106.425 66.5078 106.332 66.5078 106.218C66.5078 106.104 66.3747 106.011 66.2107 106.011C66.0466 106.011 65.9136 106.104 65.9136 106.218C65.9136 106.332 66.0466 106.425 66.2107 106.425Z" fill="#E6E6E6"/>
<path d="M68.0969 106.89C68.261 106.89 68.394 106.797 68.394 106.683C68.394 106.569 68.261 106.477 68.0969 106.477C67.9328 106.477 67.7998 106.569 67.7998 106.683C67.7998 106.797 67.9328 106.89 68.0969 106.89Z" fill="#3F3D56"/>
<path d="M65.4616 107.897C65.6257 107.897 65.7587 107.805 65.7587 107.691C65.7587 107.576 65.6257 107.484 65.4616 107.484C65.2976 107.484 65.1646 107.576 65.1646 107.691C65.1646 107.805 65.2976 107.897 65.4616 107.897Z" fill="#FF6584"/>
<path d="M67.9182 108.17C68.0219 108.17 68.106 108.111 68.106 108.039C68.106 107.967 68.0219 107.908 67.9182 107.908C67.8145 107.908 67.7305 107.967 67.7305 108.039C67.7305 108.111 67.8145 108.17 67.9182 108.17Z" fill="#E6E6E6"/>
<path d="M69.1101 108.464C69.2138 108.464 69.2979 108.405 69.2979 108.333C69.2979 108.261 69.2138 108.202 69.1101 108.202C69.0064 108.202 68.9224 108.261 68.9224 108.333C68.9224 108.405 69.0064 108.464 69.1101 108.464Z" fill="#3F3D56"/>
<path d="M67.4451 109.1C67.5488 109.1 67.6328 109.042 67.6328 108.97C67.6328 108.898 67.5488 108.839 67.4451 108.839C67.3414 108.839 67.2573 108.898 67.2573 108.97C67.2573 109.042 67.3414 109.1 67.4451 109.1Z" fill="#FF6584"/>
<path d="M69.6751 108.893C69.7788 108.893 69.8628 108.835 69.8628 108.762C69.8628 108.69 69.7788 108.632 69.6751 108.632C69.5714 108.632 69.4873 108.69 69.4873 108.762C69.4873 108.835 69.5714 108.893 69.6751 108.893Z" fill="#E6E6E6"/>
<path d="M70.867 109.187C70.9707 109.187 71.0547 109.129 71.0547 109.056C71.0547 108.984 70.9707 108.926 70.867 108.926C70.7633 108.926 70.6792 108.984 70.6792 109.056C70.6792 109.129 70.7633 109.187 70.867 109.187Z" fill="#3F3D56"/>
<path d="M69.2014 109.824C69.3051 109.824 69.3892 109.765 69.3892 109.693C69.3892 109.621 69.3051 109.562 69.2014 109.562C69.0977 109.562 69.0137 109.621 69.0137 109.693C69.0137 109.765 69.0977 109.824 69.2014 109.824Z" fill="#FF6584"/>
<path d="M64.8352 108.204C64.8494 108.101 64.8029 108.01 64.7314 108C64.66 107.99 64.5906 108.066 64.5764 108.168C64.5623 108.271 64.6087 108.362 64.6802 108.372C64.7516 108.382 64.821 108.307 64.8352 108.204Z" fill="#E6E6E6"/>
<path d="M64.3816 109.345C64.3957 109.242 64.3493 109.151 64.2778 109.141C64.2064 109.131 64.137 109.206 64.1228 109.309C64.1086 109.412 64.1551 109.503 64.2266 109.513C64.298 109.523 64.3674 109.447 64.3816 109.345Z" fill="#3F3D56"/>
<path d="M63.9778 107.608C63.9919 107.505 63.9455 107.414 63.874 107.404C63.8025 107.394 63.7331 107.47 63.719 107.572C63.7048 107.675 63.7513 107.766 63.8228 107.776C63.8942 107.786 63.9636 107.711 63.9778 107.608Z" fill="#FF6584"/>
<path d="M66.8762 107.584C66.8904 107.481 66.8439 107.39 66.7724 107.38C66.701 107.37 66.6316 107.446 66.6174 107.548C66.6033 107.651 66.6497 107.742 66.7212 107.752C66.7927 107.762 66.8621 107.687 66.8762 107.584Z" fill="#E6E6E6"/>
<path d="M66.4221 108.725C66.4363 108.622 66.3898 108.531 66.3183 108.521C66.2469 108.511 66.1775 108.586 66.1633 108.689C66.1492 108.792 66.1956 108.883 66.2671 108.893C66.3386 108.903 66.408 108.827 66.4221 108.725Z" fill="#3F3D56"/>
<path d="M66.0188 106.988C66.0329 106.885 65.9865 106.794 65.915 106.784C65.8436 106.774 65.7742 106.85 65.76 106.952C65.7458 107.055 65.7923 107.146 65.8638 107.156C65.9352 107.166 66.0046 107.091 66.0188 106.988Z" fill="#FF6584"/>
<path d="M67.4289 106.322C67.4431 106.219 67.3966 106.128 67.3252 106.118C67.2537 106.108 67.1843 106.183 67.1702 106.286C67.156 106.389 67.2025 106.48 67.2739 106.49C67.3454 106.5 67.4148 106.424 67.4289 106.322Z" fill="#3F3D56"/>
<path d="M67.0261 104.585C67.0403 104.483 66.9938 104.392 66.9224 104.382C66.8509 104.372 66.7815 104.447 66.7673 104.55C66.7532 104.653 66.7996 104.744 66.8711 104.754C66.9426 104.764 67.012 104.688 67.0261 104.585Z" fill="#FF6584"/>
<path d="M139.322 84.1994C140.84 84.1994 142.07 83.3433 142.07 82.2873C142.07 81.2313 140.84 80.3752 139.322 80.3752C137.804 80.3752 136.573 81.2313 136.573 82.2873C136.573 83.3433 137.804 84.1994 139.322 84.1994Z" fill="#E6E6E6"/>
<path d="M156.77 88.5016C158.288 88.5016 159.518 87.6456 159.518 86.5896C159.518 85.5336 158.288 84.6775 156.77 84.6775C155.252 84.6775 154.021 85.5336 154.021 86.5896C154.021 87.6456 155.252 88.5016 156.77 88.5016Z" fill="#3F3D56"/>
<path d="M132.391 97.8229C133.909 97.8229 135.139 96.9669 135.139 95.9109C135.139 94.8548 133.909 93.9988 132.391 93.9988C130.873 93.9988 129.642 94.8548 129.642 95.9109C129.642 96.9669 130.873 97.8229 132.391 97.8229Z" fill="#FF6584"/>
<path d="M171.372 107.035C172.331 107.035 173.109 106.494 173.109 105.827C173.109 105.159 172.331 104.618 171.372 104.618C170.413 104.618 169.635 105.159 169.635 105.827C169.635 106.494 170.413 107.035 171.372 107.035Z" fill="#E6E6E6"/>
<path d="M182.399 109.754C183.358 109.754 184.136 109.213 184.136 108.546C184.136 107.878 183.358 107.337 182.399 107.337C181.439 107.337 180.662 107.878 180.662 108.546C180.662 109.213 181.439 109.754 182.399 109.754Z" fill="#3F3D56"/>
<path d="M126.594 100.661C126.725 99.7104 126.295 98.8661 125.634 98.775C124.973 98.6839 124.33 99.3805 124.2 100.331C124.069 101.281 124.498 102.126 125.16 102.217C125.821 102.308 126.463 101.611 126.594 100.661Z" fill="#E6E6E6"/>
<path d="M122.396 111.214C122.527 110.263 122.097 109.419 121.436 109.328C120.775 109.237 120.133 109.933 120.002 110.884C119.871 111.834 120.301 112.679 120.962 112.77C121.623 112.861 122.265 112.164 122.396 111.214Z" fill="#3F3D56"/>
<path d="M118.663 95.1464C118.794 94.196 118.364 93.3517 117.703 93.2606C117.042 93.1695 116.4 93.8661 116.269 94.8165C116.138 95.7669 116.568 96.6112 117.229 96.7023C117.89 96.7934 118.532 96.0968 118.663 95.1464Z" fill="#FF6584"/>
<path d="M145.476 94.9249C145.607 93.9745 145.177 93.1302 144.516 93.0391C143.855 92.948 143.213 93.6446 143.082 94.5951C142.951 95.5455 143.381 96.3898 144.042 96.4809C144.703 96.572 145.345 95.8753 145.476 94.9249Z" fill="#E6E6E6"/>
<path d="M137.544 89.41C137.675 88.4596 137.246 87.6153 136.584 87.5242C135.923 87.4331 135.281 88.1297 135.15 89.0802C135.019 90.0306 135.449 90.8749 136.11 90.966C136.771 91.0571 137.413 90.3605 137.544 89.41Z" fill="#FF6584"/>
<path d="M210.956 182.046C211.433 182.068 211.837 181.699 211.859 181.223C211.87 180.969 211.769 180.722 211.582 180.549C211.56 180.463 211.545 180.4 211.523 180.314C211.992 179.122 213.339 178.535 214.532 179.005C215.117 179.235 215.583 179.693 215.824 180.273C216.848 182.669 218.173 185.149 217.514 187.788C221.865 178.566 220.385 167.094 213.955 159.207C212.119 158.232 210.805 156.499 210.361 154.468C211.241 154.766 212.338 154.051 211.676 153.124C211.39 152.77 211.1 152.419 210.814 152.064C214.155 148.505 218.137 154.099 214.459 158.902C215.662 160.411 216.704 162.041 217.568 163.767C217.369 161.934 217.607 160.081 218.264 158.359C218.929 156.754 220.176 155.403 221.274 154.015C222.086 152.974 223.587 152.789 224.628 153.601C225.144 154.003 225.472 154.599 225.537 155.25C224.304 155.655 224.144 157.435 225.554 157.678C225.118 161.731 222.64 165.28 218.986 167.087C220.312 170.808 220.83 174.769 220.505 178.706C221.139 174.105 226.078 172.988 229.53 171.16C230.155 170.759 230.987 170.941 231.388 171.566C231.569 171.849 231.638 172.19 231.581 172.522C231.104 172.715 230.648 172.956 230.219 173.24C229.681 173.602 229.538 174.331 229.9 174.869C230.097 175.161 230.414 175.35 230.765 175.383C229.025 179.689 224.526 182.581 219.905 182.565C219.461 184.494 218.818 186.372 217.986 188.169H211.128C211.104 188.093 211.081 188.014 211.059 187.938C211.694 187.978 212.331 187.94 212.957 187.825C211.278 185.836 209.979 184.822 210.956 182.046Z" fill="#F2F2F2"/>
<path d="M76.6826 181.943C76.2061 181.965 75.8021 181.597 75.7802 181.12C75.7685 180.866 75.8697 180.619 76.0567 180.446L76.1159 180.211C75.6465 179.019 74.2994 178.433 73.1071 178.902C72.5222 179.132 72.0557 179.59 71.8144 180.171C70.7909 182.566 69.4663 185.046 70.1251 187.685C65.7737 178.463 67.2535 166.991 73.6843 159.104C75.5197 158.129 76.8337 156.396 77.2776 154.365C76.3979 154.664 75.3011 153.948 75.9625 153.021C76.2492 152.667 76.5387 152.316 76.8254 151.962C73.4836 148.403 69.502 153.996 73.1803 158.8C71.977 160.308 70.9347 161.938 70.0704 163.664C70.27 161.832 70.0318 159.978 69.3754 158.256C68.7101 156.651 67.4632 155.3 66.3651 153.912C65.5533 152.872 64.0515 152.686 63.0108 153.498C62.4951 153.9 62.1668 154.496 62.1024 155.147C63.3346 155.552 63.4947 157.332 62.0852 157.575C62.5213 161.629 64.9986 165.178 68.6528 166.984C67.3267 170.705 66.8088 174.666 67.1338 178.603C66.4999 174.002 61.5611 172.886 58.1091 171.057C57.484 170.656 56.6522 170.838 56.2513 171.463C56.0697 171.746 56.0008 172.087 56.0584 172.419C56.5349 172.613 56.9909 172.853 57.4198 173.137C57.9578 173.499 58.1006 174.228 57.7389 174.766C57.5424 175.058 57.2251 175.247 56.8744 175.28C58.6145 179.586 63.1131 182.478 67.7335 182.462C68.1775 184.391 68.8209 186.27 69.6532 188.066H76.5107C76.5353 187.99 76.5575 187.911 76.5796 187.835C75.9448 187.875 75.3076 187.837 74.682 187.722C76.3614 185.734 77.66 184.719 76.6826 181.943Z" fill="#F2F2F2"/>
<path d="M93.8637 101.66L93.1343 97.4325L104.224 92.425L106.619 88.1849C106.387 87.0701 107.103 85.9786 108.217 85.7469C109.332 85.5152 110.424 86.2311 110.655 87.3458C110.837 88.2188 110.437 89.1094 109.663 89.5533L105.724 95.644L93.8637 101.66Z" fill="#A0616A"/>
<path d="M90.4932 98.2038L95.4869 95.6533L96.809 100.617L93.3401 103.188L90.4932 98.2038Z" fill="#3F3D56"/>
<path d="M79.2865 182.577H82.3059L83.7422 170.93H79.2861L79.2865 182.577Z" fill="#A0616A"/>
<path d="M83.3109 182.849V180.802L82.5171 180.85L79.2858 181.042L78.5379 181.088L77.9662 187.943L77.9355 188.311H80.0796L80.1485 187.946L80.4599 186.287L81.2639 187.946L81.44 188.311H87.1242C87.8281 188.306 88.3973 187.736 88.4004 187.032C88.6403 185.912 83.9133 183.489 83.3109 182.849Z" fill="#2F2E41"/>
<path d="M43.5171 171.706L45.9858 173.444L53.8675 164.75L50.224 162.184L43.5171 171.706Z" fill="#A0616A"/>
<path d="M46.7389 174.023L47.9178 172.35L47.2409 171.932L44.489 170.228L43.8512 169.835L39.4354 175.11L39.1987 175.393L40.9515 176.628L41.218 176.369L42.4281 175.192L42.1299 177.011L42.0637 177.411L46.7106 180.685C47.2886 181.087 48.0824 180.948 48.4903 180.374C49.3318 179.597 46.8623 174.894 46.7389 174.023Z" fill="#2F2E41"/>
<path d="M83.9556 107.2L80.069 105.383L72.3183 114.763L67.5973 115.957C66.5829 115.44 65.3414 115.843 64.8244 116.857C64.3073 117.872 64.7105 119.113 65.7249 119.63C66.5193 120.035 67.4839 119.883 68.1158 119.254L75.0288 117.057L83.9556 107.2Z" fill="#A0616A"/>
<path d="M80.0368 122.309C80.0368 122.309 73.6599 126.461 75.3461 129.22C75.4043 129.315 61.7629 148.254 61.7629 148.254L46.4663 164.746L51.7245 169.526C51.7245 169.526 66.2564 154.394 68.6942 151.839C71.132 149.285 81.7801 136.506 81.7801 136.506L82.1718 152.299L78.0955 174.183L84.1819 173.797L90.1058 151.841L92.2925 126.971L80.0368 122.309Z" fill="#2F2E41"/>
<path d="M84.5793 97.3875L81.8977 99.4197L78.8412 105.943L81.7803 109.935C81.7803 109.935 84.2526 114.219 80.2954 118.369C76.3381 122.518 73.2994 126.95 76.4668 126.792C79.6341 126.634 92.4625 133.158 92.5469 127.813C92.6313 122.467 92.8021 118.369 92.8021 118.369L96.1654 109.838C96.1654 109.838 98.1692 104.749 96.7624 103.226C95.3555 101.703 93.4719 99.7563 93.4719 99.7563L90.0464 96.3308H86.9533L84.5793 97.3875Z" fill="#3F3D56"/>
<path d="M89.5851 84.8534C95.601 88.2767 90.6622 97.3092 84.5341 94.0928C78.5183 90.6696 83.4571 81.6372 89.5851 84.8534Z" fill="#A0616A"/>
<path d="M92.802 86.7515C92.3805 87.2998 91.4998 87.0427 89.7751 87.4339C89.7789 86.8494 89.7114 86.2665 89.574 85.6983C89.4457 86.4018 89.1645 87.0686 88.7503 87.6516C87.2527 87.8177 89.0885 92.3672 88.3217 95.7121C87.3338 88.6554 85.2558 90.5042 86.3056 91.9039C86.9776 92.8 86.5296 95.4881 84.5135 94.144C81.1869 95.725 76.4489 87.8716 81.7001 84.1885C81.6063 82.1977 83.8214 81.8832 85.1855 82.4953C88.496 80.0292 92.2781 83.1891 92.802 86.7515Z" fill="#2F2E41"/>
<path d="M77.3664 81.6023C76.027 89.8373 68.8481 80.0878 65.4726 88.1918C64.4112 91.1266 66.2322 93.2261 67.384 95.6621C67.6469 97.6641 65.0425 98.6798 64.7697 100.523C64.6937 104.747 71.5097 104.489 73.4152 101.823C75.373 99.0331 73.0351 95.2894 74.2119 92.2944C75.8659 88.1363 82.5925 88.1054 83.1784 83.2677C82.0436 81.6516 78.9919 79.8006 77.3664 81.6023Z" fill="#2F2E41"/>
<path d="M82.7921 82.4069C82.7483 82.4254 82.7045 82.4438 82.6653 82.4646H82.663C82.6261 82.483 82.5892 82.5015 82.5523 82.5222C82.5477 82.5245 82.5454 82.5268 82.5408 82.5292C82.4923 82.483 82.4439 82.4369 82.3932 82.3908C82.3801 82.4659 82.3832 82.543 82.4024 82.6168L82.4093 82.6445C82.4554 82.6929 82.5039 82.739 82.5546 82.7874C82.6008 82.7528 82.6446 82.716 82.6907 82.6814C82.7184 82.6583 82.746 82.6352 82.776 82.6122C82.7806 82.5522 82.7875 82.483 82.7945 82.4069L82.7921 82.4069ZM84.1805 79.8425C83.1519 79.6073 82.8198 80.9517 82.7207 81.5998C82.3471 79.2475 80.7927 79.9878 81.33 81.5929C81.5013 82.0681 81.7708 82.5018 82.1211 82.8659C82.1695 82.9212 82.2225 82.9766 82.2779 83.0319C82.2156 83.3548 82.5293 83.2718 82.9536 82.9743C83.2669 82.7514 83.5567 82.4972 83.8184 82.2155C84.6647 81.3276 85.3243 80.14 84.1805 79.8425ZM84.2128 81.1662C83.8954 81.5754 83.5394 81.9531 83.1496 82.2939C83.0274 82.4046 82.9028 82.5107 82.776 82.6122C82.7737 82.6329 82.7737 82.6514 82.7714 82.6675C82.7625 82.69 82.7517 82.7116 82.7391 82.7321C82.61 82.965 82.4647 82.8382 82.4093 82.6445C82.4047 82.6375 82.3978 82.6306 82.3932 82.6237C82.2089 82.4334 82.0486 82.2212 81.9158 81.9919C80.9634 80.3406 82.497 79.2175 82.4209 82.3009C82.4068 82.3292 82.3975 82.3595 82.3932 82.3908C82.3801 82.4659 82.3832 82.543 82.4024 82.6168L82.4093 82.6445C82.4554 82.6929 82.5039 82.739 82.5546 82.7874C82.6008 82.7528 82.6446 82.716 82.6907 82.6814C82.7184 82.6583 82.746 82.6352 82.776 82.6122C82.7806 82.5522 82.7875 82.483 82.7945 82.4069L82.7944 82.4047C82.8544 81.7866 83.0181 80.675 83.3203 80.3729C83.9844 79.8633 84.8446 80.4144 84.2128 81.1662ZM82.7921 82.4069C82.7483 82.4254 82.7045 82.4438 82.6653 82.4646H82.663C82.6261 82.483 82.5892 82.5015 82.5523 82.5222C82.5477 82.5245 82.5454 82.5268 82.5408 82.5292C82.4923 82.483 82.4439 82.4369 82.3932 82.3908C82.3801 82.4659 82.3832 82.543 82.4024 82.6168L82.4093 82.6445C82.4554 82.6929 82.5039 82.739 82.5546 82.7874C82.6008 82.7528 82.6446 82.716 82.6907 82.6814C82.7184 82.6583 82.746 82.6352 82.776 82.6122C82.7806 82.5522 82.7875 82.483 82.7945 82.4069L82.7921 82.4069Z" fill="#2F2E41"/>
<path d="M209.479 183.061L206.526 183.732L202.529 172.661L206.888 171.669L209.479 183.061Z" fill="#FFB6B6"/>
<path d="M210.284 186.117L201.203 188.184L201.177 188.069C200.732 186.117 201.955 184.174 203.907 183.73L205.28 182.094L208.661 182.648L209.454 182.468L210.284 186.117Z" fill="#2F2E41"/>
<path d="M247.99 177.241L245.44 178.874L237.927 169.812L241.691 167.402L247.99 177.241Z" fill="#FFB6B6"/>
<path d="M249.784 179.844L241.94 184.866L241.877 184.767C240.797 183.081 241.289 180.839 242.975 179.759L243.712 177.755L247.081 177.13L247.766 176.692L249.784 179.844Z" fill="#2F2E41"/>
<path d="M207.514 127.908L205.292 133.703L194.869 154.262L204.027 178.179L208.754 176.932L204.858 154.262L216.035 140.682L222.524 154.635L241.167 175.19L245.469 172.322L231.607 151.05L222.376 124.073L207.514 127.908Z" fill="#2F2E41"/>
<path d="M218.725 100.576L215.067 96.6468L208.793 95.7837L201.106 101.165L201.183 107.122L204.984 121.159C204.984 121.159 203.536 131.244 207.579 131.143C211.622 131.042 213.826 129.026 215.473 129.436C217.12 129.847 224.12 131.593 224.563 129.764C225.007 127.934 227.365 129.244 227.262 127.514C227.158 125.783 220.878 113.31 220.878 113.31L221.977 104.53C222.219 102.599 220.849 100.837 218.917 100.595C218.853 100.587 218.789 100.581 218.725 100.576Z" fill="#3F3D56"/>
<path d="M243.965 125.335C242.754 125.592 241.565 124.819 241.308 123.608C241.281 123.479 241.265 123.348 241.261 123.216L224.444 116.596L227.645 113.974L243.587 120.877C244.83 120.919 245.804 121.961 245.763 123.204C245.728 124.244 244.984 125.125 243.965 125.335Z" fill="#FFB6B6"/>
<path d="M220.146 101.305C220.146 101.305 217.281 101.283 216.929 104.544C216.578 107.805 222.584 116.075 223.512 117.437C223.803 117.863 225.052 118.348 226.63 118.814C227.339 119.023 228.114 119.227 228.899 119.421C229.353 119.533 229.556 120.286 230.006 120.389C230.453 120.492 231.146 119.946 231.567 120.037C233.564 120.47 235.142 120.759 235.142 120.759L238.875 118.215C236.992 115.434 233.389 114.296 229.307 113.616L220.146 101.305Z" fill="#3F3D56"/>
<path d="M177.995 86.1614C178.183 87.3843 179.327 88.2229 180.55 88.0345C180.68 88.0144 180.809 87.9829 180.933 87.9402L193.08 101.322L194.399 97.4011L182.297 84.9361C181.818 83.7882 180.498 83.2462 179.35 83.7256C178.39 84.1267 177.829 85.1337 177.995 86.1614Z" fill="#FFB6B6"/>
<path d="M208.901 99.9275C208.901 99.9275 209.936 102.599 207.011 104.082C204.086 105.566 194.225 102.877 192.623 102.492C192.121 102.371 191.225 101.375 190.231 100.063C189.785 99.4742 189.319 98.8219 188.859 98.1566C188.594 97.7717 187.818 97.8484 187.562 97.4646C187.308 97.0829 187.573 96.2407 187.339 95.8796C186.227 94.1656 185.397 92.7921 185.397 92.7921L186.455 88.3997C189.723 89.1764 192.062 92.1429 194.144 95.7194L208.901 99.9275Z" fill="#3F3D56"/>
<path d="M212.055 94.7843C215.352 94.7843 218.025 92.1116 218.025 88.8147C218.025 85.5179 215.352 82.8452 212.055 82.8452C208.759 82.8452 206.086 85.5179 206.086 88.8147C206.086 92.1116 208.759 94.7843 212.055 94.7843Z" fill="#FFB6B6"/>
<path d="M218.87 85.3967C218.245 84.3902 217.099 83.8315 215.921 83.9597C215.6 81.7592 213.556 80.2354 211.356 80.5564C210.537 80.6757 209.776 81.0439 209.174 81.6111C208.816 81.3586 208.351 81.3122 207.95 81.4886C207.557 81.6673 207.215 81.9419 206.955 82.287C205.62 83.9526 205.308 86.2175 206.144 88.1818C206.005 87.6742 206.513 87.1968 207.027 87.0829C207.541 86.969 208.08 87.0767 208.601 87.0026C209.269 86.9075 209.87 86.5201 210.539 86.4329C211.106 86.396 211.675 86.4691 212.214 86.6482C212.754 86.8273 213.322 86.9036 213.89 86.8732C214.453 86.8063 215.178 88.9401 215.168 90.443C215.166 90.7278 215.225 91.0935 215.503 91.1539C215.846 91.2283 216.045 90.7553 216.371 90.6264C216.684 90.5368 217.011 90.7108 217.111 91.02C217.195 91.3269 217.125 91.6551 216.924 91.9013C216.723 92.1417 216.485 92.3482 216.219 92.5128L216.353 92.6246C216.616 92.9025 217.039 92.9551 217.362 92.75C217.67 92.5413 217.92 92.2573 218.087 91.9249C218.717 90.9511 219.167 89.8724 219.416 88.7399C219.662 87.5965 219.467 86.4024 218.87 85.3967Z" fill="#2F2E41"/>
<path d="M150.599 83.2496C150.73 82.2992 150.3 81.4549 149.639 81.3638C148.978 81.2727 148.336 81.9693 148.205 82.9198C148.074 83.8702 148.504 84.7145 149.165 84.8056C149.826 84.8967 150.468 84.2001 150.599 83.2496Z" fill="#3F3D56"/>
<path d="M248.283 124.025H240.378C240.166 124.025 238.996 123.406 238.996 122.642V118.251C238.958 114.93 249.831 114.712 249.872 118.251V122.642C249.872 123.406 249.046 124.025 248.283 124.025Z" fill="#E6E6E6"/>
<path d="M248.692 115.275C248.308 115.138 247.901 115.079 247.495 115.103C247.603 115.067 247.703 115.009 247.788 114.931C247.713 114.928 247.639 114.918 247.567 114.902C247.487 114.887 247.412 114.853 247.348 114.804C247.283 114.753 247.248 114.672 247.256 114.59C247.27 114.49 247.364 114.407 247.355 114.306C247.344 114.19 247.21 114.134 247.138 114.042C247.049 113.9 247.064 113.716 247.176 113.591C247.244 113.512 247.327 113.447 247.421 113.401C247.263 113.36 247.097 113.362 246.941 113.407C247.108 113.278 247.183 113.06 247.13 112.855C247.042 112.599 246.831 112.404 246.57 112.335C246.311 112.27 246.044 112.249 245.778 112.271C246.004 112.202 245.97 111.849 245.797 111.687C245.625 111.526 245.378 111.459 245.216 111.288C245.053 111.117 245.066 110.752 245.301 110.723L245.272 110.64C244.805 110.466 244.286 110.703 244.111 111.169C244.096 111.209 244.084 111.25 244.075 111.292C244.032 111.559 244.112 111.855 243.978 112.091C243.807 112.391 243.392 112.424 243.048 112.391C242.71 112.305 242.352 112.354 242.05 112.527C241.801 112.735 241.767 113.106 241.975 113.356C242.09 113.495 242.263 113.573 242.443 113.568C242.217 113.569 241.992 113.599 241.773 113.656L241.984 113.738C242.031 113.752 242.074 113.777 242.111 113.809C242.148 113.843 242.159 113.897 242.139 113.943C242.105 114.004 242.018 114.002 241.949 113.992L241.491 113.923C241.582 113.953 241.631 114.052 241.601 114.143C241.571 114.234 241.472 114.283 241.381 114.253C241.358 114.245 241.336 114.232 241.318 114.216C241.365 114.27 241.403 114.333 241.43 114.4C241.457 114.468 241.449 114.545 241.409 114.607C241.316 114.692 241.178 114.709 241.068 114.648C241.03 114.634 240.993 114.617 240.955 114.602C240.956 114.615 240.957 114.629 240.958 114.642C240.984 114.818 241.082 114.975 241.229 115.076C241.021 115.1 240.83 115.2 240.692 115.358C240.454 115.654 240.439 116.072 240.657 116.384C240.426 116.282 240.172 116.24 239.92 116.262C239.662 116.294 239.468 116.515 239.469 116.776C239.511 117.095 239.907 117.212 240.226 117.251C242.74 117.561 245.283 117.561 247.796 117.251C248.138 117.227 248.472 117.142 248.784 116.999C249.098 116.851 249.315 116.551 249.357 116.206C249.344 115.789 249.081 115.422 248.692 115.275Z" fill="#FA5246"/>
<path d="M250.558 118.975C250.501 118.727 250.279 118.551 250.024 118.552C249.781 118.559 249.563 118.732 249.325 118.694C249.127 118.663 248.971 118.49 248.772 118.516C248.589 118.54 248.491 118.719 248.355 118.815H248.005C247.869 118.707 247.802 118.49 247.614 118.43C247.33 118.338 247.101 118.659 246.804 118.715C246.631 118.735 246.457 118.701 246.304 118.62C246.154 118.539 245.991 118.484 245.823 118.457C245.671 118.434 245.52 118.501 245.435 118.627C245.444 118.537 245.326 118.448 245.206 118.442C245.072 118.447 244.942 118.487 244.829 118.558C244.715 118.629 244.584 118.667 244.449 118.667C244.152 118.641 244.006 118.293 243.707 118.29C243.33 118.285 243.18 118.821 242.808 118.775C242.614 118.752 242.509 118.576 242.337 118.501C242.154 118.444 241.958 118.442 241.774 118.495L240.893 118.66C240.635 118.731 240.363 118.734 240.104 118.668C239.915 118.599 239.731 118.451 239.537 118.508C239.367 118.557 239.284 118.747 239.105 118.757C238.99 118.742 238.879 118.704 238.78 118.645C238.589 118.578 238.377 118.632 238.241 118.781C238.143 119.183 238.127 119.6 238.194 120.008C238.192 120.095 238.199 120.182 238.215 120.268L239.101 123.812C239.205 124.355 239.473 124.748 240.027 124.748H248.634C249.188 124.748 249.663 124.355 249.767 123.812L250.653 120.268C250.655 120.258 250.656 120.249 250.657 120.24C250.678 119.816 250.645 119.391 250.558 118.975Z" fill="#CCCCCC"/>
<path opacity="0.2" d="M240.034 118.709L240.206 120.946C240.263 121.691 240.178 122.427 240.236 123.172C240.268 123.592 240.443 124.022 240.475 124.442C240.479 124.492 240.556 124.492 240.552 124.442L240.38 122.205L240.208 119.969L240.111 118.709C240.108 118.659 240.03 118.659 240.034 118.709Z" fill="black"/>
<path opacity="0.2" d="M241.529 118.797L241.596 121.001L241.663 123.206L241.701 124.443C241.702 124.493 241.78 124.493 241.778 124.443L241.711 122.239L241.644 120.035L241.606 118.797C241.605 118.747 241.527 118.747 241.529 118.797Z" fill="black"/>
<path opacity="0.2" d="M242.977 118.93L242.957 121.06L242.936 123.177L242.925 124.378C242.926 124.399 242.943 124.416 242.965 124.415C242.985 124.415 243.002 124.398 243.002 124.378L243.023 122.248L243.043 120.13L243.054 118.93C243.054 118.908 243.036 118.891 243.014 118.892C242.994 118.893 242.978 118.909 242.977 118.93Z" fill="black"/>
<path opacity="0.2" d="M244.071 118.864L244.113 121.021L244.155 123.165L244.179 124.379C244.18 124.4 244.198 124.417 244.219 124.416C244.24 124.415 244.256 124.399 244.257 124.379L244.214 122.222L244.172 120.078L244.148 118.864C244.148 118.843 244.13 118.826 244.108 118.827C244.088 118.828 244.072 118.844 244.071 118.864Z" fill="black"/>
<path opacity="0.2" d="M245.666 118.776L245.714 120.99L245.762 123.204L245.79 124.443C245.79 124.465 245.808 124.482 245.83 124.481C245.85 124.48 245.866 124.464 245.867 124.443L245.819 122.229L245.77 120.015L245.743 118.776C245.742 118.754 245.724 118.738 245.703 118.738C245.683 118.739 245.666 118.755 245.666 118.776Z" fill="black"/>
<path opacity="0.2" d="M246.989 118.843L247.158 121.074L247.326 123.298L247.421 124.552C247.425 124.601 247.503 124.602 247.499 124.552L247.33 122.321L247.161 120.097L247.066 118.843C247.063 118.793 246.985 118.793 246.989 118.843Z" fill="black"/>
<path opacity="0.2" d="M248.459 119.103L248.561 121.144C248.595 121.824 248.423 122.505 248.457 123.185L248.514 124.332C248.516 124.381 248.594 124.381 248.591 124.332C248.557 123.651 248.73 122.971 248.696 122.29L248.594 120.249L248.537 119.103C248.534 119.053 248.457 119.053 248.459 119.103Z" fill="black"/>
<path d="M243.969 113.51C244.133 113.51 244.266 113.418 244.266 113.304C244.266 113.189 244.133 113.097 243.969 113.097C243.805 113.097 243.672 113.189 243.672 113.304C243.672 113.418 243.805 113.51 243.969 113.51Z" fill="#E6E6E6"/>
<path d="M245.855 113.975C246.019 113.975 246.152 113.883 246.152 113.768C246.152 113.654 246.019 113.562 245.855 113.562C245.691 113.562 245.558 113.654 245.558 113.768C245.558 113.883 245.691 113.975 245.855 113.975Z" fill="#3F3D56"/>
<path d="M243.22 114.983C243.384 114.983 243.517 114.89 243.517 114.776C243.517 114.662 243.384 114.569 243.22 114.569C243.056 114.569 242.923 114.662 242.923 114.776C242.923 114.89 243.056 114.983 243.22 114.983Z" fill="#FF6584"/>
<path d="M245.677 115.255C245.78 115.255 245.864 115.197 245.864 115.125C245.864 115.052 245.78 114.994 245.677 114.994C245.573 114.994 245.489 115.052 245.489 115.125C245.489 115.197 245.573 115.255 245.677 115.255Z" fill="#E6E6E6"/>
<path d="M246.868 115.549C246.972 115.549 247.056 115.491 247.056 115.418C247.056 115.346 246.972 115.288 246.868 115.288C246.765 115.288 246.681 115.346 246.681 115.418C246.681 115.491 246.765 115.549 246.868 115.549Z" fill="#3F3D56"/>
<path d="M245.203 116.186C245.307 116.186 245.391 116.127 245.391 116.055C245.391 115.983 245.307 115.925 245.203 115.925C245.099 115.925 245.015 115.983 245.015 116.055C245.015 116.127 245.099 116.186 245.203 116.186Z" fill="#FF6584"/>
<path d="M247.433 115.979C247.537 115.979 247.621 115.92 247.621 115.848C247.621 115.776 247.537 115.717 247.433 115.717C247.33 115.717 247.246 115.776 247.246 115.848C247.246 115.92 247.33 115.979 247.433 115.979Z" fill="#E6E6E6"/>
<path d="M248.625 116.272C248.729 116.272 248.813 116.214 248.813 116.142C248.813 116.07 248.729 116.011 248.625 116.011C248.522 116.011 248.438 116.07 248.438 116.142C248.438 116.214 248.522 116.272 248.625 116.272Z" fill="#3F3D56"/>
<path d="M246.96 116.909C247.063 116.909 247.148 116.851 247.148 116.779C247.148 116.706 247.063 116.648 246.96 116.648C246.856 116.648 246.772 116.706 246.772 116.779C246.772 116.851 246.856 116.909 246.96 116.909Z" fill="#FF6584"/>
<path d="M242.594 115.29C242.608 115.187 242.561 115.096 242.49 115.086C242.418 115.076 242.349 115.151 242.335 115.254C242.321 115.357 242.367 115.448 242.438 115.458C242.51 115.468 242.579 115.392 242.594 115.29Z" fill="#E6E6E6"/>
<path d="M242.138 116.43C242.152 116.327 242.106 116.236 242.034 116.226C241.963 116.216 241.893 116.291 241.879 116.394C241.865 116.497 241.911 116.588 241.983 116.598C242.054 116.608 242.124 116.532 242.138 116.43Z" fill="#3F3D56"/>
<path d="M241.736 114.693C241.75 114.591 241.704 114.499 241.632 114.49C241.561 114.48 241.491 114.555 241.477 114.658C241.463 114.76 241.51 114.852 241.581 114.862C241.653 114.871 241.722 114.796 241.736 114.693Z" fill="#FF6584"/>
<path d="M244.634 114.669C244.648 114.567 244.602 114.475 244.53 114.466C244.459 114.456 244.389 114.531 244.375 114.634C244.361 114.737 244.408 114.828 244.479 114.838C244.55 114.847 244.62 114.772 244.634 114.669Z" fill="#E6E6E6"/>
<path d="M244.18 115.81C244.195 115.707 244.148 115.616 244.077 115.606C244.005 115.596 243.936 115.672 243.922 115.774C243.907 115.877 243.954 115.968 244.025 115.978C244.097 115.988 244.166 115.913 244.18 115.81Z" fill="#3F3D56"/>
<path d="M243.777 114.074C243.791 113.971 243.745 113.88 243.673 113.87C243.602 113.86 243.532 113.935 243.518 114.038C243.504 114.141 243.551 114.232 243.622 114.242C243.694 114.252 243.763 114.176 243.777 114.074Z" fill="#FF6584"/>
<path d="M245.188 113.408C245.202 113.305 245.155 113.214 245.084 113.204C245.013 113.194 244.943 113.269 244.929 113.372C244.915 113.475 244.961 113.566 245.033 113.576C245.104 113.586 245.174 113.51 245.188 113.408Z" fill="#3F3D56"/>
<path d="M244.784 111.671C244.799 111.568 244.752 111.477 244.681 111.467C244.609 111.457 244.54 111.533 244.526 111.635C244.511 111.738 244.558 111.829 244.629 111.839C244.701 111.849 244.77 111.774 244.784 111.671Z" fill="#FF6584"/>
<path d="M300 188.576C299.721 189.403 0.301128 188.871 0 188.047C0.278729 187.218 299.698 187.75 300 188.576Z" fill="#CCCCCC"/>
<path d="M116.508 145.612C111.252 145.612 106.991 141.351 106.991 136.096C106.991 130.84 111.252 126.579 116.508 126.579C121.764 126.579 126.025 130.84 126.025 136.096C126.025 141.351 121.764 145.612 116.508 145.612Z" fill="#E6E6E6"/>
<path d="M120.263 135.157H117.447V132.34C117.447 131.822 117.027 131.402 116.508 131.402C115.99 131.402 115.569 131.822 115.569 132.34V135.157H112.753C112.235 135.157 111.814 135.577 111.814 136.095C111.814 136.614 112.235 137.034 112.753 137.034H115.569V139.85C115.571 140.369 115.992 140.788 116.511 140.787C117.027 140.786 117.446 140.367 117.447 139.85V137.034H120.263C120.782 137.034 121.202 136.614 121.202 136.095C121.202 135.577 120.782 135.157 120.263 135.157Z" fill="white"/>
<path d="M144.351 145.612C139.095 145.612 134.834 141.351 134.834 136.096C134.834 130.84 139.095 126.579 144.351 126.579C149.607 126.579 153.868 130.84 153.868 136.096C153.868 141.351 149.607 145.612 144.351 145.612Z" fill="#E6E6E6"/>
<path d="M148.106 135.157H140.596C140.078 135.157 139.657 135.577 139.657 136.095C139.657 136.614 140.078 137.034 140.596 137.034H148.106C148.625 137.034 149.045 136.614 149.045 136.095C149.045 135.577 148.625 135.157 148.106 135.157Z" fill="white"/>
<path d="M172.194 145.612C166.938 145.612 162.677 141.351 162.677 136.096C162.677 130.84 166.938 126.579 172.194 126.579C177.45 126.579 181.711 130.84 181.711 136.095C181.711 141.351 177.45 145.612 172.194 145.612Z" fill="#FA5246"/>
<path d="M177.548 135.644L174.85 131.706C174.6 131.341 174.102 131.248 173.737 131.498C173.373 131.748 173.28 132.246 173.53 132.61L175.274 135.157H168.439C167.92 135.157 167.5 135.577 167.5 136.096C167.5 136.614 167.92 137.034 168.439 137.034H175.36L173.53 139.706C173.281 140.072 173.375 140.569 173.74 140.818C174.104 141.066 174.6 140.974 174.85 140.611L177.548 136.673C177.726 136.353 177.726 135.963 177.548 135.644Z" fill="white"/>
<path d="M103.069 33.042H90.5481C89.6076 33.042 88.8452 33.8044 88.8452 34.7449V34.7449C88.8452 35.6854 89.6076 36.4478 90.5481 36.4478H103.069C104.01 36.4478 104.772 35.6854 104.772 34.7449C104.772 33.8044 104.01 33.042 103.069 33.042Z" fill="#FA5246"/>
<path d="M111.158 39.8535H82.4592C81.5188 39.8535 80.7563 40.6159 80.7563 41.5564V41.5564C80.7563 42.4969 81.5188 43.2593 82.4592 43.2593H111.158C112.098 43.2593 112.861 42.4969 112.861 41.5564C112.861 40.6159 112.098 39.8535 111.158 39.8535Z" fill="#E6E6E6"/>
<path d="M111.158 46.665H82.4592C81.5188 46.665 80.7563 47.4275 80.7563 48.3679V48.3679C80.7563 49.3084 81.5188 50.0708 82.4592 50.0708H111.158C112.098 50.0708 112.861 49.3084 112.861 48.3679C112.861 47.4275 112.098 46.665 111.158 46.665Z" fill="#E6E6E6"/>
<path d="M109.388 83.2299H108.661V55.9343H56.7715V55.2068H109.388V83.2299Z" fill="#E6E6E6"/>
<path d="M48.6641 63.5594C54.2447 63.5594 58.7686 59.0354 58.7686 53.4549C58.7686 47.8743 54.2447 43.3503 48.6641 43.3503C43.0835 43.3503 38.5596 47.8743 38.5596 53.4549C38.5596 59.0354 43.0835 63.5594 48.6641 63.5594Z" fill="#E6E6E6"/>
<path d="M47.2854 58.7137C46.9316 58.7137 46.5985 58.5471 46.3863 58.264L43.6296 54.5884C43.2572 54.0918 43.3579 53.3873 43.8545 53.0149C44.3511 52.6424 45.0556 52.7431 45.428 53.2397L47.2315 55.6442L51.8636 48.6962C52.2079 48.1797 52.9058 48.0401 53.4223 48.3845C53.9388 48.7288 54.0784 49.4267 53.7341 49.9432L48.2207 58.2132C48.0183 58.5167 47.6813 58.7031 47.3167 58.7134C47.3062 58.7135 47.2958 58.7137 47.2854 58.7137Z" fill="white"/>
<path d="M177.928 81.791H177.201V53.7678H229.817V54.4953H177.928V81.791Z" fill="#E6E6E6"/>
<path d="M237.886 62.1204C243.466 62.1204 247.99 57.5965 247.99 52.0159C247.99 46.4353 243.466 41.9114 237.886 41.9114C232.305 41.9114 227.781 46.4353 227.781 52.0159C227.781 57.5965 232.305 62.1204 237.886 62.1204Z" fill="#E6E6E6"/>
<path d="M236.507 57.275C236.153 57.275 235.82 57.1084 235.608 56.8253L232.852 53.1497C232.478 52.654 232.577 51.9493 233.072 51.5756C233.568 51.2019 234.273 51.3008 234.647 51.7965L234.65 51.801L236.453 54.2055L241.085 47.2575C241.43 46.741 242.128 46.6014 242.644 46.9457C243.161 47.2901 243.3 47.9879 242.956 48.5045L237.443 56.7744C237.24 57.0779 236.903 57.2644 236.539 57.2746C236.528 57.2748 236.518 57.275 236.507 57.275Z" fill="white"/>
<path d="M112.28 86.4551H104.375C104.163 86.4551 102.993 85.8361 102.993 85.0725V80.6815C102.955 77.3602 113.828 77.1429 113.869 80.6815V85.0725C113.869 85.8361 113.043 86.4551 112.28 86.4551Z" fill="#E6E6E6"/>
<path d="M112.689 77.7052C112.305 77.568 111.898 77.5096 111.492 77.5336C111.6 77.4976 111.7 77.4391 111.785 77.3618C111.71 77.3588 111.636 77.3489 111.564 77.3321C111.484 77.3171 111.409 77.2835 111.345 77.234C111.28 77.183 111.245 77.1027 111.253 77.0206C111.267 76.9202 111.361 76.8375 111.352 76.7365C111.341 76.6207 111.207 76.5643 111.135 76.4725C111.046 76.3305 111.061 76.1463 111.173 76.0211C111.241 75.942 111.324 75.8773 111.418 75.831C111.26 75.7904 111.094 75.7928 110.938 75.8379C111.105 75.7081 111.18 75.4909 111.127 75.2853C111.039 75.0295 110.828 74.8346 110.567 74.7657C110.308 74.7006 110.041 74.679 109.775 74.7018C110.001 74.6325 109.967 74.279 109.795 74.1179C109.622 73.9567 109.375 73.8895 109.213 73.7184C109.05 73.5474 109.063 73.1822 109.298 73.1538L109.269 73.0704C108.802 72.8962 108.283 73.1332 108.108 73.5998C108.093 73.6398 108.081 73.6807 108.072 73.7224C108.029 73.9898 108.109 74.2856 107.975 74.521C107.804 74.8209 107.389 74.8549 107.045 74.8216C106.707 74.7351 106.35 74.7839 106.048 74.9578C105.798 75.1657 105.764 75.5367 105.972 75.7864C106.087 75.925 106.26 76.003 106.44 75.998C106.214 75.9996 105.989 76.0293 105.77 76.0865L105.981 76.1681C106.028 76.1826 106.071 76.2069 106.108 76.2394C106.145 76.2735 106.156 76.3272 106.136 76.3734C106.103 76.4345 106.015 76.4324 105.946 76.422L105.488 76.3531C105.579 76.3835 105.629 76.482 105.598 76.5732C105.568 76.6643 105.469 76.7135 105.378 76.6831C105.355 76.6753 105.333 76.6626 105.315 76.6459C105.362 76.7009 105.4 76.7631 105.427 76.8302C105.454 76.8986 105.446 76.9758 105.406 77.0372C105.313 77.1226 105.176 77.1393 105.065 77.0788C105.027 77.0644 104.99 77.0477 104.952 77.0324C104.953 77.0457 104.954 77.059 104.955 77.0723C104.981 77.2483 105.079 77.4057 105.226 77.5059C105.018 77.5301 104.827 77.6309 104.689 77.7885C104.451 78.0847 104.436 78.5028 104.654 78.8148C104.423 78.7125 104.169 78.6706 103.918 78.6928C103.659 78.7246 103.465 78.9453 103.466 79.2061C103.508 79.5255 103.904 79.6423 104.223 79.6819C106.737 79.9913 109.28 79.991 111.794 79.681C112.135 79.6579 112.47 79.5728 112.781 79.4299C113.095 79.281 113.312 78.9814 113.354 78.636C113.341 78.2197 113.078 77.8525 112.689 77.7052Z" fill="#FA5246"/>
<path d="M114.555 81.4057C114.498 81.1572 114.276 80.9815 114.021 80.9827C113.778 80.9891 113.56 81.1626 113.322 81.1246C113.124 81.0931 112.968 80.9201 112.769 80.9465C112.586 80.9707 112.488 81.1491 112.352 81.245H112.002C111.866 81.1379 111.8 80.9209 111.611 80.86C111.327 80.7683 111.098 81.0891 110.801 81.1459C110.628 81.165 110.454 81.1318 110.301 81.0505C110.151 80.969 109.988 80.9139 109.82 80.8875C109.668 80.8648 109.517 80.9311 109.432 81.0579C109.441 80.9671 109.323 80.8781 109.203 80.8724C109.069 80.8773 108.939 80.9174 108.826 80.9886C108.712 81.0599 108.581 81.0975 108.446 81.0972C108.149 81.0713 108.003 80.7238 107.704 80.72C107.327 80.7152 107.177 81.2515 106.805 81.2058C106.611 81.182 106.506 81.0062 106.334 80.9311C106.151 80.8748 105.955 80.8729 105.771 80.9256L104.89 81.0904C104.632 81.1617 104.36 81.1643 104.101 81.0982C103.912 81.0298 103.728 80.8818 103.534 80.9382C103.364 80.9872 103.281 81.1772 103.102 81.1871C102.987 81.1726 102.876 81.1348 102.777 81.0759C102.586 81.0085 102.374 81.062 102.238 81.2117C102.14 81.6133 102.124 82.0307 102.191 82.4387C102.189 82.5256 102.196 82.6126 102.212 82.6981L103.098 86.242C103.202 86.7855 103.47 87.1785 104.024 87.1785H112.631C113.185 87.1785 113.66 86.7855 113.764 86.242L114.65 82.6981C114.652 82.6889 114.653 82.6798 114.654 82.6706C114.675 82.2465 114.642 81.8214 114.555 81.4057Z" fill="#CCCCCC"/>
<path opacity="0.2" d="M104.031 81.139L104.203 83.376C104.26 84.1216 104.175 84.8569 104.233 85.6026C104.265 86.0226 104.44 86.4529 104.472 86.8728C104.476 86.9223 104.553 86.9227 104.55 86.8728L104.377 84.6359L104.205 82.3989L104.108 81.139C104.105 81.0896 104.027 81.0892 104.031 81.139Z" fill="black"/>
<path opacity="0.2" d="M105.525 81.2276L105.592 83.4319L105.66 85.6363L105.697 86.8738C105.699 86.9236 105.776 86.9238 105.775 86.8738L105.708 84.6695L105.641 82.4651L105.603 81.2276C105.601 81.1778 105.524 81.1776 105.525 81.2276Z" fill="black"/>
<path opacity="0.2" d="M106.974 81.36L106.953 83.4903L106.933 85.6077L106.921 86.8085C106.922 86.8299 106.94 86.8466 106.961 86.8459C106.982 86.8452 106.998 86.8288 106.999 86.8085L107.019 84.6781L107.04 82.5607L107.051 81.36C107.05 81.3385 107.032 81.3218 107.011 81.3225C106.991 81.3232 106.974 81.3396 106.974 81.36Z" fill="black"/>
<path opacity="0.2" d="M108.068 81.2948L108.11 83.4514L108.152 85.5952L108.176 86.8091C108.177 86.8305 108.195 86.8472 108.216 86.8465C108.237 86.8458 108.253 86.8294 108.254 86.8091L108.211 84.6524L108.169 82.5087L108.145 81.2948C108.145 81.2734 108.127 81.2566 108.105 81.2573C108.085 81.258 108.069 81.2744 108.068 81.2948Z" fill="black"/>
<path opacity="0.2" d="M109.662 81.2061L109.711 83.4203L109.759 85.6345L109.786 86.8739C109.787 86.8953 109.805 86.9121 109.826 86.9113C109.847 86.9106 109.863 86.8943 109.864 86.8739L109.815 84.6597L109.767 82.4456L109.74 81.2061C109.739 81.1847 109.721 81.168 109.7 81.1687C109.679 81.1694 109.663 81.1858 109.662 81.2061Z" fill="black"/>
<path opacity="0.2" d="M110.985 81.2733L111.155 83.5043L111.323 85.7288L111.418 86.9825C111.422 87.0319 111.499 87.0323 111.496 86.9825L111.327 84.7515L111.158 82.527L111.063 81.2733C111.059 81.2239 110.982 81.2235 110.985 81.2733Z" fill="black"/>
<path opacity="0.2" d="M112.457 81.5332L112.558 83.5745C112.592 84.2549 112.42 84.9354 112.454 85.6158L112.511 86.762C112.513 86.8116 112.591 86.8119 112.588 86.762C112.554 86.0816 112.727 85.4011 112.693 84.7207L112.591 82.6794L112.534 81.5332C112.532 81.4836 112.454 81.4832 112.457 81.5332Z" fill="black"/>
<path d="M107.966 75.9407C108.13 75.9407 108.263 75.8482 108.263 75.734C108.263 75.6199 108.13 75.5273 107.966 75.5273C107.801 75.5273 107.668 75.6199 107.668 75.734C107.668 75.8482 107.801 75.9407 107.966 75.9407Z" fill="#E6E6E6"/>
<path d="M109.852 76.4055C110.016 76.4055 110.149 76.313 110.149 76.1989C110.149 76.0847 110.016 75.9922 109.852 75.9922C109.688 75.9922 109.555 76.0847 109.555 76.1989C109.555 76.313 109.688 76.4055 109.852 76.4055Z" fill="#3F3D56"/>
<path d="M107.217 77.4131C107.381 77.4131 107.514 77.3206 107.514 77.2064C107.514 77.0923 107.381 76.9998 107.217 76.9998C107.052 76.9998 106.919 77.0923 106.919 77.2064C106.919 77.3206 107.052 77.4131 107.217 77.4131Z" fill="#FF6584"/>
<path d="M109.673 77.6856C109.777 77.6856 109.861 77.6271 109.861 77.5549C109.861 77.4828 109.777 77.4243 109.673 77.4243C109.569 77.4243 109.485 77.4828 109.485 77.5549C109.485 77.6271 109.569 77.6856 109.673 77.6856Z" fill="#E6E6E6"/>
<path d="M110.865 77.9795C110.969 77.9795 111.053 77.921 111.053 77.8489C111.053 77.7767 110.969 77.7183 110.865 77.7183C110.761 77.7183 110.677 77.7767 110.677 77.8489C110.677 77.921 110.761 77.9795 110.865 77.9795Z" fill="#3F3D56"/>
<path d="M109.2 78.6162C109.304 78.6162 109.388 78.5577 109.388 78.4856C109.388 78.4135 109.304 78.355 109.2 78.355C109.096 78.355 109.012 78.4135 109.012 78.4856C109.012 78.5577 109.096 78.6162 109.2 78.6162Z" fill="#FF6584"/>
<path d="M111.43 78.4089C111.534 78.4089 111.618 78.3505 111.618 78.2783C111.618 78.2062 111.534 78.1477 111.43 78.1477C111.326 78.1477 111.242 78.2062 111.242 78.2783C111.242 78.3505 111.326 78.4089 111.43 78.4089Z" fill="#E6E6E6"/>
<path d="M112.622 78.7029C112.726 78.7029 112.81 78.6444 112.81 78.5723C112.81 78.5001 112.726 78.4417 112.622 78.4417C112.518 78.4417 112.434 78.5001 112.434 78.5723C112.434 78.6444 112.518 78.7029 112.622 78.7029Z" fill="#3F3D56"/>
<path d="M110.956 79.3396C111.06 79.3396 111.144 79.2811 111.144 79.209C111.144 79.1368 111.06 79.0784 110.956 79.0784C110.853 79.0784 110.769 79.1368 110.769 79.209C110.769 79.2811 110.853 79.3396 110.956 79.3396Z" fill="#FF6584"/>
<path d="M106.59 77.72C106.604 77.6173 106.558 77.526 106.486 77.5162C106.415 77.5063 106.345 77.5816 106.331 77.6844C106.317 77.7871 106.364 77.8783 106.435 77.8882C106.507 77.898 106.576 77.8227 106.59 77.72Z" fill="#E6E6E6"/>
<path d="M106.136 78.8606C106.15 78.7579 106.104 78.6667 106.032 78.6568C105.961 78.647 105.891 78.7223 105.877 78.825C105.863 78.9277 105.909 79.019 105.981 79.0288C106.052 79.0387 106.122 78.9634 106.136 78.8606Z" fill="#3F3D56"/>
<path d="M105.733 77.1238C105.747 77.0211 105.7 76.9298 105.629 76.92C105.557 76.9101 105.488 76.9854 105.474 77.0882C105.46 77.1909 105.506 77.2822 105.578 77.292C105.649 77.3018 105.719 77.2265 105.733 77.1238Z" fill="#FF6584"/>
<path d="M108.631 77.0999C108.645 76.9972 108.599 76.9059 108.527 76.8961C108.456 76.8862 108.386 76.9615 108.372 77.0642C108.358 77.167 108.405 77.2582 108.476 77.2681C108.548 77.2779 108.617 77.2026 108.631 77.0999Z" fill="#E6E6E6"/>
<path d="M108.177 78.2405C108.191 78.1378 108.145 78.0465 108.073 78.0367C108.002 78.0268 107.932 78.1021 107.918 78.2049C107.904 78.3076 107.951 78.3989 108.022 78.4087C108.093 78.4185 108.163 78.3432 108.177 78.2405Z" fill="#3F3D56"/>
<path d="M107.774 76.5039C107.788 76.4012 107.741 76.31 107.67 76.3001C107.598 76.2903 107.529 76.3656 107.515 76.4683C107.501 76.571 107.547 76.6623 107.619 76.6721C107.69 76.682 107.76 76.6067 107.774 76.5039Z" fill="#FF6584"/>
<path d="M109.184 75.8377C109.198 75.735 109.152 75.6437 109.08 75.6339C109.009 75.624 108.939 75.6993 108.925 75.802C108.911 75.9048 108.957 75.996 109.029 76.0059C109.1 76.0157 109.17 75.9404 109.184 75.8377Z" fill="#3F3D56"/>
<path d="M108.781 74.1014C108.795 73.9986 108.749 73.9074 108.677 73.8975C108.606 73.8877 108.536 73.963 108.522 74.0657C108.508 74.1684 108.555 74.2597 108.626 74.2695C108.697 74.2794 108.767 74.2041 108.781 74.1014Z" fill="#FF6584"/>
<path d="M181.903 84.9214H173.999C173.786 84.9214 172.616 84.3024 172.616 83.5388V79.1478C172.579 75.8266 183.452 75.6092 183.493 79.1478V83.5388C183.493 84.3024 182.667 84.9214 181.903 84.9214Z" fill="#E6E6E6"/>
<path d="M182.312 76.1715C181.929 76.0343 181.522 75.9759 181.115 75.9999C181.224 75.9639 181.324 75.9054 181.408 75.8281C181.334 75.8252 181.26 75.8152 181.188 75.7984C181.108 75.7834 181.033 75.7498 180.968 75.7003C180.903 75.6493 180.869 75.569 180.876 75.4869C180.891 75.3865 180.985 75.3038 180.975 75.2028C180.964 75.087 180.831 75.0306 180.759 74.9388C180.669 74.7968 180.685 74.6126 180.797 74.4874C180.865 74.4083 180.948 74.3436 181.041 74.2973C180.884 74.2567 180.718 74.2591 180.561 74.3042C180.729 74.1743 180.804 73.9572 180.751 73.7516C180.662 73.4958 180.452 73.3009 180.19 73.232C179.932 73.1669 179.664 73.1453 179.399 73.1681C179.625 73.0988 179.591 72.7453 179.418 72.5842C179.246 72.423 178.999 72.3558 178.836 72.1847C178.674 72.0136 178.687 71.6485 178.921 71.6201L178.892 71.5367C178.426 71.3625 177.906 71.5995 177.732 72.0661C177.717 72.1061 177.705 72.147 177.696 72.1887C177.653 72.4561 177.733 72.752 177.599 72.9873C177.428 73.2873 177.012 73.3212 176.669 73.2879C176.331 73.2014 175.973 73.2502 175.671 73.4241C175.421 73.6321 175.388 74.003 175.596 74.2527C175.711 74.3913 175.884 74.4693 176.064 74.4643C175.838 74.4659 175.613 74.4956 175.394 74.5528L175.604 74.6344C175.651 74.6489 175.695 74.6732 175.731 74.7057C175.768 74.7398 175.78 74.7936 175.76 74.8397C175.726 74.9008 175.639 74.8987 175.57 74.8883L175.112 74.8194C175.203 74.8498 175.252 74.9483 175.222 75.0395C175.191 75.1306 175.093 75.1798 175.002 75.1494C174.978 75.1416 174.957 75.129 174.939 75.1122C174.986 75.1672 175.024 75.2294 175.051 75.2965C175.078 75.3649 175.07 75.4421 175.029 75.5035C174.936 75.5889 174.799 75.6056 174.688 75.5451C174.651 75.5307 174.613 75.514 174.576 75.4988C174.576 75.512 174.577 75.5253 174.579 75.5386C174.604 75.7147 174.702 75.872 174.849 75.9722C174.641 75.9964 174.45 76.0972 174.313 76.2548C174.074 76.551 174.06 76.9691 174.277 77.2811C174.046 77.1788 173.793 77.1369 173.541 77.1591C173.282 77.1909 173.088 77.4116 173.09 77.6724C173.132 77.9918 173.527 78.1086 173.847 78.1482C176.361 78.4576 178.903 78.4573 181.417 78.1473C181.759 78.1242 182.093 78.0391 182.404 77.8962C182.719 77.7473 182.935 77.4477 182.978 77.1023C182.964 76.686 182.702 76.3188 182.312 76.1715Z" fill="#FA5246"/>
<path d="M184.179 79.872C184.121 79.6235 183.899 79.4478 183.644 79.449C183.401 79.4554 183.184 79.6289 182.945 79.5909C182.747 79.5594 182.592 79.3864 182.392 79.4128C182.21 79.437 182.112 79.6154 181.976 79.7113H181.626C181.49 79.6042 181.423 79.3872 181.234 79.3263C180.95 79.2346 180.722 79.5554 180.424 79.6122C180.252 79.6313 180.078 79.5981 179.925 79.5168C179.775 79.4353 179.612 79.3802 179.443 79.3538C179.292 79.3311 179.141 79.3974 179.055 79.5242C179.065 79.4334 178.947 79.3444 178.827 79.3387C178.693 79.3436 178.563 79.3837 178.45 79.4549C178.336 79.5262 178.204 79.5638 178.07 79.5635C177.772 79.5376 177.627 79.1901 177.327 79.1863C176.951 79.1815 176.8 79.7178 176.428 79.6721C176.235 79.6483 176.13 79.4726 175.957 79.3974C175.774 79.3411 175.579 79.3392 175.394 79.3919L174.514 79.5567C174.256 79.628 173.984 79.6306 173.724 79.5645C173.535 79.4961 173.352 79.3482 173.157 79.4045C172.988 79.4535 172.905 79.6435 172.725 79.6534C172.61 79.6389 172.5 79.6011 172.4 79.5422C172.21 79.4748 171.998 79.5283 171.862 79.678C171.763 80.0796 171.747 80.497 171.815 80.905C171.812 80.9919 171.819 81.0789 171.836 81.1644L172.721 84.7083C172.825 85.2518 173.094 85.6448 173.647 85.6448H182.255C182.808 85.6448 183.284 85.2518 183.388 84.7083L184.273 81.1644C184.275 81.1552 184.276 81.1461 184.278 81.1369C184.299 80.7128 184.265 80.2877 184.179 79.872Z" fill="#CCCCCC"/>
<path opacity="0.2" d="M173.654 79.6053L173.827 81.8423C173.884 82.5879 173.799 83.3233 173.856 84.0689C173.889 84.4889 174.063 84.9192 174.096 85.3391C174.099 85.3886 174.177 85.389 174.173 85.3391L174.001 83.1022L173.829 80.8652L173.732 79.6053C173.728 79.5559 173.651 79.5555 173.654 79.6053Z" fill="black"/>
<path opacity="0.2" d="M175.149 79.6939L175.217 81.8982L175.284 84.1026L175.321 85.3401C175.323 85.3899 175.4 85.3901 175.399 85.3401L175.332 83.1358L175.265 80.9314L175.227 79.6939C175.225 79.6441 175.148 79.6439 175.149 79.6939Z" fill="black"/>
<path opacity="0.2" d="M176.598 79.826L176.577 81.9564L176.557 84.0738L176.545 85.2745C176.546 85.2959 176.564 85.3127 176.586 85.3119C176.606 85.3112 176.622 85.2949 176.623 85.2745L176.643 83.1442L176.664 81.0268L176.675 79.826C176.674 79.8046 176.656 79.7879 176.635 79.7886C176.615 79.7893 176.598 79.8057 176.598 79.826Z" fill="black"/>
<path opacity="0.2" d="M177.691 79.7608L177.734 81.9175L177.776 84.0612L177.8 85.2751C177.801 85.2965 177.819 85.3133 177.84 85.3126C177.86 85.3119 177.877 85.2955 177.877 85.2751L177.835 83.1185L177.793 80.9748L177.769 79.7608C177.768 79.7394 177.75 79.7227 177.729 79.7234C177.708 79.7241 177.692 79.7405 177.691 79.7608Z" fill="black"/>
<path opacity="0.2" d="M179.286 79.6724L179.334 81.8865L179.383 84.1007L179.41 85.3401C179.41 85.3615 179.428 85.3783 179.45 85.3775C179.47 85.3768 179.487 85.3605 179.487 85.3401L179.439 83.1259L179.39 80.9118L179.363 79.6724C179.362 79.651 179.344 79.6342 179.323 79.635C179.303 79.6358 179.286 79.6521 179.286 79.6724Z" fill="black"/>
<path opacity="0.2" d="M180.61 79.7394L180.779 81.9703L180.947 84.1948L181.042 85.4486C181.046 85.498 181.123 85.4984 181.12 85.4486L180.951 83.2176L180.782 80.9931L180.687 79.7394C180.683 79.6899 180.606 79.6895 180.61 79.7394Z" fill="black"/>
<path opacity="0.2" d="M182.08 79.9995L182.182 82.0408C182.216 82.7212 182.043 83.4017 182.077 84.0821L182.134 85.2283C182.137 85.2779 182.214 85.2782 182.212 85.2283C182.178 84.5479 182.351 83.8674 182.317 83.187L182.215 81.1457L182.158 79.9995C182.155 79.9499 182.078 79.9496 182.08 79.9995Z" fill="black"/>
<path d="M177.59 74.4068C177.754 74.4068 177.887 74.3142 177.887 74.2001C177.887 74.0859 177.754 73.9934 177.59 73.9934C177.425 73.9934 177.292 74.0859 177.292 74.2001C177.292 74.3142 177.425 74.4068 177.59 74.4068Z" fill="#E6E6E6"/>
<path d="M179.475 74.8718C179.639 74.8718 179.772 74.7793 179.772 74.6652C179.772 74.551 179.639 74.4585 179.475 74.4585C179.311 74.4585 179.178 74.551 179.178 74.6652C179.178 74.7793 179.311 74.8718 179.475 74.8718Z" fill="#3F3D56"/>
<path d="M176.84 75.8794C177.004 75.8794 177.137 75.7869 177.137 75.6727C177.137 75.5586 177.004 75.4661 176.84 75.4661C176.676 75.4661 176.543 75.5586 176.543 75.6727C176.543 75.7869 176.676 75.8794 176.84 75.8794Z" fill="#FF6584"/>
<path d="M179.297 76.1519C179.401 76.1519 179.485 76.0934 179.485 76.0212C179.485 75.9491 179.401 75.8906 179.297 75.8906C179.193 75.8906 179.109 75.9491 179.109 76.0212C179.109 76.0934 179.193 76.1519 179.297 76.1519Z" fill="#E6E6E6"/>
<path d="M180.489 76.4456C180.593 76.4456 180.677 76.3871 180.677 76.3149C180.677 76.2428 180.593 76.1843 180.489 76.1843C180.385 76.1843 180.301 76.2428 180.301 76.3149C180.301 76.3871 180.385 76.4456 180.489 76.4456Z" fill="#3F3D56"/>
<path d="M178.823 77.0825C178.927 77.0825 179.011 77.024 179.011 76.9519C179.011 76.8798 178.927 76.8213 178.823 76.8213C178.72 76.8213 178.636 76.8798 178.636 76.9519C178.636 77.024 178.72 77.0825 178.823 77.0825Z" fill="#FF6584"/>
<path d="M181.053 76.875C181.157 76.875 181.241 76.8165 181.241 76.7444C181.241 76.6722 181.157 76.6138 181.053 76.6138C180.95 76.6138 180.866 76.6722 180.866 76.7444C180.866 76.8165 180.95 76.875 181.053 76.875Z" fill="#E6E6E6"/>
<path d="M182.245 77.1689C182.349 77.1689 182.433 77.1105 182.433 77.0383C182.433 76.9662 182.349 76.9077 182.245 76.9077C182.142 76.9077 182.058 76.9662 182.058 77.0383C182.058 77.1105 182.142 77.1689 182.245 77.1689Z" fill="#3F3D56"/>
<path d="M180.58 77.8057C180.684 77.8057 180.768 77.7472 180.768 77.6751C180.768 77.6029 180.684 77.5444 180.58 77.5444C180.477 77.5444 180.393 77.6029 180.393 77.6751C180.393 77.7472 180.477 77.8057 180.58 77.8057Z" fill="#FF6584"/>
<path d="M176.214 76.1861C176.228 76.0833 176.181 75.9921 176.11 75.9822C176.038 75.9724 175.969 76.0477 175.955 76.1504C175.941 76.2531 175.987 76.3444 176.059 76.3543C176.13 76.3641 176.199 76.2888 176.214 76.1861Z" fill="#E6E6E6"/>
<path d="M175.76 77.3267C175.774 77.224 175.728 77.1327 175.656 77.1228C175.585 77.113 175.515 77.1883 175.501 77.291C175.487 77.3938 175.534 77.485 175.605 77.4949C175.676 77.5047 175.746 77.4294 175.76 77.3267Z" fill="#3F3D56"/>
<path d="M175.357 75.5901C175.371 75.4874 175.324 75.3961 175.253 75.3863C175.181 75.3764 175.112 75.4517 175.098 75.5545C175.084 75.6572 175.13 75.7485 175.202 75.7583C175.273 75.7682 175.343 75.6929 175.357 75.5901Z" fill="#FF6584"/>
<path d="M178.255 75.5662C178.269 75.4635 178.222 75.3722 178.151 75.3624C178.079 75.3525 178.01 75.4278 177.996 75.5305C177.982 75.6333 178.028 75.7245 178.1 75.7344C178.171 75.7442 178.24 75.6689 178.255 75.5662Z" fill="#E6E6E6"/>
<path d="M177.801 76.7068C177.815 76.6041 177.769 76.5128 177.697 76.503C177.626 76.4931 177.556 76.5684 177.542 76.6712C177.528 76.7739 177.575 76.8652 177.646 76.875C177.717 76.8849 177.787 76.8096 177.801 76.7068Z" fill="#3F3D56"/>
<path d="M177.397 74.97C177.411 74.8673 177.365 74.776 177.293 74.7662C177.222 74.7563 177.153 74.8316 177.138 74.9343C177.124 75.0371 177.171 75.1283 177.242 75.1382C177.314 75.148 177.383 75.0727 177.397 74.97Z" fill="#FF6584"/>
<path d="M178.807 74.3038C178.822 74.201 178.775 74.1098 178.704 74.0999C178.632 74.0901 178.563 74.1654 178.549 74.2681C178.534 74.3708 178.581 74.4621 178.652 74.4719C178.724 74.4818 178.793 74.4065 178.807 74.3038Z" fill="#3F3D56"/>
<path d="M178.405 72.5674C178.419 72.4647 178.373 72.3734 178.301 72.3636C178.23 72.3537 178.16 72.429 178.146 72.5318C178.132 72.6345 178.179 72.7258 178.25 72.7356C178.321 72.7454 178.391 72.6701 178.405 72.5674Z" fill="#FF6584"/>
</g>
<defs>
<clipPath id="clip0_26_404">
<rect width="300" height="188.991" fill="white"/>
</clipPath>
</defs>
</svg>
