<svg width="300" height="269" viewBox="0 0 300 269" fill="none" xmlns="http://www.w3.org/2000/svg">
<g clip-path="url(#clip0_26_263)">
<path d="M297.343 221.159C294.614 237.95 282.319 250.951 269.229 262.313C267.402 263.9 265.57 265.455 263.734 266.98C263.721 266.988 263.708 267.002 263.695 267.01C263.607 267.083 263.518 267.156 263.437 267.229C263.058 267.543 262.678 267.857 262.302 268.168L262.538 268.242L263.273 268.467C263.021 268.398 262.772 268.332 262.52 268.263C262.445 268.241 262.367 268.224 262.292 268.202C253.613 265.858 244.758 263.285 237.663 257.793C230.303 252.089 225.234 242.365 227.772 233.405C228.106 232.231 228.57 231.098 229.156 230.027C229.395 229.579 229.659 229.146 229.936 228.718C231.614 226.083 233.963 223.943 236.742 222.516C239.521 221.09 242.629 220.43 245.748 220.603C248.867 220.777 251.883 221.778 254.486 223.504C257.09 225.229 259.187 227.617 260.562 230.422C260.438 220.55 251.421 213.351 242.963 208.256C234.502 203.164 224.922 197.663 222.262 188.15C220.779 182.858 222.027 177.407 224.939 172.801C225.029 172.661 225.12 172.521 225.214 172.384C228.785 166.998 234.257 163.158 240.536 161.63C252.253 158.972 264.532 163.868 274.142 171.082C289.609 182.688 300.445 202.068 297.343 221.159Z" fill="#F2F2F2"/>
<path d="M272.492 202.61C275.194 205.879 277.406 209.525 279.056 213.433C280.475 216.932 281.363 220.624 281.69 224.385C282.402 232.113 280.936 239.924 278.013 247.075C275.739 252.504 272.787 257.624 269.229 262.313C267.402 263.9 265.57 265.456 263.733 266.98C263.72 266.988 263.708 267.002 263.695 267.01C263.607 267.083 263.518 267.156 263.436 267.229C263.057 267.543 262.678 267.857 262.302 268.168L262.538 268.242L263.273 268.467C263.021 268.398 262.772 268.332 262.52 268.263C262.444 268.242 262.366 268.224 262.291 268.202C262.303 262.031 260.835 255.946 258.01 250.459C255.186 244.972 251.087 240.241 246.058 236.664C241.025 233.151 235.234 230.877 229.155 230.027C229.395 229.579 229.659 229.146 229.936 228.718C232.288 229.083 234.603 229.655 236.854 230.428C244.899 233.167 251.848 238.423 256.673 245.419C261.012 251.776 263.448 259.24 263.693 266.933C263.996 266.584 264.299 266.228 264.592 265.877C270.177 259.257 274.956 251.855 277.804 243.632C280.294 236.659 281.031 229.181 279.95 221.856C278.679 213.881 274.596 206.842 269.197 200.936C263.415 194.616 256.472 189.244 249.207 184.74C241.764 180.117 233.783 176.423 225.443 173.739C225.254 173.677 225.097 173.545 225.003 173.371C224.909 173.196 224.886 172.992 224.939 172.801C224.972 172.631 225.07 172.481 225.213 172.384C225.288 172.341 225.371 172.315 225.457 172.308C225.543 172.301 225.629 172.314 225.709 172.346C226.739 172.678 227.763 173.017 228.781 173.376C237.263 176.372 245.341 180.41 252.828 185.398C260.058 190.202 266.999 195.848 272.492 202.61Z" fill="white"/>
<path d="M124.972 164.267C124.138 164.266 123.335 163.948 122.727 163.377C122.119 162.806 121.75 162.026 121.695 161.193L121.207 153.742C121.15 152.871 121.441 152.014 122.016 151.358C122.592 150.702 123.404 150.302 124.274 150.245L182.655 146.421C183.575 146.361 184.499 146.482 185.372 146.778C186.246 147.074 187.053 147.54 187.747 148.148C188.44 148.756 189.007 149.495 189.415 150.322C189.824 151.15 190.065 152.049 190.125 152.97C190.185 153.891 190.063 154.814 189.767 155.687C189.47 156.561 189.004 157.368 188.396 158.061C187.787 158.754 187.048 159.321 186.22 159.729C185.393 160.136 184.493 160.377 183.573 160.437L125.192 164.26C125.118 164.265 125.045 164.267 124.972 164.267Z" fill="#FAAE2B"/>
<path d="M136.484 165.228C135.633 165.226 134.816 164.896 134.204 164.306C133.592 163.716 133.231 162.912 133.199 162.062L132.783 150.932C132.766 150.5 132.835 150.07 132.986 149.665C133.136 149.26 133.365 148.888 133.658 148.572C133.952 148.255 134.305 148 134.698 147.82C135.091 147.64 135.515 147.539 135.946 147.523L183.954 145.728C184.826 145.696 185.675 146.011 186.314 146.604C186.954 147.197 187.331 148.02 187.364 148.892L187.78 160.022C187.796 160.454 187.727 160.884 187.577 161.289C187.426 161.694 187.198 162.065 186.904 162.382C186.61 162.698 186.257 162.954 185.864 163.134C185.472 163.314 185.048 163.415 184.616 163.431L136.608 165.225C136.566 165.227 136.525 165.228 136.484 165.228Z" fill="#2F2E41"/>
<path d="M192.741 267.826H185.274C184.402 267.825 183.566 267.478 182.949 266.861C182.333 266.245 181.986 265.409 181.985 264.537V202.298C181.986 201.426 182.333 200.59 182.949 199.973C183.566 199.357 184.402 199.01 185.274 199.009H192.741C193.613 199.01 194.449 199.357 195.066 199.973C195.682 200.59 196.029 201.426 196.03 202.298V264.537C196.029 265.409 195.682 266.245 195.066 266.861C194.449 267.478 193.613 267.825 192.741 267.826Z" fill="#2F2E41"/>
<path d="M159.595 234.926L153.209 231.056C152.464 230.603 151.929 229.873 151.721 229.026C151.514 228.179 151.65 227.285 152.101 226.538L184.363 173.313C184.816 172.568 185.546 172.033 186.393 171.825C187.24 171.618 188.134 171.754 188.88 172.205L195.266 176.076C196.012 176.529 196.547 177.259 196.754 178.106C196.962 178.953 196.825 179.847 196.374 180.593L164.112 233.819C163.659 234.564 162.93 235.099 162.083 235.307C161.236 235.514 160.341 235.377 159.595 234.926Z" fill="#2F2E41"/>
<path d="M181.399 134.055C195.65 134.055 207.203 122.502 207.203 108.251C207.203 94.0002 195.65 82.4475 181.399 82.4475C167.148 82.4475 155.596 94.0002 155.596 108.251C155.596 122.502 167.148 134.055 181.399 134.055Z" fill="#FAAE2B"/>
<path d="M167.432 117.062C166.602 116.789 165.84 116.342 165.197 115.75C164.771 115.327 164.443 114.817 164.235 114.254C164.027 113.691 163.945 113.09 163.994 112.492C164.021 112.066 164.146 111.652 164.36 111.282C164.573 110.913 164.869 110.598 165.225 110.361C166.148 109.769 167.382 109.768 168.639 110.321L168.591 100.248L169.603 100.243L169.659 112.086L168.879 111.595C167.975 111.027 166.684 110.628 165.771 111.213C165.546 111.368 165.359 111.572 165.226 111.811C165.092 112.049 165.016 112.316 165.002 112.589C164.968 113.034 165.03 113.482 165.184 113.901C165.338 114.32 165.581 114.701 165.896 115.018C167.013 116.085 168.644 116.419 170.503 116.717L170.342 117.716C169.355 117.585 168.381 117.366 167.432 117.062Z" fill="#2F2E41"/>
<path d="M158.16 99.7391L158.028 100.742L163.431 101.456L163.563 100.453L158.16 99.7391Z" fill="#2F2E41"/>
<path d="M175.214 101.991L175.082 102.994L180.485 103.707L180.618 102.704L175.214 101.991Z" fill="#2F2E41"/>
<path d="M202.946 218.996H159.433C158.293 218.995 157.2 218.542 156.394 217.735C155.588 216.929 155.134 215.836 155.133 214.696L164.242 144.841C164.249 143.707 164.706 142.621 165.511 141.821C166.316 141.021 167.406 140.573 168.541 140.573H183.982C190.15 140.58 196.063 143.034 200.425 147.395C204.786 151.756 207.239 157.669 207.246 163.837V214.696C207.245 215.836 206.791 216.929 205.985 217.735C205.179 218.542 204.086 218.995 202.946 218.996Z" fill="#2F2E41"/>
<path d="M191.989 215.272C191.725 215.85 191.299 216.338 190.763 216.679C190.227 217.02 189.605 217.199 188.97 217.194L181.502 217.129C181.07 217.125 180.643 217.036 180.246 216.868C179.848 216.699 179.488 216.454 179.185 216.145C178.883 215.837 178.643 215.473 178.482 215.072C178.32 214.672 178.239 214.244 178.242 213.812L178.75 155.308C178.758 154.386 178.947 153.474 179.307 152.626C179.668 151.777 180.192 151.007 180.849 150.361C181.507 149.714 182.286 149.204 183.141 148.858C183.996 148.513 184.91 148.339 185.833 148.347C186.755 148.355 187.666 148.544 188.515 148.905C189.364 149.265 190.134 149.789 190.78 150.447C191.427 151.104 191.937 151.883 192.283 152.738C192.628 153.593 192.802 154.508 192.794 155.43L192.287 213.933C192.283 214.396 192.182 214.852 191.989 215.272Z" fill="#FAAE2B"/>
<path d="M195.288 199.654C195.023 200.232 194.597 200.72 194.062 201.061C193.526 201.402 192.903 201.58 192.268 201.575L179.513 201.465C178.642 201.456 177.809 201.102 177.198 200.48C176.586 199.858 176.247 199.02 176.254 198.148L176.67 150.108C176.674 149.676 176.763 149.249 176.931 148.852C177.1 148.454 177.345 148.093 177.653 147.791C177.961 147.488 178.326 147.249 178.727 147.087C179.127 146.925 179.555 146.844 179.987 146.848L192.742 146.958C193.174 146.962 193.601 147.051 193.998 147.22C194.396 147.388 194.756 147.634 195.059 147.942C195.362 148.25 195.601 148.614 195.762 149.015C195.924 149.415 196.005 149.844 196.002 150.275L195.585 198.315C195.582 198.778 195.48 199.234 195.288 199.654Z" fill="#2F2E41"/>
<path d="M181.882 92.9472C178.433 90.0927 173.822 92.7924 169.921 92.4093C166.189 92.0427 163.185 88.7583 162.366 85.2241C161.411 81.1007 163.481 76.9122 166.6 74.2709C170.015 71.3779 174.6 70.4789 178.97 70.9191C183.978 71.4237 188.592 73.666 192.746 76.4053C196.754 78.9652 200.452 81.9803 203.767 85.3904C206.737 88.5482 209.275 92.3312 210.144 96.6399C210.934 100.556 210.471 104.92 208.211 108.293C207.012 110.023 205.387 111.414 203.493 112.332C201.52 113.348 199.409 114.088 197.5 115.23C194.614 116.958 191.844 120.479 192.827 124.069C193.038 124.854 193.438 125.574 193.993 126.167C194.66 126.88 195.819 125.9 195.151 125.185C193.977 123.931 193.99 122.228 194.574 120.692C195.27 118.962 196.533 117.518 198.156 116.599C200.154 115.406 202.371 114.651 204.421 113.559C206.384 112.561 208.077 111.103 209.356 109.309C211.768 105.819 212.424 101.323 211.784 97.1882C211.09 92.7136 208.708 88.6807 205.753 85.3194C202.538 81.6613 198.616 78.5877 194.616 75.8355C190.324 72.8823 185.598 70.4065 180.404 69.5773C175.901 68.8584 171.047 69.4459 167.17 71.9657C163.551 74.3178 160.817 78.2975 160.621 82.6901C160.558 84.6882 161.03 86.6669 161.986 88.4224C162.942 90.178 164.349 91.647 166.061 92.6783C167.818 93.6845 169.845 94.1138 171.859 93.9058C174.012 93.7269 176.157 93.0257 178.33 93.1678C179.313 93.2087 180.256 93.569 181.016 94.1939C181.769 94.8176 182.63 93.5657 181.882 92.9472Z" fill="#2F2E41"/>
<path d="M151.541 227.438C151.55 227.381 151.561 227.324 151.573 227.267C151.663 226.844 151.836 226.444 152.082 226.088C152.327 225.733 152.641 225.43 153.005 225.197L159.281 221.149C160.014 220.677 160.904 220.516 161.756 220.7C162.609 220.883 163.353 221.398 163.827 222.13L183.185 252.143C183.658 252.876 183.82 253.767 183.636 254.619C183.452 255.472 182.937 256.217 182.204 256.689L175.929 260.737C175.195 261.209 174.305 261.371 173.453 261.187C172.6 261.003 171.856 260.488 171.382 259.756L152.024 229.743C151.581 229.061 151.409 228.239 151.541 227.438Z" fill="#2F2E41"/>
<path d="M128.038 29.6361C127.556 28.4913 126.749 27.513 125.716 26.8222C124.684 26.1315 123.471 25.7586 122.229 25.7498H6.28509C4.61846 25.7507 3.02034 26.4131 1.84185 27.5916C0.663359 28.7701 0.000895529 30.3682 0 32.0348V178.715C0.000895529 180.382 0.663359 181.98 1.84185 183.158C3.02034 184.337 4.61846 184.999 6.28509 185H122.233C123.9 184.998 125.497 184.335 126.675 183.157C127.853 181.979 128.516 180.381 128.518 178.715V32.0348C128.521 31.2115 128.359 30.3959 128.042 29.6361H128.038ZM127.119 178.715C127.117 180.011 126.601 181.254 125.685 182.171C124.768 183.087 123.525 183.603 122.229 183.604H6.28509C4.98857 183.604 3.74519 183.089 2.82833 182.172C1.91147 181.256 1.39618 180.012 1.39574 178.716V32.0357C1.3975 30.7395 1.9132 29.4969 2.82975 28.5803C3.7463 27.6638 4.9889 27.1481 6.28509 27.1463H122.233C123.21 27.15 124.163 27.4446 124.971 27.9924C125.78 28.5402 126.406 29.3164 126.772 30.222C126.843 30.4025 126.904 30.5866 126.956 30.7736C127.066 31.1851 127.123 31.6095 127.123 32.0357L127.119 178.715Z" fill="#3F3D56"/>
<path d="M103.842 60.3803H68.9181C68.177 60.3803 67.4664 60.0859 66.9424 59.5619C66.4184 59.0379 66.124 58.3273 66.124 57.5863C66.124 56.8452 66.4184 56.1346 66.9424 55.6106C67.4664 55.0866 68.177 54.7922 68.9181 54.7922H103.842C104.583 54.7922 105.294 55.0866 105.818 55.6106C106.342 56.1346 106.636 56.8452 106.636 57.5863C106.636 58.3273 106.342 59.0379 105.818 59.5619C105.294 60.0859 104.583 60.3803 103.842 60.3803Z" fill="#3F3D56"/>
<path d="M103.842 75.0485H68.9179C68.5507 75.049 68.1869 74.9771 67.8475 74.8369C67.5081 74.6967 67.1996 74.491 66.9398 74.2315C66.6799 73.972 66.4738 73.6638 66.3332 73.3246C66.1925 72.9853 66.1201 72.6217 66.1201 72.2545C66.1201 71.8872 66.1925 71.5236 66.3332 71.1844C66.4738 70.8452 66.6799 70.537 66.9398 70.2775C67.1996 70.018 67.5081 69.8122 67.8475 69.6721C68.1869 69.5319 68.5507 69.46 68.9179 69.4605H103.842C104.209 69.46 104.573 69.5319 104.912 69.6721C105.252 69.8122 105.56 70.018 105.82 70.2775C106.08 70.537 106.286 70.8452 106.427 71.1844C106.567 71.5236 106.64 71.8872 106.64 72.2545C106.64 72.6217 106.567 72.9853 106.427 73.3246C106.286 73.6638 106.08 73.972 105.82 74.2315C105.56 74.491 105.252 74.6967 104.912 74.8369C104.573 74.9771 104.209 75.049 103.842 75.0485Z" fill="#3F3D56"/>
<path d="M50.9987 83.4004H25.4764C24.643 83.3995 23.844 83.0681 23.2547 82.4788C22.6653 81.8895 22.3339 81.0904 22.333 80.257V50.1387C22.3339 49.3053 22.6653 48.5063 23.2547 47.917C23.844 47.3277 24.643 46.9962 25.4764 46.9954H50.9987C51.8321 46.9962 52.6311 47.3277 53.2204 47.917C53.8097 48.5063 54.1412 49.3053 54.1421 50.1387V80.257C54.1412 81.0904 53.8097 81.8895 53.2204 82.4788C52.6311 83.0681 51.8321 83.3995 50.9987 83.4004Z" fill="#FAAE2B"/>
<path d="M103.6 105.083H24.6715C23.9304 105.083 23.2198 104.789 22.6958 104.265C22.1718 103.741 21.8774 103.03 21.8774 102.289C21.8774 101.548 22.1718 100.837 22.6958 100.313C23.2198 99.7895 23.9304 99.4951 24.6715 99.4951H103.6C104.341 99.4951 105.051 99.7895 105.575 100.313C106.099 100.837 106.394 101.548 106.394 102.289C106.394 103.03 106.099 103.741 105.575 104.265C105.051 104.789 104.341 105.083 103.6 105.083Z" fill="#CCCCCC"/>
<path d="M103.6 119.751H24.6715C23.9304 119.751 23.2198 119.457 22.6958 118.933C22.1718 118.409 21.8774 117.698 21.8774 116.957C21.8774 116.216 22.1718 115.505 22.6958 114.981C23.2198 114.457 23.9304 114.163 24.6715 114.163H103.6C104.341 114.163 105.051 114.457 105.575 114.981C106.099 115.505 106.394 116.216 106.394 116.957C106.394 117.698 106.099 118.409 105.575 118.933C105.051 119.457 104.341 119.751 103.6 119.751Z" fill="#CCCCCC"/>
<path d="M103.6 134.419H24.6716C23.9313 134.418 23.2215 134.123 22.6984 133.599C22.1752 133.076 21.8813 132.365 21.8813 131.625C21.8813 130.885 22.1752 130.175 22.6984 129.651C23.2215 129.127 23.9313 128.832 24.6716 128.831H103.6C103.967 128.831 104.331 128.902 104.67 129.043C105.01 129.183 105.318 129.389 105.578 129.648C105.838 129.908 106.044 130.216 106.184 130.555C106.325 130.894 106.397 131.258 106.397 131.625C106.397 131.992 106.325 132.356 106.184 132.695C106.044 133.034 105.838 133.343 105.578 133.602C105.318 133.862 105.01 134.067 104.67 134.207C104.331 134.348 103.967 134.42 103.6 134.419Z" fill="#CCCCCC"/>
<path d="M103.6 149.087H24.6715C23.9304 149.087 23.2198 148.793 22.6958 148.269C22.1718 147.745 21.8774 147.034 21.8774 146.293C21.8774 145.552 22.1718 144.841 22.6958 144.317C23.2198 143.793 23.9304 143.499 24.6715 143.499H103.6C104.341 143.499 105.051 143.793 105.575 144.317C106.099 144.841 106.394 145.552 106.394 146.293C106.394 147.034 106.099 147.745 105.575 148.269C105.051 148.793 104.341 149.087 103.6 149.087Z" fill="#CCCCCC"/>
<path d="M103.6 163.755H24.6715C23.9304 163.755 23.2198 163.461 22.6958 162.937C22.1718 162.413 21.8774 161.702 21.8774 160.961C21.8774 160.22 22.1718 159.509 22.6958 158.985C23.2198 158.461 23.9304 158.167 24.6715 158.167H103.6C104.341 158.167 105.051 158.461 105.575 158.985C106.099 159.509 106.394 160.22 106.394 160.961C106.394 161.702 106.099 162.413 105.575 162.937C105.051 163.461 104.341 163.755 103.6 163.755Z" fill="#CCCCCC"/>
<path d="M128.904 53.9281C143.796 53.9281 155.869 41.8559 155.869 26.9641C155.869 12.0722 143.796 0 128.904 0C114.013 0 101.94 12.0722 101.94 26.9641C101.94 41.8559 114.013 53.9281 128.904 53.9281Z" fill="#FAAE2B"/>
<path d="M126.233 37.2502C125.626 37.2512 125.036 37.0549 124.55 36.691L124.52 36.6684L118.183 31.8209C117.89 31.5959 117.644 31.3153 117.458 30.9951C117.273 30.6749 117.153 30.3214 117.105 29.9548C117.056 29.5882 117.081 29.2156 117.176 28.8583C117.272 28.5011 117.437 28.1661 117.662 27.8727C117.887 27.5792 118.167 27.3329 118.488 27.1478C118.808 26.9628 119.161 26.8426 119.528 26.7942C119.895 26.7458 120.267 26.77 120.624 26.8656C120.982 26.9611 121.317 27.1261 121.61 27.3511L125.715 30.4987L135.414 17.8449C135.639 17.5516 135.919 17.3054 136.239 17.1204C136.559 16.9354 136.913 16.8153 137.279 16.7669C137.646 16.7185 138.018 16.7428 138.375 16.8383C138.732 16.9338 139.067 17.0987 139.36 17.3236L139.361 17.3243L139.301 17.4078L139.363 17.3243C139.955 17.7791 140.342 18.4502 140.44 19.1903C140.537 19.9303 140.337 20.6789 139.884 21.2717L128.475 36.1486C128.211 36.4914 127.872 36.7687 127.483 36.9592C127.095 37.1496 126.668 37.2481 126.235 37.2468L126.233 37.2502Z" fill="white"/>
<path d="M299.502 268.695H116.051C115.919 268.695 115.792 268.642 115.699 268.549C115.605 268.456 115.553 268.329 115.553 268.197C115.553 268.064 115.605 267.938 115.699 267.844C115.792 267.751 115.919 267.698 116.051 267.698H299.502C299.634 267.698 299.761 267.751 299.854 267.844C299.948 267.938 300 268.064 300 268.197C300 268.329 299.948 268.456 299.854 268.549C299.761 268.642 299.634 268.695 299.502 268.695Z" fill="#3F3D56"/>
</g>
<defs>
<clipPath id="clip0_26_263">
<rect width="300" height="268.695" fill="white"/>
</clipPath>
</defs>
</svg>
