<svg width="300" height="223" viewBox="0 0 300 223" fill="none" xmlns="http://www.w3.org/2000/svg">
<g clip-path="url(#clip0_26_636)">
<path d="M256.1 221.242C259.283 213.786 261.527 205.67 260.465 197.639C260.101 194.915 259.308 192.266 258.117 189.791C257.157 187.772 255.917 185.899 254.434 184.227C253.922 183.637 253.218 183.246 252.447 183.122C251.675 182.998 250.884 183.149 250.213 183.548C250.109 183.608 250.005 183.672 249.909 183.74C249.389 184.106 248.979 184.608 248.723 185.19C248.673 185.301 248.632 185.416 248.599 185.533C248.452 186.024 248.413 186.54 248.483 187.047C249.043 191.18 248.922 195.378 248.124 199.472C247.92 200.514 247.671 201.547 247.377 202.571C246.716 201.746 246.014 200.956 245.272 200.203C243.35 198.254 241.133 196.621 238.702 195.362H238.698C238.686 195.354 238.678 195.35 238.666 195.342C235.719 193.84 231.789 194.463 229.493 195.486C229.341 195.55 229.197 195.622 229.057 195.69C227.859 196.305 227.264 197.012 227.775 197.475C227.891 197.575 228.007 197.679 228.115 197.782C231.596 201.001 234.448 204.839 236.526 209.101V209.105C237.351 210.802 238.047 212.559 238.607 214.361C239.377 216.849 240.016 219.609 241.522 221.638C241.676 221.851 241.843 222.055 242.021 222.249L255.473 222.141C255.505 222.125 255.532 222.113 255.564 222.097L256.1 222.117C256.08 222.021 256.056 221.925 256.032 221.829V221.821C256.02 221.769 256.004 221.713 255.992 221.666C255.98 221.626 255.972 221.59 255.964 221.558C255.988 221.498 256.012 221.442 256.04 221.382C256.06 221.334 256.08 221.29 256.1 221.242Z" fill="#F0F0F0"/>
<path d="M256.032 221.821C256.027 221.851 256.016 221.88 255.997 221.904C255.979 221.928 255.955 221.947 255.927 221.959C255.9 221.971 255.869 221.975 255.839 221.972C255.809 221.969 255.781 221.958 255.756 221.941C255.203 221.54 254.597 221.219 253.955 220.987C253.951 220.983 253.951 220.987 253.951 220.987C253.14 220.695 252.307 220.473 251.459 220.324C251.451 220.324 251.447 220.32 251.439 220.32C251.095 220.252 250.752 220.192 250.408 220.128C248.739 219.82 247.041 219.449 245.596 218.498C245.007 218.134 244.503 217.649 244.115 217.076C243.728 216.502 243.466 215.853 243.347 215.172C243.135 213.834 243.403 212.488 243.515 211.154C243.523 211.058 243.531 210.958 243.535 210.862C243.543 210.738 243.547 210.619 243.547 210.499C243.588 209.288 243.344 208.084 242.836 206.984C242.183 205.668 241.325 204.462 240.296 203.414C239.765 202.843 239.211 202.293 238.634 201.764H238.63C238.606 201.74 238.586 201.72 238.562 201.7C238.562 201.696 238.558 201.692 238.554 201.688C236.09 199.449 233.295 197.604 230.267 196.217C230.159 196.169 230.048 196.117 229.936 196.069C229.644 195.937 229.353 195.813 229.057 195.69C229.197 195.622 229.341 195.55 229.492 195.486C232.869 196.914 235.985 198.893 238.714 201.341C238.806 201.421 238.898 201.505 238.986 201.588C239.677 202.227 240.334 202.897 240.959 203.597C241.957 204.673 242.766 205.91 243.351 207.256C243.78 208.345 243.969 209.514 243.906 210.682C243.898 210.906 243.882 211.13 243.862 211.357C243.739 212.703 243.463 214.093 243.77 215.439C244.122 216.973 245.312 218.043 246.694 218.698C247.609 219.106 248.569 219.404 249.554 219.585C251.59 220.012 253.695 220.22 255.476 221.314H255.48C255.508 221.334 255.536 221.35 255.56 221.366C255.564 221.366 255.564 221.366 255.564 221.37C255.693 221.446 255.817 221.53 255.936 221.622C255.944 221.626 255.952 221.634 255.96 221.638C255.971 221.646 255.982 221.655 255.992 221.666C256.01 221.687 256.023 221.712 256.03 221.739C256.037 221.766 256.038 221.794 256.032 221.821Z" fill="white"/>
<path d="M238.881 201.725C239.607 200.825 239.989 199.697 239.959 198.541C239.93 197.385 239.49 196.277 238.719 195.416C238.563 195.242 238.285 195.477 238.442 195.651C239.161 196.452 239.571 197.484 239.596 198.56C239.621 199.637 239.261 200.687 238.58 201.521C238.433 201.702 238.734 201.906 238.881 201.725Z" fill="white"/>
<path d="M243.663 210.486C241.315 210.759 238.951 210.137 237.041 208.744C236.852 208.606 236.647 208.907 236.836 209.045C238.826 210.491 241.288 211.133 243.73 210.844C243.963 210.816 243.894 210.459 243.663 210.486Z" fill="white"/>
<path d="M230.292 196.173C230.284 196.189 230.276 196.201 230.268 196.217C230.047 196.621 229.74 196.971 229.368 197.242C228.995 197.513 228.567 197.698 228.115 197.782C228.007 197.678 227.891 197.575 227.775 197.475C227.793 197.463 227.814 197.457 227.835 197.455C228.27 197.407 228.688 197.256 229.053 197.015C229.418 196.774 229.721 196.45 229.936 196.069C229.956 196.037 229.976 196.001 229.992 195.969C230.005 195.949 230.022 195.932 230.042 195.919C230.062 195.906 230.084 195.897 230.108 195.893C230.131 195.888 230.155 195.888 230.179 195.893C230.202 195.898 230.224 195.908 230.244 195.921C230.282 195.949 230.308 195.991 230.317 196.037C230.326 196.084 230.317 196.133 230.292 196.173Z" fill="white"/>
<path d="M29.2593 2.17383C22.0783 2.18192 15.1937 5.03817 10.1159 10.1159C5.03817 15.1937 2.18192 22.0783 2.17383 29.2593V133.059C2.18193 140.24 5.03817 147.125 10.1159 152.203C15.1937 157.28 22.0783 160.137 29.2593 160.145H270.741C277.922 160.137 284.806 157.28 289.884 152.203C294.962 147.125 297.818 140.24 297.826 133.059V29.2593C297.818 22.0783 294.962 15.1937 289.884 10.1159C284.806 5.03817 277.922 2.18192 270.741 2.17383H29.2593Z" fill="white"/>
<path d="M270.741 162.319H29.2593C21.502 162.31 14.0648 159.225 8.57951 153.739C3.09421 148.254 0.0087315 140.817 0 133.059V29.2593C0.0087315 21.502 3.09421 14.0648 8.57951 8.57951C14.0648 3.09421 21.502 0.0087315 29.2593 0H270.741C278.498 0.00872622 285.935 3.0942 291.42 8.5795C296.906 14.0648 299.991 21.502 300 29.2593V133.059C299.991 140.817 296.906 148.254 291.42 153.739C285.935 159.225 278.498 162.31 270.741 162.319ZM29.2593 4.34781C22.6547 4.35528 16.3227 6.98227 11.6525 11.6525C6.98227 16.3227 4.35528 22.6547 4.34781 29.2593V133.059C4.35528 139.664 6.98227 145.996 11.6525 150.666C16.3227 155.337 22.6547 157.964 29.2593 157.971H270.741C277.345 157.964 283.677 155.337 288.347 150.666C293.018 145.996 295.645 139.664 295.652 133.059V29.2593C295.645 22.6547 293.018 16.3227 288.347 11.6525C283.677 6.98227 277.345 4.35528 270.741 4.34781H29.2593Z" fill="#E6E6E6"/>
<path d="M150.648 23.6646H35.8079C33.3569 23.6688 31.0075 24.6443 29.2744 26.3774C27.5413 28.1105 26.5658 30.4599 26.5615 32.9109V84.708C26.5605 85.2575 26.6115 85.8058 26.7137 86.3457C26.75 86.5921 26.8079 86.8312 26.8659 87.0703C27.3919 89.0414 28.5531 90.7841 30.1697 92.0286C31.7862 93.2731 33.7679 93.9499 35.8079 93.9544H150.648C150.837 93.9544 151.025 93.9472 151.206 93.9327H151.337V93.9254C151.373 93.9266 151.41 93.9242 151.446 93.9182C151.482 93.9182 151.525 93.911 151.562 93.911C151.574 93.9121 151.587 93.9096 151.598 93.9037C151.677 93.8964 151.757 93.8892 151.83 93.8819C151.96 93.8602 152.09 93.8457 152.214 93.824C152.23 93.818 152.247 93.8156 152.264 93.8167C152.287 93.8056 152.312 93.8007 152.337 93.8022C152.34 93.7995 152.343 93.7974 152.347 93.7962C152.351 93.7949 152.355 93.7945 152.359 93.795C152.438 93.7805 152.518 93.766 152.598 93.7443C152.642 93.7381 152.686 93.7284 152.728 93.7153C152.888 93.6791 153.047 93.6428 153.199 93.5921C153.272 93.5704 153.337 93.5559 153.409 93.5341C153.504 93.5052 153.605 93.4689 153.699 93.4327C153.749 93.4191 153.797 93.4021 153.844 93.382C153.85 93.3819 153.855 93.3805 153.86 93.378C153.865 93.3755 153.87 93.3719 153.873 93.3675C154.083 93.2936 154.288 93.2089 154.489 93.1139C154.663 93.0342 154.83 92.9472 154.996 92.8602C155.062 92.8313 155.119 92.795 155.185 92.7588C155.201 92.7517 155.215 92.7419 155.228 92.7298C155.395 92.6284 155.562 92.5269 155.721 92.4327C155.728 92.4255 155.728 92.4182 155.735 92.4182C155.736 92.4182 155.737 92.4181 155.738 92.4177C155.739 92.4174 155.74 92.4168 155.741 92.4162C155.741 92.4155 155.742 92.4147 155.742 92.4138C155.743 92.4129 155.743 92.4119 155.743 92.411C155.913 92.3041 156.078 92.188 156.235 92.0632H156.243C156.286 92.0269 156.322 91.9979 156.359 91.969C156.409 91.9327 156.46 91.8892 156.504 91.853C156.59 91.7805 156.677 91.7081 156.757 91.6356C156.806 91.5984 156.852 91.5572 156.895 91.5124C157.018 91.4037 157.134 91.2878 157.25 91.1718C157.312 91.1127 157.37 91.0498 157.424 90.9834C157.514 90.897 157.599 90.805 157.677 90.7081C157.75 90.6139 157.83 90.5197 157.902 90.4255C157.988 90.3265 158.068 90.2225 158.141 90.1139C158.272 89.9399 158.388 89.766 158.504 89.5776C158.598 89.4254 158.692 89.266 158.779 89.1066C158.822 89.0269 158.866 88.9399 158.909 88.853C158.917 88.853 158.917 88.8458 158.917 88.8385C158.996 88.6863 159.069 88.5341 159.134 88.3747C159.163 88.3095 159.192 88.2516 159.214 88.1863C159.272 88.0631 159.315 87.9327 159.366 87.8023C159.446 87.5631 159.525 87.3167 159.591 87.0704C159.648 86.8312 159.706 86.5921 159.743 86.3458C159.845 85.8059 159.896 85.2575 159.895 84.7081V32.9109C159.891 30.4599 158.915 28.1105 157.182 26.3774C155.449 24.6443 153.099 23.6688 150.648 23.6646Z" fill="#FA5246"/>
<path opacity="0.3" d="M159.895 38.5198H26.5615V39.2444H159.895V38.5198Z" fill="white"/>
<path opacity="0.3" d="M159.895 46.4907H26.5615V47.2154H159.895V46.4907Z" fill="white"/>
<path opacity="0.3" d="M159.895 54.4617H26.5615V55.1863H159.895V54.4617Z" fill="white"/>
<path opacity="0.3" d="M159.895 62.4329H26.5615V63.1575H159.895V62.4329Z" fill="white"/>
<path opacity="0.3" d="M159.895 70.4038H26.5615V71.1284H159.895V70.4038Z" fill="white"/>
<path opacity="0.3" d="M159.895 78.3748H26.5615V79.0994H159.895V78.3748Z" fill="white"/>
<path opacity="0.3" d="M159.743 86.3457C159.707 86.5921 159.649 86.8312 159.591 87.0703H26.6631C26.6194 86.8308 26.5904 86.5888 26.5762 86.3457H159.743Z" fill="white"/>
<g opacity="0.1">
<path d="M159.895 73.4906V84.708C159.896 85.2575 159.845 85.8058 159.743 86.3457C159.706 86.592 159.648 86.8312 159.591 87.0703C159.525 87.3167 159.446 87.5631 159.366 87.8022C159.315 87.9327 159.272 88.0631 159.214 88.1863C159.192 88.2515 159.163 88.3094 159.134 88.3747C159.069 88.5341 158.996 88.6863 158.917 88.8385C158.917 88.8457 158.917 88.8529 158.909 88.8529C158.866 88.9399 158.822 89.0269 158.779 89.1066C158.692 89.266 158.598 89.4254 158.504 89.5776C158.388 89.766 158.272 89.9399 158.141 90.1138C158.068 90.2224 157.988 90.3265 157.902 90.4254C157.83 90.5196 157.75 90.6138 157.677 90.708C157.599 90.805 157.514 90.8969 157.424 90.9833C157.37 91.0497 157.312 91.1127 157.25 91.1718C157.134 91.2877 157.018 91.4037 156.895 91.5124C156.852 91.5572 156.806 91.5984 156.757 91.6355C156.677 91.708 156.591 91.7805 156.504 91.8529C156.46 91.8892 156.409 91.9326 156.359 91.9689C156.322 91.9979 156.286 92.0268 156.243 92.0631H156.235C156.078 92.1879 155.913 92.304 155.743 92.4109C155.743 92.4119 155.743 92.4128 155.742 92.4137C155.742 92.4146 155.741 92.4154 155.741 92.4161C155.74 92.4168 155.739 92.4173 155.738 92.4177C155.737 92.418 155.736 92.4182 155.735 92.4182C155.728 92.4182 155.728 92.4254 155.721 92.4326C155.62 92.5051 155.511 92.5703 155.402 92.6356C155.344 92.6718 155.286 92.7007 155.228 92.7298C155.215 92.7418 155.201 92.7516 155.185 92.7587C155.119 92.7949 155.062 92.8312 154.996 92.8602C154.83 92.9471 154.663 93.0341 154.489 93.1138C154.288 93.2088 154.083 93.2935 153.873 93.3674C153.87 93.3718 153.865 93.3754 153.86 93.3779C153.855 93.3804 153.85 93.3818 153.844 93.3819C153.797 93.402 153.749 93.419 153.699 93.4326C153.605 93.4688 153.504 93.5051 153.409 93.5341C153.337 93.5558 153.272 93.5703 153.199 93.592C153.047 93.6428 152.888 93.679 152.728 93.7152C152.686 93.7283 152.642 93.738 152.598 93.7442C152.518 93.7659 152.438 93.7804 152.359 93.7949C152.355 93.7944 152.351 93.7948 152.347 93.7961C152.343 93.7973 152.34 93.7994 152.337 93.8022C152.312 93.8006 152.287 93.8056 152.264 93.8167C152.247 93.8155 152.23 93.818 152.214 93.8239C152.09 93.8456 151.96 93.8601 151.83 93.8819C151.757 93.8891 151.677 93.8964 151.598 93.9036C151.587 93.9095 151.574 93.912 151.562 93.9109C151.482 93.9181 151.409 93.9253 151.337 93.9326H151.322C151.243 93.9398 151.163 93.9398 151.083 93.9471C150.938 93.9543 150.793 93.9543 150.648 93.9543H35.8079C33.7679 93.9499 31.7862 93.273 30.1697 92.0285C28.5531 90.784 27.3919 89.0414 26.8659 87.0703H26.663C26.6193 86.8307 26.5903 86.5887 26.576 86.3457C26.5688 86.208 26.5615 86.063 26.5615 85.9254V73.2877C28.0824 73.3326 29.5907 73.5787 31.047 74.0196C34.9891 75.2225 38.8224 77.2587 42.9383 77.2587C43.2644 77.2587 43.605 77.2443 43.9383 77.2152C48.2717 76.8529 51.6412 74.1645 54.4456 71.1283C54.6702 70.8892 54.8948 70.65 55.105 70.4037C55.634 69.8167 56.1412 69.2153 56.634 68.621C58.2083 66.6329 59.9727 64.803 61.9021 63.1573C62.2137 62.9036 62.5253 62.6645 62.8442 62.4327C64.7151 61.0373 66.9184 60.1555 69.2355 59.8747C69.5326 59.8457 69.8297 59.8239 70.1268 59.8167C73.2282 59.7225 76.1412 60.8384 78.7934 62.4327C79.1775 62.6645 79.5616 62.9036 79.9311 63.1573C81.1992 64.017 82.4207 64.9434 83.5905 65.9326C85.3965 67.5191 87.2831 69.0114 89.2427 70.4037C89.3876 70.5051 89.5326 70.6066 89.6775 70.6935C89.9021 70.8457 90.134 70.9906 90.3659 71.1283C92.351 72.4043 94.5833 73.2464 96.9166 73.5993C96.9963 73.6138 97.0833 73.6283 97.1702 73.6355C100.946 74.0776 104.46 72.9616 107.67 71.1283C108.069 70.8964 108.475 70.6573 108.866 70.4037C111.373 68.737 113.724 66.8451 115.888 64.7515C116.453 64.2225 117.025 63.6863 117.619 63.1573C117.888 62.9182 118.156 62.6718 118.431 62.4327C122.735 58.65 127.699 55.1863 133.562 55.1863C133.808 55.1863 134.062 55.1935 134.315 55.208C138.533 55.4109 142.235 57.4544 145.344 60.0486C146.247 60.7979 147.111 61.5936 147.931 62.4327C147.967 62.4689 147.996 62.4978 148.033 62.5341C148.235 62.737 148.438 62.9471 148.627 63.1573C150.946 65.5848 153.083 68.179 155.605 70.4037C155.88 70.6573 156.163 70.8964 156.453 71.1283C157.322 71.8502 158.243 72.5089 159.206 73.0993C159.431 73.237 159.663 73.3674 159.895 73.4906Z" fill="black"/>
</g>
<g opacity="0.1">
<path d="M159.895 62.5415V84.7082C159.896 85.2577 159.845 85.806 159.743 86.3459C159.706 86.5922 159.648 86.8314 159.591 87.0705C159.525 87.3169 159.446 87.5633 159.366 87.8024C159.315 87.9328 159.272 88.0633 159.214 88.1864C159.192 88.2517 159.163 88.3096 159.134 88.3749C159.069 88.5343 158.996 88.6864 158.917 88.8386C158.917 88.8459 158.917 88.8531 158.909 88.8531C158.866 88.9401 158.822 89.0271 158.779 89.1067C158.692 89.2661 158.598 89.4256 158.504 89.5777C158.388 89.7661 158.272 89.94 158.141 90.114C158.068 90.2226 157.988 90.3267 157.902 90.4256C157.83 90.5198 157.75 90.614 157.677 90.7082C157.599 90.8051 157.514 90.8971 157.424 90.9835C157.37 91.0499 157.312 91.1128 157.25 91.172C157.134 91.2879 157.018 91.4038 156.895 91.5126C156.852 91.5574 156.806 91.5986 156.757 91.6357C156.677 91.7082 156.591 91.7807 156.504 91.8531C156.46 91.8893 156.409 91.9328 156.359 91.9691C156.322 91.998 156.286 92.027 156.243 92.0633H156.235C156.078 92.1881 155.913 92.3042 155.743 92.4111C155.743 92.4121 155.743 92.413 155.742 92.4139C155.742 92.4148 155.741 92.4156 155.741 92.4163C155.74 92.4169 155.739 92.4175 155.738 92.4178C155.737 92.4182 155.736 92.4184 155.735 92.4183C155.728 92.4183 155.728 92.4256 155.721 92.4328C155.62 92.5053 155.511 92.5705 155.402 92.6357C155.344 92.672 155.286 92.7009 155.228 92.7299C155.215 92.742 155.201 92.7518 155.185 92.7589C155.119 92.7951 155.062 92.8314 154.996 92.8604C154.83 92.9473 154.663 93.0343 154.489 93.114C154.288 93.209 154.083 93.2937 153.873 93.3676C153.87 93.372 153.865 93.3756 153.86 93.3781C153.855 93.3806 153.85 93.382 153.844 93.3821C153.797 93.4022 153.749 93.4192 153.699 93.4328C153.605 93.469 153.504 93.5053 153.409 93.5342C153.337 93.556 153.272 93.5705 153.199 93.5922C153.047 93.6429 152.888 93.6792 152.728 93.7154C152.686 93.7285 152.642 93.7382 152.598 93.7444C152.518 93.7661 152.438 93.7806 152.359 93.7951C152.355 93.7946 152.351 93.795 152.347 93.7963C152.343 93.7975 152.34 93.7996 152.337 93.8023C152.312 93.8008 152.287 93.8058 152.264 93.8169C152.247 93.8157 152.23 93.8182 152.214 93.8241C152.09 93.8458 151.96 93.8603 151.83 93.882C151.757 93.8893 151.677 93.8966 151.598 93.9038C151.587 93.9097 151.574 93.9122 151.562 93.9111C151.525 93.9111 151.482 93.9183 151.446 93.9183C151.41 93.9243 151.373 93.9267 151.337 93.9255C151.306 93.9318 151.274 93.9342 151.243 93.9328H151.206C151.17 93.94 151.127 93.94 151.083 93.9473C150.938 93.9545 150.793 93.9545 150.648 93.9545H35.8079C33.7679 93.95 31.7862 93.2732 30.1697 92.0287C28.5531 90.7842 27.3919 89.0415 26.8659 87.0705C26.8079 86.8313 26.75 86.5922 26.7137 86.3458C26.6115 85.8059 26.5605 85.2576 26.5615 84.7081V71.8024C26.8151 71.585 27.0615 71.3604 27.3079 71.1285C27.5615 70.8894 27.8079 70.6502 28.0543 70.4039C30.2128 68.1573 32.1786 65.7333 33.9311 63.1575C33.9891 63.0778 34.0471 63.0053 34.0978 62.9256C34.2137 62.7589 34.3296 62.5995 34.4528 62.4329C36.2103 59.8607 38.1758 57.4371 40.3296 55.1865C40.576 54.9401 40.8224 54.7009 41.076 54.4618C43.7717 51.9256 46.8441 50.0343 50.4673 49.585C55.4601 48.9618 60.105 51.2734 64.2137 54.4618C64.5181 54.7009 64.8151 54.9401 65.1123 55.1865C66.5181 56.3314 67.8514 57.5778 69.1122 58.8169C69.4456 59.1502 69.7862 59.4836 70.1267 59.8169C71.0036 60.6937 71.9021 61.5705 72.8079 62.4329C73.0688 62.6792 73.3224 62.9184 73.5833 63.1575C77.2065 66.5126 81.1267 69.4618 85.7862 70.4039C86.105 70.4691 86.4311 70.527 86.7572 70.5705C88.5177 70.8049 90.3048 70.7486 92.047 70.4039C92.3369 70.3531 92.6195 70.2879 92.9093 70.2154C97.2717 69.1357 101.315 66.4184 104.975 63.1575C105.235 62.9184 105.504 62.6792 105.764 62.4329C107.634 60.701 109.409 58.8459 111.069 57.0198C111.62 56.4111 112.185 55.7951 112.75 55.1865C112.982 54.9473 113.206 54.7082 113.431 54.4618C115.856 51.8189 118.509 49.3941 121.359 47.2155C121.699 46.9618 122.04 46.7227 122.38 46.4908C126.214 43.8749 130.402 42.1937 135.004 42.4618C138.801 42.6792 142.272 44.2444 145.395 46.4908C145.714 46.7227 146.033 46.9618 146.351 47.2155C148.728 49.1248 150.897 51.2792 152.822 53.643C153.047 53.9111 153.272 54.1865 153.496 54.4618C153.612 54.5995 153.721 54.7445 153.837 54.8821L154.076 55.1865C155.996 57.585 157.844 60.0778 159.808 62.4329L159.895 62.5415Z" fill="black"/>
</g>
<g opacity="0.1">
<path d="M159.895 53.3892V84.7081C159.896 85.2576 159.845 85.8059 159.743 86.3458C159.706 86.5921 159.648 86.8313 159.591 87.0704C159.525 87.3168 159.446 87.5632 159.366 87.8023C159.315 87.9327 159.272 88.0632 159.214 88.1864C159.192 88.2516 159.163 88.3095 159.134 88.3748C159.069 88.5342 158.996 88.6864 158.917 88.8386C158.917 88.8458 158.917 88.853 158.909 88.853C158.866 88.94 158.822 89.027 158.779 89.1067C158.692 89.2661 158.598 89.4255 158.504 89.5777C158.388 89.7661 158.272 89.94 158.141 90.1139C158.068 90.2225 157.988 90.3266 157.902 90.4255C157.83 90.5197 157.75 90.6139 157.677 90.7081C157.599 90.8051 157.514 90.897 157.424 90.9834C157.37 91.0498 157.312 91.1128 157.25 91.1719C157.134 91.2878 157.018 91.4038 156.895 91.5125C156.852 91.5573 156.806 91.5985 156.757 91.6356C156.677 91.7081 156.591 91.7806 156.504 91.853C156.46 91.8892 156.409 91.9327 156.359 91.969C156.322 91.998 156.286 92.0269 156.243 92.0632H156.235C156.078 92.188 155.913 92.3041 155.743 92.411C155.743 92.412 155.743 92.4129 155.742 92.4138C155.742 92.4147 155.741 92.4155 155.741 92.4162C155.74 92.4169 155.739 92.4174 155.738 92.4177C155.737 92.4181 155.736 92.4183 155.735 92.4183C155.728 92.4183 155.728 92.4255 155.721 92.4327C155.62 92.5052 155.511 92.5704 155.402 92.6357C155.344 92.6719 155.286 92.7008 155.228 92.7299C155.215 92.7419 155.201 92.7517 155.185 92.7588C155.119 92.795 155.062 92.8313 154.996 92.8603C154.83 92.9472 154.663 93.0342 154.489 93.1139C154.288 93.2089 154.083 93.2936 153.873 93.3675C153.87 93.3719 153.865 93.3755 153.86 93.378C153.855 93.3805 153.85 93.3819 153.844 93.382C153.797 93.4021 153.749 93.4191 153.699 93.4327C153.605 93.4689 153.504 93.5052 153.409 93.5342C153.337 93.5559 153.272 93.5704 153.199 93.5921C153.047 93.6429 152.888 93.6791 152.728 93.7153C152.686 93.7284 152.642 93.7381 152.598 93.7443C152.518 93.766 152.438 93.7805 152.359 93.795C152.355 93.7945 152.351 93.7949 152.347 93.7962C152.343 93.7974 152.34 93.7995 152.337 93.8023C152.312 93.8007 152.287 93.8057 152.264 93.8168C152.247 93.8156 152.23 93.8181 152.214 93.824C152.09 93.8457 151.96 93.8602 151.83 93.882C151.757 93.8892 151.677 93.8965 151.598 93.9037C151.587 93.9096 151.574 93.9121 151.562 93.911C151.525 93.911 151.482 93.9182 151.446 93.9182C151.41 93.9242 151.373 93.9266 151.337 93.9254C151.333 93.9294 151.328 93.9319 151.322 93.9327H151.206C151.025 93.9472 150.837 93.9544 150.648 93.9544H35.8079C33.7679 93.95 31.7862 93.2731 30.1697 92.0286C28.5531 90.7841 27.3919 89.0414 26.8659 87.0704C26.8079 86.8312 26.75 86.5921 26.7137 86.3457C26.6115 85.8059 26.5605 85.2575 26.5615 84.708V65.998C27.2934 65.0487 28.0277 64.1018 28.7644 63.1574C28.9528 62.911 29.1413 62.6719 29.3297 62.4328C30.3224 61.1574 31.3224 59.8965 32.3514 58.6646C33.3369 57.4835 34.3732 56.3168 35.4529 55.1864C35.6848 54.9472 35.9166 54.7008 36.1557 54.4617C38.9048 51.5978 42.0621 49.1559 45.5253 47.2154C45.9963 46.9545 46.4746 46.7154 46.9601 46.4907C49.5311 45.2632 52.3128 44.5377 55.1558 44.353C58.8852 44.1668 62.6032 44.9009 65.9819 46.4907C66.4891 46.7081 66.9891 46.9545 67.4818 47.2154C71.0253 49.0414 74.3514 51.5994 77.4673 54.4617C77.7355 54.6936 77.9891 54.94 78.25 55.1864C80.721 57.5052 83.0615 59.9907 85.2934 62.4328C85.4601 62.6139 85.6268 62.8023 85.7934 62.9835C85.8442 63.0414 85.9021 63.0994 85.9529 63.1574C88.1268 65.5487 90.4456 67.969 92.9094 70.2154C92.9746 70.2806 93.047 70.3385 93.1195 70.4038C93.3876 70.6501 93.6558 70.8893 93.9311 71.1284C94.9021 71.9907 95.9021 72.8168 96.9166 73.5994C99.3209 75.493 101.941 77.0959 104.721 78.3748C105.308 78.6429 105.902 78.882 106.504 79.0994C109.817 80.3648 113.392 80.7881 116.909 80.3313C118.525 80.1077 120.108 79.6942 121.627 79.0994C122.206 78.882 122.772 78.6357 123.33 78.3748C127.004 76.6356 130.322 74.0052 133.467 71.1284C133.728 70.8893 133.989 70.6501 134.25 70.4038C136.04 68.7226 137.779 66.9762 139.496 65.2878C140.221 64.5777 140.96 63.8603 141.721 63.1574C141.982 62.9183 142.25 62.6791 142.518 62.4328C143.431 61.6139 144.373 60.8096 145.344 60.0487C147.718 58.1063 150.328 56.4725 153.112 55.1864C153.351 55.0777 153.598 54.9762 153.837 54.882C154.206 54.7298 154.576 54.5922 154.946 54.4617C156.542 53.8899 158.205 53.5293 159.895 53.3892Z" fill="black"/>
</g>
<path d="M55.1847 48.6647C56.3853 48.6647 57.3586 47.6914 57.3586 46.4908C57.3586 45.2902 56.3853 44.3169 55.1847 44.3169C53.984 44.3169 53.0107 45.2902 53.0107 46.4908C53.0107 47.6914 53.984 48.6647 55.1847 48.6647Z" fill="white"/>
<path d="M88.5182 72.5778C89.7188 72.5778 90.6921 71.6045 90.6921 70.4039C90.6921 69.2033 89.7188 68.23 88.5182 68.23C87.3175 68.23 86.3442 69.2033 86.3442 70.4039C86.3442 71.6045 87.3175 72.5778 88.5182 72.5778Z" fill="white"/>
<path d="M133.445 56.6357C134.646 56.6357 135.619 55.6624 135.619 54.4618C135.619 53.2611 134.646 52.2878 133.445 52.2878C132.245 52.2878 131.271 53.2611 131.271 54.4618C131.271 55.6624 132.245 56.6357 133.445 56.6357Z" fill="white"/>
<path d="M232.33 73.01H181.07C180.826 73.0097 180.586 73.0572 180.361 73.15C180.136 73.2428 179.932 73.379 179.76 73.5508C179.588 73.7226 179.451 73.9266 179.358 74.1512C179.265 74.3757 179.217 74.6165 179.217 74.8596C179.217 75.1027 179.265 75.3435 179.358 75.568C179.451 75.7926 179.588 75.9966 179.76 76.1684C179.932 76.3402 180.136 76.4764 180.361 76.5692C180.586 76.662 180.826 76.7096 181.07 76.7092H232.33C232.82 76.7092 233.291 76.5143 233.638 76.1675C233.984 75.8206 234.179 75.3501 234.179 74.8596C234.179 74.3691 233.984 73.8986 233.638 73.5517C233.291 73.2049 232.82 73.01 232.33 73.01Z" fill="#E6E6E6"/>
<path d="M232.329 101.018H181.069C180.579 101.018 180.108 101.213 179.761 101.56C179.415 101.907 179.22 102.377 179.22 102.868C179.22 103.358 179.415 103.829 179.761 104.176C180.108 104.522 180.579 104.717 181.069 104.717H232.329C232.82 104.717 233.29 104.522 233.637 104.176C233.984 103.829 234.179 103.358 234.179 102.868C234.179 102.377 233.984 101.907 233.637 101.56C233.29 101.213 232.82 101.018 232.329 101.018Z" fill="#E6E6E6"/>
<path d="M232.329 129.026H181.069C180.579 129.026 180.108 129.221 179.761 129.568C179.415 129.915 179.22 130.385 179.22 130.876C179.22 131.366 179.415 131.837 179.761 132.184C180.108 132.53 180.579 132.725 181.069 132.725H232.329C232.82 132.725 233.29 132.53 233.637 132.184C233.984 131.837 234.179 131.366 234.179 130.876C234.179 130.385 233.984 129.915 233.637 129.568C233.29 129.221 232.82 129.026 232.329 129.026Z" fill="#E6E6E6"/>
<path d="M263.389 79.6169C265.941 79.6169 268.009 77.5489 268.009 74.9979C268.009 72.4469 265.941 70.3789 263.389 70.3789C260.838 70.3789 258.771 72.4469 258.771 74.9979C258.771 77.5489 260.838 79.6169 263.389 79.6169Z" fill="#F2F2F2"/>
<path d="M262.76 77.4018C262.68 77.4018 262.601 77.3832 262.53 77.3475C262.459 77.3119 262.396 77.2601 262.349 77.1962L261.088 75.516C261.048 75.462 261.018 75.4006 261.002 75.3352C260.985 75.2698 260.981 75.2017 260.99 75.1349C261 75.068 261.023 75.0037 261.057 74.9456C261.091 74.8875 261.137 74.8367 261.191 74.7962C261.245 74.7557 261.306 74.7262 261.372 74.7095C261.437 74.6928 261.505 74.6891 261.572 74.6987C261.639 74.7083 261.703 74.7309 261.761 74.7654C261.819 74.7999 261.87 74.8454 261.911 74.8995L262.735 75.9986L264.852 72.8225C264.928 72.7092 265.046 72.6305 265.179 72.6037C265.313 72.577 265.452 72.6045 265.565 72.6801C265.678 72.7556 265.757 72.8732 265.784 73.0068C265.811 73.1404 265.783 73.2792 265.707 73.3926L263.187 77.173C263.142 77.2413 263.08 77.2978 263.008 77.3376C262.936 77.3774 262.856 77.3993 262.774 77.4016L262.76 77.4018Z" fill="white"/>
<path d="M263.389 107.625C265.941 107.625 268.009 105.557 268.009 103.006C268.009 100.455 265.941 98.387 263.389 98.387C260.838 98.387 258.771 100.455 258.771 103.006C258.771 105.557 260.838 107.625 263.389 107.625Z" fill="#F2F2F2"/>
<path d="M262.76 105.41C262.68 105.41 262.601 105.391 262.53 105.356C262.459 105.32 262.396 105.268 262.349 105.204L261.088 103.524C261.048 103.47 261.018 103.409 261.002 103.343C260.985 103.278 260.981 103.21 260.99 103.143C261 103.076 261.023 103.012 261.057 102.954C261.091 102.896 261.137 102.845 261.191 102.804C261.245 102.764 261.306 102.734 261.372 102.718C261.437 102.701 261.505 102.697 261.572 102.707C261.639 102.716 261.703 102.739 261.761 102.773C261.819 102.808 261.87 102.853 261.911 102.908L262.735 104.007L264.852 100.831C264.89 100.774 264.938 100.726 264.994 100.689C265.05 100.651 265.113 100.625 265.179 100.612C265.245 100.599 265.313 100.598 265.38 100.612C265.446 100.625 265.509 100.651 265.565 100.688C265.621 100.726 265.669 100.774 265.707 100.83C265.744 100.886 265.771 100.949 265.784 101.015C265.797 101.081 265.797 101.149 265.784 101.215C265.771 101.282 265.745 101.344 265.707 101.401L263.187 105.181C263.142 105.249 263.08 105.306 263.008 105.346C262.936 105.385 262.856 105.407 262.774 105.41L262.76 105.41Z" fill="white"/>
<path d="M263.389 135.633C265.941 135.633 268.009 133.565 268.009 131.014C268.009 128.463 265.941 126.395 263.389 126.395C260.838 126.395 258.771 128.463 258.771 131.014C258.771 133.565 260.838 135.633 263.389 135.633Z" fill="#F2F2F2"/>
<path d="M232.329 45.0017H181.069C180.579 45.0017 180.108 45.1966 179.761 45.5435C179.415 45.8903 179.22 46.3608 179.22 46.8513C179.22 47.3418 179.415 47.8123 179.761 48.1592C180.108 48.506 180.579 48.7009 181.069 48.7009H232.329C232.82 48.7009 233.29 48.506 233.637 48.1592C233.984 47.8123 234.179 47.3418 234.179 46.8513C234.179 46.3608 233.984 45.8903 233.637 45.5435C233.29 45.1966 232.82 45.0017 232.329 45.0017Z" fill="#E6E6E6"/>
<path d="M263.389 51.6086C265.941 51.6086 268.009 49.5406 268.009 46.9896C268.009 44.4386 265.941 42.3706 263.389 42.3706C260.838 42.3706 258.771 44.4386 258.771 46.9896C258.771 49.5406 260.838 51.6086 263.389 51.6086Z" fill="#FA5246"/>
<path d="M262.76 49.3937C262.68 49.3937 262.601 49.3752 262.53 49.3395C262.459 49.3038 262.396 49.252 262.349 49.1882L261.088 47.508C261.048 47.454 261.018 47.3925 261.002 47.3271C260.985 47.2617 260.981 47.1937 260.99 47.1268C261 47.06 261.023 46.9956 261.057 46.9375C261.091 46.8794 261.137 46.8287 261.191 46.7881C261.245 46.7476 261.306 46.7182 261.372 46.7014C261.437 46.6847 261.505 46.681 261.572 46.6906C261.639 46.7002 261.703 46.7229 261.761 46.7573C261.819 46.7918 261.87 46.8374 261.911 46.8914L262.735 47.9906L264.852 44.8145C264.89 44.7583 264.938 44.7101 264.994 44.6726C265.05 44.635 265.113 44.6089 265.179 44.5957C265.245 44.5824 265.313 44.5824 265.38 44.5955C265.446 44.6086 265.509 44.6346 265.565 44.672C265.621 44.7094 265.669 44.7575 265.707 44.8136C265.744 44.8697 265.771 44.9326 265.784 44.9987C265.797 45.0649 265.797 45.133 265.784 45.1992C265.771 45.2654 265.745 45.3284 265.707 45.3845L263.187 49.1649C263.142 49.2333 263.08 49.2897 263.008 49.3295C262.936 49.3693 262.856 49.3913 262.774 49.3936L262.76 49.3937Z" fill="white"/>
<path d="M248.064 51.6086C250.615 51.6086 252.683 49.5406 252.683 46.9896C252.683 44.4386 250.615 42.3706 248.064 42.3706C245.513 42.3706 243.445 44.4386 243.445 46.9896C243.445 49.5406 245.513 51.6086 248.064 51.6086Z" fill="#F2F2F2"/>
<path d="M248.064 79.6169C250.615 79.6169 252.683 77.5489 252.683 74.9979C252.683 72.4469 250.615 70.3789 248.064 70.3789C245.513 70.3789 243.445 72.4469 243.445 74.9979C243.445 77.5489 245.513 79.6169 248.064 79.6169Z" fill="#F2F2F2"/>
<path d="M248.064 107.625C250.615 107.625 252.683 105.557 252.683 103.006C252.683 100.455 250.615 98.387 248.064 98.387C245.513 98.387 243.445 100.455 243.445 103.006C243.445 105.557 245.513 107.625 248.064 107.625Z" fill="#F2F2F2"/>
<path d="M248.064 135.633C250.615 135.633 252.683 133.565 252.683 131.014C252.683 128.463 250.615 126.395 248.064 126.395C245.513 126.395 243.445 128.463 243.445 131.014C243.445 133.565 245.513 135.633 248.064 135.633Z" fill="#F2F2F2"/>
<path d="M262.759 133.418C262.679 133.418 262.601 133.4 262.529 133.364C262.458 133.328 262.396 133.276 262.348 133.213L261.088 131.532C261.048 131.478 261.018 131.417 261.001 131.352C260.985 131.286 260.981 131.218 260.991 131.151C261 131.085 261.023 131.02 261.057 130.962C261.091 130.904 261.137 130.854 261.191 130.813C261.245 130.773 261.306 130.743 261.372 130.726C261.437 130.71 261.505 130.706 261.572 130.715C261.639 130.725 261.703 130.748 261.761 130.782C261.819 130.816 261.87 130.862 261.91 130.916L262.735 132.015L264.852 128.839C264.928 128.726 265.045 128.647 265.179 128.62C265.312 128.593 265.451 128.621 265.565 128.696C265.678 128.772 265.757 128.89 265.783 129.023C265.81 129.157 265.783 129.296 265.707 129.409L263.187 133.189C263.141 133.258 263.08 133.314 263.008 133.354C262.936 133.394 262.856 133.416 262.774 133.418L262.759 133.418Z" fill="white"/>
<path d="M256.099 221.242C256.101 221.269 256.096 221.295 256.086 221.319C256.076 221.344 256.06 221.365 256.039 221.382C256.008 221.406 255.971 221.421 255.932 221.426C255.892 221.434 255.851 221.427 255.816 221.405C255.782 221.384 255.758 221.35 255.748 221.31C255.197 219.457 253.847 218.035 252.569 216.641C251.419 215.391 250.288 214.073 249.709 212.448C249.458 211.802 249.347 211.111 249.383 210.419C249.419 209.727 249.601 209.05 249.917 208.434C250.116 208.065 250.347 207.715 250.608 207.388C251.179 206.661 251.858 206.014 252.469 205.327C252.533 205.255 252.597 205.179 252.657 205.107C252.741 205.015 252.816 204.919 252.888 204.824C253.65 203.881 254.18 202.773 254.434 201.589C254.707 200.144 254.749 198.665 254.558 197.207C254.478 196.433 254.367 195.663 254.226 194.899C254.218 194.863 254.214 194.831 254.206 194.799C253.59 191.522 252.469 188.359 250.883 185.425C250.824 185.318 250.768 185.21 250.708 185.106C250.452 184.643 250.189 184.187 249.909 183.74C250.005 183.672 250.109 183.608 250.212 183.548C251.128 185.031 251.926 186.585 252.597 188.193C253.465 190.257 254.116 192.405 254.542 194.603C254.57 194.723 254.59 194.847 254.61 194.967C254.777 195.889 254.901 196.824 254.977 197.754C255.127 199.214 255.027 200.689 254.682 202.116C254.368 203.247 253.814 204.298 253.056 205.195C252.92 205.367 252.777 205.534 252.625 205.698C252.018 206.361 251.347 207.004 250.8 207.727C250.52 208.09 250.283 208.484 250.093 208.901C249.45 210.339 249.753 211.913 250.464 213.263C251.75 215.719 254.202 217.392 255.508 219.801C255.75 220.244 255.945 220.711 256.091 221.194C256.096 221.21 256.099 221.226 256.099 221.242Z" fill="white"/>
<path d="M254.445 195.009C255.566 194.727 256.551 194.056 257.223 193.115C257.895 192.174 258.211 191.025 258.115 189.873C258.094 189.64 257.731 189.661 257.752 189.894C257.844 190.967 257.549 192.037 256.921 192.912C256.294 193.787 255.374 194.408 254.328 194.664C254.101 194.72 254.219 195.064 254.445 195.009Z" fill="white"/>
<path d="M252.988 204.883C250.949 203.687 249.436 201.767 248.75 199.505C248.682 199.281 248.338 199.398 248.405 199.622C249.124 201.974 250.702 203.969 252.827 205.209C253.029 205.327 253.189 205 252.988 204.883Z" fill="white"/>
<path d="M250.928 185.405C250.912 185.413 250.9 185.417 250.884 185.425C250.164 185.754 249.346 185.792 248.599 185.533C248.632 185.416 248.673 185.301 248.723 185.19C249.372 185.412 250.08 185.382 250.708 185.106C250.744 185.094 250.776 185.078 250.812 185.062C250.857 185.046 250.907 185.049 250.951 185.07C250.994 185.091 251.027 185.128 251.043 185.174C251.056 185.22 251.052 185.269 251.03 185.312C251.009 185.355 250.972 185.388 250.928 185.405Z" fill="white"/>
<path d="M231.02 124.206C231.369 123.786 231.622 123.294 231.76 122.765C231.899 122.236 231.92 121.683 231.821 121.145C231.723 120.608 231.508 120.098 231.192 119.652C230.875 119.207 230.465 118.836 229.99 118.566L232.401 105.499L226.043 108.191L224.727 120.187C224.327 121.015 224.244 121.962 224.495 122.848C224.746 123.733 225.313 124.496 226.088 124.991C226.864 125.487 227.794 125.68 228.703 125.536C229.612 125.391 230.436 124.918 231.02 124.206Z" fill="#FFB6B6"/>
<path d="M234.9 85.5312L232.88 78.7377L218.63 56.5039C217.837 55.5781 216.89 54.7971 215.83 54.1955C213.724 52.9916 211.268 52.546 208.874 52.9329C206.479 53.3199 204.289 54.5159 202.669 56.3218C201.049 58.1277 200.097 60.4342 199.971 62.8569C199.846 65.2796 200.554 67.6722 201.979 69.6357C202.273 70.046 202.597 70.4332 202.95 70.7939L221.405 89.8286L222.456 90.9149L224.117 95.1165L224.772 114.275L225.359 114.415L230.531 115.633L231.254 115.805L232.464 109.546L233.223 106.555C233.869 104.004 234.195 101.382 234.194 98.7509C234.194 97.9401 234.166 97.1254 234.102 96.3146L234.9 85.5312Z" fill="#3F3D56"/>
<path d="M215.311 217.643H210.362L208.008 198.557L215.311 198.557L215.311 217.643Z" fill="#FFB6B6"/>
<path d="M215.179 216.026L209.899 213.882L209.743 213.818L206.828 216.026C205.228 216.026 203.689 216.644 202.534 217.75C201.378 218.857 200.694 220.367 200.625 221.965C200.617 222.053 200.617 222.145 200.617 222.237V222.44H216.573V216.026H215.179Z" fill="#2F2E41"/>
<path d="M205.887 207.772L201.622 210.282L189.913 195.026L196.207 191.323L205.887 207.772Z" fill="#FFB6B6"/>
<path d="M208.832 210.287L208.253 209.301L206.156 205.738L205.066 206.381L204.954 206.445L199.315 207.276L199.147 207.3L197.757 210.682C197.054 211.096 196.439 211.644 195.948 212.295C195.457 212.946 195.098 213.688 194.894 214.477C194.689 215.267 194.642 216.089 194.755 216.897C194.868 217.705 195.139 218.482 195.553 219.185L195.657 219.357L209.407 211.266L208.832 210.287Z" fill="#2F2E41"/>
<path d="M221.578 100.959C223.898 107.956 223.652 115.551 221.02 123.703L220.333 151.726L218.126 169.402C219.457 172.866 220.14 176.544 220.14 180.255C220.131 189.981 219.477 203.798 216.161 210.289H208.315L206.544 181.384L204.43 166.851L204.17 151.277L203.942 137.695L195.411 150.17L187.121 162.293L195.361 176.192L202.55 198.557L194.962 204.947L186.353 188.627L182.181 183.78L170.792 159.126L171.816 155.693C173.924 148.624 176.985 141.875 180.915 135.632L192.243 109.34L221.578 100.959Z" fill="#2F2E41"/>
<path d="M222.583 98.6231L221.289 96.035L221.405 89.8286L221.792 68.8449C221.839 66.127 221.335 63.4278 220.31 60.91C219.285 58.3923 217.761 56.1082 215.829 54.1955C214.683 53.0534 213.401 52.0568 212.011 51.228L209.232 49.5666L207.826 45.9961L194.862 46.3116L194.834 49.7743L194.822 50.9924L190.177 58.397L190.181 58.429L190.277 71.9042L190.468 98.7269L191.75 102.884L189.813 107.725L190.844 110.808L191.667 110.677L219.376 106.247C220.635 105.843 221.705 104.994 222.383 103.859C222.52 103.637 222.639 103.405 222.739 103.164C223.041 102.441 223.183 101.66 223.157 100.877C223.13 100.093 222.934 99.3242 222.583 98.6231Z" fill="#3F3D56"/>
<path d="M200.155 41.5548C206.661 41.5548 211.935 36.2806 211.935 29.7746C211.935 23.2686 206.661 17.9944 200.155 17.9944C193.649 17.9944 188.375 23.2686 188.375 29.7746C188.375 36.2806 193.649 41.5548 200.155 41.5548Z" fill="#FFB6B6"/>
<path d="M207.483 39.5358C208.728 38.6603 209.987 36.9938 210.827 35.7463C211.939 34.1062 212.694 32.2507 213.044 30.3001C213.393 28.3495 213.328 26.3473 212.854 24.4232C212.701 23.6533 212.341 22.9399 211.812 22.3599C211.542 22.0767 211.189 21.8863 210.803 21.816C210.418 21.7457 210.021 21.799 209.668 21.9684C209.846 21.471 209.92 20.9424 209.886 20.4153C209.851 19.8881 209.709 19.3736 209.469 18.9035C208.98 17.9648 208.279 17.153 207.421 16.5325C205.781 15.3052 203.839 14.5449 201.802 14.3322C199.764 14.1195 197.707 14.4624 195.849 15.3245C195.118 15.6756 196.29 13.0257 195.524 13.2903C194.763 13.5971 193.912 13.594 193.153 13.2814C192.424 12.9269 190.053 15.1264 190.32 14.3607C189.774 14.6179 189.302 15.0091 188.947 15.4979C188.593 15.9867 188.368 16.5573 188.294 17.1564C188.219 17.7556 188.298 18.3638 188.522 18.9245C188.746 19.4851 189.108 19.98 189.575 20.363C190.19 20.8678 190.953 21.1527 191.624 21.5792C192.802 22.3836 193.644 23.5912 193.992 24.9741C194.34 26.3571 194.17 27.8196 193.514 29.0855C194.208 28.6259 194.971 28.2813 195.775 28.0652C196.179 27.9608 196.601 27.9543 197.008 28.0461C197.414 28.1379 197.793 28.3255 198.112 28.5931C198.38 28.8912 198.584 29.241 198.712 29.6208C198.84 30.0007 198.888 30.4026 198.855 30.802C198.84 31.6017 198.661 32.3919 198.65 33.1917C198.62 35.5385 197.425 40.0159 199.262 41.2377C200.711 42.2018 205.785 40.731 207.483 39.5358Z" fill="#2F2E41"/>
<path d="M134.712 58.4279C134.991 58.8982 135.369 59.3016 135.821 59.6098C136.272 59.9179 136.786 60.1234 137.325 60.2116C137.865 60.2998 138.417 60.2686 138.943 60.1203C139.469 59.972 139.957 59.7102 140.371 59.3532L151.867 66.0157L151.469 59.1223L140.612 53.8523C139.967 53.1965 139.103 52.8004 138.184 52.7391C137.266 52.6777 136.357 52.9554 135.63 53.5194C134.903 54.0834 134.407 54.8946 134.238 55.7993C134.069 56.704 134.238 57.6393 134.712 58.4279Z" fill="#FFB6B6"/>
<path d="M208.956 56.364C208.51 54.97 207.781 53.6833 206.814 52.5848C205.846 51.4863 204.662 50.5997 203.336 49.9808C202.01 49.3619 200.57 49.024 199.107 48.9885C197.643 48.9529 196.189 49.2204 194.834 49.7741C194.706 49.8261 194.578 49.882 194.45 49.9379L168.946 61.548L159.017 60.3698L146.165 55.8807L145.837 56.388L142.95 60.8491L142.546 61.4721L156.333 69.6236L157.795 69.9271C159.068 70.1905 160.276 70.7024 161.351 71.4337C162.425 72.165 163.345 73.1011 164.057 74.1886L169.401 75.9458L190.277 71.9041L201.979 69.6356L202.642 69.5078C204.647 68.736 206.372 67.3751 207.589 65.6043C208.806 63.8335 209.458 61.7357 209.459 59.587C209.46 58.4931 209.29 57.4057 208.956 56.364Z" fill="#3F3D56"/>
<path d="M268.304 222.915H129.323C129.197 222.915 129.076 222.865 128.986 222.776C128.897 222.687 128.847 222.566 128.847 222.44C128.847 222.314 128.897 222.193 128.986 222.104C129.076 222.014 129.197 221.964 129.323 221.964H268.304C268.43 221.964 268.551 222.014 268.64 222.104C268.729 222.193 268.779 222.314 268.779 222.44C268.779 222.566 268.729 222.687 268.64 222.776C268.551 222.865 268.43 222.915 268.304 222.915Z" fill="#CCCCCC"/>
<path d="M118.717 111.802H34.3083C33.8182 111.803 33.3485 111.998 33.0022 112.345C32.6559 112.691 32.4614 113.162 32.4614 113.652C32.4614 114.142 32.6559 114.612 33.0022 114.958C33.3485 115.305 33.8182 115.5 34.3083 115.501H118.717C118.961 115.502 119.201 115.454 119.426 115.361C119.651 115.268 119.855 115.132 120.027 114.96C120.199 114.789 120.336 114.585 120.429 114.36C120.522 114.135 120.57 113.895 120.57 113.652C120.57 113.408 120.522 113.168 120.429 112.943C120.336 112.719 120.199 112.515 120.027 112.343C119.855 112.171 119.651 112.035 119.426 111.942C119.201 111.849 118.961 111.802 118.717 111.802Z" fill="#E6E6E6"/>
<path d="M149.778 118.409C152.329 118.409 154.397 116.341 154.397 113.79C154.397 111.239 152.329 109.171 149.778 109.171C147.227 109.171 145.159 111.239 145.159 113.79C145.159 116.341 147.227 118.409 149.778 118.409Z" fill="#FA5246"/>
<path d="M149.147 116.194C149.068 116.194 148.989 116.175 148.918 116.14C148.846 116.104 148.784 116.052 148.736 115.988L147.476 114.308C147.436 114.254 147.406 114.193 147.39 114.127C147.373 114.062 147.369 113.994 147.379 113.927C147.388 113.861 147.411 113.796 147.445 113.738C147.48 113.68 147.525 113.629 147.579 113.589C147.633 113.548 147.694 113.519 147.76 113.502C147.825 113.486 147.893 113.482 147.96 113.491C148.027 113.501 148.091 113.524 148.149 113.558C148.207 113.592 148.258 113.638 148.298 113.692L149.123 114.791L151.24 111.615C151.278 111.559 151.326 111.51 151.382 111.473C151.438 111.435 151.501 111.409 151.567 111.396C151.633 111.383 151.701 111.383 151.767 111.396C151.834 111.409 151.897 111.435 151.953 111.472C152.009 111.51 152.057 111.558 152.095 111.614C152.132 111.67 152.158 111.733 152.172 111.799C152.185 111.865 152.185 111.933 152.172 112C152.159 112.066 152.133 112.129 152.095 112.185L149.575 115.965C149.529 116.034 149.468 116.09 149.396 116.13C149.324 116.17 149.244 116.192 149.162 116.194L149.147 116.194Z" fill="white"/>
<path d="M134.453 118.409C137.004 118.409 139.072 116.341 139.072 113.79C139.072 111.239 137.004 109.171 134.453 109.171C131.901 109.171 129.833 111.239 129.833 113.79C129.833 116.341 131.901 118.409 134.453 118.409Z" fill="#F2F2F2"/>
<path d="M118.318 134.168H33.9094C33.4193 134.168 32.9496 134.364 32.6033 134.71C32.257 135.057 32.0625 135.527 32.0625 136.017C32.0625 136.507 32.257 136.977 32.6033 137.324C32.9496 137.671 33.4193 137.866 33.9094 137.867H118.318C118.809 137.867 119.279 137.672 119.626 137.325C119.973 136.978 120.168 136.508 120.168 136.017C120.168 135.527 119.973 135.056 119.626 134.709C119.279 134.363 118.809 134.168 118.318 134.168Z" fill="#E6E6E6"/>
<path d="M149.378 140.775C151.929 140.775 153.997 138.707 153.997 136.156C153.997 133.605 151.929 131.537 149.378 131.537C146.827 131.537 144.759 133.605 144.759 136.156C144.759 138.707 146.827 140.775 149.378 140.775Z" fill="#F2F2F2"/>
<path d="M148.748 138.56C148.668 138.56 148.59 138.541 148.518 138.505C148.447 138.47 148.385 138.418 148.337 138.354L147.077 136.674C146.995 136.565 146.96 136.428 146.979 136.293C146.999 136.158 147.071 136.036 147.18 135.954C147.289 135.873 147.426 135.838 147.561 135.857C147.695 135.876 147.817 135.948 147.899 136.057L148.723 137.156L150.841 133.98C150.878 133.924 150.926 133.876 150.982 133.838C151.038 133.801 151.101 133.775 151.168 133.761C151.234 133.748 151.302 133.748 151.368 133.761C151.434 133.774 151.497 133.8 151.553 133.838C151.609 133.875 151.658 133.923 151.695 133.979C151.733 134.035 151.759 134.098 151.772 134.165C151.785 134.231 151.785 134.299 151.772 134.365C151.759 134.431 151.733 134.494 151.696 134.55L149.176 138.331C149.13 138.399 149.069 138.456 148.997 138.495C148.925 138.535 148.844 138.557 148.762 138.559L148.748 138.56Z" fill="white"/>
<path d="M134.053 140.775C136.604 140.775 138.672 138.707 138.672 136.156C138.672 133.605 136.604 131.537 134.053 131.537C131.502 131.537 129.434 133.605 129.434 136.156C129.434 138.707 131.502 140.775 134.053 140.775Z" fill="#F2F2F2"/>
</g>
<defs>
<clipPath id="clip0_26_636">
<rect width="300" height="222.916" fill="white"/>
</clipPath>
</defs>
</svg>
