<svg width="60" height="60" viewBox="0 0 60 60" fill="none" xmlns="http://www.w3.org/2000/svg">
<g clip-path="url(#clip0_26_1064)">
<path d="M30 60C46.5685 60 60 46.5685 60 30C60 13.4315 46.5685 0 30 0C13.4315 0 0 13.4315 0 30C0 46.5685 13.4315 60 30 60Z" fill="#F0F0F0"/>
<path d="M6.20178 11.7354C3.84525 14.8013 2.06834 18.3351 1.03369 22.1741H16.6405L6.20178 11.7354Z" fill="#0052B4"/>
<path d="M58.9669 22.1742C57.9323 18.3354 56.1552 14.8016 53.7988 11.7356L43.3604 22.1742H58.9669Z" fill="#0052B4"/>
<path d="M1.03369 37.8262C2.06846 41.665 3.84537 45.1988 6.20178 48.2646L16.6401 37.8262H1.03369Z" fill="#0052B4"/>
<path d="M48.2648 6.20165C45.1988 3.84513 41.6651 2.06821 37.8262 1.03345V16.6401L48.2648 6.20165Z" fill="#0052B4"/>
<path d="M11.7358 53.7982C14.8018 56.1547 18.3356 57.9317 22.1744 58.9664V43.3599L11.7358 53.7982Z" fill="#0052B4"/>
<path d="M22.1743 1.03345C18.3355 2.06821 14.8017 3.84513 11.7358 6.20153L22.1743 16.64V1.03345Z" fill="#0052B4"/>
<path d="M37.8262 58.9664C41.665 57.9317 45.1988 56.1547 48.2646 53.7983L37.8262 43.3599V58.9664Z" fill="#0052B4"/>
<path d="M43.3604 37.8262L53.7988 48.2648C56.1552 45.1989 57.9323 41.665 58.9669 37.8262H43.3604Z" fill="#0052B4"/>
<path d="M59.7461 26.087H33.9132H33.9131V0.253945C32.6321 0.0871875 31.3262 0 30 0C28.6736 0 27.3679 0.0871875 26.087 0.253945V26.0868V26.0869H0.253945C0.0871875 27.3679 0 28.6738 0 30C0 31.3264 0.0871875 32.6321 0.253945 33.913H26.0868H26.0869V59.7461C27.3679 59.9128 28.6736 60 30 60C31.3262 60 32.6321 59.9129 33.913 59.7461V33.9132V33.9131H59.7461C59.9128 32.6321 60 31.3264 60 30C60 28.6738 59.9128 27.3679 59.7461 26.087Z" fill="#D80027"/>
<path d="M37.8262 37.8263L51.2132 51.2133C51.8289 50.5979 52.4162 49.9544 52.9766 49.2873L41.5155 37.8262H37.8262V37.8263Z" fill="#D80027"/>
<path d="M22.1738 37.8262H22.1735L8.78662 51.2131C9.40209 51.8288 10.0456 52.4161 10.7126 52.9765L22.1738 41.5151V37.8262Z" fill="#D80027"/>
<path d="M22.1739 22.174V22.1738L8.78688 8.78662C8.17117 9.40209 7.58383 10.0456 7.02344 10.7126L18.4847 22.1739L22.1739 22.174Z" fill="#D80027"/>
<path d="M37.8262 22.174L51.2133 8.78676C50.5979 8.17106 49.9544 7.58371 49.2873 7.02344L37.8262 18.4847V22.174Z" fill="#D80027"/>
</g>
<defs>
<clipPath id="clip0_26_1064">
<rect width="60" height="60" fill="white"/>
</clipPath>
</defs>
</svg>
