<?xml version="1.0" standalone="no"?>
<!DOCTYPE svg PUBLIC "-//W3C//DTD SVG 1.1//EN" "http://www.w3.org/Graphics/SVG/1.1/DTD/svg11.dtd" >
<svg>
<metadata>
Created by FontForge 20090622 at Tue Apr 10 04:48:24 2018
 By ffonts
\2512003 Prescott Design. All rights reserved.
</metadata>
<defs>
<font id="PassionSansPDbi-SemiBoldSmallCaps" horiz-adv-x="657" >
  <font-face 
    font-family="PassionSansPDbi"
    font-weight="400"
    font-variant="small-caps"
    font-stretch="normal"
    units-per-em="1000"
    panose-1="0 0 0 0 0 0 0 0 0 0"
    ascent="800"
    descent="-200"
    x-height="518"
    cap-height="720"
    bbox="-116 -245 1070 963"
    underline-thickness="30"
    underline-position="-24"
    unicode-range="U+000D-U+FB02"
  />
<missing-glyph horiz-adv-x="235" 
 />
    <glyph glyph-name=".notdef" horiz-adv-x="235" 
 />
    <glyph glyph-name="Eth" horiz-adv-x="730" 
d="M561 360q0 69 -12.5 129.5t-37 105t-60.5 70t-84 25.5h-181v-300h185v-30h-185v-330h181q48 0 84 25.5t60.5 70t37 105t12.5 129.5zM693 360q0 -76 -22 -141.5t-63.5 -114t-102 -76.5t-138.5 -28h-313v360h-54v30h54v330h313q78 0 138.5 -28t102 -76.5t63.5 -114
t22 -141.5z" />
    <glyph glyph-name="Eth" horiz-adv-x="730" 
d="M561 360q0 69 -12.5 129.5t-37 105t-60.5 70t-84 25.5h-181v-300h185v-30h-185v-330h181q48 0 84 25.5t60.5 70t37 105t12.5 129.5zM693 360q0 -76 -22 -141.5t-63.5 -114t-102 -76.5t-138.5 -28h-313v360h-54v30h54v330h313q78 0 138.5 -28t102 -76.5t63.5 -114
t22 -141.5z" />
    <glyph glyph-name="nonmarkingreturn" unicode="&#xd;" horiz-adv-x="0" 
 />
    <glyph glyph-name="space" unicode=" " horiz-adv-x="235" 
 />
    <glyph glyph-name="eth" unicode="&#xf0;" horiz-adv-x="536" 
d="M378 259q0 49 -7.5 91.5t-21.5 73.5t-34.5 48.5t-46.5 17.5h-97v-206h98v-28h-98v-228h97q26 0 46.5 17.5t34.5 48.5t21.5 73.5t7.5 91.5zM510 259q0 -56 -17 -103t-48.5 -82t-76 -54.5t-100.5 -19.5h-229v256h-39v28h39v234h229q56 0 100.5 -19.5t76 -54.5t48.5 -82.5
t17 -102.5z" />
    <glyph glyph-name="Lslash" unicode="&#x141;" horiz-adv-x="590" 
d="M54 0v258l-54 -38v36l54 38v426h132v-333l203 142v-37l-203 -142v-320h359v-30h-491z" />
    <glyph glyph-name="lslash" unicode="&#x142;" horiz-adv-x="427" 
d="M39 0v178l-39 -27v35l39 27v305h132v-213l124 87v-34l-124 -87v-243h223v-28h-355z" />
    <glyph glyph-name="Scaron" unicode="&#x160;" horiz-adv-x="625" 
d="M612 183q0 -41 -20.5 -76t-59.5 -61t-94.5 -41t-125.5 -15t-125.5 15t-94.5 41t-59.5 61t-20.5 76h132q0 -34 11 -64t32.5 -52t53 -34.5t71.5 -12.5t71.5 12.5t53 34.5t32.5 52t11 64t-11 63.5t-32.5 51.5t-53 34.5t-71.5 12.5q-64 0 -115 15t-86.5 41t-54.5 61t-19 76
q0 40 19 75.5t54.5 61t86.5 40.5t115 15t115.5 -15t87 -40.5t54.5 -61t19 -75.5h-132q0 34 -9.5 63.5t-28 51.5t-45.5 34.5t-61 12.5t-60.5 -12.5t-45 -34.5t-28 -51.5t-9.5 -63.5t9.5 -64t28 -52t45 -34.5t60.5 -12.5q70 0 125.5 -15t94.5 -40.5t59.5 -61t20.5 -75.5z
M337 784h-49l-118 145h62l99 -121l98 121h26z" />
    <glyph glyph-name="scaron" unicode="&#x161;" horiz-adv-x="466" 
d="M459 133q0 -30 -16 -55.5t-45 -44.5t-71 -29.5t-94 -10.5t-93.5 10.5t-71 29.5t-45.5 44.5t-16 55.5h132q0 -48 24.5 -80t69.5 -32t69.5 32t24.5 80t-24.5 80t-69.5 32q-47 0 -85 10.5t-65 29.5t-41.5 44.5t-14.5 55.5t14.5 55.5t41.5 44.5t65 29.5t85 10.5t85.5 -10.5
t65.5 -29.5t41.5 -44.5t14.5 -55.5h-132q0 48 -20 80t-55 32t-54.5 -32t-19.5 -80t19.5 -80t54.5 -32q52 0 94 -10.5t71 -29.5t45 -44.5t16 -55.5zM254 558h-42l-86 107h55l68 -84l68 84h23z" />
    <glyph glyph-name="Yacute" unicode="&#xdd;" horiz-adv-x="669" 
d="M400 282v-282h-132v282l-268 438h151l241 -391l242 391h35zM276 784h-30l115 145h142z" />
    <glyph glyph-name="yacute" unicode="&#xfd;" horiz-adv-x="502" 
d="M317 195v-195h-132v195l-185 323h150l160 -276l159 276h33zM216 558h-29l77 107h135z" />
    <glyph glyph-name="Thorn" unicode="&#xde;" horiz-adv-x="589" 
d="M420 390q0 42 -8 78t-24 62.5t-38.5 41.5t-52.5 15h-111v-393h111q30 0 52.5 15t38.5 41.5t24 62.5t8 77zM552 390q0 -48 -17.5 -89t-50.5 -71.5t-80 -48t-107 -17.5h-111v-164h-132v720h132v-103h111q60 0 107 -17.5t80 -48t50.5 -72t17.5 -89.5z" />
    <glyph glyph-name="thorn" unicode="&#xfe;" horiz-adv-x="451" 
d="M293 278q0 31 -4 57.5t-12.5 46t-20 30.5t-26.5 11h-59v-290h59q15 0 26.5 11t20 30.5t12.5 46t4 57.5zM425 278q0 -37 -13.5 -68.5t-39 -55t-61.5 -36.5t-81 -13h-59v-105h-132v518h132v-66h59q45 0 81 -13t61.5 -36.5t39 -55.5t13.5 -69z" />
    <glyph glyph-name="Zcaron" unicode="&#x17d;" horiz-adv-x="660" 
d="M45 0v30l419 660h-409v30h560v-30l-419 -660h419v-30h-570zM355 784h-50l-117 145h62l98 -121l99 121h25z" />
    <glyph glyph-name="zcaron" unicode="&#x17e;" horiz-adv-x="486" 
d="M32 0v28l271 462h-263v28h413v-28l-271 -462h271v-28h-421zM264 558h-42l-86 107h55l68 -84l68 84h23z" />
    <glyph glyph-name="onehalf" unicode="&#xbd;" horiz-adv-x="713" 
d="M339 0q0 37 12 65t34 49t53 35.5t70 25.5q32 9 52 38t20 77t-18 81.5t-52 33.5t-52 -33.5t-18 -81.5h-86q0 28 10.5 53t31 43t49.5 28.5t65 10.5t65 -10.5t49.5 -28.5t31 -43t10.5 -53q0 -29 -11 -49.5t-31 -36t-48.5 -27t-63.5 -21.5q-37 -10 -60.5 -44.5t-26.5 -91.5
h247v-20h-333zM100 0h-23l401 720h22zM98 305v395h-53v20h139v-415h-86z" />
    <glyph glyph-name="onequarter" unicode="&#xbc;" horiz-adv-x="672" 
d="M569 94v-94h-86v94h-242v20l170 260h57l-169 -260h184v301h86v-301h58v-20h-58zM100 0h-23l401 720h22zM98 305v395h-53v20h139v-415h-86z" />
    <glyph glyph-name="onesuperior" unicode="&#xb9;" horiz-adv-x="238" 
d="M98 305v395h-53v20h139v-415h-86z" />
    <glyph glyph-name="threequarters" unicode="&#xbe;" horiz-adv-x="804" 
d="M705 94v-94h-86v94h-242v20l169 260h58l-169 -260h184v301h86v-301h57v-20h-57zM232 0h-23l401 720h22zM368 409q0 -48 -45 -81t-125 -33t-125 33t-45 81h86q0 -39 22 -66.5t62 -27.5q41 0 62.5 27.5t21.5 66.5t-21.5 66.5t-62.5 27.5h-37v20h37q34 0 52.5 27t18.5 66
q0 40 -18.5 67t-52.5 27t-52 -27t-18 -67h-86q0 48 41.5 81t114.5 33q74 0 115.5 -33t41.5 -81q0 -35 -22 -62t-63 -40q48 -13 73 -41t25 -64z" />
    <glyph glyph-name="threesuperior" unicode="&#xb3;" horiz-adv-x="405" 
d="M368 409q0 -48 -45 -81t-125 -33t-125 33t-45 81h86q0 -39 22 -66.5t62 -27.5q41 0 62.5 27.5t21.5 66.5t-21.5 66.5t-62.5 27.5h-37v20h37q34 0 52.5 27t18.5 66q0 40 -18.5 67t-52.5 27t-52 -27t-18 -67h-86q0 48 41.5 81t114.5 33q74 0 115.5 -33t41.5 -81
q0 -35 -22 -62t-63 -40q48 -13 73 -41t25 -64z" />
    <glyph glyph-name="twosuperior" unicode="&#xb2;" horiz-adv-x="386" 
d="M22 305q0 74 46 114t123 61q32 9 52 38t20 77t-18 81.5t-52 33.5t-52 -33.5t-18 -81.5h-86q0 28 10.5 53t31 43t49.5 28.5t65 10.5t65 -10.5t49.5 -28.5t31 -43t10.5 -53t-11 -49t-31 -36.5t-48.5 -27t-63.5 -21.5q-37 -11 -60.5 -45t-26.5 -91h247v-20h-333z" />
    <glyph glyph-name="brokenbar" unicode="&#xa6;" horiz-adv-x="200" 
d="M54 -10v283h92v-283h-92zM54 447v283h92v-283h-92z" />
    <glyph glyph-name="minus" unicode="&#x2212;" 
d="M50 316v88h557v-88h-557z" />
    <glyph glyph-name="multiply" unicode="&#xd7;" 
d="M545 81l-217 217l-216 -217l-62 62l216 217l-216 217l62 62l216 -217l217 217l62 -62l-216 -217l216 -217z" />
    <glyph glyph-name="exclam" unicode="!" horiz-adv-x="233" 
d="M192 48q0 -14 -7 -25t-18 -18.5t-24.5 -11t-26.5 -3.5q-12 0 -25.5 3.5t-25 11t-18.5 18.5t-7 25q0 15 7 26t18.5 18.5t25 11t25.5 3.5q13 0 26.5 -3.5t24.5 -11t18 -18.5t7 -26zM131 191h-30l-51 529h132z" />
    <glyph glyph-name="quotedbl" unicode="&#x22;" horiz-adv-x="426" 
d="M65 408l-28 11l59 311l124 -45zM234 408l-28 11l59 311l124 -45z" />
    <glyph glyph-name="numbersign" unicode="#" horiz-adv-x="618" 
d="M260 446l-23 -172h121l23 172h-121zM474 446l-23 -172h99v-29l-103 -1l-32 -244h-93l33 244h-122l-32 -244h-93l32 244l-99 1v29h103l23 172h-99v29h103l32 245h93l-33 -245h122l32 245h93l-33 -245h99v-29h-102z" />
    <glyph glyph-name="dollar" unicode="$" horiz-adv-x="550" 
d="M526 233q0 -30 -16.5 -56t-47.5 -44.5t-74.5 -29.5t-97.5 -12v-91h-30v91q-54 1 -97.5 12t-74.5 29.5t-47.5 44.5t-16.5 56h132q0 -49 31 -80.5t88 -31.5t88 31.5t31 80.5t-31 80.5t-88 31.5q-54 0 -98 10.5t-75 29t-48 44.5t-17 58q0 30 15.5 55.5t45 44.5t70.5 29.5
t92 12.5v91h30v-91q51 -2 92 -12.5t70.5 -29.5t45 -44.5t15.5 -55.5h-131q0 49 -28 80.5t-79 31.5t-78.5 -31.5t-27.5 -80.5t27.5 -80.5t78.5 -31.5q57 0 103.5 -10.5t79 -29t50.5 -45t18 -57.5z" />
    <glyph glyph-name="percent" unicode="%" horiz-adv-x="937" 
d="M768 173q0 29 -5.5 56.5t-16 49t-26 34.5t-36.5 13t-36.5 -13t-26 -34.5t-16 -49t-5.5 -56.5t5.5 -56.5t16 -49t26 -34.5t36.5 -13t36.5 13t26 34.5t16 49t5.5 56.5zM900 173q0 -35 -13.5 -68t-40.5 -58.5t-67.5 -41t-94.5 -15.5t-94.5 15.5t-67.5 41t-40.5 58.5
t-13.5 68t13.5 68t40.5 58.5t67.5 41t94.5 15.5t94.5 -15.5t67.5 -41t40.5 -58.5t13.5 -68zM276 0h-34l416 720h35zM335 547q0 29 -5.5 56.5t-16 49t-26 34.5t-36.5 13t-36.5 -13t-26 -34.5t-16 -49t-5.5 -56.5t5.5 -56.5t16 -49t26 -34.5t36.5 -13t36.5 13t26 34.5t16 49
t5.5 56.5zM467 547q0 -35 -13.5 -68t-40.5 -58.5t-67.5 -41t-94.5 -15.5t-94 15.5t-67 41t-40 58.5t-13 68t13 68t40 58.5t67 41t94 15.5t94.5 -15.5t67.5 -41t40.5 -58.5t13.5 -68z" />
    <glyph glyph-name="ampersand" unicode="&#x26;" horiz-adv-x="874" 
d="M836 489q-7 -34 -23.5 -57t-43.5 -38t-65.5 -22.5t-89.5 -9.5q26 -3 55.5 -18.5t54.5 -39t41.5 -52.5t16.5 -60q0 -41 -21.5 -77.5t-66 -64t-112 -44t-160.5 -16.5t-164.5 13t-120.5 37t-74.5 57.5t-25.5 74.5q0 70 48 120t137 70q-78 20 -119 67.5t-41 107.5q0 41 19 76
t54 61t86 41t116 15q64 0 115.5 -15t86.5 -41t54 -61t19 -76h-132q0 34 -9.5 64t-27.5 52t-45 34.5t-61 12.5q-35 0 -61.5 -12.5t-44.5 -34.5t-27.5 -52t-9.5 -64t9.5 -63.5t27.5 -51.5t44.5 -34.5t61.5 -12.5v-30q-40 0 -71.5 -12.5t-53 -34.5t-32.5 -52t-11 -64t16 -63.5
t48 -51.5t79 -34.5t110 -12.5q54 0 96 15t70.5 40.5t44 58t17.5 68.5q1 38 -11.5 69.5t-33.5 53t-46.5 31t-50 3t-43.5 -31t-27 -71.5l-131 5q5 36 26 62.5t54 41.5t76.5 18t94.5 -7q30 -6 58 0.5t48.5 23t32 41t8.5 53.5l131 -5v0z" />
    <glyph glyph-name="quotesingle" unicode="'" horiz-adv-x="257" 
d="M65 408l-28 11l59 311l124 -45z" />
    <glyph glyph-name="parenleft" unicode="(" horiz-adv-x="323" 
d="M255 -232q-39 40 -77.5 94.5t-70 117t-51 130t-19.5 134.5t19.5 134.5t51 130t70 117t77.5 94.5l31 -6q-34 -44 -56.5 -99t-36 -116.5t-19 -126.5t-5.5 -128t5.5 -128t19 -126.5t36 -116.5t56.5 -99z" />
    <glyph glyph-name="parenright" unicode=")" horiz-adv-x="323" 
d="M286 244q0 -67 -19.5 -134.5t-50.5 -130t-70 -117t-77 -94.5l-32 6q34 44 56.5 99t36 116.5t19 126.5t5.5 128t-5.5 128t-19 126.5t-36 116.5t-56.5 99l32 6q38 -40 77 -94.5t70 -117t50.5 -130t19.5 -134.5z" />
    <glyph glyph-name="asterisk" unicode="*" horiz-adv-x="519" 
d="M284 500l154 -126l-107 -77l-71 185l-72 -185l-107 77l154 126l-198 10l41 126l167 -108l-51 192h132l-51 -192l166 108l41 -126z" />
    <glyph glyph-name="plus" unicode="+" 
d="M372 316v-235h-87v235h-235v88h234v235h88v-235h235v-88h-235z" />
    <glyph glyph-name="comma" unicode="," horiz-adv-x="226" 
d="M181 38l-66 -108l-28 -43l-26.5 -42t-23.5 -36t-18 -25l-28 10q1 12 3.5 31t6.5 42t8 48.5l8 50.5l21 124q3 15 13 26t24 17t30 6.5t31 -4.5t27 -16t19 -24.5t7.5 -28.5t-8.5 -28z" />
    <glyph glyph-name="hyphen" unicode="-" horiz-adv-x="343" 
d="M50 218v101h252v-101h-252z" />
    <glyph glyph-name="period" unicode="." horiz-adv-x="233" 
d="M192 48q0 -14 -7 -25t-18 -18.5t-24.5 -11t-26.5 -3.5q-12 0 -25.5 3.5t-25 11t-18.5 18.5t-7 25q0 15 7 26t18.5 18.5t25 11t25.5 3.5q13 0 26.5 -3.5t24.5 -11t18 -18.5t7 -26z" />
    <glyph glyph-name="slash" unicode="/" horiz-adv-x="316" 
d="M32 0h-32l284 720h32z" />
    <glyph glyph-name="zero" unicode="0" 
d="M484 360q0 30 -4 67t-12 75t-20.5 73.5t-30 63t-40 44.5t-49.5 17t-49 -17t-39.5 -44.5t-30 -63t-20.5 -73.5t-12 -75t-4 -67t4 -67t12 -75t20.5 -73.5t30 -63t39.5 -44.5t49 -17q28 0 50 17t39.5 44.5t30 63t20.5 73.5t12 75t4 67zM616 360q0 -72 -18 -139t-54 -118
t-90 -82t-126 -31q-71 0 -125 31t-90 82t-54 118t-18 139t18 139t54 118t90 82t125 31q72 0 126 -31t90 -82t54 -118t18 -139z" />
    <glyph glyph-name="one" unicode="1" 
d="M264 0v690h-93v30h225v-720h-132z" />
    <glyph glyph-name="two" unicode="2" 
d="M31 0q0 63 21 111t59 83.5t92 61t120 43.5q34 9 61.5 25.5t47.5 41t31 57t11 74.5q0 43 -9 80t-26.5 64.5t-43 43t-58.5 15.5t-58.5 -15.5t-43.5 -43t-27 -64.5t-9 -80h-132q0 49 18.5 91.5t53.5 74t85 49.5t113 18t112.5 -18t84.5 -49.5t53.5 -74t18.5 -91.5
q0 -48 -20 -83t-56 -61.5t-87 -46.5t-114 -37q-72 -20 -116.5 -79t-49.5 -160h463v-30h-595z" />
    <glyph glyph-name="three" unicode="3" 
d="M621 183q0 -41 -20 -76t-58 -61t-92.5 -41t-122.5 -15t-122 15t-92 41t-58 61t-20 76h132q0 -34 11 -64t31.5 -52t50 -34.5t67.5 -12.5t68 12.5t50.5 34.5t31.5 52t11 64t-11 63.5t-31.5 51.5t-50.5 34.5t-68 12.5h-64v30h64q33 0 58.5 12.5t43 34.5t26.5 51.5t9 63.5
t-9 64t-26.5 52t-43 34.5t-58.5 12.5t-58 -12.5t-42.5 -34.5t-26.5 -52t-9 -64h-132q0 41 18.5 76t53 61t84 41t112.5 15t113 -15t84.5 -41t53 -61t18.5 -76q0 -60 -40 -107.5t-115 -67.5q86 -20 132.5 -68t46.5 -111z" />
    <glyph glyph-name="four" unicode="4" 
d="M523 164v-164h-132v164h-357v29l249 452h78l-248 -452h278v527h132v-526h100v-30h-100z" />
    <glyph glyph-name="five" unicode="5" 
d="M615 239q0 -53 -19.5 -98t-56.5 -79t-90 -53t-119 -19q-67 0 -120 19t-90 53t-56.5 79t-19.5 98h132q0 -46 10.5 -86t30 -69.5t48 -46.5t65.5 -17q36 0 64.5 17t48 46.5t30 69.5t10.5 86t-10.5 86t-30 70t-48 47t-64.5 17q-54 0 -89 -37.5t-52 -97.5l-1 -2h-132l77 398
h455v-30h-330l-49 -249q21 22 59 35t77 13q65 0 115.5 -19.5t85 -53.5t52 -79.5t17.5 -97.5z" />
    <glyph glyph-name="six" unicode="6" 
d="M480 239q0 46 -10.5 86t-30 70t-48 47t-65.5 17t-65.5 -17t-48 -47t-30 -70t-10.5 -86t10.5 -86t30 -69.5t48 -46.5t65.5 -17t65.5 17t48 46.5t30 69.5t10.5 86zM612 239q0 -53 -19.5 -98t-56.5 -79t-90 -53t-120 -19q-80 0 -135 22t-90 63t-50.5 98.5t-15.5 129.5
q0 78 15 154t52 137t99 98.5t156 37.5q85 0 149 -37.5t105 -101.5l-95 -51q-10 33 -25 62.5t-34.5 51t-44.5 34t-55 12.5q-43 0 -76.5 -23t-56.5 -61.5t-35 -88t-12 -103.5v-5q22 32 67 51t97 19q67 0 117.5 -19t84.5 -53t51.5 -79.5t17.5 -98.5z" />
    <glyph glyph-name="seven" unicode="7" 
d="M265 0h-145l307 690h-329v30h474v-30z" />
    <glyph glyph-name="eight" unicode="8" 
d="M489 183q0 34 -11 63.5t-31.5 51.5t-50.5 34.5t-68 12.5t-67.5 -12.5t-50 -34.5t-31.5 -51.5t-11 -63.5t11 -64t31.5 -52t50 -34.5t67.5 -12.5t68 12.5t50.5 34.5t31.5 52t11 64zM465 537q0 34 -9 64t-26.5 52t-43 34.5t-58.5 12.5t-58 -12.5t-42.5 -34.5t-26.5 -52
t-9 -64t9 -63.5t26.5 -51.5t42.5 -34.5t58 -12.5t58.5 12.5t43 34.5t26.5 51.5t9 63.5zM621 183q0 -41 -20 -76t-58 -61t-92.5 -41t-122.5 -15t-122 15t-92 41t-58 61t-20 76q0 63 46.5 111t132.5 68q-75 20 -115 67.5t-40 107.5q0 41 18.5 76t53 61t84 41t112.5 15t113 -15
t84.5 -41t53 -61t18.5 -76q0 -60 -40 -107.5t-115 -67.5q86 -20 132.5 -68t46.5 -111z" />
    <glyph glyph-name="nine" unicode="9" 
d="M475 480q0 46 -10.5 86t-30 70t-48 47t-65.5 17t-65.5 -17t-48 -46.5t-30 -69.5t-10.5 -86t10.5 -86t30 -70t48 -47t65.5 -17t65.5 17t48 47t30 70t10.5 86v-1zM612 417q0 -78 -15.5 -154t-52.5 -137t-99 -98.5t-155 -37.5q-85 0 -149.5 37.5t-105.5 101.5l95 51
q10 -33 25 -62.5t35 -51t45 -34t55 -12.5q43 0 76.5 23t56.5 61.5t35 88t12 103.5v5q-23 -32 -67.5 -51t-96.5 -19q-67 0 -117.5 19t-84.5 53t-51.5 79t-17.5 98t19.5 98.5t56.5 79.5t90 53t120 19q79 0 134.5 -22t90.5 -63t50.5 -98.5t15.5 -129.5z" />
    <glyph glyph-name="colon" unicode=":" horiz-adv-x="233" 
d="M192 48q0 -14 -7 -25t-18 -18.5t-24.5 -11t-26.5 -3.5q-12 0 -25.5 3.5t-25 11t-18.5 18.5t-7 25q0 15 7 26t18.5 18.5t25 11t25.5 3.5q13 0 26.5 -3.5t24.5 -11t18 -18.5t7 -26zM192 470q0 -15 -7 -26t-18 -18.5t-24.5 -11t-26.5 -3.5q-12 0 -25.5 3.5t-25 11
t-18.5 18.5t-7 26q0 14 7 25t18.5 18.5t25 11t25.5 3.5q13 0 26.5 -3.5t24.5 -11t18 -18.5t7 -25z" />
    <glyph glyph-name="semicolon" unicode=";" horiz-adv-x="233" 
d="M191 38l-67 -108l-28 -43l-26.5 -42t-23.5 -36t-18 -25l-28 10q1 12 3.5 31t6.5 42t8 48.5l8 50.5l22 124q3 15 13 26t23.5 17t29.5 6.5t31 -4.5t27 -16t19 -24.5t7.5 -28.5t-7.5 -28zM192 470q0 -15 -7 -26t-18 -18.5t-24.5 -11t-26.5 -3.5q-12 0 -25.5 3.5t-25 11
t-18.5 18.5t-7 26q0 14 7 25t18.5 18.5t25 11t25.5 3.5q13 0 26.5 -3.5t24.5 -11t18 -18.5t7 -25z" />
    <glyph glyph-name="less" unicode="&#x3c;" 
d="M50 313v94l557 234v-94l-431 -187l431 -187v-94z" />
    <glyph glyph-name="equal" unicode="=" 
d="M50 208v88h557v-88h-557zM50 424v88h557v-88h-557z" />
    <glyph glyph-name="greater" unicode="&#x3e;" 
d="M50 79v94l431 187l-431 187v94l557 -234v-94z" />
    <glyph glyph-name="question" unicode="?" horiz-adv-x="586" 
d="M350 48q0 -14 -7 -25t-18.5 -18.5t-25 -11t-25.5 -3.5q-13 0 -26.5 3.5t-24.5 11t-18 18.5t-7 25q0 15 7 26t18 18.5t24.5 11t26.5 3.5q12 0 25.5 -3.5t25 -11t18.5 -18.5t7 -26zM549 548q0 -37 -15.5 -69t-45.5 -56t-72.5 -39t-96.5 -18l-30 -175h-30l-51 204
q53 1 92.5 9.5t65.5 26.5t38.5 47t12.5 70q0 32 -8.5 59.5t-24 48t-38.5 32.5t-53 12t-53 -12t-38.5 -32.5t-24 -48t-8.5 -59.5h-132q0 38 17.5 71.5t50.5 58t80.5 38.5t107.5 14t107.5 -14t80.5 -38.5t50.5 -58t17.5 -71.5z" />
    <glyph glyph-name="at" unicode="@" horiz-adv-x="797" 
d="M503 421q5 84 -20.5 121t-69.5 40q-33 2 -59.5 -27.5t-46 -72.5t-31 -90t-13.5 -80q-2 -35 -0.5 -67t8 -56t19 -39.5t31.5 -17.5q22 -3 42 5t36.5 23t29 36t20.5 45l27 88zM760 423q1 -37 -11 -77t-32 -78q-15 -27 -36 -55t-46.5 -50t-54 -35.5t-58.5 -13.5
q-30 1 -41.5 14t-13.5 29v12.5t1 14.5h-2q-10 -15 -26 -29t-37 -24.5t-46 -15t-52 -1.5q-26 3 -48 16.5t-38 38.5t-23.5 62.5t-3.5 89.5q3 42 15.5 92.5t38 93.5t64.5 70.5t96 23.5q39 -2 73 -23t45 -57h2l20 68h61l-89 -323q-3 -9 -5.5 -21l-5 -24l-4.5 -22t-2 -15
q-2 -19 2 -36t19 -17q12 0 23.5 5.5t21.5 14.5t19.5 20l17.5 21q17 20 32 48t25.5 59t17 63t7.5 61q1 69 -17 124t-53.5 93t-87 58t-116.5 20t-119 -28t-93.5 -76t-62.5 -113t-26 -138q-3 -84 18.5 -150t61.5 -112t96.5 -71.5t124.5 -26.5q46 -1 88.5 11t79.5 34.5t65.5 53
t46.5 67.5h62q-22 -42 -61.5 -76t-87 -58.5t-98 -37.5t-95.5 -12q-84 2 -154 29t-120 76t-76.5 118t-24.5 155q2 79 31.5 147t79.5 118t118 78.5t146 28.5q69 0 131.5 -21t110.5 -61.5t76.5 -98.5t29.5 -131z" />
    <glyph glyph-name="A" unicode="A" horiz-adv-x="615" 
d="M254 658l-137 -401h274zM477 0l-76 227h-293l-77 -227h-31l241 720h132l242 -720h-138z" />
    <glyph glyph-name="B" unicode="B" horiz-adv-x="623" 
d="M454 190q0 34 -9.5 63t-28.5 50.5t-46 34t-61 12.5h-123v-320h123q34 0 61 12.5t46 34t28.5 50.5t9.5 63zM428 535q0 32 -8 60.5t-23 49.5t-37.5 33t-50.5 12h-123v-310h123q28 0 50.5 12t37.5 33t23 49.5t8 60.5zM586 190q0 -40 -19 -75t-55 -60.5t-87.5 -40
t-115.5 -14.5h-255v720h255q58 0 105 -14.5t79 -39.5t49.5 -58.5t17.5 -72.5q0 -57 -36.5 -101.5t-104.5 -64.5q81 -19 124 -67.5t43 -111.5z" />
    <glyph glyph-name="C" unicode="C" horiz-adv-x="729" 
d="M692 190q-38 -90 -118 -145t-193 -55q-81 0 -144.5 28.5t-108 78.5t-68 117.5t-23.5 145.5t23.5 145.5t68 117.5t108 78.5t144.5 28.5q113 0 193 -55t118 -145h-123q-11 35 -28 66t-40.5 54t-53 36.5t-66.5 13.5q-39 0 -70 -16t-54.5 -43t-40 -61.5t-27 -72.5t-15.5 -76
t-5 -71q0 -50 11 -109t36.5 -110.5t65.5 -86t99 -34.5q37 0 66.5 13.5t53 36.5t40.5 54t28 66h123v0z" />
    <glyph glyph-name="D" unicode="D" horiz-adv-x="730" 
d="M561 360q0 69 -12.5 129.5t-37 105t-60.5 70t-84 25.5h-181v-660h181q48 0 84 25.5t60.5 70t37 105t12.5 129.5zM693 360q0 -76 -22 -141.5t-63.5 -114t-102 -76.5t-138.5 -28h-313v720h313q78 0 138.5 -28t102 -76.5t63.5 -114t22 -141.5z" />
    <glyph glyph-name="E" unicode="E" horiz-adv-x="600" 
d="M54 0v720h491v-30h-359v-300h252v-30h-252v-330h369v-30h-501z" />
    <glyph glyph-name="F" unicode="F" horiz-adv-x="597" 
d="M186 690v-300h252v-30h-252v-360h-132v720h493v-30h-361z" />
    <glyph glyph-name="G" unicode="G" horiz-adv-x="737" 
d="M692 190q-38 -90 -118 -145t-193 -55q-81 0 -144.5 28.5t-108 78.5t-68 117.5t-23.5 145.5t23.5 145.5t68 117.5t108 78.5t144.5 28.5q113 0 193 -55t118 -145h-123q-11 35 -28 66t-40.5 54t-53 36.5t-66.5 13.5q-39 0 -70 -16t-54.5 -43t-40 -61.5t-27 -72.5t-15.5 -76
t-5 -71q0 -50 11 -109t36.5 -110.5t65.5 -86t99 -34.5q37 0 66.5 13.5t53 36.5t40.5 54t28 66v117h-188v30h311v-147z" />
    <glyph glyph-name="H" unicode="H" horiz-adv-x="680" 
d="M494 0v360h-308v-360h-132v720h132v-330h308v330h132v-720h-132z" />
    <glyph glyph-name="I" unicode="I" horiz-adv-x="240" 
d="M54 0v720h132v-720h-132z" />
    <glyph glyph-name="J" unicode="J" horiz-adv-x="240" 
d="M186 73q0 -41 -20 -76t-57.5 -61t-91.5 -41t-122 -15v30q38 0 67.5 12.5t50 34.5t31 52t10.5 64v647h132v-647v0z" />
    <glyph glyph-name="K" unicode="K" horiz-adv-x="611" 
d="M464 0l-278 354v-354h-132v720h132v-366l382 366h43l-313 -295l327 -425h-161z" />
    <glyph glyph-name="L" unicode="L" horiz-adv-x="590" 
d="M54 0v720h132v-690h359v-30h-491z" />
    <glyph glyph-name="M" unicode="M" horiz-adv-x="860" 
d="M674 0v616l-225 -616h-132l-224 616v-616h-39v720h145l237 -659l238 659h132v-720h-132z" />
    <glyph glyph-name="N" unicode="N" horiz-adv-x="664" 
d="M478 0l-385 615v-615h-39v720h132l385 -615v615h39v-720h-132z" />
    <glyph glyph-name="O" unicode="O" horiz-adv-x="761" 
d="M592 360q0 33 -5 71t-15 76t-27 72.5t-40 61.5t-54 43t-70 16t-70 -16t-54.5 -43t-40 -61.5t-27 -72.5t-15.5 -76t-5 -71q0 -50 11 -109t36.5 -110.5t65.5 -86t99 -34.5q58 0 98.5 34.5t65.5 86t36 110.5t11 109zM724 360q0 -78 -23.5 -145.5t-68 -117.5t-108 -78.5
t-143.5 -28.5q-81 0 -144.5 28.5t-108 78.5t-68 117.5t-23.5 145.5t23.5 145.5t68 117.5t108 78.5t144.5 28.5q80 0 143.5 -28.5t108 -78.5t68 -117.5t23.5 -145.5z" />
    <glyph glyph-name="P" unicode="P" horiz-adv-x="589" 
d="M420 494q0 41 -8 77t-24 62.5t-38.5 41.5t-52.5 15h-111v-393h111q30 0 52.5 15t38.5 41.5t24 62.5t8 78zM552 494q0 -48 -17.5 -89.5t-50.5 -72t-80 -48t-107 -17.5h-111v-267h-132v720h243q60 0 107 -17.5t80 -48t50.5 -71.5t17.5 -89z" />
    <glyph glyph-name="Q" unicode="Q" horiz-adv-x="761" 
d="M467 52q-54 45 -109 46t-99 -31q23 -22 53.5 -34.5t68.5 -12.5q25 0 46.5 8.5t39.5 23.5zM592 360q0 33 -5 71t-15 76t-27 72.5t-40 61.5t-54 43t-70 16t-70 -16t-54.5 -43t-40 -61.5t-27 -72.5t-15.5 -76t-5 -71q0 -48 12.5 -93t38.5 -80q54 26 124.5 3.5t142.5 -100.5
q27 23 47 54.5t33 67.5t19 74t6 74zM814 -96q-31 -23 -68.5 -27.5t-78 8t-83 43.5t-82.5 81q-28 -9 -58 -14t-63 -5q-81 0 -144.5 28.5t-108 78.5t-68 117.5t-23.5 145.5t23.5 145.5t68 117.5t108 78.5t144.5 28.5q80 0 143.5 -28.5t108 -78.5t68 -117.5t23.5 -145.5
q0 -56 -12 -107t-35.5 -94t-57.5 -76.5t-78 -55.5q54 -43 110 -43t98 35l65 -115v0z" />
    <glyph glyph-name="R" unicode="R" horiz-adv-x="588" 
d="M424 494q0 41 -8 77t-24 62.5t-38.5 41.5t-52.5 15h-115v-393h115q30 0 52.5 15t38.5 41.5t24 62.5t8 78zM424 0v105q0 34 -10 63.5t-29.5 51.5t-48 34.5t-65.5 12.5h-85v-267h-132v720h247q60 0 107 -17.5t80 -48t50.5 -71.5t17.5 -89q0 -38 -11 -72t-32.5 -62
t-52.5 -48t-71 -30q81 -21 124 -68.5t43 -108.5v-105h-132z" />
    <glyph glyph-name="S" unicode="S" horiz-adv-x="625" 
d="M612 183q0 -41 -20.5 -76t-59.5 -61t-94.5 -41t-125.5 -15t-125.5 15t-94.5 41t-59.5 61t-20.5 76h132q0 -34 11 -64t32.5 -52t53 -34.5t71.5 -12.5t71.5 12.5t53 34.5t32.5 52t11 64t-11 63.5t-32.5 51.5t-53 34.5t-71.5 12.5q-64 0 -115 15t-86.5 41t-54.5 61t-19 76
q0 40 19 75.5t54.5 61t86.5 40.5t115 15t115.5 -15t87 -40.5t54.5 -61t19 -75.5h-132q0 34 -9.5 63.5t-28 51.5t-45.5 34.5t-61 12.5t-60.5 -12.5t-45 -34.5t-28 -51.5t-9.5 -63.5t9.5 -64t28 -52t45 -34.5t60.5 -12.5q70 0 125.5 -15t94.5 -40.5t59.5 -61t20.5 -75.5z" />
    <glyph glyph-name="T" unicode="T" horiz-adv-x="643" 
d="M387 690v-690h-131v690h-246v30h623v-30h-246z" />
    <glyph glyph-name="U" unicode="U" horiz-adv-x="707" 
d="M653 281q0 -65 -17.5 -118.5t-54 -92t-92 -59.5t-130.5 -21q-70 0 -126.5 22t-96 61t-61 92.5t-21.5 115.5v439h132v-439q0 -55 14.5 -102.5t42 -83t67 -55.5t90.5 -20q54 0 94.5 21.5t67 58t39.5 83.5t13 98v439h39v-439v0z" />
    <glyph glyph-name="V" unicode="V" horiz-adv-x="615" 
d="M373 0h-132l-241 720h138l223 -658l222 658h32z" />
    <glyph glyph-name="W" unicode="W" horiz-adv-x="977" 
d="M736 0h-132l-115 336l-116 -336h-132l-241 720h138l223 -658l112 327l-111 331h138l223 -658l223 658h31z" />
    <glyph glyph-name="X" unicode="X" horiz-adv-x="659" 
d="M386 398l278 -398h-160l-210 299l-253 -299h-41l276 325l-276 395h160l209 -297l250 297h41z" />
    <glyph glyph-name="Y" unicode="Y" horiz-adv-x="669" 
d="M400 282v-282h-132v282l-268 438h151l241 -391l242 391h35z" />
    <glyph glyph-name="Z" unicode="Z" horiz-adv-x="660" 
d="M45 0v30l419 660h-409v30h560v-30l-419 -660h419v-30h-570z" />
    <glyph glyph-name="bracketleft" unicode="[" horiz-adv-x="357" 
d="M54 -232v952h258v-30h-126v-892h126v-30h-258z" />
    <glyph glyph-name="backslash" unicode="\" horiz-adv-x="316" 
d="M284 0l-284 720h32l284 -720h-32z" />
    <glyph glyph-name="bracketright" unicode="]" horiz-adv-x="357" 
d="M45 -232v30h126v892h-126v30h258v-952h-258z" />
    <glyph glyph-name="asciicircum" unicode="^" horiz-adv-x="629" 
d="M454 156l-184 373l-183 -373h-34l201 408h121l200 -408h-121z" />
    <glyph glyph-name="underscore" unicode="_" horiz-adv-x="500" 
d="M0 -84v30h500v-30h-500z" />
    <glyph glyph-name="grave" unicode="`" horiz-adv-x="0" 
d="M392 586l-227 145h142l115 -145h-30z" />
    <glyph glyph-name="a" unicode="a" horiz-adv-x="455" 
d="M174 458l-86 -270h171zM318 0l-50 160h-188l-50 -160h-30l162 518h132l161 -518h-137z" />
    <glyph glyph-name="b" unicode="b" horiz-adv-x="467" 
d="M308 137q0 47 -23 77.5t-63 30.5h-51v-217h51q40 0 63 30.5t23 78.5zM288 381q0 46 -17.5 77.5t-48.5 31.5h-51v-217h51q31 0 48.5 31.5t17.5 76.5zM440 137q0 -30 -15.5 -55t-44 -43t-68.5 -28.5t-90 -10.5h-183v518h183q45 0 82 -10.5t62.5 -29t39.5 -43.5t14 -54
q0 -40 -26 -71t-74 -47q57 -15 88.5 -49t31.5 -77z" />
    <glyph glyph-name="c" unicode="c" horiz-adv-x="537" 
d="M511 140q-29 -67 -88 -107t-143 -40q-58 0 -105 20t-80 56t-50.5 84.5t-17.5 105.5t17.5 105.5t50.5 84.5t80 56t105 20q84 0 143 -40t88 -107h-123q-6 24 -15.5 45.5t-23 38t-30.5 26t-39 9.5q-36 0 -59 -27t-37 -64.5t-19.5 -78t-5.5 -68.5t5.5 -68.5t19.5 -78
t37 -64.5t59 -27q22 0 39 9.5t30.5 26t23 38t15.5 45.5h123v0z" />
    <glyph glyph-name="d" unicode="d" horiz-adv-x="536" 
d="M378 259q0 49 -7.5 91.5t-21.5 73.5t-34.5 48.5t-46.5 17.5h-97v-462h97q26 0 46.5 17.5t34.5 48.5t21.5 73.5t7.5 91.5zM510 259q0 -56 -17 -103t-48.5 -82t-76 -54.5t-100.5 -19.5h-229v518h229q56 0 100.5 -19.5t76 -54.5t48.5 -82.5t17 -102.5z" />
    <glyph glyph-name="e" unicode="e" horiz-adv-x="448" 
d="M39 0v518h370v-28h-238v-206h158v-28h-158v-228h245v-28h-377z" />
    <glyph glyph-name="f" unicode="f" horiz-adv-x="447" 
d="M171 490v-206h158v-28h-158v-256h-132v518h371v-28h-239z" />
    <glyph glyph-name="g" unicode="g" horiz-adv-x="547" 
d="M511 140q-29 -67 -88 -107t-143 -40q-58 0 -105 20t-80 56t-50.5 84.5t-17.5 105.5t17.5 105.5t50.5 84.5t80 56t105 20q84 0 143 -40t88 -107h-123q-6 24 -15.5 45.5t-23 38t-30.5 26t-39 9.5q-36 0 -59 -27t-37 -64.5t-19.5 -78t-5.5 -68.5t5.5 -68.5t19.5 -78
t37 -64.5t59 -27q22 0 39 9.5t30.5 26t23 38t15.5 45.5v74h-108v28h231v-102z" />
    <glyph glyph-name="h" unicode="h" horiz-adv-x="529" 
d="M358 0v256h-187v-256h-132v518h132v-234h187v234h132v-518h-132z" />
    <glyph glyph-name="i" unicode="i" horiz-adv-x="210" 
d="M39 0v518h132v-518h-132z" />
    <glyph glyph-name="j" unicode="j" horiz-adv-x="210" 
d="M171 54q0 -30 -15.5 -55.5t-45 -44.5t-70.5 -29.5t-92 -10.5v28q43 0 67 32t24 80v464h132v-464v0z" />
    <glyph glyph-name="k" unicode="k" horiz-adv-x="495" 
d="M344 0l-173 235v-235h-132v518h132v-283l284 283h40l-214 -211l223 -307h-160z" />
    <glyph glyph-name="l" unicode="l" horiz-adv-x="427" 
d="M39 0v518h132v-490h223v-28h-355z" />
    <glyph glyph-name="m" unicode="m" horiz-adv-x="654" 
d="M483 0v417l-138 -417h-132l-137 418v-418h-37v518h145l149 -458l150 458h132v-518h-132z" />
    <glyph glyph-name="n" unicode="n" horiz-adv-x="490" 
d="M319 0l-243 415v-415h-37v518h132l243 -415v415h37v-518h-132z" />
    <glyph glyph-name="o" unicode="o" horiz-adv-x="560" 
d="M402 259q0 28 -5.5 68.5t-19.5 78t-37.5 64.5t-59.5 27t-59 -27t-37 -64.5t-19.5 -78t-5.5 -68.5t5.5 -68.5t19.5 -78t37 -64.5t59 -27t59.5 27t37.5 64.5t19.5 78t5.5 68.5zM534 259q0 -57 -18 -105.5t-51 -84.5t-80 -56t-105 -20t-105 20t-80 56t-50.5 84.5
t-17.5 105.5t17.5 105.5t50.5 84.5t80 56t105 20t105 -20t80 -56t51 -84.5t18 -105.5z" />
    <glyph glyph-name="p" unicode="p" horiz-adv-x="451" 
d="M293 345q0 31 -4 57.5t-12.5 46t-20 30.5t-26.5 11h-59v-290h59q15 0 26.5 11t20 30.5t12.5 46t4 57.5zM425 345q0 -38 -13.5 -69.5t-39 -55t-61.5 -36.5t-81 -13h-59v-171h-132v518h191q45 0 81 -13t61.5 -36.5t39 -55t13.5 -68.5z" />
    <glyph glyph-name="q" unicode="q" horiz-adv-x="560" 
d="M336 49q-28 20 -60 19.5t-61 -18.5q27 -29 65 -29q17 0 31 7.5t25 20.5zM402 259q0 28 -5.5 68.5t-19.5 78t-37.5 64.5t-59.5 27t-59 -27t-37 -64.5t-19.5 -78t-5.5 -68.5q0 -22 4.5 -45t15.5 -43q38 11 84 -9t90 -74q26 37 37.5 85.5t11.5 85.5zM592 -85
q-24 -15 -51.5 -16.5t-56.5 10.5t-58 36.5t-56 61.5q-42 -14 -90 -14q-58 0 -105 20t-80 56t-50.5 84.5t-17.5 105.5t17.5 105.5t50.5 84.5t80 56t105 20t105 -20t80 -56t51 -84.5t18 -105.5q0 -78 -33 -140t-93 -94q29 -18 61 -16t60 21l63 -115v0z" />
    <glyph glyph-name="r" unicode="r" horiz-adv-x="458" 
d="M305 345q0 31 -4 57.5t-12.5 46t-20 30.5t-26.5 11h-71v-290h71q15 0 26.5 11t20 30.5t12.5 46t4 57.5zM305 0v59q0 48 -20.5 80t-57.5 32h-56v-171h-132v518h203q45 0 81 -13t61.5 -36.5t39 -55t13.5 -68.5q0 -56 -30 -98.5t-85 -60.5q55 -17 85 -50t30 -77v-59h-132z
" />
    <glyph glyph-name="s" unicode="s" horiz-adv-x="466" 
d="M459 133q0 -30 -16 -55.5t-45 -44.5t-71 -29.5t-94 -10.5t-93.5 10.5t-71 29.5t-45.5 44.5t-16 55.5h132q0 -48 24.5 -80t69.5 -32t69.5 32t24.5 80t-24.5 80t-69.5 32q-47 0 -85 10.5t-65 29.5t-41.5 44.5t-14.5 55.5t14.5 55.5t41.5 44.5t65 29.5t85 10.5t85.5 -10.5
t65.5 -29.5t41.5 -44.5t14.5 -55.5h-132q0 48 -20 80t-55 32t-54.5 -32t-19.5 -80t19.5 -80t54.5 -32q52 0 94 -10.5t71 -29.5t45 -44.5t16 -55.5z" />
    <glyph glyph-name="t" unicode="t" horiz-adv-x="477" 
d="M304 490v-490h-132v490h-165v28h462v-28h-165z" />
    <glyph glyph-name="u" unicode="u" horiz-adv-x="533" 
d="M494 204q0 -98 -53 -154.5t-169 -56.5q-52 0 -95 15.5t-73.5 43.5t-47.5 67t-17 85v314h132v-314q0 -39 10 -72.5t28.5 -58t45 -38.5t59.5 -14q37 0 64 15.5t44.5 41t26 58.5t8.5 68v314h37v-314v0z" />
    <glyph glyph-name="v" unicode="v" horiz-adv-x="455" 
d="M294 0h-132l-162 518h137l145 -458l144 458h29z" />
    <glyph glyph-name="w" unicode="w" horiz-adv-x="730" 
d="M568 0h-132l-71 224l-71 -224h-132l-162 518h137l145 -458l68 215l-75 243h137l144 -458l144 458h30z" />
    <glyph glyph-name="x" unicode="x" horiz-adv-x="510" 
d="M312 297l204 -297h-160l-138 200l-179 -200h-39l202 224l-202 294h159l136 -197l176 197h40z" />
    <glyph glyph-name="y" unicode="y" horiz-adv-x="502" 
d="M317 195v-195h-132v195l-185 323h150l160 -276l159 276h33z" />
    <glyph glyph-name="z" unicode="z" horiz-adv-x="486" 
d="M32 0v28l271 462h-263v28h413v-28l-271 -462h271v-28h-421z" />
    <glyph glyph-name="braceleft" unicode="{" horiz-adv-x="387" 
d="M208 -232q-22 0 -41.5 13.5t-34.5 35t-23.5 49.5t-8.5 57v210q0 17 -3.5 34t-10 31t-17 22.5t-24.5 8.5v30q14 0 24.5 8.5t17 22.5t10 31t3.5 34v210q0 29 8.5 57t23.5 49.5t34.5 35t41.5 13.5h134v-30h-51q-16 0 -27.5 -13t-18.5 -33.5t-10 -45.5t-3 -48v-200
q0 -33 -11.5 -63.5t-37.5 -42.5q26 -12 37.5 -42.5t11.5 -63.5v-200q0 -23 3 -48t10 -45.5t18.5 -33.5t27.5 -13h51v-30h-134z" />
    <glyph glyph-name="bar" unicode="|" horiz-adv-x="200" 
d="M54 -10v740h92v-740h-92z" />
    <glyph glyph-name="braceright" unicode="}" horiz-adv-x="387" 
d="M342 229q-14 0 -24.5 -8.5t-17.5 -22.5t-10 -31t-3 -34v-210q0 -29 -8.5 -57t-23.5 -49.5t-34.5 -35t-41.5 -13.5h-134v30h51q16 0 27.5 13t18.5 33.5t10 45.5t3 48v200q0 33 11.5 63.5t38.5 42.5q-27 12 -38.5 42.5t-11.5 63.5v200q0 23 -3 48t-10 45.5t-18.5 33.5
t-27.5 13h-51v30h134q22 0 41.5 -13.5t34.5 -35t23.5 -49.5t8.5 -57v-210q0 -17 3 -34t10 -31t17.5 -22.5t24.5 -8.5v-30v0z" />
    <glyph glyph-name="asciitilde" unicode="~" horiz-adv-x="615" 
d="M587 360q-17 -33 -49 -46.5t-67 -13.5q-36 0 -68.5 10.5t-61.5 23.5l-54.5 23.5t-48.5 10.5q-29 0 -53 -19t-37 -43l-118 60q17 32 49 46t67 14q36 0 68.5 -10.5t61.5 -23.5l54.5 -23.5t48.5 -10.5q29 0 53 18.5t37 43.5l118 -60v0z" />
    <glyph glyph-name="Adieresis" unicode="&#xc4;" horiz-adv-x="615" 
d="M254 658l-137 -401h274zM477 0l-76 227h-293l-77 -227h-31l241 720h132l242 -720h-138zM258 821q0 -11 -5.5 -20t-14.5 -15t-19.5 -9t-20.5 -3q-20 0 -39.5 12t-19.5 35t19.5 34.5t39.5 11.5t40 -12t20 -34zM478 821q0 -11 -5.5 -20t-14.5 -15t-19.5 -9t-20.5 -3t-20.5 3
t-19.5 9t-14.5 15t-5.5 20t5.5 19.5t14.5 14.5t19.5 9t20.5 3t20.5 -3t19.5 -9t14.5 -14.5t5.5 -19.5z" />
    <glyph glyph-name="Aring" unicode="&#xc5;" horiz-adv-x="615" 
d="M254 658l-137 -401h274zM384 857q0 10 -3.5 25.5t-12.5 30t-23.5 24.5t-36.5 10q-23 0 -37.5 -10t-23.5 -24.5t-12.5 -30t-3.5 -25.5q0 -11 3.5 -26.5t12.5 -29.5t23.5 -24t37.5 -10q22 0 36.5 10t23.5 24t12.5 29.5t3.5 26.5zM477 0l-76 227h-293l-77 -227h-31l241 720
h132l242 -720h-138zM442 857q0 -49 -38.5 -78t-95.5 -29q-58 0 -96 29t-38 78q0 48 38 77t96 29q57 0 95.5 -29t38.5 -77z" />
    <glyph glyph-name="Ccedilla" unicode="&#xc7;" horiz-adv-x="729" 
d="M692 190q-34 -80 -100 -132t-161 -63l-52 -73q6 1 12.5 1.5t14.5 0.5q72 -2 117.5 -24t45.5 -54q0 -16 -13 -30.5t-35.5 -25t-54.5 -16.5t-69 -6q-44 0 -79 11l28 38q16 -24 51 -24q29 0 45 15.5t16 37.5t-16 37.5t-45 15.5q-19 0 -30 -6.5t-21 -17.5l-73 44l55 76
q-69 9 -123 40t-91.5 79.5t-57 111.5t-19.5 134q0 78 23.5 145.5t68 117.5t108 78.5t144.5 28.5q113 0 193 -55t118 -145h-123q-11 35 -28 66t-40.5 54t-53 36.5t-66.5 13.5q-39 0 -70 -16t-54.5 -43t-40 -61.5t-27 -72.5t-15.5 -76t-5 -71q0 -50 11 -109t36.5 -110.5
t65.5 -86t99 -34.5q37 0 66.5 13.5t53 36.5t40.5 54t28 66h123v0z" />
    <glyph glyph-name="Eacute" unicode="&#xc9;" horiz-adv-x="597" 
d="M54 0v720h490v-30h-358v-300h296v-30h-296v-330h366v-30h-498zM187 784h-30l115 145h142z" />
    <glyph glyph-name="Ntilde" unicode="&#xd1;" horiz-adv-x="664" 
d="M541 826q-13 -28 -37 -40t-50 -12t-50.5 9t-47 20.5t-42.5 20.5t-35 9q-22 0 -39.5 -15.5t-27.5 -37.5l-88 46q13 29 36.5 41t49.5 12q25 0 50 -9.5t48 -20.5l42.5 -20.5t34.5 -9.5q22 0 40 15.5t28 38.5l88 -47v0zM478 0l-385 615v-615h-39v720h132l385 -615v615h39
v-720h-132z" />
    <glyph glyph-name="Odieresis" unicode="&#xd6;" horiz-adv-x="761" 
d="M592 360q0 33 -5 71t-15 76t-27 72.5t-40 61.5t-54 43t-70 16t-70 -16t-54.5 -43t-40 -61.5t-27 -72.5t-15.5 -76t-5 -71q0 -50 11 -109t36.5 -110.5t65.5 -86t99 -34.5q58 0 98.5 34.5t65.5 86t36 110.5t11 109zM724 360q0 -78 -23.5 -145.5t-68 -117.5t-108 -78.5
t-143.5 -28.5q-81 0 -144.5 28.5t-108 78.5t-68 117.5t-23.5 145.5t23.5 145.5t68 117.5t108 78.5t144.5 28.5q80 0 143.5 -28.5t108 -78.5t68 -117.5t23.5 -145.5zM331 821q0 -11 -5.5 -20t-14.5 -15t-19.5 -9t-20.5 -3t-20.5 3t-19.5 9t-14.5 15t-5.5 20t5.5 19.5
t14.5 14.5t19.5 9t20.5 3t20.5 -3t19.5 -9t14.5 -14.5t5.5 -19.5zM550 821q0 -23 -19.5 -35t-39.5 -12q-10 0 -20.5 3t-19.5 9t-14.5 15t-5.5 20q0 22 20 34t40 12t39.5 -11.5t19.5 -34.5z" />
    <glyph glyph-name="Udieresis" unicode="&#xdc;" horiz-adv-x="707" 
d="M653 281q0 -65 -17.5 -118.5t-54 -92t-92 -59.5t-130.5 -21q-70 0 -126.5 22t-96 61t-61 92.5t-21.5 115.5v439h132v-439q0 -55 14.5 -102.5t42 -83t67 -55.5t90.5 -20q54 0 94.5 21.5t67 58t39.5 83.5t13 98v439h39v-439v0zM327 821q0 -11 -5.5 -20t-14.5 -15t-19.5 -9
t-20.5 -3q-20 0 -39.5 12t-19.5 35t19.5 34.5t39.5 11.5t40 -12t20 -34zM547 821q0 -11 -5.5 -20t-14.5 -15t-19.5 -9t-20.5 -3t-20.5 3t-19.5 9t-14.5 15t-5.5 20t5.5 19.5t14.5 14.5t19.5 9t20.5 3t20.5 -3t19.5 -9t14.5 -14.5t5.5 -19.5z" />
    <glyph glyph-name="aacute" unicode="&#xe1;" horiz-adv-x="455" 
d="M174 458l-86 -270h171zM318 0l-50 160h-188l-50 -160h-30l162 518h132l161 -518h-137zM190 558h-28l76 107h136z" />
    <glyph glyph-name="agrave" unicode="&#xe0;" horiz-adv-x="455" 
d="M174 458l-86 -270h171zM318 0l-50 160h-188l-50 -160h-30l162 518h132l161 -518h-137zM264 558l-184 107h136l76 -107h-28z" />
    <glyph glyph-name="acircumflex" unicode="&#xe2;" horiz-adv-x="455" 
d="M174 458l-86 -270h171zM318 0l-50 160h-188l-50 -160h-30l162 518h132l161 -518h-137zM264 558l-68 84l-68 -84h-23l86 107h73l87 -107h-87z" />
    <glyph glyph-name="adieresis" unicode="&#xe4;" horiz-adv-x="455" 
d="M174 458l-86 -270h171zM318 0l-50 160h-188l-50 -160h-30l162 518h132l161 -518h-137zM194 593q0 -20 -19 -31t-37 -11t-37 11t-19 31q0 21 19 31.5t37 10.5t37 -10.5t19 -31.5zM374 593q0 -20 -19 -31t-37 -11t-37 11t-19 31q0 21 19 31.5t37 10.5t37 -10.5t19 -31.5z
" />
    <glyph glyph-name="atilde" unicode="&#xe3;" horiz-adv-x="455" 
d="M388 586q-9 -20 -26.5 -27.5t-36.5 -7.5q-18 0 -37 6t-36 13.5l-30.5 13.5t-21.5 6q-14 0 -26 -11.5t-18 -25.5l-88 46q9 19 26 27t36 8t38 -6.5t36 -14l30 -13.5t21 -6q15 0 26.5 12t18.5 26l88 -46v0zM174 458l-86 -270h171zM318 0l-50 160h-188l-50 -160h-30l162 518
h132l161 -518h-137z" />
    <glyph glyph-name="aring" unicode="&#xe5;" horiz-adv-x="455" 
d="M174 458l-86 -270h171zM286 625q0 6 -2 17.5t-8 23t-17.5 20t-30.5 8.5q-20 0 -31.5 -8.5t-17.5 -20t-8 -23t-2 -17.5t2 -17.5t8 -23t17.5 -20t31.5 -8.5q19 0 30.5 8.5t17.5 20t8 23t2 17.5zM318 0l-50 160h-188l-50 -160h-30l162 518h132l161 -518h-137zM340 625
q0 -39 -32 -61t-80 -22t-80 22t-32 61t32 61t80 22t80 -22t32 -61z" />
    <glyph glyph-name="ccedilla" unicode="&#xe7;" horiz-adv-x="537" 
d="M511 140q-24 -57 -70 -94t-112 -48l-40 -58h15q30 0 55.5 -5t44.5 -13.5t29.5 -19t10.5 -22.5t-11.5 -23t-31.5 -19.5t-47.5 -13t-58.5 -4.5q-34 0 -61 6l26 37q10 -20 35 -20q17 0 28.5 11t11.5 26t-11.5 26t-28.5 11q-14 0 -21 -5t-14 -14l-71 42l41 58q-48 8 -85.5 31
t-63.5 57.5t-40 78.5t-14 94q0 57 17.5 105.5t50.5 84.5t80 56t105 20q84 0 143 -40t88 -107h-123q-6 24 -15.5 45.5t-23 38t-30.5 26t-39 9.5q-36 0 -59 -27t-37 -64.5t-19.5 -78t-5.5 -68.5t5.5 -68.5t19.5 -78t37 -64.5t59 -27q22 0 39 9.5t30.5 26t23 38t15.5 45.5h123
v0z" />
    <glyph glyph-name="eacute" unicode="&#xe9;" horiz-adv-x="445" 
d="M39 0v518h368v-28h-236v-206h205v-28h-205v-228h242v-28h-374zM140 558h-28l76 107h136z" />
    <glyph glyph-name="egrave" unicode="&#xe8;" horiz-adv-x="448" 
d="M39 0v518h370v-28h-238v-206h158v-28h-158v-228h245v-28h-377zM295 558l-183 107h135l77 -107h-29z" />
    <glyph glyph-name="ecircumflex" unicode="&#xea;" horiz-adv-x="448" 
d="M39 0v518h370v-28h-238v-206h158v-28h-158v-228h245v-28h-377zM255 558l-68 84l-68 -84h-23l87 107h73l86 -107h-87z" />
    <glyph glyph-name="edieresis" unicode="&#xeb;" horiz-adv-x="448" 
d="M39 0v518h370v-28h-238v-206h158v-28h-158v-228h245v-28h-377zM185 593q0 -20 -19 -31t-37 -11q-9 0 -18.5 3t-18 8t-14 13t-5.5 18t5.5 18t14 13.5t18 8t18.5 2.5q18 0 37 -10.5t19 -31.5zM365 593q0 -20 -19 -31t-37 -11t-37 11t-19 31q0 21 19 31.5t37 10.5t37 -10.5
t19 -31.5z" />
    <glyph glyph-name="iacute" unicode="&#xed;" horiz-adv-x="210" 
d="M39 0v518h132v-518h-132zM66 558h-28l76 107h136z" />
    <glyph glyph-name="igrave" unicode="&#xec;" horiz-adv-x="210" 
d="M39 0v518h132v-518h-132zM144 558l-184 107h136l76 -107h-28z" />
    <glyph glyph-name="icircumflex" unicode="&#xee;" horiz-adv-x="210" 
d="M39 0v518h132v-518h-132zM141 558l-68 84l-68 -84h-23l86 107h74l86 -107h-87z" />
    <glyph glyph-name="idieresis" unicode="&#xef;" horiz-adv-x="210" 
d="M39 0v518h132v-518h-132zM71 593q0 -20 -19 -31t-37 -11t-37 11t-19 31q0 21 19 31.5t37 10.5t37 -10.5t19 -31.5zM251 593q0 -20 -19 -31t-37 -11t-37 11t-19 31q0 21 19 31.5t37 10.5t37 -10.5t19 -31.5z" />
    <glyph glyph-name="ntilde" unicode="&#xf1;" horiz-adv-x="490" 
d="M405 586q-9 -19 -26.5 -27t-36.5 -8q-18 0 -37 6t-36 13.5l-30.5 13.5t-21.5 6q-14 0 -26 -11.5t-18 -25.5l-88 46q9 19 26 27t36 8t38 -6.5t36 -14l30 -13.5t21 -6q15 0 26.5 12t18.5 26l88 -46v0zM319 0l-243 415v-415h-37v518h132l243 -415v415h37v-518h-132z" />
    <glyph glyph-name="oacute" unicode="&#xf3;" horiz-adv-x="560" 
d="M402 259q0 28 -5.5 68.5t-19.5 78t-37.5 64.5t-59.5 27t-59 -27t-37 -64.5t-19.5 -78t-5.5 -68.5t5.5 -68.5t19.5 -78t37 -64.5t59 -27t59.5 27t37.5 64.5t19.5 78t5.5 68.5zM534 259q0 -57 -18 -105.5t-51 -84.5t-80 -56t-105 -20t-105 20t-80 56t-50.5 84.5
t-17.5 105.5t17.5 105.5t50.5 84.5t80 56t105 20t105 -20t80 -56t51 -84.5t18 -105.5zM269 558h-29l77 107h135z" />
    <glyph glyph-name="ograve" unicode="&#xf2;" horiz-adv-x="560" 
d="M402 259q0 28 -5.5 68.5t-19.5 78t-37.5 64.5t-59.5 27t-59 -27t-37 -64.5t-19.5 -78t-5.5 -68.5t5.5 -68.5t19.5 -78t37 -64.5t59 -27t59.5 27t37.5 64.5t19.5 78t5.5 68.5zM534 259q0 -57 -18 -105.5t-51 -84.5t-80 -56t-105 -20t-105 20t-80 56t-50.5 84.5
t-17.5 105.5t17.5 105.5t50.5 84.5t80 56t105 20t105 -20t80 -56t51 -84.5t18 -105.5zM284 558l-183 107h135l77 -107h-29z" />
    <glyph glyph-name="ocircumflex" unicode="&#xf4;" horiz-adv-x="560" 
d="M402 259q0 28 -5.5 68.5t-19.5 78t-37.5 64.5t-59.5 27t-59 -27t-37 -64.5t-19.5 -78t-5.5 -68.5t5.5 -68.5t19.5 -78t37 -64.5t59 -27t59.5 27t37.5 64.5t19.5 78t5.5 68.5zM534 259q0 -57 -18 -105.5t-51 -84.5t-80 -56t-105 -20t-105 20t-80 56t-50.5 84.5
t-17.5 105.5t17.5 105.5t50.5 84.5t80 56t105 20t105 -20t80 -56t51 -84.5t18 -105.5zM348 558l-68 84l-68 -84h-23l86 107h74l86 -107h-87z" />
    <glyph glyph-name="odieresis" unicode="&#xf6;" horiz-adv-x="560" 
d="M402 259q0 28 -5.5 68.5t-19.5 78t-37.5 64.5t-59.5 27t-59 -27t-37 -64.5t-19.5 -78t-5.5 -68.5t5.5 -68.5t19.5 -78t37 -64.5t59 -27t59.5 27t37.5 64.5t19.5 78t5.5 68.5zM534 259q0 -57 -18 -105.5t-51 -84.5t-80 -56t-105 -20t-105 20t-80 56t-50.5 84.5
t-17.5 105.5t17.5 105.5t50.5 84.5t80 56t105 20t105 -20t80 -56t51 -84.5t18 -105.5zM246 593q0 -20 -19 -31t-37 -11t-37 11t-19 31q0 21 19 31.5t37 10.5t37 -10.5t19 -31.5zM426 593q0 -20 -19 -31t-37 -11t-37 11t-19 31q0 21 19 31.5t37 10.5t37 -10.5t19 -31.5z" />
    <glyph glyph-name="otilde" unicode="&#xf5;" horiz-adv-x="560" 
d="M440 586q-9 -20 -26 -27.5t-36 -7.5t-38 6t-36 13.5l-30.5 13.5t-20.5 6q-15 0 -26.5 -11.5t-18.5 -25.5l-88 46q9 19 26.5 27t36.5 8q18 0 37 -6.5t36 -14l30.5 -13.5t21.5 -6q14 0 26 12t18 26l88 -46v0zM402 259q0 28 -5.5 68.5t-19.5 78t-37.5 64.5t-59.5 27t-59 -27
t-37 -64.5t-19.5 -78t-5.5 -68.5t5.5 -68.5t19.5 -78t37 -64.5t59 -27t59.5 27t37.5 64.5t19.5 78t5.5 68.5zM534 259q0 -57 -18 -105.5t-51 -84.5t-80 -56t-105 -20t-105 20t-80 56t-50.5 84.5t-17.5 105.5t17.5 105.5t50.5 84.5t80 56t105 20t105 -20t80 -56t51 -84.5
t18 -105.5z" />
    <glyph glyph-name="uacute" unicode="&#xfa;" horiz-adv-x="533" 
d="M494 204q0 -98 -53 -154.5t-169 -56.5q-52 0 -95 15.5t-73.5 43.5t-47.5 67t-17 85v314h132v-314q0 -39 10 -72.5t28.5 -58t45 -38.5t59.5 -14q37 0 64 15.5t44.5 41t26 58.5t8.5 68v314h37v-314v0zM242 558h-28l76 107h136z" />
    <glyph glyph-name="ugrave" unicode="&#xf9;" horiz-adv-x="533" 
d="M494 204q0 -98 -53 -154.5t-169 -56.5q-52 0 -95 15.5t-73.5 43.5t-47.5 67t-17 85v314h132v-314q0 -39 10 -72.5t28.5 -58t45 -38.5t59.5 -14q37 0 64 15.5t44.5 41t26 58.5t8.5 68v314h37v-314v0zM301 558l-184 107h136l76 -107h-28z" />
    <glyph glyph-name="ucircumflex" unicode="&#xfb;" horiz-adv-x="533" 
d="M494 204q0 -98 -53 -154.5t-169 -56.5q-52 0 -95 15.5t-73.5 43.5t-47.5 67t-17 85v314h132v-314q0 -39 10 -72.5t28.5 -58t45 -38.5t59.5 -14q37 0 64 15.5t44.5 41t26 58.5t8.5 68v314h37v-314v0zM329 558l-68 84l-68 -84h-23l86 107h74l86 -107h-87z" />
    <glyph glyph-name="udieresis" unicode="&#xfc;" horiz-adv-x="533" 
d="M494 204q0 -98 -53 -154.5t-169 -56.5q-52 0 -95 15.5t-73.5 43.5t-47.5 67t-17 85v314h132v-314q0 -39 10 -72.5t28.5 -58t45 -38.5t59.5 -14q37 0 64 15.5t44.5 41t26 58.5t8.5 68v314h37v-314v0zM258 593q0 -20 -19 -31t-37 -11t-37 11t-19 31q0 21 19 31.5t37 10.5
t37 -10.5t19 -31.5zM438 593q0 -10 -5.5 -18t-14 -13t-18 -8t-18.5 -3q-18 0 -37 11t-19 31q0 21 19 31.5t37 10.5q9 0 18.5 -2.5t18 -8t14 -13.5t5.5 -18z" />
    <glyph glyph-name="dagger" unicode="&#x2020;" horiz-adv-x="592" 
d="M342 487l-24 -719h-45l-23 719h-205v30h222l-17 203h92l-18 -203h223v-30h-205z" />
    <glyph glyph-name="degree" unicode="&#xb0;" horiz-adv-x="438" 
d="M315 588q0 15 -4.5 33t-16 34t-30 26.5t-45.5 10.5q-28 0 -46.5 -10.5t-30 -26.5t-16 -34t-4.5 -33t4.5 -32.5t16 -33.5t30 -26.5t46.5 -10.5q27 0 45.5 10.5t30 26.5t16 33.5t4.5 32.5zM401 588q0 -32 -14.5 -58t-39.5 -44.5t-58 -28.5t-70 -10q-38 0 -71 10t-57.5 28.5
t-39 44.5t-14.5 58q0 33 14.5 59t39 44.5t57.5 28.5t71 10q37 0 70 -10t58 -28.5t39.5 -44.5t14.5 -59z" />
    <glyph glyph-name="cent" unicode="&#xa2;" horiz-adv-x="575" 
d="M538 240q-29 -69 -90.5 -109t-148.5 -40q-22 0 -41 3l-16 -94h-30l16 99q-45 10 -80 33.5t-60 57.5t-38 77t-13 93q0 59 18.5 108.5t52.5 85t82.5 55.5t108.5 20h9t9 -1l15 92h31l-16 -95q69 -10 117.5 -47.5t73.5 -97.5h-125q-7 24 -18 46t-25 38t-32 25.5t-39 9.5
q-35 0 -59.5 -25.5t-40.5 -62.5t-23 -78.5t-7 -72.5t7 -72.5t23 -78.5t40.5 -62.5t59.5 -25.5q21 0 39 9.5t32 25.5t25 38t18 46h125v0z" />
    <glyph glyph-name="sterling" unicode="&#xa3;" horiz-adv-x="679" 
d="M691 70q-25 -42 -65 -61t-87 -19t-84 13.5t-69.5 29.5l-61 29.5t-57.5 13.5q-22 0 -41 -7.5t-35.5 -19.5t-30.5 -27.5t-26 -31.5l-112 69l30 42t32 48.5t25 52.5t10 54q0 29 -9.5 53.5t-23.5 50.5h-90v30h74q-13 23 -23 49t-10 58q0 57 22.5 100.5t59.5 73t85.5 44.5
t101.5 15q52 0 101 -15t86.5 -44.5t59.5 -73t22 -100.5h-131q0 31 -8 66.5t-24.5 66t-43 50.5t-62.5 20t-62 -20t-42.5 -50.5t-24.5 -66t-8 -66.5q0 -28 9.5 -54.5t21.5 -52.5h232v-30h-218q16 -33 28 -66t12 -68q0 -31 -10 -59t-27 -54q19 -2 37 -7t38 -7q22 -3 41 -10.5
t37 -16t36.5 -14.5t39.5 -6q42 0 77 26t55 61l113 -69v0z" />
    <glyph glyph-name="section" unicode="&#xa7;" horiz-adv-x="611" 
d="M442 244q0 30 -9 55.5t-26.5 45t-43 30.5t-58.5 11t-58 -11t-42.5 -30.5t-26.5 -45t-9 -55.5t9 -55.5t26.5 -45t42.5 -30.5t58 -11t58.5 11t43 30.5t26.5 45t9 55.5zM574 -70q0 -36 -18.5 -67.5t-53.5 -55t-84.5 -36.5t-112.5 -13q-62 0 -112 13t-84.5 36.5t-53 55
t-18.5 67.5h132q0 -30 9 -55.5t26.5 -45t42.5 -30.5t58 -11t58.5 11t43 30.5t26.5 45t9 55.5t-9 55.5t-26.5 45t-43 30.5t-58.5 11q-62 0 -112 13t-84.5 36.5t-53 55t-18.5 67.5q0 54 39.5 96.5t112.5 60.5q-73 18 -112.5 60.5t-39.5 96.5q0 36 18.5 67.5t53 55t84.5 36.5
t112 13q63 0 112.5 -13t84.5 -36.5t53.5 -55t18.5 -67.5h-132q0 30 -9 55.5t-26.5 45t-43 30.5t-58.5 11t-58 -11t-42.5 -30.5t-26.5 -45t-9 -55.5t9 -55.5t26.5 -45t42.5 -30.5t58 -11q63 0 112.5 -13t84.5 -36.5t53.5 -55t18.5 -67.5q0 -54 -39.5 -96.5t-113.5 -60.5
q74 -18 113.5 -60.5t39.5 -96.5z" />
    <glyph glyph-name="bullet" unicode="&#x2022;" horiz-adv-x="298" 
d="M261 360q0 -23 -9 -43.5t-24 -35.5t-35.5 -24t-43.5 -9t-43.5 9t-35.5 24t-24 35.5t-9 43.5t9 43.5t24 35.5t35.5 24t43.5 9t43.5 -9t35.5 -24t24 -35.5t9 -43.5z" />
    <glyph glyph-name="paragraph" unicode="&#xb6;" horiz-adv-x="585" 
d="M531 700v-932h-92v932h-108v-932h-91v547q-42 0 -79 16t-64.5 43.5t-43.5 64t-16 78.5t16 79t43.5 64.5t64.5 43.5t79 16h345v-20h-54z" />
    <glyph glyph-name="germandbls" unicode="&#xdf;" horiz-adv-x="787" 
d="M648 133q0 48 -24.5 80t-69.5 32q-48 0 -86 10.5t-65 29.5t-41.5 44.5t-14.5 55.5q0 32 -8 53.5t-21.5 34.5t-32.5 18.5t-41 5.5q-36 0 -60.5 -32t-24.5 -80t19.5 -80t54.5 -32q52 0 94 -10.5t71 -29.5t45 -44.5t16 -55.5q0 -48 25 -80t70 -32t69.5 32t24.5 80zM780 133
q0 -30 -16 -55.5t-45.5 -44.5t-71 -29.5t-93.5 -10.5t-92.5 11t-68.5 31q-27 -20 -67.5 -31t-92.5 -11t-93.5 10.5t-71 29.5t-45.5 44.5t-16 55.5h132q0 -48 24.5 -80t69.5 -32t69.5 32t24.5 80t-24.5 80t-69.5 32q-47 0 -85 10.5t-65 29.5t-41.5 44.5t-14.5 55.5
q0 34 16 60t45 44t68.5 27t87.5 9q50 0 89 -12t71 -32q25 20 63 32t87 12q47 0 85 -10.5t65 -29.5t41.5 -44.5t14.5 -55.5h-132q0 48 -19.5 80t-54.5 32t-55 -32t-20 -80t20 -80t55 -32q52 0 93.5 -10.5t71 -29.5t45.5 -44.5t16 -55.5z" />
    <glyph glyph-name="registered" unicode="&#xae;" horiz-adv-x="557" 
d="M330 536q0 30 -11.5 51t-32.5 21h-53v-144h53q21 0 32.5 20.5t11.5 51.5zM330 352v39q0 25 -14.5 42.5t-42.5 17.5h-40v-99h-50v269h102q45 0 70 -24.5t25 -60.5q0 -29 -16.5 -50t-45.5 -29q29 -8 45.5 -25.5t16.5 -40.5v-39h-50zM465 488q0 39 -14.5 73t-40 59.5
t-59.5 40t-72 14.5q-39 0 -73 -14.5t-59.5 -40t-40 -59.5t-14.5 -72q0 -39 14.5 -73t40 -59.5t59.5 -40t72 -14.5q39 0 73 14.5t59.5 40t40 59.5t14.5 73v-1zM520 489q0 -50 -19 -94t-51.5 -77t-76.5 -52t-94 -19t-94 19t-77 51.5t-52 76.5t-19 94t19 94t51.5 77t76.5 52
t94 19t94 -19t77 -51.5t52 -76.5t19 -94z" />
    <glyph glyph-name="copyright" unicode="&#xa9;" horiz-adv-x="814" 
d="M611 252q-25 -62 -77 -97.5t-126 -35.5q-51 0 -92 18t-70 50.5t-44.5 76.5t-15.5 96t15.5 96t44.5 76.5t70 50.5t92 18q74 0 126 -35.5t77 -97.5h-95q-7 22 -17 41.5t-23.5 34.5t-30 23.5t-37.5 8.5q-32 0 -55 -22.5t-38 -55.5t-22 -70.5t-7 -67.5t7 -67.5t22 -70.5
t38 -55.5t55 -22.5q21 0 37.5 8.5t30 23.5t23.5 34.5t17 41.5h95v0zM701 360q0 61 -23 114.5t-63 93.5t-93.5 63t-114.5 23t-114.5 -23t-93.5 -63t-63 -93.5t-23 -114.5t23 -114.5t63 -93.5t93.5 -63t114.5 -23t114.5 23t93.5 63t63 93.5t23 114.5zM777 360q0 -77 -29 -144
t-79.5 -117.5t-118 -79.5t-143.5 -29q-77 0 -144 29t-117.5 79.5t-79.5 117.5t-29 144q0 76 29 143.5t79.5 118t117.5 79.5t144 29q76 0 143.5 -29t118 -79.5t79.5 -118t29 -143.5z" />
    <glyph glyph-name="trademark" unicode="&#x2122;" horiz-adv-x="658" 
d="M170 704v-290h-63v290h-62v16h188v-16h-63zM541 414v255l-93 -255h-64l-91 253v-253h-21v306h69l100 -277l100 277h63v-306h-63z" />
    <glyph glyph-name="acute" unicode="&#xb4;" horiz-adv-x="0" 
d="M205 586h-30l115 145h142z" />
    <glyph glyph-name="dieresis" unicode="&#xa8;" horiz-adv-x="0" 
d="M248 622q0 -23 -19.5 -34.5t-39.5 -11.5q-10 0 -20.5 3t-19.5 9t-14.5 14.5t-5.5 19.5q0 22 20 34.5t40 12.5t39.5 -12t19.5 -35zM468 622q0 -11 -5.5 -19.5t-14.5 -14.5t-19.5 -9t-20.5 -3q-20 0 -39.5 11.5t-19.5 34.5t19.5 35t39.5 12t40 -12.5t20 -34.5z" />
    <glyph glyph-name="notequal" unicode="&#x2260;" 
d="M50 316v88h557v-88h-557z" />
    <glyph glyph-name="AE" unicode="&#xc6;" horiz-adv-x="946" 
d="M400 690h-37l-198 -413h235v413zM400 0v247h-249l-118 -247h-33l344 720h547v-30h-359v-300h252v-30h-252v-330h369v-30h-501z" />
    <glyph glyph-name="Oslash" unicode="&#xd8;" horiz-adv-x="761" 
d="M592 360q0 43 -9 87t-28 82l-341 -374q12 -27 28.5 -51.5t37 -43t46 -29.5t55.5 -11q58 0 98.5 34.5t65.5 86t36 110.5t11 109zM547 565q-12 27 -28 51.5t-36.5 43t-46 29.5t-55.5 11q-39 0 -70 -16t-54.5 -43t-40 -61.5t-27 -72.5t-15.5 -76t-5 -71q0 -43 9 -87t29 -82
l340 374v0zM724 360q0 -78 -23.5 -145.5t-68 -117.5t-108 -78.5t-143.5 -28.5q-74 0 -133 24t-103 67l-85 -93l-22 20l86 94q-42 50 -64.5 116t-22.5 142q0 78 23.5 145.5t68 117.5t108 78.5t144.5 28.5q74 0 132.5 -24t102.5 -67l86 93l22 -20l-86 -94q42 -50 64 -116
t22 -142z" />
    <glyph glyph-name="infinity" unicode="&#x221e;" horiz-adv-x="200" 
d="M54 -10v283h92v-283h-92zM54 447v283h92v-283h-92z" />
    <glyph glyph-name="plusminus" unicode="&#xb1;" 
d="M50 34v87h557v-87h-557zM372 388v-211h-87v211h-235v88h234v210h88v-210h235v-88h-235z" />
    <glyph glyph-name="lessequal" unicode="&#x2264;" horiz-adv-x="625" 
d="M612 183q0 -41 -20.5 -76t-59.5 -61t-94.5 -41t-125.5 -15t-125.5 15t-94.5 41t-59.5 61t-20.5 76h132q0 -34 11 -64t32.5 -52t53 -34.5t71.5 -12.5t71.5 12.5t53 34.5t32.5 52t11 64t-11 63.5t-32.5 51.5t-53 34.5t-71.5 12.5q-64 0 -115 15t-86.5 41t-54.5 61t-19 76
q0 40 19 75.5t54.5 61t86.5 40.5t115 15t115.5 -15t87 -40.5t54.5 -61t19 -75.5h-132q0 34 -9.5 63.5t-28 51.5t-45.5 34.5t-61 12.5t-60.5 -12.5t-45 -34.5t-28 -51.5t-9.5 -63.5t9.5 -64t28 -52t45 -34.5t60.5 -12.5q70 0 125.5 -15t94.5 -40.5t59.5 -61t20.5 -75.5z
M337 784h-49l-118 145h62l99 -121l98 121h26z" />
    <glyph glyph-name="greaterequal" unicode="&#x2265;" horiz-adv-x="466" 
d="M459 133q0 -30 -16 -55.5t-45 -44.5t-71 -29.5t-94 -10.5t-93.5 10.5t-71 29.5t-45.5 44.5t-16 55.5h132q0 -48 24.5 -80t69.5 -32t69.5 32t24.5 80t-24.5 80t-69.5 32q-47 0 -85 10.5t-65 29.5t-41.5 44.5t-14.5 55.5t14.5 55.5t41.5 44.5t65 29.5t85 10.5t85.5 -10.5
t65.5 -29.5t41.5 -44.5t14.5 -55.5h-132q0 48 -20 80t-55 32t-54.5 -32t-19.5 -80t19.5 -80t54.5 -32q52 0 94 -10.5t71 -29.5t45 -44.5t16 -55.5zM254 558h-42l-86 107h55l68 -84l68 84h23z" />
    <glyph glyph-name="yen" unicode="&#xa5;" horiz-adv-x="669" 
d="M464 390h91v-30h-107l-48 -78v-50h155v-30h-155v-202h-132v202h-155v30h155v50l-47 78h-108v30h91l-204 330h151l241 -391l242 391h35z" />
    <glyph glyph-name="mu" unicode="&#xb5;" horiz-adv-x="600" 
d="M414 0v70q-18 -32 -50.5 -53.5t-77.5 -23.5q-34 -2 -59 10.5t-41 31.5v-267h-132v750h132v-336q0 -35 7.5 -65t22.5 -51.5t36 -33.5t48 -12t48 12t36 33.5t22.5 51.5t7.5 65v336h132v-518h-132z" />
    <glyph glyph-name="partialdiff" unicode="&#x2202;" horiz-adv-x="502" 
d="M317 195v-195h-132v195l-185 323h150l160 -276l159 276h33zM216 558h-29l77 107h135z" />
    <glyph glyph-name="summation" unicode="&#x2211;" horiz-adv-x="660" 
d="M45 0v30l419 660h-409v30h560v-30l-419 -660h419v-30h-570zM355 784h-50l-117 145h62l98 -121l99 121h25z" />
    <glyph glyph-name="product" unicode="&#x220f;" horiz-adv-x="589" 
d="M420 390q0 42 -8 78t-24 62.5t-38.5 41.5t-52.5 15h-111v-393h111q30 0 52.5 15t38.5 41.5t24 62.5t8 77zM552 390q0 -48 -17.5 -89t-50.5 -71.5t-80 -48t-107 -17.5h-111v-164h-132v720h132v-103h111q60 0 107 -17.5t80 -48t50.5 -72t17.5 -89.5z" />
    <glyph glyph-name="pi" unicode="&#x3c0;" horiz-adv-x="451" 
d="M293 278q0 31 -4 57.5t-12.5 46t-20 30.5t-26.5 11h-59v-290h59q15 0 26.5 11t20 30.5t12.5 46t4 57.5zM425 278q0 -37 -13.5 -68.5t-39 -55t-61.5 -36.5t-81 -13h-59v-105h-132v518h132v-66h59q45 0 81 -13t61.5 -36.5t39 -55.5t13.5 -69z" />
    <glyph glyph-name="integral" unicode="&#x222b;" horiz-adv-x="729" 
d="M692 190q-38 -90 -118 -145t-193 -55q-81 0 -144.5 28.5t-108 78.5t-68 117.5t-23.5 145.5t23.5 145.5t68 117.5t108 78.5t144.5 28.5q113 0 193 -55t118 -145h-123q-11 35 -28 66t-40.5 54t-53 36.5t-66.5 13.5q-39 0 -70 -16t-54.5 -43t-40 -61.5t-27 -72.5t-15.5 -76
t-5 -71q0 -50 11 -109t36.5 -110.5t65.5 -86t99 -34.5q37 0 66.5 13.5t53 36.5t40.5 54t28 66h123v0zM389 784h-49l-118 145h62l99 -121l98 121h26z" />
    <glyph glyph-name="ordfeminine" unicode="&#xaa;" horiz-adv-x="455" 
d="M174 660l-86 -270h171zM318 202l-50 160h-188l-50 -160h-30l162 518h132l161 -518h-137z" />
    <glyph glyph-name="ordmasculine" unicode="&#xba;" horiz-adv-x="560" 
d="M402 464q0 27 -5.5 68t-19.5 78.5t-37.5 64.5t-59.5 27t-59 -27t-37 -64.5t-19.5 -78.5t-5.5 -68q0 -28 5.5 -68.5t19.5 -78t37 -64.5t59 -27t59.5 27t37.5 64.5t19.5 78t5.5 68.5zM534 464q0 -57 -18 -105.5t-51 -84.5t-80 -56t-105 -20t-105 20t-80 56t-50.5 84.5
t-17.5 105.5t17.5 105.5t50.5 84.5t80 56t105 20t105 -20t80 -56t51 -84.5t18 -105.5z" />
    <glyph glyph-name="Omega" unicode="&#x2126;" horiz-adv-x="486" 
d="M32 0v28l271 462h-263v28h413v-28l-271 -462h271v-28h-421zM264 558h-42l-86 107h55l68 -84l68 84h23z" />
    <glyph glyph-name="ae" unicode="&#xe6;" horiz-adv-x="690" 
d="M281 490h-23l-136 -294h159v294zM281 0v167h-172l-78 -167h-31l239 518h412v-28h-238v-206h158v-28h-158v-228h245v-28h-377z" />
    <glyph glyph-name="oslash" unicode="&#xf8;" horiz-adv-x="560" 
d="M402 259q0 21 -4 45.5t-12 48.5l-206 -223q7 -21 16 -41t21 -35t27.5 -24t35.5 -9q36 0 59.5 27t37.5 64.5t19.5 78t5.5 68.5zM380 388q-7 21 -16 41t-21 35t-28 24t-35 9q-36 0 -59 -27t-37 -64.5t-19.5 -78t-5.5 -68.5q0 -21 4 -45.5t12 -48.5l205 223v0zM534 259
q0 -57 -18 -105.5t-51 -84.5t-80 -56t-105 -20q-52 0 -95 16t-75 45l-66 -72l-21 20l67 72q-63 74 -63 185q0 57 17.5 105.5t50.5 84.5t80 56t105 20q52 0 95 -16t75 -45l67 72l20 -20l-67 -72q31 -36 47.5 -83t16.5 -102z" />
    <glyph glyph-name="questiondown" unicode="&#xbf;" horiz-adv-x="586" 
d="M549 -63q0 -38 -17.5 -71.5t-50.5 -58t-80.5 -38.5t-107.5 -14t-107.5 14t-80.5 38.5t-50.5 58t-17.5 71.5q0 37 15.5 69t45.5 56t72.5 39t96.5 18l30 175h30l51 -204q-107 -2 -158 -36.5t-51 -116.5q0 -32 8.5 -59.5t24 -48t38.5 -32.5t53 -12t53 12t38.5 32.5t24 48
t8.5 59.5h132v0zM388 437q0 -15 -7 -26t-18 -18.5t-24.5 -11t-26.5 -3.5q-12 0 -25.5 3.5t-25 11t-18.5 18.5t-7 26q0 14 7 25t18.5 18.5t25 11t25.5 3.5q13 0 26.5 -3.5t24.5 -11t18 -18.5t7 -25z" />
    <glyph glyph-name="exclamdown" unicode="&#xa1;" horiz-adv-x="233" 
d="M50 -232l51 529h30l51 -529h-132zM192 440q0 -15 -7 -26t-18 -18.5t-24.5 -11t-26.5 -3.5q-12 0 -25.5 3.5t-25 11t-18.5 18.5t-7 26q0 14 7 25t18.5 18.5t25 11t25.5 3.5q13 0 26.5 -3.5t24.5 -11t18 -18.5t7 -25z" />
    <glyph glyph-name="logicalnot" unicode="&#xac;" horiz-adv-x="427" 
d="M39 0v178l-39 -27v35l39 27v305h132v-213l124 87v-34l-124 -87v-243h223v-28h-355z" />
    <glyph glyph-name="radical" unicode="&#x221a;" horiz-adv-x="536" 
d="M378 259q0 49 -7.5 91.5t-21.5 73.5t-34.5 48.5t-46.5 17.5h-97v-206h98v-28h-98v-228h97q26 0 46.5 17.5t34.5 48.5t21.5 73.5t7.5 91.5zM510 259q0 -56 -17 -103t-48.5 -82t-76 -54.5t-100.5 -19.5h-229v256h-39v28h39v234h229q56 0 100.5 -19.5t76 -54.5t48.5 -82.5
t17 -102.5z" />
    <glyph glyph-name="florin" unicode="&#x192;" horiz-adv-x="320" 
d="M355 679q-3 5 -11.5 10.5t-22.5 5.5t-23.5 -16t-13.5 -34l-57 -255h75v-30h-83l-108 -481q-14 -62 -53 -91.5t-112 -29.5q-37 0 -62 14l10 37q3 -5 11 -10.5t22 -5.5q15 0 24.5 16t13.5 34l118 517h-76v30h83l48 219q14 62 53 91.5t112 29.5q36 0 61 -14z" />
    <glyph glyph-name="approxequal" unicode="&#x2248;" 
d="M545 81l-217 217l-216 -217l-62 62l216 217l-216 217l62 62l216 -217l217 217l62 -62l-216 -217l216 -217z" />
    <glyph glyph-name="Delta" unicode="&#x2206;" horiz-adv-x="537" 
d="M511 140q-29 -67 -88 -107t-143 -40q-58 0 -105 20t-80 56t-50.5 84.5t-17.5 105.5t17.5 105.5t50.5 84.5t80 56t105 20q84 0 143 -40t88 -107h-123q-6 24 -15.5 45.5t-23 38t-30.5 26t-39 9.5q-36 0 -59 -27t-37 -64.5t-19.5 -78t-5.5 -68.5t5.5 -68.5t19.5 -78
t37 -64.5t59 -27q22 0 39 9.5t30.5 26t23 38t15.5 45.5h123v0zM290 558h-42l-86 107h55l68 -84l68 84h23z" />
    <glyph glyph-name="guillemotleft" unicode="&#xab;" horiz-adv-x="407" 
d="M207 209v113l155 122v-46l-105 -83l105 -81v-146zM45 209v113l155 122v-46l-105 -83l105 -81v-146z" />
    <glyph glyph-name="guillemotright" unicode="&#xbb;" horiz-adv-x="407" 
d="M207 88v45l105 84l-105 80v147l155 -122v-113zM45 88v45l106 84l-106 80v147l156 -122v-113z" />
    <glyph glyph-name="ellipsis" unicode="&#x2026;" horiz-adv-x="1007" 
d="M244 71q0 -32 -22 -54t-54 -22t-54 22t-22 54t22 54t54 22t54 -22t22 -54zM579 71q0 -32 -22 -54t-54 -22t-54 22t-22 54t22 54t54 22t54 -22t22 -54zM915 71q0 -32 -22 -54t-54 -22t-54 22t-22 54t22 54t54 22t54 -22t22 -54z" />
    <glyph glyph-name="nonbreakingspace" unicode="&#xa0;" horiz-adv-x="235" 
 />
    <glyph glyph-name="Agrave" unicode="&#xc0;" horiz-adv-x="615" 
d="M254 658l-137 -401h274zM477 0l-76 227h-293l-77 -227h-31l241 720h132l242 -720h-138zM341 784l-227 145h142l115 -145h-30z" />
    <glyph glyph-name="Atilde" unicode="&#xc3;" horiz-adv-x="615" 
d="M516 826q-13 -28 -37 -40t-50 -12t-50.5 9t-47 20.5t-42 20.5t-34.5 9q-22 0 -40 -15.5t-28 -37.5l-88 46q13 29 37 41t50 12q25 0 50 -9.5t47.5 -20.5l42 -20.5t34.5 -9.5q22 0 40 15.5t28 38.5l88 -47v0zM254 658l-137 -401h274zM477 0l-76 227h-293l-77 -227h-31
l241 720h132l242 -720h-138z" />
    <glyph glyph-name="Otilde" unicode="&#xd5;" horiz-adv-x="761" 
d="M589 826q-13 -28 -36.5 -40t-49.5 -12t-50.5 9t-47.5 20.5l-42.5 20.5t-34.5 9q-22 0 -40 -15.5t-28 -37.5l-88 46q13 29 37 41t50 12q25 0 50 -9.5t47.5 -20.5l42.5 -20.5t35 -9.5q22 0 39.5 15.5t27.5 38.5l88 -47v0zM592 360q0 33 -5 71t-15 76t-27 72.5t-40 61.5
t-54 43t-70 16t-70 -16t-54.5 -43t-40 -61.5t-27 -72.5t-15.5 -76t-5 -71q0 -50 11 -109t36.5 -110.5t65.5 -86t99 -34.5q58 0 98.5 34.5t65.5 86t36 110.5t11 109zM724 360q0 -78 -23.5 -145.5t-68 -117.5t-108 -78.5t-143.5 -28.5q-81 0 -144.5 28.5t-108 78.5t-68 117.5
t-23.5 145.5t23.5 145.5t68 117.5t108 78.5t144.5 28.5q80 0 143.5 -28.5t108 -78.5t68 -117.5t23.5 -145.5z" />
    <glyph glyph-name="OE" unicode="&#x152;" horiz-adv-x="1118" 
d="M569 530q-8 31 -25 61.5t-41 54.5t-54.5 39t-67.5 15q-39 0 -70 -16t-54.5 -43t-40 -61.5t-27 -72.5t-15.5 -76t-5 -71q0 -50 11 -109t36.5 -110.5t65.5 -86t99 -34.5q37 0 67.5 15t54.5 39t41 54.5t25 61.5v340zM569 0v76q-31 -39 -77.5 -62.5t-110.5 -23.5
q-81 0 -144.5 28.5t-108 78.5t-68 117.5t-23.5 145.5t23.5 145.5t68 117.5t108 78.5t144.5 28.5q64 0 110.5 -23.5t77.5 -62.5v76h491v-30h-359v-300h252v-30h-252v-330h369v-30h-501z" />
    <glyph glyph-name="oe" unicode="&#x153;" horiz-adv-x="798" 
d="M388 378q-3 19 -12.5 40.5t-23.5 38.5t-32 28.5t-40 11.5q-36 0 -59 -27t-37 -64.5t-19.5 -78t-5.5 -68.5t5.5 -68.5t19.5 -78t37 -64.5t59 -27q22 0 40 11.5t32 28.5t23.5 38t12.5 41v238zM388 0v33q-19 -18 -45.5 -29t-62.5 -11q-58 0 -105 20t-80 56t-50.5 84.5
t-17.5 105.5t17.5 105.5t50.5 84.5t80 56t105 20q36 0 62.5 -11t45.5 -29v33h370v-28h-238v-206h158v-28h-158v-228h244v-28h-376z" />
    <glyph glyph-name="endash" unicode="&#x2013;" horiz-adv-x="594" 
d="M45 225v94h504v-94h-504z" />
    <glyph glyph-name="emdash" unicode="&#x2014;" horiz-adv-x="1098" 
d="M45 225v94h1008v-94h-1008z" />
    <glyph glyph-name="quotedblleft" unicode="&#x201c;" horiz-adv-x="468" 
d="M235 720q-1 -12 -3.5 -31t-6.5 -42t-8 -48.5l-8 -50.5l-21 -124q-3 -15 -13 -26.5t-24 -17.5t-30 -6.5t-31 5.5q-15 5 -27 16t-19 24.5t-7.5 28.5t8.5 28l66 108l27 43l27 41.5l23.5 35.5t18.5 26l28 -10v0zM431 720q-1 -12 -3.5 -31t-6.5 -42t-8 -48.5l-8 -50.5
l-21 -124q-3 -15 -13 -26.5t-24 -17.5t-30 -6.5t-31 5.5q-15 5 -27 16t-19 24.5t-7.5 28.5t8.5 28l66 108l27 43l27 41.5l23.5 35.5t18.5 26l28 -10v0z" />
    <glyph glyph-name="quotedblright" unicode="&#x201d;" horiz-adv-x="468" 
d="M235 629l-66 -108l-28 -43l-26.5 -42t-23.5 -36t-18 -25l-28 10q1 12 3.5 31t6.5 42t8 48.5l8 50.5l22 124q3 15 13 26t23.5 17t29.5 6.5t31 -4.5t27 -16t19 -24.5t7.5 -28.5t-8.5 -28zM431 629l-66 -108l-28 -43l-26.5 -42t-23.5 -36t-18 -25l-28 10q1 12 3.5 31t6.5 42
t8 48.5l8 50.5l22 124q3 15 13 26t23.5 17t29.5 6.5t31 -4.5t27 -16t19 -24.5t7.5 -28.5t-8.5 -28z" />
    <glyph glyph-name="quoteleft" unicode="&#x2018;" horiz-adv-x="272" 
d="M235 720q-1 -12 -3.5 -31t-6.5 -42t-8 -48.5l-8 -50.5l-21 -124q-3 -15 -13 -26.5t-24 -17.5t-30 -6.5t-31 5.5q-15 5 -27 16t-19 24.5t-7.5 28.5t8.5 28l66 108l27 43l27 41.5l23.5 35.5t18.5 26l28 -10v0z" />
    <glyph glyph-name="quoteright" unicode="&#x2019;" horiz-adv-x="272" 
d="M235 629l-66 -108l-28 -43l-26.5 -42t-23.5 -36t-18 -25l-28 10q1 12 3.5 31t6.5 42t8 48.5l8 50.5l22 124q3 15 13 26t23.5 17t29.5 6.5t31 -4.5t27 -16t19 -24.5t7.5 -28.5t-8.5 -28z" />
    <glyph glyph-name="divide" unicode="&#xf7;" 
d="M384 159q0 -23 -16.5 -39.5t-39.5 -16.5t-39.5 16.5t-16.5 39.5t16.5 39.5t39.5 16.5t39.5 -16.5t16.5 -39.5zM50 316v88h557v-88h-557zM384 561q0 -23 -16.5 -39.5t-39.5 -16.5t-39.5 16.5t-16.5 39.5t16.5 39.5t39.5 16.5t39.5 -16.5t16.5 -39.5z" />
    <glyph glyph-name="lozenge" unicode="&#x25ca;" horiz-adv-x="730" 
d="M561 360q0 69 -12.5 129.5t-37 105t-60.5 70t-84 25.5h-181v-300h185v-30h-185v-330h181q48 0 84 25.5t60.5 70t37 105t12.5 129.5zM693 360q0 -76 -22 -141.5t-63.5 -114t-102 -76.5t-138.5 -28h-313v360h-54v30h54v330h313q78 0 138.5 -28t102 -76.5t63.5 -114
t22 -141.5z" />
    <glyph glyph-name="ydieresis" unicode="&#xff;" horiz-adv-x="502" 
d="M317 195v-195h-132v195l-185 323h150l160 -276l159 276h33zM244 593q0 -10 -5.5 -18t-14 -13t-18 -8t-18.5 -3q-18 0 -37 11t-19 31q0 21 19 31.5t37 10.5q9 0 18.5 -2.5t18 -8t14 -13.5t5.5 -18zM423 593q0 -20 -19 -31t-37 -11t-37 11t-19 31q0 21 19 31.5t37 10.5
t37 -10.5t19 -31.5z" />
    <glyph glyph-name="Ydieresis" unicode="&#x178;" horiz-adv-x="669" 
d="M400 282v-282h-132v282l-268 438h151l241 -391l242 391h35zM309 821q0 -11 -5.5 -20t-14.5 -15t-19.5 -9t-20.5 -3q-20 0 -39.5 12t-19.5 35t19.5 34.5t39.5 11.5t40 -12t20 -34zM529 821q0 -11 -5.5 -20t-14.5 -15t-19.5 -9t-20.5 -3t-20.5 3t-19.5 9t-14.5 15t-5.5 20
t5.5 19.5t14.5 14.5t19.5 9t20.5 3q20 0 40 -12t20 -34z" />
    <glyph glyph-name="fraction" unicode="&#x2044;" horiz-adv-x="316" 
d="M32 0h-32l284 720h32z" />
    <glyph glyph-name="currency" unicode="&#xa4;" horiz-adv-x="569" 
d="M440 360q0 33 -10 72.5t-29.5 74t-48.5 57.5t-67 23t-67 -23t-49 -57.5t-30 -74t-10 -72.5t10 -72.5t30 -74t49 -57.5t67 -23t67 23t48.5 57.5t29.5 74t10 72.5zM532 360q0 -47 -16.5 -90t-48.5 -78l62 -61l-15 -15l-62 62q-34 -32 -77 -49t-90 -17t-90 17t-78 49
l-61 -62l-15 15l61 61q-31 35 -48 78t-17 90t17 90t48 78l-61 61l15 15l61 -62q35 32 78 49t90 17q46 0 89.5 -17t77.5 -49l62 62l15 -15l-62 -61q32 -35 48.5 -78t16.5 -90z" />
    <glyph glyph-name="guilsinglleft" unicode="&#x2039;" horiz-adv-x="245" 
d="M45 209v113l155 122v-46l-105 -83l105 -81v-146z" />
    <glyph glyph-name="guilsinglright" unicode="&#x203a;" horiz-adv-x="245" 
d="M45 88v45l105 84l-105 80v147l155 -122v-113z" />
    <glyph glyph-name="fi" unicode="&#xfb01;" 
d="M486 0v518h132v-518h-132zM171 490v-206h158v-28h-158v-256h-132v518h371v-28h-239z" />
    <glyph glyph-name="fl" unicode="&#xfb02;" horiz-adv-x="872" 
d="M485 0v518h132v-490h223v-28h-355zM171 490v-206h158v-28h-158v-256h-132v518h371v-28h-239z" />
    <glyph glyph-name="daggerdbl" unicode="&#x2021;" horiz-adv-x="592" 
d="M324 -30l18 -202h-92l17 202h-222v30h205v488h-205v30h222l-17 202h92l-18 -202h223v-30h-205v-488h205v-30h-223z" />
    <glyph glyph-name="periodcentered" unicode="&#xb7;" horiz-adv-x="233" 
d="M192 360q0 -32 -22 -54t-54 -22q-31 0 -53.5 22t-22.5 54t22.5 54t53.5 22q32 0 54 -22t22 -54z" />
    <glyph glyph-name="quotesinglbase" unicode="&#x201a;" horiz-adv-x="226" 
d="M181 38l-66 -108l-28 -43l-26.5 -42t-23.5 -36t-18 -25l-28 10q1 12 3.5 31t6.5 42t8 48.5l8 50.5l21 124q3 15 13 26t24 17t30 6.5t31 -4.5t27 -16t19 -24.5t7.5 -28.5t-8.5 -28z" />
    <glyph glyph-name="quotedblbase" unicode="&#x201e;" horiz-adv-x="422" 
d="M181 38l-66 -108l-28 -43l-26.5 -42t-23.5 -36t-18 -25l-28 10q1 12 3.5 31t6.5 42t8 48.5l8 50.5l21 124q3 15 13 26t24 17t30 6.5t31 -4.5t27 -16t19 -24.5t7.5 -28.5t-8.5 -28zM377 38l-66 -108l-28 -43l-26.5 -42t-23.5 -36t-18 -25l-28 10q1 12 3.5 31t6.5 42
t8 48.5l8 50.5l21 124q3 15 13 26t24 17t30 6.5t31 -4.5t27 -16t19 -24.5t7.5 -28.5t-8.5 -28z" />
    <glyph glyph-name="perthousand" unicode="&#x2030;" horiz-adv-x="669" 
d="M400 282v-282h-132v282l-268 438h151l241 -391l242 391h35zM276 784h-30l115 145h142z" />
    <glyph glyph-name="Acircumflex" unicode="&#xc2;" horiz-adv-x="615" 
d="M254 658l-137 -401h274zM477 0l-76 227h-293l-77 -227h-31l241 720h132l242 -720h-138zM373 784l-99 121l-98 -121h-26l118 145h79l118 -145h-92z" />
    <glyph glyph-name="Ecircumflex" unicode="&#xca;" horiz-adv-x="600" 
d="M54 0v720h491v-30h-359v-300h252v-30h-252v-330h369v-30h-501zM353 784l-99 121l-99 -121h-25l118 145h79l118 -145h-92z" />
    <glyph glyph-name="Aacute" unicode="&#xc1;" horiz-adv-x="615" 
d="M254 658l-137 -401h274zM477 0l-76 227h-293l-77 -227h-31l241 720h132l242 -720h-138zM269 784h-30l115 145h142z" />
    <glyph glyph-name="Edieresis" unicode="&#xcb;" horiz-adv-x="600" 
d="M54 0v720h491v-30h-359v-300h252v-30h-252v-330h369v-30h-501zM237 821q0 -11 -5.5 -20t-14.5 -15t-19.5 -9t-20.5 -3q-20 0 -39.5 12t-19.5 35t19.5 34.5t39.5 11.5t40 -12t20 -34zM457 821q0 -11 -5.5 -20t-14.5 -15t-19.5 -9t-20.5 -3t-20.5 3t-19.5 9t-14.5 15
t-5.5 20t5.5 19.5t14.5 14.5t19.5 9t20.5 3t20.5 -3t19.5 -9t14.5 -14.5t5.5 -19.5z" />
    <glyph glyph-name="Egrave" unicode="&#xc8;" horiz-adv-x="600" 
d="M54 0v720h491v-30h-359v-300h252v-30h-252v-330h369v-30h-501zM384 784l-227 145h142l115 -145h-30z" />
    <glyph glyph-name="Iacute" unicode="&#xcd;" horiz-adv-x="240" 
d="M54 0v720h132v-720h-132zM81 784h-30l114 145h142z" />
    <glyph glyph-name="Icircumflex" unicode="&#xce;" horiz-adv-x="240" 
d="M54 0v720h132v-720h-132zM185 784l-98 121l-99 -121h-25l117 145h80l117 -145h-92z" />
    <glyph glyph-name="Idieresis" unicode="&#xcf;" horiz-adv-x="240" 
d="M54 0v720h132v-720h-132zM70 821q0 -11 -5.5 -20t-14.5 -15t-19.5 -9t-20.5 -3t-20.5 3t-19.5 9t-14.5 15t-5.5 20t5.5 19.5t14.5 14.5t19.5 9t20.5 3q20 0 40 -12t20 -34zM290 821q0 -11 -5.5 -20t-14.5 -15t-19.5 -9t-20.5 -3t-20.5 3t-19.5 9t-14.5 15t-5.5 20
q0 22 20 34t40 12q10 0 20.5 -3t19.5 -9t14.5 -14.5t5.5 -19.5z" />
    <glyph glyph-name="Igrave" unicode="&#xcc;" horiz-adv-x="240" 
d="M54 0v720h132v-720h-132zM159 784l-226 145h142l114 -145h-30z" />
    <glyph glyph-name="Oacute" unicode="&#xd3;" horiz-adv-x="761" 
d="M592 360q0 33 -5 71t-15 76t-27 72.5t-40 61.5t-54 43t-70 16t-70 -16t-54.5 -43t-40 -61.5t-27 -72.5t-15.5 -76t-5 -71q0 -50 11 -109t36.5 -110.5t65.5 -86t99 -34.5q58 0 98.5 34.5t65.5 86t36 110.5t11 109zM724 360q0 -78 -23.5 -145.5t-68 -117.5t-108 -78.5
t-143.5 -28.5q-81 0 -144.5 28.5t-108 78.5t-68 117.5t-23.5 145.5t23.5 145.5t68 117.5t108 78.5t144.5 28.5q80 0 143.5 -28.5t108 -78.5t68 -117.5t23.5 -145.5zM367 784h-30l115 145h142z" />
    <glyph glyph-name="Ocircumflex" unicode="&#xd4;" horiz-adv-x="761" 
d="M592 360q0 33 -5 71t-15 76t-27 72.5t-40 61.5t-54 43t-70 16t-70 -16t-54.5 -43t-40 -61.5t-27 -72.5t-15.5 -76t-5 -71q0 -50 11 -109t36.5 -110.5t65.5 -86t99 -34.5q58 0 98.5 34.5t65.5 86t36 110.5t11 109zM724 360q0 -78 -23.5 -145.5t-68 -117.5t-108 -78.5
t-143.5 -28.5q-81 0 -144.5 28.5t-108 78.5t-68 117.5t-23.5 145.5t23.5 145.5t68 117.5t108 78.5t144.5 28.5q80 0 143.5 -28.5t108 -78.5t68 -117.5t23.5 -145.5zM476 784l-99 121l-98 -121h-26l118 145h79l118 -145h-92z" />
    <glyph glyph-name="apple" unicode="&#xf8ff;" horiz-adv-x="590" 
d="M54 0v258l-54 -38v36l54 38v426h132v-333l203 142v-37l-203 -142v-320h359v-30h-491z" />
    <glyph glyph-name="Ograve" unicode="&#xd2;" horiz-adv-x="761" 
d="M592 360q0 33 -5 71t-15 76t-27 72.5t-40 61.5t-54 43t-70 16t-70 -16t-54.5 -43t-40 -61.5t-27 -72.5t-15.5 -76t-5 -71q0 -50 11 -109t36.5 -110.5t65.5 -86t99 -34.5q58 0 98.5 34.5t65.5 86t36 110.5t11 109zM724 360q0 -78 -23.5 -145.5t-68 -117.5t-108 -78.5
t-143.5 -28.5q-81 0 -144.5 28.5t-108 78.5t-68 117.5t-23.5 145.5t23.5 145.5t68 117.5t108 78.5t144.5 28.5q80 0 143.5 -28.5t108 -78.5t68 -117.5t23.5 -145.5zM384 784l-227 145h142l115 -145h-30z" />
    <glyph glyph-name="Uacute" unicode="&#xda;" horiz-adv-x="707" 
d="M653 281q0 -65 -17.5 -118.5t-54 -92t-92 -59.5t-130.5 -21q-70 0 -126.5 22t-96 61t-61 92.5t-21.5 115.5v439h132v-439q0 -55 14.5 -102.5t42 -83t67 -55.5t90.5 -20q54 0 94.5 21.5t67 58t39.5 83.5t13 98v439h39v-439v0zM328 784h-30l114 145h142z" />
    <glyph glyph-name="Ucircumflex" unicode="&#xdb;" horiz-adv-x="707" 
d="M653 281q0 -65 -17.5 -118.5t-54 -92t-92 -59.5t-130.5 -21q-70 0 -126.5 22t-96 61t-61 92.5t-21.5 115.5v439h132v-439q0 -55 14.5 -102.5t42 -83t67 -55.5t90.5 -20q54 0 94.5 21.5t67 58t39.5 83.5t13 98v439h39v-439v0zM444 784l-99 121l-98 -121h-26l118 145h79
l118 -145h-92z" />
    <glyph glyph-name="Ugrave" unicode="&#xd9;" horiz-adv-x="707" 
d="M653 281q0 -65 -17.5 -118.5t-54 -92t-92 -59.5t-130.5 -21q-70 0 -126.5 22t-96 61t-61 92.5t-21.5 115.5v439h132v-439q0 -55 14.5 -102.5t42 -83t67 -55.5t90.5 -20q54 0 94.5 21.5t67 58t39.5 83.5t13 98v439h39v-439v0zM392 784l-227 145h142l115 -145h-30z" />
    <glyph glyph-name="dotlessi" unicode="&#x131;" horiz-adv-x="210" 
d="M39 0v518h132v-518h-132z" />
    <glyph glyph-name="circumflex" unicode="&#x2c6;" horiz-adv-x="0" 
d="M366 586l-98 121l-99 -121h-25l117 145h80l117 -145h-92z" />
    <glyph glyph-name="tilde" unicode="&#x2dc;" horiz-adv-x="0" 
d="M507 628q-13 -29 -37 -41t-50 -12t-50.5 9.5t-47 20.5l-42 20.5t-34.5 9.5q-22 0 -40 -15.5t-28 -38.5l-88 47q13 28 37 40t50 12q25 0 50 -9t47.5 -20.5t42 -20.5t34.5 -9q22 0 40 15.5t28 38.5l88 -47v0z" />
    <glyph glyph-name="macron" unicode="&#xaf;" horiz-adv-x="0" 
d="M152 586v46h293v-46h-293z" />
    <glyph glyph-name="breve" unicode="&#x2d8;" horiz-adv-x="0" 
d="M446 683q-6 -50 -46 -78.5t-102 -28.5q-61 0 -101 28.5t-46 78.5h57q3 -11 8 -27t15 -30t26.5 -24t40.5 -10q25 0 41 10t26.5 24t15.5 30t8 27h57v0z" />
    <glyph glyph-name="dotaccent" unicode="&#x2d9;" horiz-adv-x="0" 
d="M358 622q0 -11 -5.5 -19.5t-14.5 -14.5t-19.5 -9t-20.5 -3q-20 0 -39.5 11.5t-19.5 34.5t19.5 35t39.5 12t40 -12.5t20 -34.5z" />
    <glyph glyph-name="ring" unicode="&#x2da;" horiz-adv-x="0" 
d="M374 682q0 11 -3.5 26.5t-12 29.5t-23.5 24t-37 10q-23 0 -37.5 -10t-23 -24t-12 -29.5t-3.5 -26.5t3.5 -26.5t12 -29.5t23 -24t37.5 -10q22 0 37 10t23.5 24t12 29.5t3.5 26.5zM432 682q0 -49 -38.5 -77.5t-95.5 -28.5t-95.5 28.5t-38.5 77.5t38.5 77.5t95.5 28.5
t95.5 -28.5t38.5 -77.5z" />
    <glyph glyph-name="cedilla" unicode="&#xb8;" horiz-adv-x="0" 
d="M447 -155q0 -16 -13 -30t-36 -24.5t-55 -17t-69 -6.5q-43 0 -78 11l28 38q8 -11 20.5 -17.5t29.5 -6.5q29 0 45.5 15.5t16.5 37.5t-16.5 37.5t-45.5 15.5q-18 0 -29.5 -6.5t-20.5 -17.5l-74 45l60 82h104l-57 -80q13 3 26 2q36 0 66 -6.5t52 -17t34 -24.5t12 -30z" />
    <glyph glyph-name="hungarumlaut" unicode="&#x2dd;" horiz-adv-x="0" 
d="M100 586h-30l115 145h142zM310 586h-30l115 145h142z" />
    <glyph glyph-name="ogonek" unicode="&#x2db;" horiz-adv-x="0" 
d="M399 -167q-18 -20 -45 -30t-54 -10q-19 0 -38 5.5t-34.5 16t-25 26.5t-9.5 38q0 24 10.5 43t26.5 34t36 25.5t39 18.5h60q-18 -8 -34.5 -19.5t-30 -26.5t-21.5 -32.5t-8 -38.5q0 -18 11 -34.5t32 -16.5q16 0 30.5 9t22.5 21l32 -29v0z" />
    <glyph glyph-name="caron" unicode="&#x2c7;" horiz-adv-x="0" 
d="M323 586h-49l-118 145h62l99 -122l98 122h26z" />
    <glyph glyph-name="NULL" horiz-adv-x="0" 
 />
    </font>
</defs>
</svg>
